<svg width="246" height="38" viewBox="0 0 246 38" fill="none" xmlns="http://www.w3.org/2000/svg">
<rect y="1" width="35.9999" height="35.9995" fill="#5974FF"/>
<path d="M25.9999 21.0009V17.001H19.9999V21.0009H25.9999Z" fill="white"/>
<path d="M10 10.9985H6.00003V26.9983H10V10.9985Z" fill="white"/>
<path d="M25.9999 30.9985V26.9985H9.99998V30.9985H25.9999Z" fill="white"/>
<path d="M25.9999 10.9975V6.99756L9.99998 6.99756V10.9975H25.9999Z" fill="white"/>
<path d="M29.9999 10.9985H25.9999V26.9983H29.9999V10.9985Z" fill="white"/>
<path d="M19.9998 10.9985H15.9998V16.9985H19.9998V10.9985Z" fill="white"/>
<path d="M46.0475 19.7522C45.9175 19.7522 45.8005 19.7457 45.6965 19.7327C45.5925 19.7327 45.508 19.7262 45.443 19.7132C45.352 19.7002 45.274 19.6807 45.209 19.6547V18.1532C45.274 18.1662 45.3455 18.1792 45.4235 18.1922C45.4885 18.2052 45.56 18.2117 45.638 18.2117C45.729 18.2117 45.8265 18.2117 45.9305 18.2117C46.4895 18.2117 46.899 18.0557 47.159 17.7437C47.432 17.4317 47.679 16.9703 47.9 16.3593L48.0755 15.8718L44 5.4394H46.0085L49.031 13.5903H49.1675L52.2485 5.4394H54.101L49.967 15.7743C49.668 16.5023 49.395 17.1197 49.148 17.6267C48.914 18.1337 48.654 18.5432 48.368 18.8552C48.082 19.1672 47.757 19.3947 47.393 19.5377C47.029 19.6807 46.5805 19.7522 46.0475 19.7522Z" fill="#232431"/>
<path d="M61.9751 11.5428C61.6761 11.6078 61.2861 11.6728 60.8051 11.7378C60.3241 11.7898 59.8236 11.8158 59.3036 11.8158C58.1466 11.8158 57.2236 11.5818 56.5346 11.1138C55.8586 10.6458 55.5206 9.91134 55.5206 8.91036V5.4394H57.3536V8.36437C57.3536 8.74136 57.3861 9.05986 57.4511 9.31985C57.5291 9.56685 57.6591 9.76835 57.8411 9.92434C58.0231 10.0673 58.2636 10.1713 58.5626 10.2363C58.8746 10.3013 59.2646 10.3338 59.7326 10.3338C60.5256 10.3338 61.2731 10.2753 61.9751 10.1583V5.4394H63.8081V15.3843H61.9751V11.5428Z" fill="#232431"/>
<path d="M68.282 10.8213C68.386 11.8483 68.737 12.6413 69.335 13.2003C69.933 13.7463 70.739 14.0193 71.753 14.0193C72.351 14.0193 72.936 13.9478 73.508 13.8048C74.093 13.6488 74.574 13.4603 74.951 13.2393V15.0333C74.639 15.1373 74.21 15.2478 73.664 15.3648C73.118 15.4818 72.442 15.5403 71.636 15.5403C69.946 15.5403 68.646 15.0723 67.736 14.1363C66.839 13.2003 66.3905 11.9003 66.3905 10.2363C66.3905 9.48235 66.5075 8.79986 66.7415 8.18887C66.9885 7.57788 67.32 7.05788 67.736 6.62889C68.165 6.19989 68.6655 5.8684 69.2375 5.6344C69.8095 5.4004 70.427 5.28341 71.09 5.28341C72.507 5.28341 73.6185 5.6994 74.4245 6.53139C75.2305 7.36338 75.6334 8.62436 75.6334 10.3143V10.8213H68.282ZM71.0705 6.76539C70.3035 6.76539 69.673 7.01238 69.179 7.50638C68.698 7.98737 68.399 8.63736 68.282 9.45635H73.6835C73.6835 8.59836 73.4365 7.93537 72.9425 7.46738C72.4485 6.99938 71.8245 6.76539 71.0705 6.76539Z" fill="#232431"/>
<path d="M80.4147 6.92138H76.9438V5.4394H85.7187V6.92138H82.2477V15.3843H80.4147V6.92138Z" fill="#232431"/>
<path d="M93.966 19.7522H92.133V5.4394H93.888V6.86288H93.927C94.187 6.51189 94.4665 6.23239 94.7655 6.0244C95.0775 5.8164 95.383 5.6604 95.682 5.5564C95.981 5.4394 96.267 5.3679 96.54 5.3419C96.813 5.30291 97.047 5.28341 97.242 5.28341C97.97 5.28341 98.62 5.4134 99.192 5.6734C99.764 5.9204 100.245 6.27139 100.635 6.72639C101.025 7.18138 101.324 7.72087 101.532 8.34486C101.74 8.95586 101.844 9.61885 101.844 10.3338C101.844 11.0358 101.74 11.7053 101.532 12.3423C101.337 12.9663 101.044 13.5188 100.654 13.9998C100.264 14.4678 99.7899 14.8448 99.2309 15.1308C98.672 15.4038 98.0415 15.5403 97.3395 15.5403C96.5335 15.5403 95.851 15.3908 95.292 15.0918C94.746 14.7798 94.33 14.4418 94.044 14.0778H93.966V19.7522ZM96.9105 14.0583C97.8205 14.0583 98.542 13.7203 99.075 13.0443C99.6209 12.3553 99.8939 11.4323 99.8939 10.2753C99.8939 9.20935 99.6274 8.35787 99.0945 7.72087C98.5745 7.08388 97.866 6.76539 96.969 6.76539C96.046 6.76539 95.3115 7.09688 94.7655 7.75987C94.2325 8.42286 93.966 9.31335 93.966 10.4313C93.966 11.5363 94.2325 12.4203 94.7655 13.0833C95.2985 13.7333 96.0135 14.0583 96.9105 14.0583Z" fill="#232431"/>
<path d="M106.875 15.5403C105.835 15.5403 105.009 15.2803 104.398 14.7603C103.787 14.2273 103.482 13.4928 103.482 12.5568C103.482 11.4648 103.898 10.6328 104.73 10.0608C105.575 9.47585 106.868 9.18335 108.61 9.18335H110.443V8.85186C110.443 8.13687 110.196 7.61688 109.702 7.29188C109.208 6.96688 108.552 6.80439 107.733 6.80439C107.2 6.80439 106.66 6.86938 106.114 6.99938C105.568 7.11638 104.996 7.33738 104.398 7.66237V5.9464C104.892 5.7254 105.458 5.5629 106.095 5.4589C106.732 5.34191 107.356 5.28341 107.967 5.28341C109.332 5.28341 110.391 5.5954 111.145 6.21939C111.899 6.83039 112.276 7.82487 112.276 9.20285V15.3843H110.404V13.8633H110.365C109.949 14.4743 109.416 14.9098 108.766 15.1698C108.129 15.4168 107.499 15.5403 106.875 15.5403ZM107.323 13.9803C107.778 13.9803 108.194 13.9088 108.571 13.7658C108.961 13.6228 109.293 13.4278 109.566 13.1808C109.839 12.9208 110.053 12.6218 110.209 12.2838C110.365 11.9458 110.443 11.5883 110.443 11.2113V10.5873H108.688C108.077 10.5873 107.564 10.6328 107.148 10.7238C106.745 10.8148 106.413 10.9448 106.153 11.1138C105.893 11.2828 105.705 11.4778 105.588 11.6988C105.484 11.9198 105.432 12.1668 105.432 12.4398C105.432 12.9338 105.601 13.3173 105.939 13.5903C106.277 13.8503 106.738 13.9803 107.323 13.9803Z" fill="#232431"/>
<path d="M119.718 15.5403C118.756 15.5403 117.943 15.3648 117.28 15.0138C116.63 14.6498 116.097 14.1428 115.681 13.4928C115.278 12.8298 114.986 12.0368 114.804 11.1138C114.622 10.1908 114.531 9.16385 114.531 8.03287C114.531 7.13588 114.609 6.30389 114.765 5.5369C114.921 4.75691 115.174 4.05492 115.525 3.43093C115.889 2.80694 116.357 2.28045 116.929 1.85145C117.514 1.40946 118.229 1.07796 119.074 0.856964C119.542 0.739967 119.965 0.668468 120.342 0.642468C120.719 0.603468 121.083 0.577468 121.434 0.564468C121.798 0.551469 122.168 0.531969 122.545 0.50597C122.935 0.46697 123.364 0.388971 123.832 0.271973V1.89045C123.143 2.07245 122.48 2.16345 121.843 2.16345C121.206 2.16345 120.563 2.21545 119.913 2.31945C118.652 2.54044 117.735 3.04744 117.163 3.84043C116.604 4.62042 116.299 5.6214 116.247 6.84339L116.227 7.33088H116.325C116.702 6.70689 117.209 6.21289 117.846 5.8489C118.496 5.4719 119.237 5.28341 120.069 5.28341C120.771 5.28341 121.408 5.4134 121.98 5.6734C122.552 5.9204 123.039 6.27139 123.442 6.72639C123.845 7.16838 124.157 7.70787 124.378 8.34486C124.599 8.96886 124.71 9.65785 124.71 10.4118C124.71 11.1528 124.586 11.8418 124.339 12.4788C124.105 13.1028 123.767 13.6423 123.325 14.0973C122.883 14.5523 122.357 14.9098 121.746 15.1698C121.135 15.4168 120.459 15.5403 119.718 15.5403ZM119.718 14.0583C120.186 14.0583 120.602 13.9608 120.966 13.7658C121.343 13.5708 121.661 13.3108 121.921 12.9858C122.194 12.6478 122.402 12.2578 122.545 11.8158C122.688 11.3738 122.76 10.9058 122.76 10.4118C122.76 9.93084 122.688 9.46935 122.545 9.02736C122.415 8.58536 122.22 8.19537 121.96 7.85737C121.7 7.51938 121.382 7.25288 121.005 7.05788C120.628 6.86288 120.199 6.76539 119.718 6.76539C119.237 6.76539 118.808 6.86288 118.431 7.05788C118.054 7.25288 117.729 7.51938 117.456 7.85737C117.196 8.19537 116.994 8.58536 116.851 9.02736C116.721 9.46935 116.656 9.93084 116.656 10.4118C116.656 10.9188 116.728 11.3998 116.871 11.8548C117.027 12.2968 117.235 12.6803 117.495 13.0053C117.768 13.3303 118.093 13.5903 118.47 13.7853C118.847 13.9673 119.263 14.0583 119.718 14.0583Z" fill="#232431"/>
<path d="M131.713 15.5403C130.959 15.5403 130.27 15.4168 129.646 15.1698C129.022 14.9228 128.482 14.5718 128.027 14.1168C127.585 13.6618 127.241 13.1223 126.994 12.4983C126.747 11.8743 126.623 11.1788 126.623 10.4118C126.623 9.65785 126.747 8.96886 126.994 8.34486C127.241 7.70787 127.585 7.16188 128.027 6.70689C128.482 6.25189 129.022 5.9009 129.646 5.6539C130.27 5.4069 130.959 5.28341 131.713 5.28341C132.467 5.28341 133.156 5.4069 133.78 5.6539C134.404 5.9009 134.937 6.25189 135.379 6.70689C135.834 7.16188 136.185 7.70787 136.432 8.34486C136.679 8.96886 136.802 9.65785 136.802 10.4118C136.802 11.1788 136.679 11.8743 136.432 12.4983C136.185 13.1223 135.834 13.6618 135.379 14.1168C134.937 14.5718 134.404 14.9228 133.78 15.1698C133.156 15.4168 132.467 15.5403 131.713 15.5403ZM131.713 14.0583C132.142 14.0583 132.545 13.9738 132.922 13.8048C133.312 13.6358 133.643 13.3953 133.916 13.0833C134.202 12.7583 134.43 12.3748 134.599 11.9328C134.768 11.4778 134.852 10.9708 134.852 10.4118C134.852 9.85284 134.768 9.35235 134.599 8.91036C134.43 8.45536 134.202 8.07187 133.916 7.75987C133.63 7.43488 133.299 7.18788 132.922 7.01888C132.545 6.84988 132.142 6.76539 131.713 6.76539C131.284 6.76539 130.874 6.84988 130.484 7.01888C130.107 7.18788 129.776 7.43488 129.49 7.75987C129.217 8.07187 128.996 8.45536 128.827 8.91036C128.658 9.35235 128.573 9.85284 128.573 10.4118C128.573 10.9708 128.658 11.4778 128.827 11.9328C128.996 12.3748 129.217 12.7583 129.49 13.0833C129.776 13.3953 130.107 13.6358 130.484 13.8048C130.874 13.9738 131.284 14.0583 131.713 14.0583Z" fill="#232431"/>
<path d="M145.326 11.5428C145.027 11.6078 144.637 11.6728 144.156 11.7378C143.675 11.7898 143.174 11.8158 142.654 11.8158C141.497 11.8158 140.574 11.5818 139.885 11.1138C139.209 10.6458 138.871 9.91134 138.871 8.91036V5.4394H140.704V8.36437C140.704 8.74136 140.737 9.05986 140.802 9.31985C140.88 9.56685 141.01 9.76835 141.192 9.92434C141.374 10.0673 141.614 10.1713 141.913 10.2363C142.225 10.3013 142.615 10.3338 143.083 10.3338C143.876 10.3338 144.624 10.2753 145.326 10.1583V5.4394H147.159V15.3843H145.326V11.5428Z" fill="#232431"/>
<path d="M151.633 10.8213C151.737 11.8483 152.088 12.6413 152.686 13.2003C153.284 13.7463 154.09 14.0193 155.104 14.0193C155.702 14.0193 156.287 13.9478 156.859 13.8048C157.444 13.6488 157.925 13.4603 158.302 13.2393V15.0333C157.99 15.1373 157.561 15.2478 157.015 15.3648C156.469 15.4818 155.793 15.5403 154.987 15.5403C153.297 15.5403 151.997 15.0723 151.087 14.1363C150.19 13.2003 149.741 11.9003 149.741 10.2363C149.741 9.48235 149.858 8.79986 150.092 8.18887C150.339 7.57788 150.671 7.05788 151.087 6.62889C151.516 6.19989 152.016 5.8684 152.588 5.6344C153.16 5.4004 153.778 5.28341 154.441 5.28341C155.858 5.28341 156.969 5.6994 157.775 6.53139C158.581 7.36338 158.984 8.62436 158.984 10.3143V10.8213H151.633ZM154.421 6.76539C153.654 6.76539 153.024 7.01238 152.53 7.50638C152.049 7.98737 151.75 8.63736 151.633 9.45635H157.034C157.034 8.59836 156.787 7.93537 156.293 7.46738C155.799 6.99938 155.175 6.76539 154.421 6.76539Z" fill="#232431"/>
<path d="M161.621 5.4394H167.938V6.92138H163.453V15.3843H161.621V5.4394Z" fill="#232431"/>
<path d="M174.235 15.5403C173.481 15.5403 172.792 15.4168 172.168 15.1698C171.544 14.9228 171.005 14.5718 170.55 14.1168C170.108 13.6618 169.763 13.1223 169.516 12.4983C169.269 11.8743 169.146 11.1788 169.146 10.4118C169.146 9.65785 169.269 8.96886 169.516 8.34486C169.763 7.70787 170.108 7.16188 170.55 6.70689C171.005 6.25189 171.544 5.9009 172.168 5.6539C172.792 5.4069 173.481 5.28341 174.235 5.28341C174.989 5.28341 175.678 5.4069 176.302 5.6539C176.926 5.9009 177.459 6.25189 177.901 6.70689C178.356 7.16188 178.707 7.70787 178.954 8.34486C179.201 8.96886 179.325 9.65785 179.325 10.4118C179.325 11.1788 179.201 11.8743 178.954 12.4983C178.707 13.1223 178.356 13.6618 177.901 14.1168C177.459 14.5718 176.926 14.9228 176.302 15.1698C175.678 15.4168 174.989 15.5403 174.235 15.5403ZM174.235 14.0583C174.664 14.0583 175.067 13.9738 175.444 13.8048C175.834 13.6358 176.166 13.3953 176.439 13.0833C176.725 12.7583 176.952 12.3748 177.121 11.9328C177.29 11.4778 177.375 10.9708 177.375 10.4118C177.375 9.85284 177.29 9.35235 177.121 8.91036C176.952 8.45536 176.725 8.07187 176.439 7.75987C176.153 7.43488 175.821 7.18788 175.444 7.01888C175.067 6.84988 174.664 6.76539 174.235 6.76539C173.806 6.76539 173.397 6.84988 173.007 7.01888C172.63 7.18788 172.298 7.43488 172.012 7.75987C171.739 8.07187 171.518 8.45536 171.349 8.91036C171.18 9.35235 171.096 9.85284 171.096 10.4118C171.096 10.9708 171.18 11.4778 171.349 11.9328C171.518 12.3748 171.739 12.7583 172.012 13.0833C172.298 13.3953 172.63 13.6358 173.007 13.8048C173.397 13.9738 173.806 14.0583 174.235 14.0583Z" fill="#232431"/>
<path d="M53.2235 26.0521C53.2235 26.5721 53.0935 27.0011 52.8335 27.3391C52.5865 27.6641 52.216 27.9306 51.722 28.1386V28.1776C52.983 28.5936 53.6135 29.3606 53.6135 30.4786C53.6135 30.8946 53.529 31.2781 53.36 31.6291C53.204 31.98 52.9635 32.2855 52.6385 32.5455C52.3265 32.8055 51.9235 33.0135 51.4295 33.1695C50.9485 33.3125 50.3765 33.384 49.7135 33.384H45.3065V23.4392H49.3235C50.0255 23.4392 50.6235 23.5107 51.1175 23.6537C51.6115 23.7837 52.0145 23.9657 52.3265 24.1997C52.6385 24.4337 52.866 24.7131 53.009 25.0381C53.152 25.3501 53.2235 25.6881 53.2235 26.0521ZM49.7135 31.9021C50.3765 31.9021 50.8575 31.7721 51.1565 31.5121C51.4685 31.2521 51.6245 30.8946 51.6245 30.4396C51.6245 29.9846 51.4685 29.6271 51.1565 29.3671C50.8575 29.0941 50.3765 28.9576 49.7135 28.9576H47.1395V31.9021H49.7135ZM49.3235 27.4756C49.9865 27.4756 50.4675 27.3521 50.7665 27.1051C51.0785 26.8451 51.2345 26.5396 51.2345 26.1886C51.2345 25.8376 51.0785 25.5386 50.7665 25.2916C50.4675 25.0446 49.9865 24.9211 49.3235 24.9211H47.1395V27.4756H49.3235Z" fill="#232431"/>
<path d="M57.8035 37.752H55.9705V23.4392H57.7255V24.8626H57.7645C58.0245 24.5117 58.304 24.2322 58.603 24.0242C58.915 23.8162 59.2205 23.6602 59.5195 23.5562C59.8185 23.4392 60.1045 23.3677 60.3775 23.3417C60.6505 23.3027 60.8845 23.2832 61.0795 23.2832C61.8075 23.2832 62.4575 23.4132 63.0295 23.6732C63.6015 23.9202 64.0825 24.2712 64.4725 24.7261C64.8625 25.1811 65.1615 25.7206 65.3695 26.3446C65.5775 26.9556 65.6815 27.6186 65.6815 28.3336C65.6815 29.0356 65.5775 29.7051 65.3695 30.3421C65.1745 30.9661 64.882 31.5186 64.492 31.9996C64.102 32.4675 63.6275 32.8445 63.0685 33.1305C62.5095 33.4035 61.879 33.54 61.177 33.54C60.371 33.54 59.6885 33.3905 59.1295 33.0915C58.5835 32.7795 58.1675 32.4415 57.8815 32.0775H57.8035V37.752ZM60.748 32.058C61.658 32.058 62.3795 31.7201 62.9125 31.0441C63.4585 30.3551 63.7315 29.4321 63.7315 28.2751C63.7315 27.2091 63.465 26.3576 62.932 25.7206C62.412 25.0836 61.7035 24.7651 60.8065 24.7651C59.8835 24.7651 59.149 25.0966 58.603 25.7596C58.07 26.4226 57.8035 27.3131 57.8035 28.4311C57.8035 29.5361 58.07 30.4201 58.603 31.0831C59.136 31.7331 59.851 32.058 60.748 32.058Z" fill="#232431"/>
<path d="M69.4817 28.8211C69.5857 29.8481 69.9367 30.6411 70.5347 31.2001C71.1327 31.7461 71.9387 32.019 72.9527 32.019C73.5507 32.019 74.1357 31.9476 74.7077 31.8046C75.2927 31.6486 75.7737 31.4601 76.1507 31.2391V33.033C75.8387 33.137 75.4097 33.2475 74.8637 33.3645C74.3177 33.4815 73.6417 33.54 72.8357 33.54C71.1457 33.54 69.8457 33.072 68.9357 32.136C68.0387 31.2001 67.5902 29.9001 67.5902 28.2361C67.5902 27.4821 67.7072 26.7996 67.9412 26.1886C68.1882 25.5776 68.5197 25.0576 68.9357 24.6286C69.3647 24.1997 69.8652 23.8682 70.4372 23.6342C71.0092 23.4002 71.6267 23.2832 72.2897 23.2832C73.7067 23.2832 74.8182 23.6992 75.6242 24.5311C76.4302 25.3631 76.8332 26.6241 76.8332 28.3141V28.8211H69.4817ZM72.2702 24.7651C71.5032 24.7651 70.8727 25.0121 70.3787 25.5061C69.8977 25.9871 69.5987 26.6371 69.4817 27.4561H74.8832C74.8832 26.5981 74.6362 25.9351 74.1422 25.4671C73.6482 24.9991 73.0242 24.7651 72.2702 24.7651Z" fill="#232431"/>
<path d="M79.4695 23.4392H82.2969L85.0074 29.1136L87.7179 23.4392H90.4674V33.384H88.6344V25.1941H88.5954L85.8849 30.8491H84.0519L81.3414 25.1941H81.3024V33.384H79.4695V23.4392Z" fill="#232431"/>
<path d="M94.942 28.8211C95.046 29.8481 95.397 30.6411 95.995 31.2001C96.593 31.7461 97.399 32.019 98.413 32.019C99.011 32.019 99.596 31.9476 100.168 31.8046C100.753 31.6486 101.234 31.4601 101.611 31.2391V33.033C101.299 33.137 100.87 33.2475 100.324 33.3645C99.778 33.4815 99.102 33.54 98.296 33.54C96.606 33.54 95.306 33.072 94.396 32.136C93.499 31.2001 93.0505 29.9001 93.0505 28.2361C93.0505 27.4821 93.1675 26.7996 93.4015 26.1886C93.6485 25.5776 93.98 25.0576 94.396 24.6286C94.825 24.1997 95.3255 23.8682 95.8975 23.6342C96.4695 23.4002 97.087 23.2832 97.75 23.2832C99.167 23.2832 100.279 23.6992 101.085 24.5311C101.891 25.3631 102.294 26.6241 102.294 28.3141V28.8211H94.942ZM97.7305 24.7651C96.9635 24.7651 96.333 25.0121 95.839 25.5061C95.358 25.9871 95.059 26.6371 94.942 27.4561H100.344C100.344 26.5981 100.097 25.9351 99.6025 25.4671C99.1085 24.9991 98.4845 24.7651 97.7305 24.7651Z" fill="#232431"/>
<path d="M104.93 23.4392H106.763V27.4756H111.755V23.4392H113.588V33.384H111.755V28.9576H106.763V33.384H104.93V23.4392Z" fill="#232431"/>
<path d="M116.832 23.4392H118.665V31.2391H118.704L123.267 23.4392H125.587V33.384H123.754V25.5841H123.715L119.152 33.384H116.832V23.4392Z" fill="#232431"/>
</svg>
