<svg width="96" height="36" viewBox="0 0 96 36" fill="none" xmlns="http://www.w3.org/2000/svg">
<rect width="36" height="36" fill="#DA321B"/>
<rect x="16.0005" y="30" width="24" height="4" transform="rotate(-90 16.0005 30)" fill="white"/>
<rect x="4.00049" y="16" width="8" height="4" fill="white"/>
<rect x="32.0005" y="20" width="8" height="4" transform="rotate(-180 32.0005 20)" fill="white"/>
<path fill-rule="evenodd" clip-rule="evenodd" d="M16 30C11.5813 30 8 26.4169 8 21.9991L8 18L12 18L12 21.9991C12 24.2086 13.7913 26 16 26L16 30Z" fill="white"/>
<path fill-rule="evenodd" clip-rule="evenodd" d="M20.0005 6C24.4193 6 28.0005 9.58357 28.0005 14.0013L28.0005 16L24.0005 16L24.0005 14.0013C24.0005 11.7916 22.2091 10 20.0005 10L20.0005 6Z" fill="white"/>
<path d="M43.6184 23.9999V14.0549H52.0814V23.9999H50.2484V15.5369H45.4514V23.9999H43.6184Z" fill="#232431"/>
<path d="M56.0518 28.3679C55.5448 28.3679 55.2133 28.2704 55.2133 28.2704V26.7689C55.2133 26.7689 55.5643 26.8274 55.9348 26.8274C57.0658 26.8274 57.4558 26.1839 57.9043 24.9749L58.0798 24.4874L54.0043 14.0549H56.0128L59.0353 22.2059H59.1718L62.2528 14.0549H64.1053L59.9713 24.3899C58.8013 27.2954 58.1968 28.3679 56.0518 28.3679Z" fill="#232431"/>
<path d="M65.2221 24.1559C64.7541 24.1559 64.3056 24.0389 64.3056 24.0194V22.3619C64.3056 22.3619 64.5981 22.4594 64.8711 22.4594C66.1581 22.4594 66.5871 20.3924 66.5871 14.8349V14.0549H73.9191V23.9999H72.0861V15.5369H68.2446V15.8099C68.2446 21.8549 67.2891 24.1559 65.2221 24.1559Z" fill="#232431"/>
<path d="M77.1531 23.9999V14.0549H78.9861V17.4869H81.3456C84.1731 17.4869 85.4406 18.7739 85.4406 20.7434C85.4406 22.7129 84.1731 23.9999 81.3456 23.9999H77.1531ZM81.3456 18.9689H78.9861V22.5179H81.3456C82.9056 22.5179 83.5686 21.8159 83.5686 20.7434C83.5686 19.6709 82.8861 18.9689 81.3456 18.9689Z" fill="#232431"/>
<path d="M91.8029 24.1559C88.7219 24.1559 86.8304 22.0889 86.8304 19.0274C86.8304 15.9659 88.7804 13.8989 91.8224 13.8989C93.4019 13.8989 94.2989 14.2889 94.2989 14.2889V15.8684C94.2989 15.8684 93.3629 15.3809 92.0174 15.3809C89.9504 15.3809 88.7804 16.7069 88.7804 19.0274C88.7804 21.3479 89.9504 22.6739 91.9979 22.6739C93.3629 22.6739 94.2989 22.1669 94.2989 22.1669V23.7659C94.2989 23.7659 93.3434 24.1559 91.8029 24.1559Z" fill="#232431"/>
</svg>
