<svg width="246" height="36" viewBox="0 0 246 36" fill="none" xmlns="http://www.w3.org/2000/svg">
<rect width="36" height="36" fill="#DA321B"/>
<path d="M19.9895 28.0195H3.98145V32.0195H19.9895V28.0195Z" fill="white"/>
<path d="M19.9895 32.0195L19.9895 20.0161L15.9895 20.0161L15.9895 32.0195L19.9895 32.0195Z" fill="white"/>
<path d="M26.0203 26.0154L26.0203 14.0347L22.0203 14.0347L22.0203 26.0154L26.0203 26.0154Z" fill="white"/>
<path d="M32.0242 20.0252L32.0242 8.04443L28.0242 8.04443L28.0242 20.0252L32.0242 20.0252Z" fill="white"/>
<path d="M7.98144 30.0173L7.98145 16.0137L3.98144 16.0137L3.98144 30.0173L7.98144 30.0173Z" fill="white"/>
<path d="M3.9814 20.0161L15.9895 20.0161L15.9895 16.0161L3.9814 16.0161L3.9814 20.0161Z" fill="white"/>
<path d="M9.98555 14.0347L21.9937 14.0347L21.9937 10.0347L9.98555 10.0347L9.98555 14.0347Z" fill="white"/>
<path d="M15.9895 8.04443L27.9976 8.04443L27.9976 4.04443L15.9895 4.04443L15.9895 8.04443Z" fill="white"/>
<path d="M47.198 22.1569C50.435 22.1569 51.761 20.8504 51.761 19.2514C51.761 18.0619 51.02 17.0869 49.616 16.7749V16.7554C50.786 16.3654 51.371 15.5854 51.371 14.5324C51.371 12.9919 50.1035 11.8999 47.276 11.8999C45.5795 11.8999 44.3705 12.2899 44.3705 12.2899V13.8889C44.3705 13.8889 45.638 13.3819 47.159 13.3819C48.68 13.3819 49.421 13.9084 49.421 14.7469C49.421 15.5464 48.758 16.1119 47.1785 16.1119H45.872V17.5549H47.471C49.0505 17.5549 49.811 18.1399 49.811 19.0564C49.811 20.0704 48.875 20.6749 47.003 20.6749C45.17 20.6749 44 20.0899 44 20.0899V21.6694C44 21.6889 45.1505 22.1569 47.198 22.1569Z" fill="#232431"/>
<path d="M56.6841 22.1569C57.9321 22.1569 59.3361 21.7084 60.1746 20.4799H60.2136V22.0009H62.0856V15.8194C62.0856 13.0699 60.4866 11.8999 57.7761 11.8999C56.5671 11.8999 55.2021 12.1339 54.2076 12.5629V14.2789C55.3971 13.6354 56.4891 13.4209 57.5421 13.4209C59.1801 13.4209 60.2526 14.0449 60.2526 15.4684V15.7999H58.4196C54.9486 15.7999 53.2911 17.0089 53.2911 19.1734C53.2911 21.0259 54.6171 22.1569 56.6841 22.1569ZM57.1326 20.5969C55.9626 20.5969 55.2411 20.0509 55.2411 19.0564C55.2411 17.9839 56.0796 17.2039 58.4976 17.2039H60.2526V17.8279C60.2526 19.3489 58.9461 20.5969 57.1326 20.5969Z" fill="#232431"/>
<path d="M63.6577 20.5189V24.8089H65.4127V22.0009H72.8812V24.8089H74.6362V20.5189H73.1932V12.0559H66.1342L66.0952 13.7329C66.0172 17.3404 65.8417 18.9394 64.8862 20.5189H63.6577ZM67.7137 14.3179L67.7332 13.5379H71.3602V20.5189H66.5047C67.5187 18.9199 67.6357 17.1649 67.7137 14.3179Z" fill="#232431"/>
<path d="M79.1548 22.1569C80.4028 22.1569 81.8069 21.7084 82.6453 20.4799H82.6843V22.0009H84.5563V15.8194C84.5563 13.0699 82.9573 11.8999 80.2468 11.8999C79.0378 11.8999 77.6728 12.1339 76.6783 12.5629V14.2789C77.8678 13.6354 78.9598 13.4209 80.0128 13.4209C81.6508 13.4209 82.7233 14.0449 82.7233 15.4684V15.7999H80.8903C77.4193 15.7999 75.7618 17.0089 75.7618 19.1734C75.7618 21.0259 77.0878 22.1569 79.1548 22.1569ZM79.6033 20.5969C78.4333 20.5969 77.7118 20.0509 77.7118 19.0564C77.7118 17.9839 78.5503 17.2039 80.9683 17.2039H82.7233V17.8279C82.7233 19.3489 81.4168 20.5969 79.6033 20.5969Z" fill="#232431"/>
<path d="M93.4214 22.0009H95.2544V12.0559H93.4214V16.7749C92.7194 16.8919 91.9394 16.9504 91.1789 16.9504C89.3264 16.9504 88.7999 16.5019 88.7999 14.9809V12.0559H86.9669V15.5269C86.9669 17.5159 88.4489 18.4324 90.7499 18.4324C91.7834 18.4324 92.8169 18.2764 93.4214 18.1594V22.0009Z" fill="#232431"/>
<path d="M98.4998 22.0009H100.82L105.383 14.2009H105.422V22.0009H107.255V12.0559H104.935L100.372 19.8559H100.333V12.0559H98.4998V22.0009Z" fill="#232431"/>
</svg>
