<svg width="246" height="36" viewBox="0 0 246 36" fill="none" xmlns="http://www.w3.org/2000/svg">
<rect width="36" height="36" fill="#2AB7C1"/>
<rect x="16" y="30.7168" width="4" height="4" transform="rotate(-90 16 30.7168)" fill="white"/>
<rect x="6" y="29.9995" width="24" height="4" transform="rotate(-90 6 29.9995)" fill="white"/>
<rect x="26" y="29.9995" width="24" height="4" transform="rotate(-90 26 29.9995)" fill="white"/>
<rect x="16" y="24" width="18" height="4" transform="rotate(-90 16 24)" fill="white"/>
<path d="M44 22.0014H46.3205L50.8835 14.2014H50.9225V22.0014H52.7555V12.0564H50.435L45.872 19.8564H45.833V12.0564H44V22.0014Z" fill="#232431"/>
<path d="M55.9971 22.0014H57.8301V17.5749H62.8221V22.0014H64.6551V12.0564H62.8221V16.0929H57.8301V12.0564H55.9971V22.0014Z" fill="#232431"/>
<path d="M75.8744 24.8094H77.6294V20.5194H76.1864V12.0564H74.3534V20.5194H69.7319V12.0564H67.8989V22.0014H75.8744V24.8094Z" fill="#232431"/>
<path d="M79.5913 22.0014H81.9118L86.4748 14.2014H86.5138V22.0014H88.3468V12.0564H86.0263L81.4633 19.8564H81.4243V12.0564H79.5913V22.0014Z" fill="#232431"/>
<path d="M90.2429 20.5194V24.8094H91.9979V22.0014H99.4664V24.8094H101.221V20.5194H99.7784V12.0564H92.7194L92.6804 13.7334C92.6024 17.3409 92.4269 18.9399 91.4714 20.5194H90.2429ZM94.2989 14.3184L94.3184 13.5384H97.9454V20.5194H93.0899C94.1039 18.9204 94.2209 17.1654 94.2989 14.3184Z" fill="#232431"/>
<path d="M111.575 17.4384V16.9314C111.575 13.5579 109.859 11.9004 107.032 11.9004C104.399 11.9004 102.332 13.8114 102.332 16.8534C102.332 20.1684 104.224 22.1574 107.578 22.1574C109.177 22.1574 110.269 21.8454 110.893 21.6504V19.8564C110.152 20.2854 108.884 20.6364 107.695 20.6364C105.686 20.6364 104.438 19.4859 104.224 17.4384H111.575ZM107.012 13.3824C108.514 13.3824 109.625 14.3574 109.625 16.0734H104.224C104.458 14.4354 105.491 13.3824 107.012 13.3824Z" fill="#232431"/>
<path d="M114.211 22.0014H116.044V17.5749H121.036V22.0014H122.869V12.0564H121.036V16.0929H116.044V12.0564H114.211V22.0014Z" fill="#232431"/>
<path d="M128.258 22.0014H130.091V13.5384H133.562V12.0564H124.787V13.5384H128.258V22.0014Z" fill="#232431"/>
<path d="M135.482 22.0014H139.324C142.151 22.0014 143.419 20.7339 143.419 18.7644C143.419 16.7754 142.151 15.4884 139.324 15.4884H137.315V12.0564H135.482V22.0014ZM137.315 20.5194V16.9704H139.324C140.864 16.9704 141.547 17.6724 141.547 18.7644C141.547 19.8369 140.864 20.5194 139.324 20.5194H137.315ZM145.525 22.0014H147.358V12.0564H145.525V22.0014Z" fill="#232431"/>
</svg>
