<svg width="246" height="37" viewBox="0 0 246 37" fill="none" xmlns="http://www.w3.org/2000/svg">
<rect width="36" height="36" fill="#DA321B"/>
<path fill-rule="evenodd" clip-rule="evenodd" d="M14.9996 4.5H23.9996C28.4182 4.5 31.9996 8.08264 31.9996 12.5006V17.5L28.0002 17.5V21.5H15.0002L14.9996 11.5006L11.9997 11.5006C9.79025 11.5006 7.99902 13.2917 7.99902 15.5006L7.99902 21.5006L3.99902 21.5006V15.5006C3.99902 11.082 7.58167 7.5006 11.9997 7.5006L14.9996 7.5006V4.5ZM18.9996 8.5V17.5H28.0002L27.9996 12.5006C27.9996 10.2912 26.2085 8.5 23.9996 8.5L18.9996 8.5Z" fill="white"/>
<path d="M17.9996 27.5006V31.5006H11.9996C7.58079 31.5006 3.99963 27.917 3.99963 23.4993L3.99963 21.5014L7.99902 21.5006L7.99963 23.4993C7.99963 25.709 9.79105 27.5006 11.9996 27.5006H17.9996Z" fill="white"/>
<path d="M17.9996 27.5006H19.9983C22.208 27.5006 23.9996 25.7092 23.9996 23.5006V21.5006L28.0002 21.5L27.9996 23.5006C27.9996 27.9194 24.4161 31.5006 19.9983 31.5006H17.9996V27.5006Z" fill="white"/>
<path d="M44 4.27612H46.8275L49.538 9.95062L52.2485 4.27612H54.998V14.2211H53.165V6.03112H53.126L50.4155 11.6861H48.5825L45.872 6.03112H45.833V14.2211H44V4.27612Z" fill="#232431"/>
<path d="M62.6706 14.3771C61.9166 14.3771 61.2276 14.2536 60.6036 14.0066C59.9796 13.7596 59.4401 13.4086 58.9851 12.9536C58.5431 12.4986 58.1986 11.9591 57.9516 11.3351C57.7046 10.7111 57.5811 10.0156 57.5811 9.24862C57.5811 8.49462 57.7046 7.80562 57.9516 7.18162C58.1986 6.54462 58.5431 5.99862 58.9851 5.54362C59.4401 5.08862 59.9796 4.73762 60.6036 4.49062C61.2276 4.24362 61.9166 4.12012 62.6706 4.12012C63.4246 4.12012 64.1136 4.24362 64.7376 4.49062C65.3616 4.73762 65.8946 5.08862 66.3366 5.54362C66.7916 5.99862 67.1426 6.54462 67.3896 7.18162C67.6366 7.80562 67.7601 8.49462 67.7601 9.24862C67.7601 10.0156 67.6366 10.7111 67.3896 11.3351C67.1426 11.9591 66.7916 12.4986 66.3366 12.9536C65.8946 13.4086 65.3616 13.7596 64.7376 14.0066C64.1136 14.2536 63.4246 14.3771 62.6706 14.3771ZM62.6706 12.8951C63.0996 12.8951 63.5026 12.8106 63.8796 12.6416C64.2696 12.4726 64.6011 12.2321 64.8741 11.9201C65.1601 11.5951 65.3876 11.2116 65.5566 10.7696C65.7256 10.3146 65.8101 9.80762 65.8101 9.24862C65.8101 8.68962 65.7256 8.18912 65.5566 7.74712C65.3876 7.29212 65.1601 6.90862 64.8741 6.59662C64.5881 6.27162 64.2566 6.02462 63.8796 5.85562C63.5026 5.68662 63.0996 5.60212 62.6706 5.60212C62.2416 5.60212 61.8321 5.68662 61.4421 5.85562C61.0651 6.02462 60.7336 6.27162 60.4476 6.59662C60.1746 6.90862 59.9536 7.29212 59.7846 7.74712C59.6156 8.18912 59.5311 8.68962 59.5311 9.24862C59.5311 9.80762 59.6156 10.3146 59.7846 10.7696C59.9536 11.2116 60.1746 11.5951 60.4476 11.9201C60.7336 12.2321 61.0651 12.4726 61.4421 12.6416C61.8321 12.8106 62.2416 12.8951 62.6706 12.8951Z" fill="#232431"/>
<path d="M70.3364 4.27612H72.1694V8.31262H77.1614V4.27612H78.9944V14.2211H77.1614V9.79462H72.1694V14.2211H70.3364V4.27612Z" fill="#232431"/>
<path d="M82.2383 4.27612H84.0713V12.0761H84.1103L88.6733 4.27612H90.9938V14.2211H89.1608V6.42112H89.1218L84.5588 14.2211H82.2383V4.27612Z" fill="#232431"/>
<path d="M96.3803 5.75812H92.9093V4.27612H101.684V5.75812H98.2133V14.2211H96.3803V5.75812Z" fill="#232431"/>
<path d="M107.745 14.3771C106.991 14.3771 106.302 14.2536 105.678 14.0066C105.054 13.7596 104.515 13.4086 104.06 12.9536C103.618 12.4986 103.273 11.9591 103.026 11.3351C102.779 10.7111 102.656 10.0156 102.656 9.24862C102.656 8.49462 102.779 7.80562 103.026 7.18162C103.273 6.54462 103.618 5.99862 104.06 5.54362C104.515 5.08862 105.054 4.73762 105.678 4.49062C106.302 4.24362 106.991 4.12012 107.745 4.12012C108.499 4.12012 109.188 4.24362 109.812 4.49062C110.436 4.73762 110.969 5.08862 111.411 5.54362C111.866 5.99862 112.217 6.54462 112.464 7.18162C112.711 7.80562 112.835 8.49462 112.835 9.24862C112.835 10.0156 112.711 10.7111 112.464 11.3351C112.217 11.9591 111.866 12.4986 111.411 12.9536C110.969 13.4086 110.436 13.7596 109.812 14.0066C109.188 14.2536 108.499 14.3771 107.745 14.3771ZM107.745 12.8951C108.174 12.8951 108.577 12.8106 108.954 12.6416C109.344 12.4726 109.676 12.2321 109.949 11.9201C110.235 11.5951 110.462 11.2116 110.631 10.7696C110.8 10.3146 110.885 9.80762 110.885 9.24862C110.885 8.68962 110.8 8.18912 110.631 7.74712C110.462 7.29212 110.235 6.90862 109.949 6.59662C109.663 6.27162 109.331 6.02462 108.954 5.85562C108.577 5.68662 108.174 5.60212 107.745 5.60212C107.316 5.60212 106.907 5.68662 106.517 5.85562C106.14 6.02462 105.808 6.27162 105.522 6.59662C105.249 6.90862 105.028 7.29212 104.859 7.74712C104.69 8.18912 104.606 8.68962 104.606 9.24862C104.606 9.80762 104.69 10.3146 104.859 10.7696C105.028 11.2116 105.249 11.5951 105.522 11.9201C105.808 12.2321 106.14 12.4726 106.517 12.6416C106.907 12.8106 107.316 12.8951 107.745 12.8951Z" fill="#232431"/>
<path d="M117.244 18.5891H115.411V4.27612H117.166V5.69962H117.205C117.465 5.34862 117.745 5.06912 118.044 4.86112C118.356 4.65312 118.661 4.49712 118.96 4.39312C119.259 4.27612 119.545 4.20462 119.818 4.17862C120.091 4.13962 120.325 4.12012 120.52 4.12012C121.248 4.12012 121.898 4.25012 122.47 4.51012C123.042 4.75712 123.523 5.10812 123.913 5.56312C124.303 6.01812 124.602 6.55762 124.81 7.18162C125.018 7.79262 125.122 8.45562 125.122 9.17062C125.122 9.87262 125.018 10.5421 124.81 11.1791C124.615 11.8031 124.323 12.3556 123.933 12.8366C123.543 13.3046 123.068 13.6816 122.509 13.9676C121.95 14.2406 121.32 14.3771 120.618 14.3771C119.812 14.3771 119.129 14.2276 118.57 13.9286C118.024 13.6166 117.608 13.2786 117.322 12.9146H117.244V18.5891ZM120.189 12.8951C121.099 12.8951 121.82 12.5571 122.353 11.8811C122.899 11.1921 123.172 10.2691 123.172 9.11212C123.172 8.04612 122.906 7.19462 122.373 6.55762C121.853 5.92062 121.144 5.60212 120.247 5.60212C119.324 5.60212 118.59 5.93362 118.044 6.59662C117.511 7.25962 117.244 8.15012 117.244 9.26812C117.244 10.3731 117.511 11.2571 118.044 11.9201C118.577 12.5701 119.292 12.8951 120.189 12.8951Z" fill="#232431"/>
<path d="M127.694 4.27612H129.527V12.0761H129.566L134.129 4.27612H136.449V14.2211H134.616V6.42112H134.577L130.014 14.2211H127.694V4.27612Z" fill="#232431"/>
<path d="M139.691 4.27612H141.524V8.31262H146.516V4.27612H148.349V14.2211H146.516V9.79462H141.524V14.2211H139.691V4.27612Z" fill="#232431"/>
<path d="M151.593 4.27612H157.911V5.75812H153.426V14.2211H151.593V4.27612Z" fill="#232431"/>
<path d="M44 22.2761H52.463V32.2211H50.63V23.7581H45.833V32.2211H44V22.2761Z" fill="#232431"/>
<path d="M57.5254 36.5891H55.6924V22.2761H57.4474V23.6996H57.4864C57.7464 23.3486 58.0259 23.0691 58.3249 22.8611C58.6369 22.6531 58.9424 22.4971 59.2414 22.3931C59.5404 22.2761 59.8264 22.2046 60.0994 22.1786C60.3724 22.1396 60.6064 22.1201 60.8014 22.1201C61.5294 22.1201 62.1794 22.2501 62.7514 22.5101C63.3234 22.7571 63.8044 23.1081 64.1944 23.5631C64.5844 24.0181 64.8834 24.5576 65.0914 25.1816C65.2994 25.7926 65.4034 26.4556 65.4034 27.1706C65.4034 27.8726 65.2994 28.5421 65.0914 29.1791C64.8964 29.8031 64.6039 30.3556 64.2139 30.8366C63.8239 31.3046 63.3494 31.6816 62.7904 31.9676C62.2314 32.2406 61.6009 32.3771 60.8989 32.3771C60.0929 32.3771 59.4104 32.2276 58.8514 31.9286C58.3054 31.6166 57.8894 31.2786 57.6034 30.9146H57.5254V36.5891ZM60.4699 30.8951C61.3799 30.8951 62.1014 30.5571 62.6344 29.8811C63.1804 29.1921 63.4534 28.2691 63.4534 27.1121C63.4534 26.0461 63.1869 25.1946 62.6539 24.5576C62.1339 23.9206 61.4254 23.6021 60.5284 23.6021C59.6054 23.6021 58.8709 23.9336 58.3249 24.5966C57.7919 25.2596 57.5254 26.1501 57.5254 27.2681C57.5254 28.3731 57.7919 29.2571 58.3249 29.9201C58.8579 30.5701 59.5729 30.8951 60.4699 30.8951Z" fill="#232431"/>
<path d="M72.4016 32.3771C71.6476 32.3771 70.9586 32.2536 70.3346 32.0066C69.7106 31.7596 69.1711 31.4086 68.7161 30.9536C68.2741 30.4986 67.9296 29.9591 67.6826 29.3351C67.4356 28.7111 67.3121 28.0156 67.3121 27.2486C67.3121 26.4946 67.4356 25.8056 67.6826 25.1816C67.9296 24.5446 68.2741 23.9986 68.7161 23.5436C69.1711 23.0886 69.7106 22.7376 70.3346 22.4906C70.9586 22.2436 71.6476 22.1201 72.4016 22.1201C73.1556 22.1201 73.8446 22.2436 74.4686 22.4906C75.0926 22.7376 75.6256 23.0886 76.0676 23.5436C76.5226 23.9986 76.8736 24.5446 77.1206 25.1816C77.3676 25.8056 77.4911 26.4946 77.4911 27.2486C77.4911 28.0156 77.3676 28.7111 77.1206 29.3351C76.8736 29.9591 76.5226 30.4986 76.0676 30.9536C75.6256 31.4086 75.0926 31.7596 74.4686 32.0066C73.8446 32.2536 73.1556 32.3771 72.4016 32.3771ZM72.4016 30.8951C72.8306 30.8951 73.2336 30.8106 73.6106 30.6416C74.0006 30.4726 74.3321 30.2321 74.6051 29.9201C74.8911 29.5951 75.1186 29.2116 75.2876 28.7696C75.4566 28.3146 75.5411 27.8076 75.5411 27.2486C75.5411 26.6896 75.4566 26.1891 75.2876 25.7471C75.1186 25.2921 74.8911 24.9086 74.6051 24.5966C74.3191 24.2716 73.9876 24.0246 73.6106 23.8556C73.2336 23.6866 72.8306 23.6021 72.4016 23.6021C71.9726 23.6021 71.5631 23.6866 71.1731 23.8556C70.7961 24.0246 70.4646 24.2716 70.1786 24.5966C69.9056 24.9086 69.6846 25.2921 69.5156 25.7471C69.3466 26.1891 69.2621 26.6896 69.2621 27.2486C69.2621 27.8076 69.3466 28.3146 69.5156 28.7696C69.6846 29.2116 69.9056 29.5951 70.1786 29.9201C70.4646 30.2321 70.7961 30.4726 71.1731 30.6416C71.5631 30.8106 71.9726 30.8951 72.4016 30.8951Z" fill="#232431"/>
<path d="M80.0674 22.2761H81.9004V30.0761H81.9394L86.5024 22.2761H88.8229V32.2211H86.9899V24.4211H86.9509L82.3879 32.2211H80.0674V22.2761Z" fill="#232431"/>
<path d="M94.5019 32.3771C93.9949 32.3771 93.54 32.3511 93.137 32.2991C92.747 32.2471 92.4155 32.1951 92.1424 32.1431C91.8694 32.0781 91.6614 32.0196 91.5184 31.9676C91.3755 31.9156 91.304 31.8896 91.304 31.8896V30.3101C91.538 30.4271 91.811 30.5246 92.1229 30.6026C92.3829 30.6806 92.695 30.7521 93.059 30.8171C93.436 30.8691 93.852 30.8951 94.307 30.8951C95.243 30.8951 95.945 30.7521 96.4129 30.4661C96.881 30.1801 97.1149 29.7836 97.1149 29.2766C97.1149 28.8216 96.9199 28.4576 96.5299 28.1846C96.153 27.9116 95.5679 27.7751 94.7749 27.7751H93.1759V26.3321H94.4824C95.2754 26.3321 95.8474 26.2086 96.1984 25.9616C96.5494 25.7016 96.725 25.3701 96.725 24.9671C96.725 24.5511 96.5365 24.2196 96.1595 23.9726C95.7955 23.7256 95.2299 23.6021 94.463 23.6021C94.086 23.6021 93.7285 23.6281 93.3904 23.6801C93.0525 23.7321 92.7535 23.7906 92.4935 23.8556C92.1945 23.9336 91.9215 24.0181 91.6744 24.1091V22.5101C91.9215 22.4321 92.1945 22.3671 92.4935 22.3151C92.7535 22.2631 93.059 22.2176 93.41 22.1786C93.761 22.1396 94.151 22.1201 94.5799 22.1201C95.997 22.1201 97.0305 22.3671 97.6805 22.8611C98.3435 23.3421 98.6749 23.9726 98.6749 24.7526C98.6749 25.2856 98.5255 25.7406 98.2264 26.1176C97.9404 26.4946 97.5049 26.7806 96.9199 26.9756V26.9951C97.6219 27.1511 98.1549 27.4566 98.519 27.9116C98.8829 28.3536 99.0649 28.8736 99.0649 29.4716C99.0649 29.8746 98.9804 30.2516 98.8114 30.6026C98.6424 30.9536 98.3695 31.2656 97.9925 31.5386C97.6285 31.7986 97.1539 32.0066 96.569 32.1626C95.997 32.3056 95.3079 32.3771 94.5019 32.3771Z" fill="#232431"/>
<path d="M109.351 24.8891C109.351 25.4091 109.221 25.8381 108.961 26.1761C108.714 26.5011 108.343 26.7676 107.849 26.9756V27.0146C109.11 27.4306 109.741 28.1976 109.741 29.3156C109.741 29.7316 109.656 30.1151 109.487 30.4661C109.331 30.8171 109.091 31.1226 108.766 31.3826C108.454 31.6426 108.051 31.8506 107.557 32.0066C107.076 32.1496 106.504 32.2211 105.841 32.2211H101.434V22.2761H105.451C106.153 22.2761 106.751 22.3476 107.245 22.4906C107.739 22.6206 108.142 22.8026 108.454 23.0366C108.766 23.2706 108.993 23.5501 109.136 23.8751C109.279 24.1871 109.351 24.5251 109.351 24.8891ZM105.841 30.7391C106.504 30.7391 106.985 30.6091 107.284 30.3491C107.596 30.0891 107.752 29.7316 107.752 29.2766C107.752 28.8216 107.596 28.4641 107.284 28.2041C106.985 27.9311 106.504 27.7946 105.841 27.7946H103.267V30.7391H105.841ZM105.451 26.3126C106.114 26.3126 106.595 26.1891 106.894 25.9421C107.206 25.6821 107.362 25.3766 107.362 25.0256C107.362 24.6746 107.206 24.3756 106.894 24.1286C106.595 23.8816 106.114 23.7581 105.451 23.7581H103.267V26.3126H105.451Z" fill="#232431"/>
<path d="M116.524 32.3771C115.77 32.3771 115.081 32.2536 114.457 32.0066C113.833 31.7596 113.294 31.4086 112.839 30.9536C112.397 30.4986 112.052 29.9591 111.805 29.3351C111.558 28.7111 111.435 28.0156 111.435 27.2486C111.435 26.4946 111.558 25.8056 111.805 25.1816C112.052 24.5446 112.397 23.9986 112.839 23.5436C113.294 23.0886 113.833 22.7376 114.457 22.4906C115.081 22.2436 115.77 22.1201 116.524 22.1201C117.278 22.1201 117.967 22.2436 118.591 22.4906C119.215 22.7376 119.748 23.0886 120.19 23.5436C120.645 23.9986 120.996 24.5446 121.243 25.1816C121.49 25.8056 121.614 26.4946 121.614 27.2486C121.614 28.0156 121.49 28.7111 121.243 29.3351C120.996 29.9591 120.645 30.4986 120.19 30.9536C119.748 31.4086 119.215 31.7596 118.591 32.0066C117.967 32.2536 117.278 32.3771 116.524 32.3771ZM116.524 30.8951C116.953 30.8951 117.356 30.8106 117.733 30.6416C118.123 30.4726 118.455 30.2321 118.728 29.9201C119.014 29.5951 119.241 29.2116 119.41 28.7696C119.579 28.3146 119.664 27.8076 119.664 27.2486C119.664 26.6896 119.579 26.1891 119.41 25.7471C119.241 25.2921 119.014 24.9086 118.728 24.5966C118.442 24.2716 118.11 24.0246 117.733 23.8556C117.356 23.6866 116.953 23.6021 116.524 23.6021C116.095 23.6021 115.686 23.6866 115.296 23.8556C114.919 24.0246 114.587 24.2716 114.301 24.5966C114.028 24.9086 113.807 25.2921 113.638 25.7471C113.469 26.1891 113.385 26.6896 113.385 27.2486C113.385 27.8076 113.469 28.3146 113.638 28.7696C113.807 29.2116 114.028 29.5951 114.301 29.9201C114.587 30.2321 114.919 30.4726 115.296 30.6416C115.686 30.8106 116.095 30.8951 116.524 30.8951Z" fill="#232431"/>
<path d="M123.978 30.7391C124.212 30.3491 124.4 29.9461 124.543 29.5301C124.699 29.1011 124.823 28.6266 124.914 28.1066C125.005 27.5866 125.063 26.9886 125.089 26.3126C125.128 25.6366 125.161 24.8501 125.187 23.9531L125.226 22.2761H132.285V30.7391H133.728V35.0291H131.973V32.2211H124.504V35.0291H122.749V30.7391H123.978ZM126.805 24.5381C126.779 25.2531 126.747 25.9031 126.708 26.4881C126.682 27.0731 126.63 27.6126 126.552 28.1066C126.474 28.6006 126.357 29.0621 126.201 29.4911C126.045 29.9201 125.843 30.3361 125.596 30.7391H130.452V23.7581H126.825L126.805 24.5381Z" fill="#232431"/>
<path d="M139.811 32.3771C139.044 32.3771 138.348 32.2536 137.724 32.0066C137.113 31.7596 136.593 31.4151 136.164 30.9731C135.735 30.5181 135.404 29.9786 135.17 29.3546C134.949 28.7176 134.838 28.0156 134.838 27.2486C134.838 26.4816 134.955 25.7861 135.189 25.1621C135.423 24.5251 135.755 23.9856 136.184 23.5436C136.626 23.0886 137.152 22.7376 137.763 22.4906C138.374 22.2436 139.063 22.1201 139.83 22.1201C140.22 22.1201 140.565 22.1396 140.864 22.1786C141.176 22.2176 141.442 22.2631 141.663 22.3151C141.91 22.3671 142.125 22.4321 142.307 22.5101V24.0896C142.112 23.9986 141.897 23.9206 141.663 23.8556C141.455 23.7906 141.215 23.7321 140.942 23.6801C140.669 23.6281 140.363 23.6021 140.025 23.6021C138.985 23.6021 138.186 23.9206 137.627 24.5576C137.068 25.1816 136.788 26.0786 136.788 27.2486C136.788 28.4186 137.068 29.3221 137.627 29.9591C138.186 30.5831 138.979 30.8951 140.006 30.8951C140.344 30.8951 140.649 30.8691 140.922 30.8171C141.208 30.7651 141.455 30.7066 141.663 30.6416C141.897 30.5766 142.112 30.4921 142.307 30.3881V31.9871C142.112 32.0651 141.891 32.1301 141.644 32.1821C141.423 32.2341 141.156 32.2796 140.844 32.3186C140.532 32.3576 140.188 32.3771 139.811 32.3771Z" fill="#232431"/>
<path d="M147.111 23.7581H143.64V22.2761H152.415V23.7581H148.944V32.2211H147.111V23.7581Z" fill="#232431"/>
<path d="M162.252 24.8891C162.252 25.4091 162.122 25.8381 161.862 26.1761C161.615 26.5011 161.244 26.7676 160.75 26.9756V27.0146C162.011 27.4306 162.642 28.1976 162.642 29.3156C162.642 29.7316 162.557 30.1151 162.388 30.4661C162.232 30.8171 161.992 31.1226 161.667 31.3826C161.355 31.6426 160.952 31.8506 160.458 32.0066C159.977 32.1496 159.405 32.2211 158.742 32.2211H154.335V22.2761H158.352C159.054 22.2761 159.652 22.3476 160.146 22.4906C160.64 22.6206 161.043 22.8026 161.355 23.0366C161.667 23.2706 161.894 23.5501 162.037 23.8751C162.18 24.1871 162.252 24.5251 162.252 24.8891ZM158.742 30.7391C159.405 30.7391 159.886 30.6091 160.185 30.3491C160.497 30.0891 160.653 29.7316 160.653 29.2766C160.653 28.8216 160.497 28.4641 160.185 28.2041C159.886 27.9311 159.405 27.7946 158.742 27.7946H156.168V30.7391H158.742ZM158.352 26.3126C159.015 26.3126 159.496 26.1891 159.795 25.9421C160.107 25.6821 160.263 25.3766 160.263 25.0256C160.263 24.6746 160.107 24.3756 159.795 24.1286C159.496 23.8816 159.015 23.7581 158.352 23.7581H156.168V26.3126H158.352Z" fill="#232431"/>
<path d="M167.554 32.3771C166.514 32.3771 165.688 32.1171 165.077 31.5971C164.466 31.0641 164.161 30.3296 164.161 29.3936C164.161 28.3016 164.577 27.4696 165.409 26.8976C166.254 26.3126 167.547 26.0201 169.289 26.0201H171.122V25.6886C171.122 24.9736 170.875 24.4536 170.381 24.1286C169.887 23.8036 169.231 23.6411 168.412 23.6411C167.879 23.6411 167.339 23.7061 166.793 23.8361C166.247 23.9531 165.675 24.1741 165.077 24.4991V22.7831C165.571 22.5621 166.137 22.3996 166.774 22.2956C167.411 22.1786 168.035 22.1201 168.646 22.1201C170.011 22.1201 171.07 22.4321 171.824 23.0561C172.578 23.6671 172.955 24.6616 172.955 26.0396V32.2211H171.083V30.7001H171.044C170.628 31.3111 170.095 31.7466 169.445 32.0066C168.808 32.2536 168.178 32.3771 167.554 32.3771ZM168.002 30.8171C168.457 30.8171 168.873 30.7456 169.25 30.6026C169.64 30.4596 169.972 30.2646 170.245 30.0176C170.518 29.7576 170.732 29.4586 170.888 29.1206C171.044 28.7826 171.122 28.4251 171.122 28.0481V27.4241H169.367C168.756 27.4241 168.243 27.4696 167.827 27.5606C167.424 27.6516 167.092 27.7816 166.832 27.9506C166.572 28.1196 166.384 28.3146 166.267 28.5356C166.163 28.7566 166.111 29.0036 166.111 29.2766C166.111 29.7706 166.28 30.1541 166.618 30.4271C166.956 30.6871 167.417 30.8171 168.002 30.8171Z" fill="#232431"/>
</svg>
