<svg width="246" height="36" viewBox="0 0 246 36" fill="none" xmlns="http://www.w3.org/2000/svg">
<path d="M0 0H36V36H0V0Z" fill="#15CE96"/>
<path d="M6 22L6 26L12 26L12 22L6 22Z" fill="white"/>
<path d="M6 10L6 14L12 14L12 10L6 10Z" fill="white"/>
<path d="M6 16L6 20L12 20L12 16L6 16Z" fill="white"/>
<path d="M10 28L10 32L26 32L26 28L10 28Z" fill="white"/>
<path d="M30 8L26 8L26 32L30 32L30 8Z" fill="white"/>
<path d="M10 4L10 8L26 8L26 4L10 4Z" fill="white"/>
<path d="M48.9725 22.1564C50.513 22.1564 51.4685 21.7664 51.4685 21.7664V20.1674C51.4685 20.1674 50.5325 20.6744 49.1675 20.6744C47.12 20.6744 45.95 19.3484 45.95 17.0279C45.95 14.7074 47.12 13.3814 49.187 13.3814C50.5325 13.3814 51.4685 13.8689 51.4685 13.8689V12.2894C51.4685 12.2894 50.5715 11.8994 48.992 11.8994C45.95 11.8994 44 13.9664 44 17.0279C44 20.0894 45.8915 22.1564 48.9725 22.1564Z" fill="#232431"/>
<path d="M54.1274 22.0004H55.9604V13.5374H60.7574V22.0004H62.5904V12.0554H54.1274V22.0004Z" fill="#232431"/>
<path d="M67.6527 20.6939H67.7307C68.2962 21.4154 69.4272 22.1564 71.0262 22.1564C73.8537 22.1564 75.5307 19.7774 75.5307 16.9499C75.5307 14.0639 73.8537 11.8994 70.9287 11.8994C70.1487 11.8994 68.6667 12.0749 67.6137 13.4789H67.5747V12.0554H65.8197V26.3684H67.6527V20.6939ZM70.5972 20.6744C68.8032 20.6744 67.6527 19.2509 67.6527 17.0474C67.6527 14.8244 68.8227 13.3814 70.6557 13.3814C72.4302 13.3814 73.5807 14.7659 73.5807 16.8914C73.5807 19.1924 72.4107 20.6744 70.5972 20.6744Z" fill="#232431"/>
<path d="M80.5617 22.1564C81.8097 22.1564 83.2137 21.7079 84.0522 20.4794H84.0912V22.0004H85.9632V15.8189C85.9632 13.0694 84.3642 11.8994 81.6537 11.8994C80.4447 11.8994 79.0797 12.1334 78.0852 12.5624V14.2784C79.2747 13.6349 80.3667 13.4204 81.4197 13.4204C83.0577 13.4204 84.1302 14.0444 84.1302 15.4679V15.7994H82.2972C78.8262 15.7994 77.1687 17.0084 77.1687 19.1729C77.1687 21.0254 78.4947 22.1564 80.5617 22.1564ZM81.0102 20.5964C79.8402 20.5964 79.1187 20.0504 79.1187 19.0559C79.1187 17.9834 79.9572 17.2034 82.3752 17.2034H84.1302V17.8274C84.1302 19.3484 82.8237 20.5964 81.0102 20.5964Z" fill="#232431"/>
<path d="M96.7978 14.6684C96.7978 13.1864 95.7253 12.0554 92.8978 12.0554H88.8808V22.0004H93.2878C95.9203 22.0004 97.1878 20.7329 97.1878 19.0949C97.1878 17.9444 96.5443 17.2034 95.2963 16.7939V16.7549C96.2908 16.3454 96.7978 15.7019 96.7978 14.6684ZM90.7138 20.5184V17.5739H93.2878C94.6138 17.5739 95.1988 18.1589 95.1988 19.0559C95.1988 19.9529 94.6138 20.5184 93.2878 20.5184H90.7138ZM90.7138 16.0919V13.5374H92.8978C94.2238 13.5374 94.8088 14.1029 94.8088 14.8049C94.8088 15.5069 94.2238 16.0919 92.8978 16.0919H90.7138Z" fill="#232431"/>
<path d="M103.971 22.1564C106.974 22.1564 109.061 20.0699 109.061 17.0279C109.061 13.9859 106.974 11.8994 103.971 11.8994C100.968 11.8994 98.8818 13.9859 98.8818 17.0279C98.8818 20.0699 100.968 22.1564 103.971 22.1564ZM103.971 20.6744C102.255 20.6744 100.832 19.2509 100.832 17.0279C100.832 14.8049 102.255 13.3814 103.971 13.3814C105.668 13.3814 107.111 14.8049 107.111 17.0279C107.111 19.2509 105.687 20.6744 103.971 20.6744Z" fill="#232431"/>
<path d="M117.585 22.0004H119.418V12.0554H117.585V16.7744C116.883 16.8914 116.103 16.9499 115.342 16.9499C113.49 16.9499 112.963 16.5014 112.963 14.9804V12.0554H111.13V15.5264C111.13 17.5154 112.612 18.4319 114.913 18.4319C115.947 18.4319 116.98 18.2759 117.585 18.1589V22.0004Z" fill="#232431"/>
<path d="M122.663 22.0004H124.496V17.5739H129.488V22.0004H131.321V12.0554H129.488V16.0919H124.496V12.0554H122.663V22.0004Z" fill="#232431"/>
<path d="M134.565 22.0004H136.885L141.448 14.2004H141.487V22.0004H143.32V12.0554H141L136.437 19.8554H136.398V12.0554H134.565V22.0004Z" fill="#232431"/>
<path d="M146.562 22.0004H148.395V17.5544H150.228L153.465 22.0004H155.746L151.885 16.7744L155.278 12.0554H153.133L150.247 16.0724H148.395V12.0554H146.562V22.0004Z" fill="#232431"/>
<path d="M157.588 22.0004H159.908L164.471 14.2004H164.51V22.0004H166.343V12.0554H164.023L159.46 19.8554H159.421V12.0554H157.588V22.0004Z" fill="#232431"/>
</svg>
