<svg width="246" height="36" viewBox="0 0 246 36" fill="none" xmlns="http://www.w3.org/2000/svg">
<rect width="36" height="36" fill="#DA321B"/>
<rect x="16" y="26.0005" width="16" height="4" transform="rotate(-90 16 26.0005)" fill="white"/>
<rect x="26" y="26.0005" width="16" height="4" transform="rotate(-90 26 26.0005)" fill="white"/>
<rect x="6" y="26.0005" width="16" height="4" transform="rotate(-90 6 26.0005)" fill="white"/>
<rect x="6" y="9.99902" width="4" height="10" transform="rotate(-90 6 9.99902)" fill="white"/>
<rect x="20" y="9.99902" width="4" height="10" transform="rotate(-90 20 9.99902)" fill="white"/>
<rect x="6" y="29.9995" width="4" height="10" transform="rotate(-90 6 29.9995)" fill="white"/>
<rect x="20" y="29.9995" width="4" height="10" transform="rotate(-90 20 29.9995)" fill="white"/>
<path d="M47.198 22.1564C50.435 22.1564 51.761 20.8499 51.761 19.2509C51.761 18.0614 51.02 17.0864 49.616 16.7744V16.7549C50.786 16.3649 51.371 15.5849 51.371 14.5319C51.371 12.9914 50.1035 11.8994 47.276 11.8994C45.5795 11.8994 44.3705 12.2894 44.3705 12.2894V13.8884C44.3705 13.8884 45.638 13.3814 47.159 13.3814C48.68 13.3814 49.421 13.9079 49.421 14.7464C49.421 15.5459 48.758 16.1114 47.1785 16.1114H45.872V17.5544H47.471C49.0505 17.5544 49.811 18.1394 49.811 19.0559C49.811 20.0699 48.875 20.6744 47.003 20.6744C45.17 20.6744 44 20.0894 44 20.0894V21.6689C44 21.6884 45.1505 22.1564 47.198 22.1564Z" fill="#232431"/>
<path d="M54.1296 22.0004H55.9626V17.5739H60.9546V22.0004H62.7876V12.0554H60.9546V16.0919H55.9626V12.0554H54.1296V22.0004Z" fill="#232431"/>
<path d="M68.586 22.1564C69.834 22.1564 71.238 21.7079 72.0765 20.4794H72.1155V22.0004H73.9875V15.8189C73.9875 13.0694 72.3885 11.8994 69.678 11.8994C68.469 11.8994 67.104 12.1334 66.1095 12.5624V14.2784C67.299 13.6349 68.391 13.4204 69.444 13.4204C71.082 13.4204 72.1545 14.0444 72.1545 15.4679V15.7994H70.3215C66.8505 15.7994 65.193 17.0084 65.193 19.1729C65.193 21.0254 66.519 22.1564 68.586 22.1564ZM69.0345 20.5964C67.8645 20.5964 67.143 20.0504 67.143 19.0559C67.143 17.9834 67.9815 17.2034 70.3995 17.2034H72.1545V17.8274C72.1545 19.3484 70.848 20.5964 69.0345 20.5964Z" fill="#232431"/>
<path d="M76.905 22.0004H78.738V17.5739H83.73V22.0004H85.563V12.0554H83.73V16.0919H78.738V12.0554H76.905V22.0004Z" fill="#232431"/>
<path d="M88.8069 22.0004H91.1274L95.6904 14.2004H95.7294V22.0004H97.5624V12.0554H95.2419L90.6789 19.8554H90.6399V12.0554H88.8069V22.0004Z" fill="#232431"/>
<path d="M99.7705 22.0004H101.935L103.885 18.4514H106.654V22.0004H108.487V12.0554H104.041C101.506 12.0554 100.297 13.3229 100.297 15.2534C100.297 16.6574 101.057 17.6324 102.071 18.1004L99.7705 22.0004ZM104.041 16.9694C102.793 16.9694 102.169 16.3064 102.169 15.2729C102.169 14.2199 102.773 13.5374 104.041 13.5374H106.654V16.9694H104.041Z" fill="#232431"/>
</svg>
