<svg width="246" height="36" viewBox="0 0 246 36" fill="none" xmlns="http://www.w3.org/2000/svg">
<rect width="36" height="36" fill="#2AB7C1"/>
<path d="M22 16H14V20H22V16Z" fill="white"/>
<path d="M6 30C6 29.6639 6 21.1751 6 13.9984C6 10.6847 8.68629 8 12 8L23 8" stroke="white" stroke-width="4"/>
<path d="M30 16C30 16.1415 30 18.9331 30 21.9997C30 25.3134 27.3137 28 24 28L10 28" stroke="white" stroke-width="4"/>
<path d="M20.5 8C20.5923 8 22.1093 8 23.9988 8C27.3126 8 30 10.6863 30 14L30 16" stroke="white" stroke-width="4"/>
<path d="M50.0449 22.1562C47.0419 22.1562 44.9554 20.0697 44.9554 17.0277C44.9554 13.9857 47.0419 11.8992 50.0449 11.8992C53.0479 11.8992 55.1344 13.9857 55.1344 17.0277C55.1344 20.0697 53.0479 22.1562 50.0449 22.1562ZM50.0449 20.6742C51.7609 20.6742 53.1844 19.2507 53.1844 17.0277C53.1844 14.8047 51.7414 13.3812 50.0449 13.3812C48.3289 13.3812 46.9054 14.8047 46.9054 17.0277C46.9054 19.2507 48.3289 20.6742 50.0449 20.6742Z" fill="#232431"/>
<path d="M62.2347 22.1562C58.4127 22.1562 57.0477 19.1532 57.0477 14.6487C57.0477 11.0802 58.2177 8.3307 61.5912 7.47269C63.4437 7.0047 64.4772 7.37519 66.3492 6.8877V8.5062C64.9647 8.8767 63.7362 8.72069 62.4297 8.9352C59.9142 9.3642 58.8612 11.0412 58.7637 13.4592L58.7442 13.9467H58.8417C59.5827 12.7182 60.9282 11.8992 62.5857 11.8992C65.4132 11.8992 67.2267 14.0052 67.2267 17.0277C67.2267 20.0112 65.1987 22.1562 62.2347 22.1562ZM62.2347 20.6742C64.0872 20.6742 65.2767 19.0167 65.2767 17.0277C65.2767 15.0777 64.1457 13.3812 62.2347 13.3812C60.3237 13.3812 59.1732 15.0777 59.1732 17.0277C59.1732 19.0752 60.4212 20.6742 62.2347 20.6742Z" fill="#232431"/>
<path d="M71.636 20.6937V26.3682H69.803V12.0552H71.558V13.4787H71.597C72.65 12.0747 74.132 11.8992 74.912 11.8992C77.837 11.8992 79.514 14.0637 79.514 16.9497C79.514 19.7772 77.837 22.1562 75.0095 22.1562C73.4105 22.1562 72.2795 21.4152 71.714 20.6937H71.636ZM74.5805 20.6742C76.394 20.6742 77.564 19.1922 77.564 16.8912C77.564 14.7657 76.4135 13.3812 74.639 13.3812C72.806 13.3812 71.636 14.8242 71.636 17.0472C71.636 19.2507 72.7865 20.6742 74.5805 20.6742Z" fill="#232431"/>
<path d="M84.545 22.1562C82.478 22.1562 81.152 21.0252 81.152 19.1727C81.152 17.0082 82.8095 15.7992 86.2805 15.7992H88.1135V15.4677C88.1135 14.0442 87.041 13.4202 85.403 13.4202C84.35 13.4202 83.258 13.6347 82.0685 14.2782V12.5622C83.063 12.1332 84.428 11.8992 85.637 11.8992C88.3475 11.8992 89.9465 13.0692 89.9465 15.8187V22.0002H88.0745V20.4792H88.0355C87.197 21.7077 85.793 22.1562 84.545 22.1562ZM84.9935 20.5962C86.807 20.5962 88.1135 19.3482 88.1135 17.8272V17.2032H86.3585C83.9405 17.2032 83.102 17.9832 83.102 19.0557C83.102 20.0502 83.8235 20.5962 84.9935 20.5962Z" fill="#232431"/>
<path d="M92.864 22.0002V12.0552H94.697V20.5182H98.714V12.0552H100.547V20.5182H104.564V12.0552H106.397V20.5182H107.86V24.8082H106.105V22.0002H92.864Z" fill="#232431"/>
<path d="M118.221 17.4372H110.869C111.084 19.4847 112.332 20.6352 114.34 20.6352C115.53 20.6352 116.797 20.2842 117.538 19.8552V21.6492C116.914 21.8442 115.822 22.1562 114.223 22.1562C110.869 22.1562 108.978 20.1672 108.978 16.8522C108.978 13.8102 111.045 11.8992 113.677 11.8992C116.505 11.8992 118.221 13.5567 118.221 16.9302V17.4372ZM113.658 13.3812C112.137 13.3812 111.103 14.4342 110.869 16.0722H116.271C116.271 14.3562 115.159 13.3812 113.658 13.3812Z" fill="#232431"/>
<path d="M120.857 22.0002V12.0552H122.69V16.0917H127.682V12.0552H129.515V22.0002H127.682V17.5737H122.69V22.0002H120.857Z" fill="#232431"/>
<path d="M132.759 22.0002V12.0552H134.592V19.8552H134.631L139.194 12.0552H141.515V22.0002H139.682V14.2002H139.643L135.08 22.0002H132.759Z" fill="#232431"/>
<path d="M143.723 22.0002L146.024 18.1002C145.01 17.6322 144.249 16.6572 144.249 15.2532C144.249 13.3227 145.458 12.0552 147.993 12.0552H152.439V22.0002H150.606V18.4512H147.837L145.887 22.0002H143.723ZM147.993 16.9692H150.606V13.5372H147.993C146.726 13.5372 146.121 14.2197 146.121 15.2727C146.121 16.3062 146.745 16.9692 147.993 16.9692Z" fill="#232431"/>
</svg>
