<svg width="246" height="36" viewBox="0 0 246 36" fill="none" xmlns="http://www.w3.org/2000/svg">
<rect width="36" height="36" fill="#9849FF"/>
<rect x="4" y="5.99854" width="4" height="4" fill="white"/>
<rect x="28" y="25.9995" width="4" height="4" fill="white"/>
<path fill-rule="evenodd" clip-rule="evenodd" d="M26 29.9985L24 29.9985C19.5813 29.9985 16 26.4155 16 21.9976L16 17.9985L20 17.9985L20 21.9976C20 24.2071 21.7913 25.9985 24 25.9985L26 25.9985L26 29.9985Z" fill="white"/>
<path fill-rule="evenodd" clip-rule="evenodd" d="M10 5.99854L12 5.99854C16.4187 5.99853 20 9.58161 20 13.9995L20 17.9985L16 17.9985L16 13.9995C16 11.7899 14.2087 9.99853 12 9.99854L10 9.99854L10 5.99854Z" fill="white"/>
<path d="M44 21.9975H45.833V13.5345H50.63V21.9975H52.463V12.0525H44V21.9975Z" fill="#232431"/>
<path d="M57.5254 20.691H57.6034C58.1689 21.4125 59.2999 22.1535 60.8989 22.1535C63.7264 22.1535 65.4034 19.7745 65.4034 16.947C65.4034 14.061 63.7264 11.8965 60.8014 11.8965C60.0214 11.8965 58.5394 12.072 57.4864 13.476H57.4474V12.0525H55.6924V26.3655H57.5254V20.691ZM60.4699 20.6715C58.6759 20.6715 57.5254 19.248 57.5254 17.0445C57.5254 14.8215 58.6954 13.3785 60.5284 13.3785C62.3029 13.3785 63.4534 14.763 63.4534 16.8885C63.4534 19.1895 62.2834 20.6715 60.4699 20.6715Z" fill="#232431"/>
<path d="M72.4016 22.1535C75.4046 22.1535 77.4911 20.067 77.4911 17.025C77.4911 13.983 75.4046 11.8965 72.4016 11.8965C69.3986 11.8965 67.3121 13.983 67.3121 17.025C67.3121 20.067 69.3986 22.1535 72.4016 22.1535ZM72.4016 20.6715C70.6856 20.6715 69.2621 19.248 69.2621 17.025C69.2621 14.802 70.6856 13.3785 72.4016 13.3785C74.0981 13.3785 75.5411 14.802 75.5411 17.025C75.5411 19.248 74.1176 20.6715 72.4016 20.6715Z" fill="#232431"/>
<path d="M81.9267 21.9975H83.7597V13.5345H87.2307V12.0525H78.4557V13.5345H81.9267V21.9975Z" fill="#232431"/>
<path d="M93.2917 22.1535C96.2947 22.1535 98.3812 20.067 98.3812 17.025C98.3812 13.983 96.2947 11.8965 93.2917 11.8965C90.2887 11.8965 88.2022 13.983 88.2022 17.025C88.2022 20.067 90.2887 22.1535 93.2917 22.1535ZM93.2917 20.6715C91.5757 20.6715 90.1522 19.248 90.1522 17.025C90.1522 14.802 91.5757 13.3785 93.2917 13.3785C94.9882 13.3785 96.4312 14.802 96.4312 17.025C96.4312 19.248 95.0077 20.6715 93.2917 20.6715Z" fill="#232431"/>
<path d="M102.817 21.9975H104.65V13.5345H108.121V12.0525H99.3459V13.5345H102.817V21.9975Z" fill="#232431"/>
<path d="M110.041 21.9975H112.362L116.925 14.1975H116.964V21.9975H118.797V12.0525H116.476L111.913 19.8525H111.874V12.0525H110.041V21.9975Z" fill="#232431"/>
<path d="M122.038 21.9975H123.871V13.5345H128.668V21.9975H130.501V12.0525H122.038V21.9975Z" fill="#232431"/>
<path d="M133.73 21.9975H136.051L140.614 14.1975H140.653V21.9975H142.486V12.0525H140.165L135.602 19.8525H135.563V12.0525H133.73V21.9975Z" fill="#232431"/>
<path d="M147.561 20.691H147.639C148.204 21.4125 149.335 22.1535 150.934 22.1535C153.762 22.1535 155.439 19.7745 155.439 16.947C155.439 14.061 153.762 11.8965 150.837 11.8965C150.057 11.8965 148.575 12.072 147.522 13.476H147.483V12.0525H145.728V26.3655H147.561V20.691ZM150.505 20.6715C148.711 20.6715 147.561 19.248 147.561 17.0445C147.561 14.8215 148.731 13.3785 150.564 13.3785C152.338 13.3785 153.489 14.763 153.489 16.8885C153.489 19.1895 152.319 20.6715 150.505 20.6715Z" fill="#232431"/>
<path d="M162.437 22.1535C165.44 22.1535 167.526 20.067 167.526 17.025C167.526 13.983 165.44 11.8965 162.437 11.8965C159.434 11.8965 157.347 13.983 157.347 17.025C157.347 20.067 159.434 22.1535 162.437 22.1535ZM162.437 20.6715C160.721 20.6715 159.297 19.248 159.297 17.025C159.297 14.802 160.721 13.3785 162.437 13.3785C164.133 13.3785 165.576 14.802 165.576 17.025C165.576 19.248 164.153 20.6715 162.437 20.6715Z" fill="#232431"/>
<path d="M178.02 14.6655C178.02 13.1835 176.947 12.0525 174.12 12.0525H170.103V21.9975H174.51C177.142 21.9975 178.41 20.73 178.41 19.092C178.41 17.9415 177.766 17.2005 176.518 16.791V16.752C177.513 16.3425 178.02 15.699 178.02 14.6655ZM171.936 20.5155V17.571H174.51C175.836 17.571 176.421 18.156 176.421 19.053C176.421 19.95 175.836 20.5155 174.51 20.5155H171.936ZM171.936 16.089V13.5345H174.12C175.446 13.5345 176.031 14.1 176.031 14.802C176.031 15.504 175.446 16.089 174.12 16.089H171.936Z" fill="#232431"/>
<path d="M183.321 22.1535C184.569 22.1535 185.973 21.705 186.812 20.4765H186.851V21.9975H188.723V15.816C188.723 13.0665 187.124 11.8965 184.413 11.8965C183.204 11.8965 181.839 12.1305 180.845 12.5595V14.2755C182.034 13.632 183.126 13.4175 184.179 13.4175C185.817 13.4175 186.89 14.0415 186.89 15.465V15.7965H185.057C181.586 15.7965 179.928 17.0055 179.928 19.17C179.928 21.0225 181.254 22.1535 183.321 22.1535ZM183.77 20.5935C182.6 20.5935 181.878 20.0475 181.878 19.053C181.878 17.9805 182.717 17.2005 185.135 17.2005H186.89V17.8245C186.89 19.3455 185.583 20.5935 183.77 20.5935Z" fill="#232431"/>
<path d="M191.64 21.9975H193.473V17.571H198.465V21.9975H200.298V12.0525H198.465V16.089H193.473V12.0525H191.64V21.9975Z" fill="#232431"/>
<path d="M203.542 21.9975H205.863L210.426 14.1975H210.465V21.9975H212.298V12.0525H209.977L205.414 19.8525H205.375V12.0525H203.542V21.9975Z" fill="#232431"/>
<path d="M224.119 17.4345V16.9275C224.119 13.554 222.403 11.8965 219.576 11.8965C216.943 11.8965 214.876 13.8075 214.876 16.8495C214.876 20.1645 216.768 22.1535 220.122 22.1535C221.721 22.1535 222.813 21.8415 223.437 21.6465V19.8525C222.696 20.2815 221.428 20.6325 220.239 20.6325C218.23 20.6325 216.982 19.482 216.768 17.4345H224.119ZM219.556 13.3785C221.058 13.3785 222.169 14.3535 222.169 16.0695H216.768C217.002 14.4315 218.035 13.3785 219.556 13.3785Z" fill="#232431"/>
</svg>
