<svg width="246" height="36" viewBox="0 0 246 36" fill="none" xmlns="http://www.w3.org/2000/svg">
<rect width="36" height="36" fill="#DA321B"/>
<rect x="16" y="20" width="4" height="4" transform="rotate(-90 16 20)" fill="white"/>
<path d="M25.9751 10V6L9.9751 6V10H25.9751Z" fill="white"/>
<path d="M9.9751 10H5.9751V26H9.9751V10Z" fill="white"/>
<path d="M25.9751 30V26H9.9751V30H25.9751Z" fill="white"/>
<path d="M29.9751 10H25.9751V26H29.9751V10Z" fill="white"/>
<path d="M45.326 13.9999H47.159V9.55393H48.992L52.229 13.9999H54.5105L50.6495 8.77393L54.0425 4.05492H51.8975L49.0115 8.07193H47.159V4.05492H45.326V13.9999Z" fill="#232431"/>
<path d="M60.588 14.1559C63.591 14.1559 65.6775 12.0694 65.6775 9.02743C65.6775 5.98543 63.591 3.89893 60.588 3.89893C57.585 3.89893 55.4985 5.98543 55.4985 9.02743C55.4985 12.0694 57.585 14.1559 60.588 14.1559ZM60.588 12.6739C58.872 12.6739 57.4485 11.2504 57.4485 9.02743C57.4485 6.80443 58.872 5.38093 60.588 5.38093C62.2845 5.38093 63.7275 6.80443 63.7275 9.02743C63.7275 11.2504 62.304 12.6739 60.588 12.6739Z" fill="#232431"/>
<path d="M68.2537 13.9999H70.0867V9.57343H75.0787V13.9999H76.9117V4.05492H75.0787V8.09143H70.0867V4.05492H68.2537V13.9999Z" fill="#232431"/>
<path d="M82.3006 13.9999H84.1336V5.53693H87.6046V4.05492H78.8296V5.53693H82.3006V13.9999Z" fill="#232431"/>
<path d="M91.3577 12.6934H91.4357C92.0012 13.4149 93.1322 14.1559 94.7312 14.1559C97.5587 14.1559 99.2357 11.7769 99.2357 8.94943C99.2357 6.06343 97.5587 3.89893 94.6337 3.89893C93.8537 3.89893 92.3717 4.07443 91.3187 5.47843H91.2797V4.05492H89.5247V18.3679H91.3577V12.6934ZM94.3022 12.6739C92.5082 12.6739 91.3577 11.2504 91.3577 9.04693C91.3577 6.82393 92.5277 5.38093 94.3607 5.38093C96.1352 5.38093 97.2857 6.76543 97.2857 8.89093C97.2857 11.1919 96.1157 12.6739 94.3022 12.6739Z" fill="#232431"/>
<path d="M106.234 14.1559C109.237 14.1559 111.323 12.0694 111.323 9.02743C111.323 5.98543 109.237 3.89893 106.234 3.89893C103.231 3.89893 101.144 5.98543 101.144 9.02743C101.144 12.0694 103.231 14.1559 106.234 14.1559ZM106.234 12.6739C104.518 12.6739 103.094 11.2504 103.094 9.02743C103.094 6.80443 104.518 5.38093 106.234 5.38093C107.93 5.38093 109.373 6.80443 109.373 9.02743C109.373 11.2504 107.95 12.6739 106.234 12.6739Z" fill="#232431"/>
<path d="M113.471 14.1559C115.538 14.1559 116.493 11.8549 116.493 5.80993V5.53693H120.335V13.9999H122.168V4.05492H114.836V4.83493C114.836 10.3924 114.407 12.4594 113.12 12.4594C112.847 12.4594 112.554 12.3619 112.554 12.3619V14.0194C112.554 14.0389 113.003 14.1559 113.471 14.1559Z" fill="#232431"/>
<path d="M125.402 13.9999H129.594C132.422 13.9999 133.689 12.7129 133.689 10.7434C133.689 8.77393 132.422 7.48693 129.594 7.48693H127.235V4.05492H125.402V13.9999ZM129.594 8.96893C131.135 8.96893 131.817 9.67093 131.817 10.7434C131.817 11.8159 131.154 12.5179 129.594 12.5179H127.235V8.96893H129.594Z" fill="#232431"/>
<path d="M135.742 13.9999H137.575V9.57343H142.567V13.9999H144.4V4.05492H142.567V8.09143H137.575V4.05492H135.742V13.9999Z" fill="#232431"/>
<path d="M147.644 13.9999H151.485C154.313 13.9999 155.58 12.7324 155.58 10.7629C155.58 8.77393 154.313 7.48693 151.485 7.48693H149.477V4.05492H147.644V13.9999ZM149.477 12.5179V8.96893H151.485C153.026 8.96893 153.708 9.67093 153.708 10.7629C153.708 11.8354 153.026 12.5179 151.485 12.5179H149.477ZM157.686 13.9999H159.519V4.05492H157.686V13.9999Z" fill="#232431"/>
<path d="M171.344 9.43693V8.92993C171.344 5.55643 169.628 3.89893 166.8 3.89893C164.168 3.89893 162.101 5.80993 162.101 8.85193C162.101 12.1669 163.993 14.1559 167.347 14.1559C168.946 14.1559 170.037 13.8439 170.661 13.6489V11.8549C169.921 12.2839 168.653 12.6349 167.464 12.6349C165.455 12.6349 164.207 11.4844 163.993 9.43693H171.344ZM166.781 5.38093C168.283 5.38093 169.394 6.35593 169.394 8.07193H163.993C164.227 6.43393 165.26 5.38093 166.781 5.38093Z" fill="#232431"/>
<path d="M47.471 31.9999H49.304V23.5369H52.775V22.0549H44V23.5369H47.471V31.9999Z" fill="#232431"/>
<path d="M58.836 32.1559C61.839 32.1559 63.9255 30.0694 63.9255 27.0274C63.9255 23.9854 61.839 21.8989 58.836 21.8989C55.833 21.8989 53.7465 23.9854 53.7465 27.0274C53.7465 30.0694 55.833 32.1559 58.836 32.1559ZM58.836 30.6739C57.12 30.6739 55.6965 29.2504 55.6965 27.0274C55.6965 24.8044 57.12 23.3809 58.836 23.3809C60.5325 23.3809 61.9755 24.8044 61.9755 27.0274C61.9755 29.2504 60.552 30.6739 58.836 30.6739Z" fill="#232431"/>
<path d="M72.4493 31.9999H74.2823V22.0549H72.4493V26.7739C71.7473 26.8909 70.9673 26.9494 70.2068 26.9494C68.3543 26.9494 67.8278 26.5009 67.8278 24.9799V22.0549H65.9948V25.5259C65.9948 27.5149 67.4768 28.4314 69.7778 28.4314C70.8113 28.4314 71.8448 28.2754 72.4493 28.1584V31.9999Z" fill="#232431"/>
<path d="M77.5277 31.9999H79.3607V27.5539H81.1937L84.4307 31.9999H86.7122L82.8512 26.7739L86.2442 22.0549H84.0992L81.2132 26.0719H79.3607V22.0549H77.5277V31.9999Z" fill="#232431"/>
<path d="M88.5535 31.9999H90.874L95.437 24.1999H95.476V31.9999H97.309V22.0549H94.9885L90.4255 29.8549H90.3865V22.0549H88.5535V31.9999Z" fill="#232431"/>
</svg>
