<svg width="246" height="36" viewBox="0 0 246 36" fill="none" xmlns="http://www.w3.org/2000/svg">
<rect width="36" height="36" fill="#15CE96"/>
<rect x="14" y="26" width="4" height="4" transform="rotate(-90 14 26)" fill="white"/>
<rect x="10" y="26" width="12" height="4" transform="rotate(-90 10 26)" fill="white"/>
<rect x="8" y="32" width="4" height="20" transform="rotate(-90 8 32)" fill="white"/>
<rect x="8" y="8.00049" width="4" height="20" transform="rotate(-90 8 8.00049)" fill="white"/>
<path d="M26 9.99854H22L18 21.9985H22L26 9.99854Z" fill="white"/>
<path d="M141.283 22.0547H143.116V29.8547H143.155L147.718 22.0547H150.039V31.9997H148.206V24.1997H148.167L143.604 31.9997H141.283V22.0547Z" fill="#232431"/>
<path d="M129.286 22.0547H131.119V29.8547H131.158L135.721 22.0547H138.042V31.9997H136.209V24.1997H136.17L131.607 31.9997H129.286V22.0547Z" fill="#232431"/>
<path d="M122.354 32.1559C121.847 32.1559 121.392 32.1299 120.989 32.0779C120.599 32.0259 120.268 31.9739 119.995 31.9219C119.722 31.8569 119.514 31.7984 119.371 31.7464C119.228 31.6944 119.156 31.6684 119.156 31.6684V30.0889C119.39 30.2059 119.663 30.3034 119.975 30.3814C120.235 30.4594 120.547 30.5309 120.911 30.5959C121.288 30.6479 121.704 30.6739 122.159 30.6739C123.095 30.6739 123.797 30.5309 124.265 30.2449C124.733 29.9589 124.967 29.5624 124.967 29.0554C124.967 28.6004 124.772 28.2364 124.382 27.9634C124.005 27.6904 123.42 27.5539 122.627 27.5539H121.028V26.1109H122.335C123.128 26.1109 123.7 25.9874 124.051 25.7404C124.402 25.4804 124.577 25.1489 124.577 24.7459C124.577 24.3299 124.389 23.9984 124.012 23.7514C123.648 23.5044 123.082 23.3809 122.315 23.3809C121.938 23.3809 121.581 23.4069 121.243 23.4589C120.905 23.5109 120.606 23.5694 120.346 23.6344C120.047 23.7124 119.774 23.7969 119.527 23.8879V22.2889C119.774 22.2109 120.047 22.1459 120.346 22.0939C120.606 22.0419 120.911 21.9964 121.262 21.9574C121.613 21.9184 122.003 21.8989 122.432 21.8989C123.849 21.8989 124.883 22.1459 125.533 22.6399C126.196 23.1209 126.527 23.7514 126.527 24.5314C126.527 25.0644 126.378 25.5194 126.079 25.8964C125.793 26.2734 125.357 26.5594 124.772 26.7544V26.7739C125.474 26.9299 126.007 27.2354 126.371 27.6904C126.735 28.1324 126.917 28.6524 126.917 29.2504C126.917 29.6534 126.833 30.0304 126.664 30.3814C126.495 30.7324 126.222 31.0444 125.845 31.3174C125.481 31.5774 125.006 31.7854 124.421 31.9414C123.849 32.0844 123.16 32.1559 122.354 32.1559Z" fill="#232431"/>
<path d="M108.015 22.0547H109.848V26.0912H114.84V22.0547H116.673V31.9997H114.84V27.5732H109.848V31.9997H108.015V22.0547Z" fill="#232431"/>
<path d="M98.0272 27.4369C98.1312 28.4639 98.4822 29.2569 99.0802 29.8159C99.6782 30.3619 100.484 30.6349 101.498 30.6349C102.096 30.6349 102.681 30.5634 103.253 30.4204C103.838 30.2644 104.319 30.0759 104.696 29.8549V31.6489C104.384 31.7529 103.955 31.8634 103.409 31.9804C102.863 32.0974 102.187 32.1559 101.381 32.1559C99.6912 32.1559 98.3912 31.6879 97.4812 30.7519C96.5842 29.8159 96.1357 28.5159 96.1357 26.8519C96.1357 26.0979 96.2527 25.4154 96.4867 24.8044C96.7337 24.1934 97.0652 23.6734 97.4812 23.2444C97.9102 22.8154 98.4107 22.4839 98.9827 22.2499C99.5547 22.0159 100.172 21.8989 100.835 21.8989C102.252 21.8989 103.364 22.3149 104.17 23.1469C104.976 23.9789 105.379 25.2399 105.379 26.9299V27.4369H98.0272ZM100.816 23.3809C100.049 23.3809 99.4182 23.6279 98.9242 24.1219C98.4432 24.6029 98.1442 25.2529 98.0272 26.0719H103.429C103.429 25.2139 103.182 24.5509 102.688 24.0829C102.194 23.6149 101.57 23.3809 100.816 23.3809Z" fill="#232431"/>
<path d="M93.2723 31.9997H85.2968V22.0547H87.1298V30.5177H91.7513V22.0547H93.5843V30.5177H95.0273V34.8077H93.2723V31.9997Z" fill="#232431"/>
<path d="M73.2997 22.0547H75.1327V29.8547H75.1717L79.7347 22.0547H82.0552V31.9997H80.2222V24.1997H80.1832L75.6202 31.9997H73.2997V22.0547Z" fill="#232431"/>
<path d="M61.3687 32.1557C61.1347 32.1557 60.9202 32.1362 60.7252 32.0972C60.5432 32.0582 60.4522 32.0322 60.4522 32.0192V30.3617C60.5042 30.3877 60.5627 30.4072 60.6277 30.4202C60.7577 30.4462 60.8877 30.4592 61.0177 30.4592C61.3427 30.4592 61.6092 30.3227 61.8172 30.0497C62.0382 29.7767 62.2137 29.3412 62.3437 28.7432C62.4867 28.1322 62.5842 27.3457 62.6362 26.3837C62.7012 25.4087 62.7337 24.2257 62.7337 22.8347V22.0547H70.0657V31.9997H68.2327V23.5367H64.3912V23.8097C64.3912 25.3177 64.3262 26.6047 64.1962 27.6707C64.0792 28.7237 63.8972 29.5817 63.6502 30.2447C63.4032 30.9077 63.0912 31.3952 62.7142 31.7072C62.3372 32.0062 61.8887 32.1557 61.3687 32.1557Z" fill="#232431"/>
<path d="M45.3065 22.0547H47.1395V29.8547H47.1785L51.7415 22.0547H54.062V31.9997H52.229V24.1997H52.19L47.627 31.9997H45.3065V22.0547Z" fill="#232431"/>
<path d="M144.14 4.05469H145.973V11.8547H146.012L150.575 4.05469H152.895V13.9997H151.062V6.19969H151.023L146.46 13.9997H144.14V4.05469Z" fill="#232431"/>
<path d="M136.915 5.53669H133.444V4.05469H142.219V5.53669H138.748V13.9997H136.915V5.53669Z" fill="#232431"/>
<path d="M129.616 14.1559C128.849 14.1559 128.153 14.0324 127.529 13.7854C126.918 13.5384 126.398 13.1939 125.969 12.7519C125.54 12.2969 125.209 11.7574 124.975 11.1334C124.754 10.4964 124.643 9.79443 124.643 9.02743C124.643 8.26043 124.76 7.56493 124.994 6.94093C125.228 6.30393 125.56 5.76443 125.989 5.32243C126.431 4.86743 126.957 4.51643 127.568 4.26943C128.179 4.02243 128.868 3.89893 129.635 3.89893C130.025 3.89893 130.37 3.91843 130.669 3.95743C130.981 3.99643 131.247 4.04193 131.468 4.09393C131.715 4.14593 131.93 4.21093 132.112 4.28893V5.86843C131.917 5.77743 131.702 5.69943 131.468 5.63443C131.26 5.56943 131.02 5.51093 130.747 5.45893C130.474 5.40693 130.168 5.38093 129.83 5.38093C128.79 5.38093 127.991 5.69943 127.432 6.33643C126.873 6.96043 126.593 7.85743 126.593 9.02743C126.593 10.1974 126.873 11.1009 127.432 11.7379C127.991 12.3619 128.784 12.6739 129.811 12.6739C130.149 12.6739 130.454 12.6479 130.727 12.5959C131.013 12.5439 131.26 12.4854 131.468 12.4204C131.702 12.3554 131.917 12.2709 132.112 12.1669V13.7659C131.917 13.8439 131.696 13.9089 131.449 13.9609C131.228 14.0129 130.961 14.0584 130.649 14.0974C130.337 14.1364 129.993 14.1559 129.616 14.1559Z" fill="#232431"/>
<path d="M117.64 14.1559C116.886 14.1559 116.197 14.0324 115.573 13.7854C114.949 13.5384 114.41 13.1874 113.955 12.7324C113.513 12.2774 113.168 11.7379 112.921 11.1139C112.674 10.4899 112.551 9.79443 112.551 9.02743C112.551 8.27343 112.674 7.58443 112.921 6.96043C113.168 6.32343 113.513 5.77743 113.955 5.32243C114.41 4.86743 114.949 4.51643 115.573 4.26943C116.197 4.02243 116.886 3.89893 117.64 3.89893C118.394 3.89893 119.083 4.02243 119.707 4.26943C120.331 4.51643 120.864 4.86743 121.306 5.32243C121.761 5.77743 122.112 6.32343 122.359 6.96043C122.606 7.58443 122.73 8.27343 122.73 9.02743C122.73 9.79443 122.606 10.4899 122.359 11.1139C122.112 11.7379 121.761 12.2774 121.306 12.7324C120.864 13.1874 120.331 13.5384 119.707 13.7854C119.083 14.0324 118.394 14.1559 117.64 14.1559ZM117.64 12.6739C118.069 12.6739 118.472 12.5894 118.849 12.4204C119.239 12.2514 119.571 12.0109 119.844 11.6989C120.13 11.3739 120.357 10.9904 120.526 10.5484C120.695 10.0934 120.78 9.58643 120.78 9.02743C120.78 8.46843 120.695 7.96793 120.526 7.52593C120.357 7.07093 120.13 6.68743 119.844 6.37543C119.558 6.05043 119.226 5.80343 118.849 5.63443C118.472 5.46543 118.069 5.38093 117.64 5.38093C117.211 5.38093 116.802 5.46543 116.412 5.63443C116.035 5.80343 115.703 6.05043 115.417 6.37543C115.144 6.68743 114.923 7.07093 114.754 7.52593C114.585 7.96793 114.501 8.46843 114.501 9.02743C114.501 9.58643 114.585 10.0934 114.754 10.5484C114.923 10.9904 115.144 11.3739 115.417 11.6989C115.703 12.0109 116.035 12.2514 116.412 12.4204C116.802 12.5894 117.211 12.6739 117.64 12.6739Z" fill="#232431"/>
<path d="M98.9696 4.05469H101.797L104.508 9.72919L107.218 4.05469H109.968V13.9997H108.135V5.80969H108.096L105.385 11.4647H103.552L100.842 5.80969H100.803V13.9997H98.9696V4.05469Z" fill="#232431"/>
<path d="M86.9725 4.05469H88.8055V11.8547H88.8445L93.4075 4.05469H95.728V13.9997H93.895V6.19969H93.856L89.293 13.9997H86.9725V4.05469Z" fill="#232431"/>
<path d="M84.2255 6.66769C84.2255 7.18769 84.0955 7.61669 83.8355 7.95469C83.5885 8.27969 83.218 8.54619 82.724 8.75419V8.79319C83.985 9.20919 84.6155 9.97619 84.6155 11.0942C84.6155 11.5102 84.531 11.8937 84.362 12.2447C84.206 12.5957 83.9655 12.9012 83.6405 13.1612C83.3285 13.4212 82.9255 13.6292 82.4315 13.7852C81.9505 13.9282 81.3785 13.9997 80.7155 13.9997H76.3085V4.05469H80.3255C81.0275 4.05469 81.6255 4.12619 82.1195 4.26919C82.6135 4.39919 83.0165 4.58119 83.3285 4.81519C83.6405 5.04919 83.868 5.32869 84.011 5.65369C84.154 5.96569 84.2255 6.30369 84.2255 6.66769ZM80.7155 12.5177C81.3785 12.5177 81.8595 12.3877 82.1585 12.1277C82.4705 11.8677 82.6265 11.5102 82.6265 11.0552C82.6265 10.6002 82.4705 10.2427 82.1585 9.98269C81.8595 9.70969 81.3785 9.57319 80.7155 9.57319H78.1415V12.5177H80.7155ZM80.3255 8.09119C80.9885 8.09119 81.4695 7.96769 81.7685 7.72069C82.0805 7.46069 82.2365 7.15519 82.2365 6.80419C82.2365 6.45319 82.0805 6.15419 81.7685 5.90719C81.4695 5.66019 80.9885 5.53669 80.3255 5.53669H78.1415V8.09119H80.3255Z" fill="#232431"/>
<path d="M69.3768 14.1559C68.8698 14.1559 68.4148 14.1299 68.0118 14.0779C67.6218 14.0259 67.2903 13.9739 67.0173 13.9219C66.7443 13.8569 66.5363 13.7984 66.3933 13.7464C66.2503 13.6944 66.1788 13.6684 66.1788 13.6684V12.0889C66.4128 12.2059 66.6858 12.3034 66.9978 12.3814C67.2578 12.4594 67.5698 12.5309 67.9338 12.5959C68.3108 12.6479 68.7268 12.6739 69.1818 12.6739C70.1178 12.6739 70.8198 12.5309 71.2878 12.2449C71.7558 11.9589 71.9898 11.5624 71.9898 11.0554C71.9898 10.6004 71.7948 10.2364 71.4048 9.96343C71.0278 9.69043 70.4428 9.55393 69.6498 9.55393H68.0508V8.11093H69.3573C70.1503 8.11093 70.7223 7.98743 71.0733 7.74043C71.4243 7.48043 71.5998 7.14893 71.5998 6.74593C71.5998 6.32993 71.4113 5.99843 71.0343 5.75143C70.6703 5.50443 70.1048 5.38093 69.3378 5.38093C68.9608 5.38093 68.6033 5.40693 68.2653 5.45893C67.9273 5.51093 67.6283 5.56943 67.3683 5.63443C67.0693 5.71243 66.7963 5.79693 66.5493 5.88793V4.28893C66.7963 4.21093 67.0693 4.14593 67.3683 4.09393C67.6283 4.04193 67.9338 3.99643 68.2848 3.95743C68.6358 3.91843 69.0258 3.89893 69.4548 3.89893C70.8718 3.89893 71.9053 4.14593 72.5553 4.63993C73.2183 5.12093 73.5498 5.75143 73.5498 6.53143C73.5498 7.06443 73.4003 7.51943 73.1013 7.89643C72.8153 8.27343 72.3798 8.55943 71.7948 8.75443V8.77393C72.4968 8.92993 73.0298 9.23543 73.3938 9.69043C73.7578 10.1324 73.9398 10.6524 73.9398 11.2504C73.9398 11.6534 73.8553 12.0304 73.6863 12.3814C73.5173 12.7324 73.2443 13.0444 72.8673 13.3174C72.5033 13.5774 72.0288 13.7854 71.4438 13.9414C70.8718 14.0844 70.1828 14.1559 69.3768 14.1559Z" fill="#232431"/>
<path d="M57.2952 10.0997C56.7882 9.86569 56.3657 9.50819 56.0277 9.02719C55.6897 8.54619 55.5207 7.95469 55.5207 7.25269C55.5207 6.27769 55.8262 5.50419 56.4372 4.93219C57.0482 4.34719 57.9907 4.05469 59.2647 4.05469H63.7107V13.9997H61.8777V10.4507H59.1087L57.1587 13.9997H54.9942L57.2952 10.0997ZM61.8777 8.96869V5.53669H59.2647C58.6277 5.53669 58.1532 5.69269 57.8412 6.00469C57.5422 6.31669 57.3927 6.73919 57.3927 7.27219C57.3927 7.79219 57.5487 8.20819 57.8607 8.52019C58.1727 8.81919 58.6407 8.96869 59.2647 8.96869H61.8777Z" fill="#232431"/>
<path d="M46.0475 18.3677C45.9175 18.3677 45.8005 18.3612 45.6965 18.3482C45.5925 18.3482 45.508 18.3417 45.443 18.3287C45.352 18.3157 45.274 18.2962 45.209 18.2702V16.7687C45.274 16.7817 45.3455 16.7947 45.4235 16.8077C45.4885 16.8207 45.56 16.8272 45.638 16.8272C45.729 16.8272 45.8265 16.8272 45.9305 16.8272C46.4895 16.8272 46.899 16.6712 47.159 16.3592C47.432 16.0472 47.679 15.5857 47.9 14.9747L48.0755 14.4872L44 4.05469H46.0085L49.031 12.2057H49.1675L52.2485 4.05469H54.101L49.967 14.3897C49.668 15.1177 49.395 15.7352 49.148 16.2422C48.914 16.7492 48.654 17.1587 48.368 17.4707C48.082 17.7827 47.757 18.0102 47.393 18.1532C47.029 18.2962 46.5805 18.3677 46.0475 18.3677Z" fill="#232431"/>
</svg>
