<svg width="246" height="36" viewBox="0 0 246 36" fill="none" xmlns="http://www.w3.org/2000/svg">
<rect width="36" height="36" fill="#2AB7C1"/>
<path fill-rule="evenodd" clip-rule="evenodd" d="M18 5.99951L14 5.99951C9.58131 5.99951 6 9.58259 6 14.0005L6 17.9995L10 17.9995L10 14.0005C10 11.7909 11.7913 9.99951 14 9.99951L18 9.99951L18 5.99951Z" fill="white"/>
<path fill-rule="evenodd" clip-rule="evenodd" d="M30 17.9995V13.9995C30 9.58082 26.4169 5.99951 21.9991 5.99951H18L18 9.99951H21.9991C24.2086 9.99951 26 11.7908 26 13.9995V17.9995L30 17.9995Z" fill="white"/>
<path fill-rule="evenodd" clip-rule="evenodd" d="M18 29.9995L22 29.9995C26.4187 29.9995 30 26.4164 30 21.9986L30 17.9995L26 17.9995L26 21.9986C26 24.2081 24.2087 25.9995 22 25.9995L18 25.9995L18 29.9995Z" fill="white"/>
<path fill-rule="evenodd" clip-rule="evenodd" d="M10 17.9995L10 21.9995C10 26.4178 13.5817 29.9995 18 29.9995L18 25.9995C15.7909 25.9995 14 24.2086 14 21.9995L14 17.9995L10 17.9995Z" fill="white"/>
<path d="M45.833 20.6944H45.911C46.4765 21.4159 47.6075 22.1569 49.2065 22.1569C52.034 22.1569 53.711 19.7779 53.711 16.9504C53.711 14.0644 52.034 11.8999 49.109 11.8999C48.329 11.8999 46.847 12.0754 45.794 13.4794H45.755V12.0559H44V26.3689H45.833V20.6944ZM48.7775 20.6749C46.9835 20.6749 45.833 19.2514 45.833 17.0479C45.833 14.8249 47.003 13.3819 48.836 13.3819C50.6105 13.3819 51.761 14.7664 51.761 16.8919C51.761 19.1929 50.591 20.6749 48.7775 20.6749Z" fill="#232431"/>
<path d="M64.8627 17.4379V16.9309C64.8627 13.5574 63.1467 11.8999 60.3192 11.8999C57.6867 11.8999 55.6197 13.8109 55.6197 16.8529C55.6197 20.1679 57.5112 22.1569 60.8652 22.1569C62.4642 22.1569 63.5562 21.8449 64.1802 21.6499V19.8559C63.4392 20.2849 62.1717 20.6359 60.9822 20.6359C58.9737 20.6359 57.7257 19.4854 57.5112 17.4379H64.8627ZM60.2997 13.3819C61.8012 13.3819 62.9127 14.3569 62.9127 16.0729H57.5112C57.7452 14.4349 58.7787 13.3819 60.2997 13.3819Z" fill="#232431"/>
<path d="M67.07 22.1569C69.137 22.1569 70.0925 19.8559 70.0925 13.8109V13.5379H73.934V22.0009H75.767V12.0559H68.435V12.8359C68.435 18.3934 68.006 20.4604 66.719 20.4604C66.446 20.4604 66.1535 20.3629 66.1535 20.3629V22.0204C66.1535 22.0399 66.602 22.1569 67.07 22.1569Z" fill="#232431"/>
<path d="M79.001 22.0009H81.3215L85.8845 14.2009H85.9235V22.0009H87.7565V12.0559H85.436L80.873 19.8559H80.834V12.0559H79.001V22.0009Z" fill="#232431"/>
<path d="M93.4355 22.1569C96.6725 22.1569 97.9985 20.8504 97.9985 19.2514C97.9985 18.0619 97.2575 17.0869 95.8535 16.7749V16.7554C97.0235 16.3654 97.6085 15.5854 97.6085 14.5324C97.6085 12.9919 96.341 11.8999 93.5135 11.8999C91.817 11.8999 90.608 12.2899 90.608 12.2899V13.8889C90.608 13.8889 91.8755 13.3819 93.3965 13.3819C94.9175 13.3819 95.6585 13.9084 95.6585 14.7469C95.6585 15.5464 94.9955 16.1119 93.416 16.1119H92.1095V17.5549H93.7085C95.288 17.5549 96.0485 18.1399 96.0485 19.0564C96.0485 20.0704 95.1125 20.6749 93.2405 20.6749C91.4075 20.6749 90.2375 20.0899 90.2375 20.0899V21.6694C90.2375 21.6889 91.388 22.1569 93.4355 22.1569Z" fill="#232431"/>
<path d="M100.367 22.0009H104.209C107.036 22.0009 108.304 20.7334 108.304 18.7639C108.304 16.7749 107.036 15.4879 104.209 15.4879H102.2V12.0559H100.367V22.0009ZM102.2 20.5189V16.9699H104.209C105.749 16.9699 106.432 17.6719 106.432 18.7639C106.432 19.8364 105.749 20.5189 104.209 20.5189H102.2ZM110.41 22.0009H112.243V12.0559H110.41V22.0009Z" fill="#232431"/>
</svg>
