<svg width="246" height="38" viewBox="0 0 246 38" fill="none" xmlns="http://www.w3.org/2000/svg">
<rect y="1" width="36" height="36" fill="#31A7FD"/>
<path fill-rule="evenodd" clip-rule="evenodd" d="M20 5C23.3142 5 26 7.68763 26 11.0008L26 13L22 13L22 11.0008C22 9.89571 21.104 9 20 9L20 5Z" fill="white"/>
<path fill-rule="evenodd" clip-rule="evenodd" d="M16 32.9995C12.6858 32.9995 10 30.3119 10 26.9987L10 24.9995L14 24.9995L14 26.9987C14 28.1038 14.896 28.9995 16 28.9995L16 32.9995Z" fill="white"/>
<path fill-rule="evenodd" clip-rule="evenodd" d="M10 13L10 11C10 7.68629 12.6863 5 16 5L16 9C14.8954 9 14 9.89543 14 11L14 13L10 13Z" fill="white"/>
<path fill-rule="evenodd" clip-rule="evenodd" d="M26 24.9995L26 26.9995C26 30.3132 23.3137 32.9995 20 32.9995L20 28.9995C21.1046 28.9995 22 28.1041 22 26.9995L22 24.9995L26 24.9995Z" fill="white"/>
<path d="M26 17V13L6 13V17H26Z" fill="white"/>
<path d="M14 25.0005V21.0005H6V25.0005H14Z" fill="white"/>
<path d="M30 25.0005V21.0005H22V25.0005H30Z" fill="white"/>
<path d="M30 17V13H22V17H30Z" fill="white"/>
<path d="M20 33.001V29.001H16V33.001H20Z" fill="white"/>
<path d="M49.694 15.3818H50.4935V19.6133H52.3265V15.3818H53.126C56.0315 15.3818 58.157 13.3928 58.157 10.1753C58.157 6.80176 56.207 5.12476 53.282 5.12476C52.9505 5.12476 52.6385 5.14426 52.3265 5.20276V0.405762H50.4935V5.18326C50.162 5.16376 49.8695 5.12476 49.577 5.12476C46.7105 5.12476 44.663 7.01626 44.663 10.2338C44.663 13.6073 46.769 15.3818 49.694 15.3818ZM53.126 6.54826C54.9785 6.54826 56.207 7.58176 56.207 10.1168C56.207 12.8468 54.881 13.9583 52.853 13.9583H52.3265V6.62626C52.5605 6.58726 52.814 6.54826 53.126 6.54826ZM46.613 10.2923C46.613 7.56226 48.017 6.54826 49.733 6.54826C49.9865 6.54826 50.24 6.56776 50.4935 6.60676V13.9583H49.967C47.939 13.9583 46.613 12.8273 46.613 10.2923Z" fill="#232431"/>
<path d="M61.0919 19.5938C63.2369 19.5938 63.8414 18.5213 65.0114 15.6158L69.1454 5.28076H67.2929L64.2119 13.4318H64.0754L61.0529 5.28076H59.0444L63.1199 15.7133L62.9444 16.2008C62.4959 17.4098 62.1059 18.0533 60.9749 18.0533C60.6044 18.0533 60.2534 17.9948 60.2534 17.9948V19.4963C60.2534 19.4963 60.5849 19.5938 61.0919 19.5938Z" fill="#232431"/>
<path d="M71.0721 15.2258H72.9051V10.7993H77.8971V15.2258H79.7301V5.28076H77.8971V9.31726H72.9051V5.28076H71.0721V15.2258Z" fill="#232431"/>
<path d="M82.9739 15.2258H84.8069V10.7798H86.6399L89.8769 15.2258H92.1584L88.2974 9.99976L91.6904 5.28076H89.5454L86.6594 9.29776H84.8069V5.28076H82.9739V15.2258Z" fill="#232431"/>
<path d="M101.975 18.0338H103.73V13.7438H102.287V5.28076H100.454V13.7438H95.8328V5.28076H93.9998V15.2258H101.975V18.0338Z" fill="#232431"/>
<path d="M105.692 15.2258H108.013L112.576 7.42576H112.615V15.2258H114.448V5.28076H112.127L107.564 13.0808H107.525V5.28076H105.692V15.2258Z" fill="#232431"/>
<path d="M122.116 15.3818C125.119 15.3818 127.205 13.2953 127.205 10.2533C127.205 7.21126 125.119 5.12476 122.116 5.12476C119.113 5.12476 117.026 7.21126 117.026 10.2533C117.026 13.2953 119.113 15.3818 122.116 15.3818ZM122.116 13.8998C120.4 13.8998 118.976 12.4763 118.976 10.2533C118.976 8.03026 120.4 6.60676 122.116 6.60676C123.812 6.60676 125.255 8.03026 125.255 10.2533C125.255 12.4763 123.832 13.8998 122.116 13.8998Z" fill="#232431"/>
<path d="M129.782 15.2258H131.615V10.7993H136.607V15.2258H138.44V5.28076H136.607V9.31726H131.615V5.28076H129.782V15.2258Z" fill="#232431"/>
<path d="M144.238 15.3818C145.486 15.3818 146.89 14.9333 147.728 13.7048H147.767V15.2258H149.639V9.04426C149.639 6.29476 148.04 5.12476 145.33 5.12476C144.121 5.12476 142.756 5.35876 141.761 5.78776V7.50376C142.951 6.86026 144.043 6.64576 145.096 6.64576C146.734 6.64576 147.806 7.26976 147.806 8.69326V9.02476H145.973C142.502 9.02476 140.845 10.2338 140.845 12.3983C140.845 14.2508 142.171 15.3818 144.238 15.3818ZM144.686 13.8218C143.516 13.8218 142.795 13.2758 142.795 12.2813C142.795 11.2088 143.633 10.4288 146.051 10.4288H147.806V11.0528C147.806 12.5738 146.5 13.8218 144.686 13.8218Z" fill="#232431"/>
<path d="M152.128 15.3818C154.195 15.3818 155.15 13.0808 155.15 7.03576V6.76276H158.992V15.2258H160.825V5.28076H153.493V6.06076C153.493 11.6183 153.064 13.6853 151.777 13.6853C151.504 13.6853 151.211 13.5878 151.211 13.5878V15.2453C151.211 15.2648 151.66 15.3818 152.128 15.3818Z" fill="#232431"/>
<path d="M164.059 15.2258H168.251C171.079 15.2258 172.346 13.9388 172.346 11.9693C172.346 9.99976 171.079 8.71276 168.251 8.71276H165.892V5.28076H164.059V15.2258ZM168.251 10.1948C169.792 10.1948 170.474 10.8968 170.474 11.9693C170.474 13.0418 169.811 13.7438 168.251 13.7438H165.892V10.1948H168.251Z" fill="#232431"/>
<path d="M174.399 15.2258H176.232V10.7993H181.224V15.2258H183.057V5.28076H181.224V9.31726H176.232V5.28076H174.399V15.2258Z" fill="#232431"/>
<path d="M190.728 15.3818C193.731 15.3818 195.817 13.2953 195.817 10.2533C195.817 7.21126 193.731 5.12476 190.728 5.12476C187.725 5.12476 185.638 7.21126 185.638 10.2533C185.638 13.2953 187.725 15.3818 190.728 15.3818ZM190.728 13.8998C189.012 13.8998 187.588 12.4763 187.588 10.2533C187.588 8.03026 189.012 6.60676 190.728 6.60676C192.424 6.60676 193.867 8.03026 193.867 10.2533C193.867 12.4763 192.444 13.8998 190.728 13.8998Z" fill="#232431"/>
<path d="M206.973 10.6628V10.1558C206.973 6.78226 205.257 5.12476 202.43 5.12476C199.797 5.12476 197.73 7.03576 197.73 10.0778C197.73 13.3928 199.622 15.3818 202.976 15.3818C204.575 15.3818 205.667 15.0698 206.291 14.8748V13.0808C205.55 13.5098 204.282 13.8608 203.093 13.8608C201.084 13.8608 199.836 12.7103 199.622 10.6628H206.973ZM202.41 6.60676C203.912 6.60676 205.023 7.58176 205.023 9.29776H199.622C199.856 7.65976 200.889 6.60676 202.41 6.60676Z" fill="#232431"/>
<path d="M47.471 33.2258H49.304V24.7628H52.775V23.2808H44V24.7628H47.471V33.2258Z" fill="#232431"/>
<path d="M62.9895 28.6628V28.1558C62.9895 24.7823 61.2735 23.1248 58.446 23.1248C55.8135 23.1248 53.7465 25.0358 53.7465 28.0778C53.7465 31.3928 55.638 33.3818 58.992 33.3818C60.591 33.3818 61.683 33.0698 62.307 32.8748V31.0808C61.566 31.5098 60.2985 31.8608 59.109 31.8608C57.1005 31.8608 55.8525 30.7103 55.638 28.6628H62.9895ZM58.4265 24.6068C59.928 24.6068 61.0395 25.5818 61.0395 27.2978H55.638C55.872 25.6598 56.9055 24.6068 58.4265 24.6068Z" fill="#232431"/>
<path d="M69.9353 33.3818C71.4758 33.3818 72.4313 32.9918 72.4313 32.9918V31.3928C72.4313 31.3928 71.4953 31.8998 70.1303 31.8998C68.0828 31.8998 66.9128 30.5738 66.9128 28.2533C66.9128 25.9328 68.0828 24.6068 70.1498 24.6068C71.4953 24.6068 72.4313 25.0943 72.4313 25.0943V23.5148C72.4313 23.5148 71.5343 23.1248 69.9548 23.1248C66.9128 23.1248 64.9628 25.1918 64.9628 28.2533C64.9628 31.3148 66.8543 33.3818 69.9353 33.3818Z" fill="#232431"/>
<path d="M77.2352 33.2258H79.0682V24.7628H82.5392V23.2808H73.7642V24.7628H77.2352V33.2258Z" fill="#232431"/>
<path d="M84.4593 33.2258H86.7798L91.3428 25.4258H91.3818V33.2258H93.2148V23.2808H90.8943L86.3313 31.0808H86.2923V23.2808H84.4593V33.2258Z" fill="#232431"/>
<path d="M98.2894 31.9193H98.3674C98.9329 32.6408 100.064 33.3818 101.663 33.3818C104.49 33.3818 106.167 31.0028 106.167 28.1753C106.167 25.2893 104.49 23.1248 101.565 23.1248C100.785 23.1248 99.3034 23.3003 98.2504 24.7043H98.2114V23.2808H96.4564V37.5938H98.2894V31.9193ZM101.234 31.8998C99.4399 31.8998 98.2894 30.4763 98.2894 28.2728C98.2894 26.0498 99.4594 24.6068 101.292 24.6068C103.067 24.6068 104.217 25.9913 104.217 28.1168C104.217 30.4178 103.047 31.8998 101.234 31.8998Z" fill="#232431"/>
<path d="M113.166 33.3818C116.169 33.3818 118.255 31.2953 118.255 28.2533C118.255 25.2113 116.169 23.1248 113.166 23.1248C110.163 23.1248 108.076 25.2113 108.076 28.2533C108.076 31.2953 110.163 33.3818 113.166 33.3818ZM113.166 31.8998C111.45 31.8998 110.026 30.4763 110.026 28.2533C110.026 26.0303 111.45 24.6068 113.166 24.6068C114.862 24.6068 116.305 26.0303 116.305 28.2533C116.305 30.4763 114.882 31.8998 113.166 31.8998Z" fill="#232431"/>
<path d="M128.748 25.8938C128.748 24.4118 127.676 23.2808 124.848 23.2808H120.831V33.2258H125.238C127.871 33.2258 129.138 31.9583 129.138 30.3203C129.138 29.1698 128.495 28.4288 127.247 28.0193V27.9803C128.241 27.5708 128.748 26.9273 128.748 25.8938ZM122.664 31.7438V28.7993H125.238C126.564 28.7993 127.149 29.3843 127.149 30.2813C127.149 31.1783 126.564 31.7438 125.238 31.7438H122.664ZM122.664 27.3173V24.7628H124.848C126.174 24.7628 126.759 25.3283 126.759 26.0303C126.759 26.7323 126.174 27.3173 124.848 27.3173H122.664Z" fill="#232431"/>
<path d="M134.05 33.3818C135.298 33.3818 136.702 32.9333 137.54 31.7048H137.579V33.2258H139.451V27.0443C139.451 24.2948 137.852 23.1248 135.142 23.1248C133.933 23.1248 132.568 23.3588 131.573 23.7878V25.5038C132.763 24.8603 133.855 24.6458 134.908 24.6458C136.546 24.6458 137.618 25.2698 137.618 26.6933V27.0248H135.785C132.314 27.0248 130.657 28.2338 130.657 30.3983C130.657 32.2508 131.983 33.3818 134.05 33.3818ZM134.498 31.8218C133.328 31.8218 132.607 31.2758 132.607 30.2813C132.607 29.2088 133.445 28.4288 135.863 28.4288H137.618V29.0528C137.618 30.5738 136.312 31.8218 134.498 31.8218Z" fill="#232431"/>
<path d="M142.369 33.2258H144.202V28.7993H149.194V33.2258H151.027V23.2808H149.194V27.3173H144.202V23.2808H142.369V33.2258Z" fill="#232431"/>
<path d="M154.271 33.2258H156.591L161.154 25.4258H161.193V33.2258H163.026V23.2808H160.706L156.143 31.0808H156.104V23.2808H154.271V33.2258Z" fill="#232431"/>
<path d="M174.848 28.6628V28.1558C174.848 24.7823 173.132 23.1248 170.304 23.1248C167.672 23.1248 165.605 25.0358 165.605 28.0778C165.605 31.3928 167.496 33.3818 170.85 33.3818C172.449 33.3818 173.541 33.0698 174.165 32.8748V31.0808C173.424 31.5098 172.157 31.8608 170.967 31.8608C168.959 31.8608 167.711 30.7103 167.496 28.6628H174.848ZM170.285 24.6068C171.786 24.6068 172.898 25.5818 172.898 27.2978H167.496C167.73 25.6598 168.764 24.6068 170.285 24.6068Z" fill="#232431"/>
</svg>
