<svg width="246" height="36" viewBox="0 0 246 36" fill="none" xmlns="http://www.w3.org/2000/svg">
<path d="M0 0H36V36H0V0Z" fill="#DA321B"/>
<path d="M24.9983 12H20.9983L16.9983 24H20.9983L24.9983 12Z" fill="white"/>
<path d="M28 8V4L20 4V8H28Z" fill="white"/>
<path d="M7.99829 28L7.99829 32L19.9983 32L19.9983 28L7.99829 28Z" fill="white"/>
<path d="M27.9983 28L31.9983 28L31.9983 24L27.9983 24L27.9983 28Z" fill="white"/>
<path d="M7.99829 8L3.99829 8L3.99829 12L7.99829 12L7.99829 8Z" fill="white"/>
<path d="M31.9983 8H27.9983V12H31.9983V8Z" fill="white"/>
<path d="M3.99829 28L7.99829 28L7.99829 24L3.99829 24L3.99829 28Z" fill="white"/>
<path d="M12.9983 24L16.9983 24L16.9983 14L12.9983 14L12.9983 24Z" fill="white"/>
<path d="M28 32L28 28L20 28L20 32L28 32Z" fill="white"/>
<path d="M7.99829 4L7.99829 8L19.9983 8L19.9983 4L7.99829 4Z" fill="white"/>
<path d="M48.9725 22.1559C48.2055 22.1559 47.51 22.0324 46.886 21.7854C46.275 21.5384 45.755 21.1939 45.326 20.7519C44.897 20.2969 44.5655 19.7574 44.3315 19.1334C44.1105 18.4964 44 17.7944 44 17.0274C44 16.2604 44.117 15.5649 44.351 14.9409C44.585 14.3039 44.9165 13.7644 45.3455 13.3224C45.7875 12.8674 46.314 12.5164 46.925 12.2694C47.536 12.0224 48.225 11.8989 48.992 11.8989C49.382 11.8989 49.7265 11.9184 50.0255 11.9574C50.3375 11.9964 50.604 12.0419 50.825 12.0939C51.072 12.1459 51.2865 12.2109 51.4685 12.2889V13.8684C51.2735 13.7774 51.059 13.6994 50.825 13.6344C50.617 13.5694 50.3765 13.5109 50.1035 13.4589C49.8305 13.4069 49.525 13.3809 49.187 13.3809C48.147 13.3809 47.3475 13.6994 46.7885 14.3364C46.2295 14.9604 45.95 15.8574 45.95 17.0274C45.95 18.1974 46.2295 19.1009 46.7885 19.7379C47.3475 20.3619 48.1405 20.6739 49.1675 20.6739C49.5055 20.6739 49.811 20.6479 50.084 20.5959C50.37 20.5439 50.617 20.4854 50.825 20.4204C51.059 20.3554 51.2735 20.2709 51.4685 20.1669V21.7659C51.2735 21.8439 51.0525 21.9089 50.8055 21.9609C50.5845 22.0129 50.318 22.0584 50.006 22.0974C49.694 22.1364 49.3495 22.1559 48.9725 22.1559Z" fill="#232431"/>
<path d="M58.4586 22.1559C57.7046 22.1559 57.0156 22.0324 56.3916 21.7854C55.7676 21.5384 55.2281 21.1874 54.7731 20.7324C54.3311 20.2774 53.9866 19.7379 53.7396 19.1139C53.4926 18.4899 53.3691 17.7944 53.3691 17.0274C53.3691 16.2734 53.4926 15.5844 53.7396 14.9604C53.9866 14.3234 54.3311 13.7774 54.7731 13.3224C55.2281 12.8674 55.7676 12.5164 56.3916 12.2694C57.0156 12.0224 57.7046 11.8989 58.4586 11.8989C59.2126 11.8989 59.9016 12.0224 60.5256 12.2694C61.1496 12.5164 61.6826 12.8674 62.1246 13.3224C62.5796 13.7774 62.9306 14.3234 63.1776 14.9604C63.4246 15.5844 63.5481 16.2734 63.5481 17.0274C63.5481 17.7944 63.4246 18.4899 63.1776 19.1139C62.9306 19.7379 62.5796 20.2774 62.1246 20.7324C61.6826 21.1874 61.1496 21.5384 60.5256 21.7854C59.9016 22.0324 59.2126 22.1559 58.4586 22.1559ZM58.4586 20.6739C58.8876 20.6739 59.2906 20.5894 59.6676 20.4204C60.0576 20.2514 60.3891 20.0109 60.6621 19.6989C60.9481 19.3739 61.1756 18.9904 61.3446 18.5484C61.5136 18.0934 61.5981 17.5864 61.5981 17.0274C61.5981 16.4684 61.5136 15.9679 61.3446 15.5259C61.1756 15.0709 60.9481 14.6874 60.6621 14.3754C60.3761 14.0504 60.0446 13.8034 59.6676 13.6344C59.2906 13.4654 58.8876 13.3809 58.4586 13.3809C58.0296 13.3809 57.6201 13.4654 57.2301 13.6344C56.8531 13.8034 56.5216 14.0504 56.2356 14.3754C55.9626 14.6874 55.7416 15.0709 55.5726 15.5259C55.4036 15.9679 55.3191 16.4684 55.3191 17.0274C55.3191 17.5864 55.4036 18.0934 55.5726 18.5484C55.7416 18.9904 55.9626 19.3739 56.2356 19.6989C56.5216 20.0109 56.8531 20.2514 57.2301 20.4204C57.6201 20.5894 58.0296 20.6739 58.4586 20.6739Z" fill="#232431"/>
<path d="M66.1244 12.0549H72.4424V13.5369H67.9574V21.9999H66.1244V12.0549Z" fill="#232431"/>
<path d="M73.7887 22.1559C73.5547 22.1559 73.3402 22.1364 73.1452 22.0974C72.9632 22.0584 72.8722 22.0324 72.8722 22.0194V20.3619C72.9242 20.3879 72.9827 20.4074 73.0477 20.4204C73.1777 20.4464 73.3077 20.4594 73.4377 20.4594C73.7627 20.4594 74.0292 20.3229 74.2372 20.0499C74.4582 19.7769 74.6337 19.3414 74.7637 18.7434C74.9067 18.1324 75.0042 17.3459 75.0562 16.3839C75.1212 15.4089 75.1537 14.2259 75.1537 12.8349V12.0549H82.4857V21.9999H80.6527V13.5369H76.8112V13.8099C76.8112 15.3179 76.7462 16.6049 76.6162 17.6709C76.4992 18.7239 76.3172 19.5819 76.0702 20.2449C75.8232 20.9079 75.5112 21.3954 75.1342 21.7074C74.7572 22.0064 74.3087 22.1559 73.7887 22.1559Z" fill="#232431"/>
<path d="M88.2741 22.1559C87.2341 22.1559 86.4086 21.8959 85.7976 21.3759C85.1866 20.8429 84.8811 20.1084 84.8811 19.1724C84.8811 18.0804 85.2971 17.2484 86.1291 16.6764C86.9741 16.0914 88.2676 15.7989 90.0096 15.7989H91.8426V15.4674C91.8426 14.7524 91.5956 14.2324 91.1016 13.9074C90.6076 13.5824 89.9511 13.4199 89.1321 13.4199C88.5991 13.4199 88.0596 13.4849 87.5136 13.6149C86.9676 13.7319 86.3956 13.9529 85.7976 14.2779V12.5619C86.2916 12.3409 86.8571 12.1784 87.4941 12.0744C88.1311 11.9574 88.7551 11.8989 89.3661 11.8989C90.7311 11.8989 91.7906 12.2109 92.5446 12.8349C93.2986 13.4459 93.6756 14.4404 93.6756 15.8184V21.9999H91.8036V20.4789H91.7646C91.3486 21.0899 90.8156 21.5254 90.1656 21.7854C89.5286 22.0324 88.8981 22.1559 88.2741 22.1559ZM88.7226 20.5959C89.1776 20.5959 89.5936 20.5244 89.9706 20.3814C90.3606 20.2384 90.6921 20.0434 90.9651 19.7964C91.2381 19.5364 91.4526 19.2374 91.6086 18.8994C91.7646 18.5614 91.8426 18.2039 91.8426 17.8269V17.2029H90.0876C89.4766 17.2029 88.9631 17.2484 88.5471 17.3394C88.1441 17.4304 87.8126 17.5604 87.5526 17.7294C87.2926 17.8984 87.1041 18.0934 86.9871 18.3144C86.8831 18.5354 86.8311 18.7824 86.8311 19.0554C86.8311 19.5494 87.0001 19.9329 87.3381 20.2059C87.6761 20.4659 88.1376 20.5959 88.7226 20.5959Z" fill="#232431"/>
<path d="M100.903 22.1559C100.136 22.1559 99.4402 22.0324 98.8162 21.7854C98.2052 21.5384 97.6852 21.1939 97.2562 20.7519C96.8272 20.2969 96.4957 19.7574 96.2617 19.1334C96.0407 18.4964 95.9302 17.7944 95.9302 17.0274C95.9302 16.2604 96.0472 15.5649 96.2812 14.9409C96.5152 14.3039 96.8467 13.7644 97.2757 13.3224C97.7177 12.8674 98.2442 12.5164 98.8552 12.2694C99.4662 12.0224 100.155 11.8989 100.922 11.8989C101.312 11.8989 101.657 11.9184 101.956 11.9574C102.268 11.9964 102.534 12.0419 102.755 12.0939C103.002 12.1459 103.217 12.2109 103.399 12.2889V13.8684C103.204 13.7774 102.989 13.6994 102.755 13.6344C102.547 13.5694 102.307 13.5109 102.034 13.4589C101.761 13.4069 101.455 13.3809 101.117 13.3809C100.077 13.3809 99.2777 13.6994 98.7187 14.3364C98.1597 14.9604 97.8802 15.8574 97.8802 17.0274C97.8802 18.1974 98.1597 19.1009 98.7187 19.7379C99.2777 20.3619 100.071 20.6739 101.098 20.6739C101.436 20.6739 101.741 20.6479 102.014 20.5959C102.3 20.5439 102.547 20.4854 102.755 20.4204C102.989 20.3554 103.204 20.2709 103.399 20.1669V21.7659C103.204 21.8439 102.983 21.9089 102.736 21.9609C102.515 22.0129 102.248 22.0584 101.936 22.0974C101.624 22.1364 101.28 22.1559 100.903 22.1559Z" fill="#232431"/>
<path d="M110.389 22.1559C109.635 22.1559 108.946 22.0324 108.322 21.7854C107.698 21.5384 107.158 21.1874 106.703 20.7324C106.261 20.2774 105.917 19.7379 105.67 19.1139C105.423 18.4899 105.299 17.7944 105.299 17.0274C105.299 16.2734 105.423 15.5844 105.67 14.9604C105.917 14.3234 106.261 13.7774 106.703 13.3224C107.158 12.8674 107.698 12.5164 108.322 12.2694C108.946 12.0224 109.635 11.8989 110.389 11.8989C111.143 11.8989 111.832 12.0224 112.456 12.2694C113.08 12.5164 113.613 12.8674 114.055 13.3224C114.51 13.7774 114.861 14.3234 115.108 14.9604C115.355 15.5844 115.478 16.2734 115.478 17.0274C115.478 17.7944 115.355 18.4899 115.108 19.1139C114.861 19.7379 114.51 20.2774 114.055 20.7324C113.613 21.1874 113.08 21.5384 112.456 21.7854C111.832 22.0324 111.143 22.1559 110.389 22.1559ZM110.389 20.6739C110.818 20.6739 111.221 20.5894 111.598 20.4204C111.988 20.2514 112.319 20.0109 112.592 19.6989C112.878 19.3739 113.106 18.9904 113.275 18.5484C113.444 18.0934 113.528 17.5864 113.528 17.0274C113.528 16.4684 113.444 15.9679 113.275 15.5259C113.106 15.0709 112.878 14.6874 112.592 14.3754C112.306 14.0504 111.975 13.8034 111.598 13.6344C111.221 13.4654 110.818 13.3809 110.389 13.3809C109.96 13.3809 109.55 13.4654 109.16 13.6344C108.783 13.8034 108.452 14.0504 108.166 14.3754C107.893 14.6874 107.672 15.0709 107.503 15.5259C107.334 15.9679 107.249 16.4684 107.249 17.0274C107.249 17.5864 107.334 18.0934 107.503 18.5484C107.672 18.9904 107.893 19.3739 108.166 19.6989C108.452 20.0109 108.783 20.2514 109.16 20.4204C109.55 20.5894 109.96 20.6739 110.389 20.6739Z" fill="#232431"/>
<path d="M125.972 14.6679C125.972 15.1879 125.842 15.6169 125.582 15.9549C125.335 16.2799 124.964 16.5464 124.47 16.7544V16.7934C125.731 17.2094 126.362 17.9764 126.362 19.0944C126.362 19.5104 126.277 19.8939 126.108 20.2449C125.952 20.5959 125.712 20.9014 125.387 21.1614C125.075 21.4214 124.672 21.6294 124.178 21.7854C123.697 21.9284 123.125 21.9999 122.462 21.9999H118.055V12.0549H122.072C122.774 12.0549 123.372 12.1264 123.866 12.2694C124.36 12.3994 124.763 12.5814 125.075 12.8154C125.387 13.0494 125.614 13.3289 125.757 13.6539C125.9 13.9659 125.972 14.3039 125.972 14.6679ZM122.462 20.5179C123.125 20.5179 123.606 20.3879 123.905 20.1279C124.217 19.8679 124.373 19.5104 124.373 19.0554C124.373 18.6004 124.217 18.2429 123.905 17.9829C123.606 17.7099 123.125 17.5734 122.462 17.5734H119.888V20.5179H122.462ZM122.072 16.0914C122.735 16.0914 123.216 15.9679 123.515 15.7209C123.827 15.4609 123.983 15.1554 123.983 14.8044C123.983 14.4534 123.827 14.1544 123.515 13.9074C123.216 13.6604 122.735 13.5369 122.072 13.5369H119.888V16.0914H122.072Z" fill="#232431"/>
<path d="M131.273 22.1559C130.233 22.1559 129.408 21.8959 128.797 21.3759C128.186 20.8429 127.88 20.1084 127.88 19.1724C127.88 18.0804 128.296 17.2484 129.128 16.6764C129.973 16.0914 131.267 15.7989 133.009 15.7989H134.842V15.4674C134.842 14.7524 134.595 14.2324 134.101 13.9074C133.607 13.5824 132.95 13.4199 132.131 13.4199C131.598 13.4199 131.059 13.4849 130.513 13.6149C129.967 13.7319 129.395 13.9529 128.797 14.2779V12.5619C129.291 12.3409 129.856 12.1784 130.493 12.0744C131.13 11.9574 131.754 11.8989 132.365 11.8989C133.73 11.8989 134.79 12.2109 135.544 12.8349C136.298 13.4459 136.675 14.4404 136.675 15.8184V21.9999H134.803V20.4789H134.764C134.348 21.0899 133.815 21.5254 133.165 21.7854C132.528 22.0324 131.897 22.1559 131.273 22.1559ZM131.722 20.5959C132.177 20.5959 132.593 20.5244 132.97 20.3814C133.36 20.2384 133.691 20.0434 133.964 19.7964C134.237 19.5364 134.452 19.2374 134.608 18.8994C134.764 18.5614 134.842 18.2039 134.842 17.8269V17.2029H133.087C132.476 17.2029 131.962 17.2484 131.546 17.3394C131.143 17.4304 130.812 17.5604 130.552 17.7294C130.292 17.8984 130.103 18.0934 129.986 18.3144C129.882 18.5354 129.83 18.7824 129.83 19.0554C129.83 19.5494 129.999 19.9329 130.337 20.2059C130.675 20.4659 131.137 20.5959 131.722 20.5959Z" fill="#232431"/>
<path d="M139.592 12.0549H141.425V16.0914H146.417V12.0549H148.25V21.9999H146.417V17.5734H141.425V21.9999H139.592V12.0549Z" fill="#232431"/>
<path d="M151.494 12.0549H153.327V19.8549H153.366L157.929 12.0549H160.25V21.9999H158.417V14.1999H158.378L153.815 21.9999H151.494V12.0549Z" fill="#232431"/>
<path d="M164.759 18.0999C164.252 17.8659 163.829 17.5084 163.491 17.0274C163.153 16.5464 162.984 15.9549 162.984 15.2529C162.984 14.2779 163.29 13.5044 163.901 12.9324C164.512 12.3474 165.454 12.0549 166.728 12.0549H171.174V21.9999H169.341V18.4509H166.572L164.622 21.9999H162.458L164.759 18.0999ZM169.341 16.9689V13.5369H166.728C166.091 13.5369 165.617 13.6929 165.305 14.0049C165.006 14.3169 164.856 14.7394 164.856 15.2724C164.856 15.7924 165.012 16.2084 165.324 16.5204C165.636 16.8194 166.104 16.9689 166.728 16.9689H169.341Z" fill="#232431"/>
</svg>
