<svg width="246" height="37" viewBox="0 0 246 37" fill="none" xmlns="http://www.w3.org/2000/svg">
<rect width="36" height="36" fill="#2AB7C1"/>
<path d="M16 19.999V15.999H8V19.999H16Z" fill="white"/>
<path d="M28 7.99902V3.99902L16 3.99902V7.99902L28 7.99902Z" fill="white"/>
<path d="M8 15.999H4V27.999H8V15.999Z" fill="white"/>
<path d="M20 8.00049H16V16.0005H20V8.00049Z" fill="white"/>
<path d="M20 32.001V28.001H8V32.001H20Z" fill="white"/>
<path d="M28 19.999V15.999H20V19.999H28Z" fill="white"/>
<path d="M20 20.0005H16V28.0005H20V20.0005Z" fill="white"/>
<path d="M32 8.00049H28V20.0005H32V8.00049Z" fill="white"/>
<path d="M44 14.0024H45.833V5.53937H50.63V14.0024H52.463V4.05737H44V14.0024Z" fill="#232431"/>
<path d="M60.1189 14.1584C63.1219 14.1584 65.2084 12.0719 65.2084 9.02987C65.2084 5.98787 63.1219 3.90137 60.1189 3.90137C57.1159 3.90137 55.0294 5.98787 55.0294 9.02987C55.0294 12.0719 57.1159 14.1584 60.1189 14.1584ZM60.1189 12.6764C58.4029 12.6764 56.9794 11.2529 56.9794 9.02987C56.9794 6.80687 58.4029 5.38337 60.1189 5.38337C61.8154 5.38337 63.2584 6.80687 63.2584 9.02987C63.2584 11.2529 61.8349 12.6764 60.1189 12.6764Z" fill="#232431"/>
<path d="M67.3557 14.1584C69.4227 14.1584 70.3782 11.8574 70.3782 5.81237V5.53937H74.2197V14.0024H76.0527V4.05737H68.7207V4.83737C68.7207 10.3949 68.2917 12.4619 67.0047 12.4619C66.7317 12.4619 66.4392 12.3644 66.4392 12.3644V14.0219C66.4392 14.0414 66.8877 14.1584 67.3557 14.1584Z" fill="#232431"/>
<path d="M79.2866 14.0024H81.6071L86.1701 6.20237H86.2091V14.0024H88.0421V4.05737H85.7216L81.1586 11.8574H81.1196V4.05737H79.2866V14.0024Z" fill="#232431"/>
<path d="M91.2837 14.0024H93.1167V5.53937H97.6017V4.05737H91.2837V14.0024Z" fill="#232431"/>
<path d="M103.899 14.1584C106.902 14.1584 108.988 12.0719 108.988 9.02987C108.988 5.98787 106.902 3.90137 103.899 3.90137C100.896 3.90137 98.8092 5.98787 98.8092 9.02987C98.8092 12.0719 100.896 14.1584 103.899 14.1584ZM103.899 12.6764C102.183 12.6764 100.759 11.2529 100.759 9.02987C100.759 6.80687 102.183 5.38337 103.899 5.38337C105.595 5.38337 107.038 6.80687 107.038 9.02987C107.038 11.2529 105.615 12.6764 103.899 12.6764Z" fill="#232431"/>
<path d="M111.564 14.0024H113.397V9.57587H118.389V14.0024H120.222V4.05737H118.389V8.09387H113.397V4.05737H111.564V14.0024Z" fill="#232431"/>
<path d="M123.466 14.0024H127.308C130.135 14.0024 131.403 12.7349 131.403 10.7654C131.403 8.77637 130.135 7.48937 127.308 7.48937H125.299V4.05737H123.466V14.0024ZM125.299 12.5204V8.97137H127.308C128.848 8.97137 129.531 9.67337 129.531 10.7654C129.531 11.8379 128.848 12.5204 127.308 12.5204H125.299ZM133.509 14.0024H135.342V4.05737H133.509V14.0024Z" fill="#232431"/>
<path d="M44 32.0024H46.3205L50.8835 24.2024H50.9225V32.0024H52.7555V22.0574H50.435L45.872 29.8574H45.833V22.0574H44V32.0024Z" fill="#232431"/>
<path d="M64.8007 32.1584C66.3412 32.1584 67.2967 31.7684 67.2967 31.7684V30.1694C67.2967 30.1694 66.3607 30.6764 64.9957 30.6764C62.9482 30.6764 61.7782 29.3504 61.7782 27.0299C61.7782 24.7094 62.9482 23.3834 65.0152 23.3834C66.3607 23.3834 67.2967 23.8709 67.2967 23.8709V22.2914C67.2967 22.2914 66.3997 21.9014 64.8202 21.9014C61.7782 21.9014 59.8282 23.9684 59.8282 27.0299C59.8282 30.0914 61.7197 32.1584 64.8007 32.1584Z" fill="#232431"/>
<path d="M71.7886 30.6959H71.8666C72.4321 31.4174 73.5631 32.1584 75.1621 32.1584C77.9896 32.1584 79.6666 29.7794 79.6666 26.9519C79.6666 24.0659 77.9896 21.9014 75.0646 21.9014C74.2846 21.9014 72.8026 22.0769 71.7496 23.4809H71.7106V22.0574H69.9556V36.3704H71.7886V30.6959ZM74.7331 30.6764C72.9391 30.6764 71.7886 29.2529 71.7886 27.0494C71.7886 24.8264 72.9586 23.3834 74.7916 23.3834C76.5661 23.3834 77.7166 24.7679 77.7166 26.8934C77.7166 29.1944 76.5466 30.6764 74.7331 30.6764Z" fill="#232431"/>
<path d="M90.8183 27.4394V26.9324C90.8183 23.5589 89.1023 21.9014 86.2748 21.9014C83.6423 21.9014 81.5753 23.8124 81.5753 26.8544C81.5753 30.1694 83.4668 32.1584 86.8208 32.1584C88.4198 32.1584 89.5118 31.8464 90.1358 31.6514V29.8574C89.3948 30.2864 88.1273 30.6374 86.9378 30.6374C84.9293 30.6374 83.6813 29.4869 83.4668 27.4394H90.8183ZM86.2553 23.3834C87.7568 23.3834 88.8683 24.3584 88.8683 26.0744H83.4668C83.7008 24.4364 84.7343 23.3834 86.2553 23.3834Z" fill="#232431"/>
<path d="M92.1091 30.5204V34.8104H93.8641V32.0024H101.333V34.8104H103.088V30.5204H101.645V22.0574H94.5856L94.5466 23.7344C94.4686 27.3419 94.2931 28.9409 93.3376 30.5204H92.1091ZM96.1651 24.3194L96.1846 23.5394H99.8116V30.5204H94.9561C95.9701 28.9214 96.0871 27.1664 96.1651 24.3194Z" fill="#232431"/>
<path d="M105.052 32.0024H108.893C111.721 32.0024 112.988 30.7349 112.988 28.7654C112.988 26.7764 111.721 25.4894 108.893 25.4894H106.885V22.0574H105.052V32.0024ZM106.885 30.5204V26.9714H108.893C110.434 26.9714 111.116 27.6734 111.116 28.7654C111.116 29.8379 110.434 30.5204 108.893 30.5204H106.885ZM115.094 32.0024H116.927V22.0574H115.094V32.0024Z" fill="#232431"/>
</svg>
