<svg width="246" height="38" viewBox="0 0 246 38" fill="none" xmlns="http://www.w3.org/2000/svg">
<path d="M0 1.00098H35.9981V36.999H0V1.00098Z" fill="#5974FF"/>
<path d="M27.9985 28.9998V25H7.99957V28.9998H27.9985Z" fill="white"/>
<path d="M27.9985 13.0008V9.00098L7.99957 9.00098V13.0008L27.9985 13.0008Z" fill="white"/>
<path d="M7.99957 28.9996L7.99957 13.0005H3.99979L3.99979 28.9996H7.99957Z" fill="white"/>
<path d="M31.9983 25.0001V9.00098H27.9985V25.0001H31.9983Z" fill="white"/>
<path d="M13.9992 19.0003V15.0005H9.99945V19.0003H13.9992Z" fill="white"/>
<path d="M25.9986 22.9998V19H21.9988V22.9998H25.9986Z" fill="white"/>
<path d="M47.4708 15.1481H49.3037V6.68553H52.7745V5.20361H44V6.68553H47.4708V15.1481Z" fill="#232431"/>
<path d="M56.5275 13.8416H56.6055C57.1709 14.5631 58.3019 15.3041 59.9008 15.3041C62.7281 15.3041 64.405 12.9252 64.405 10.0978C64.405 7.212 62.7281 5.04762 59.8033 5.04762C59.0233 5.04762 57.5414 5.22311 56.4885 6.62703H56.4495V5.20361H54.6946V19.5158H56.5275V13.8416ZM59.4718 13.8221C57.6779 13.8221 56.5275 12.3987 56.5275 10.1953C56.5275 7.97246 57.6974 6.52954 59.5303 6.52954C61.3047 6.52954 62.4551 7.91396 62.4551 10.0393C62.4551 12.3402 61.2852 13.8221 59.4718 13.8221Z" fill="#232431"/>
<path d="M69.4358 15.3041C70.6837 15.3041 72.0876 14.8556 72.9261 13.6272H72.9651V15.1481H74.837V8.9669C74.837 6.21755 73.2381 5.04762 70.5277 5.04762C69.3188 5.04762 67.9538 5.2816 66.9594 5.71058V7.42649C68.1488 6.78302 69.2408 6.56853 70.2937 6.56853C71.9316 6.56853 73.0041 7.1925 73.0041 8.61592V8.94741H71.1712C67.7004 8.94741 66.043 10.1563 66.043 12.3207C66.043 14.1731 67.3689 15.3041 69.4358 15.3041ZM69.8842 13.7441C68.7143 13.7441 67.9928 13.1982 67.9928 12.2037C67.9928 11.1313 68.8313 10.3513 71.2492 10.3513H73.0041V10.9753C73.0041 12.4962 71.6976 13.7441 69.8842 13.7441Z" fill="#232431"/>
<path d="M77.7544 15.1481H79.5873V10.7218H84.579V15.1481H86.4119V5.20361H84.579V9.23989H79.5873V5.20361H77.7544V15.1481Z" fill="#232431"/>
<path d="M92.0929 15.3041C95.3298 15.3041 96.6557 13.9976 96.6557 12.3987C96.6557 11.2093 95.9147 10.2343 94.5108 9.92235V9.90285C95.6807 9.51288 96.2657 8.73292 96.2657 7.67997C96.2657 6.13956 94.9983 5.04762 92.1709 5.04762C90.4745 5.04762 89.2656 5.4376 89.2656 5.4376V7.03651C89.2656 7.03651 90.533 6.52954 92.0539 6.52954C93.5749 6.52954 94.3158 7.05601 94.3158 7.89446C94.3158 8.69392 93.6529 9.25939 92.0734 9.25939H90.767V10.7023H92.3659C93.9453 10.7023 94.7058 11.2873 94.7058 12.2037C94.7058 13.2177 93.7698 13.8221 91.8979 13.8221C90.065 13.8221 88.8951 13.2372 88.8951 13.2372V14.8166C88.8951 14.8361 90.0455 15.3041 92.0929 15.3041Z" fill="#232431"/>
<path d="M101.579 15.3041C102.826 15.3041 104.23 14.8556 105.069 13.6272H105.108V15.1481H106.98V8.9669C106.98 6.21755 105.381 5.04762 102.671 5.04762C101.462 5.04762 100.097 5.2816 99.1022 5.71058V7.42649C100.292 6.78302 101.384 6.56853 102.437 6.56853C104.074 6.56853 105.147 7.1925 105.147 8.61592V8.94741H103.314C99.8432 8.94741 98.1857 10.1563 98.1857 12.3207C98.1857 14.1731 99.5117 15.3041 101.579 15.3041ZM102.027 13.7441C100.857 13.7441 100.136 13.1982 100.136 12.2037C100.136 11.1313 100.974 10.3513 103.392 10.3513H105.147V10.9753C105.147 12.4962 103.84 13.7441 102.027 13.7441Z" fill="#232431"/>
<path d="M109.897 15.1481H111.73V10.7023H113.563L116.8 15.1481H119.081L115.22 9.92235L118.613 5.20361H116.468L113.582 9.22039H111.73V5.20361H109.897V15.1481Z" fill="#232431"/>
<path d="M128.898 17.9559H130.652V13.6662H129.209V5.20361H127.377V13.6662H122.755V5.20361H120.922V15.1481H128.898V17.9559Z" fill="#232431"/>
<path d="M132.614 15.1481H134.935L139.497 7.34849H139.536V15.1481H141.369V5.20361H139.049L134.486 13.0032H134.447V5.20361H132.614V15.1481Z" fill="#232431"/>
<path d="M149.037 15.3041C152.04 15.3041 154.126 13.2177 154.126 10.1758C154.126 7.134 152.04 5.04762 149.037 5.04762C146.034 5.04762 143.948 7.134 143.948 10.1758C143.948 13.2177 146.034 15.3041 149.037 15.3041ZM149.037 13.8221C147.321 13.8221 145.898 12.3987 145.898 10.1758C145.898 7.95296 147.321 6.52954 149.037 6.52954C150.733 6.52954 152.176 7.95296 152.176 10.1758C152.176 12.3987 150.753 13.8221 149.037 13.8221Z" fill="#232431"/>
<path d="M156.702 15.1481H158.535V10.7218H163.527V15.1481H165.36V5.20361H163.527V9.23989H158.535V5.20361H156.702V15.1481Z" fill="#232431"/>
<path d="M168.603 15.1481H170.436V10.7218H175.428V15.1481H177.261V5.20361H175.428V9.23989H170.436V5.20361H168.603V15.1481Z" fill="#232431"/>
<path d="M180.505 15.1481H184.346C187.173 15.1481 188.441 13.8806 188.441 11.9112C188.441 9.92235 187.173 8.63542 184.346 8.63542H182.338V5.20361H180.505V15.1481ZM182.338 13.6662V10.1173H184.346C185.886 10.1173 186.569 10.8193 186.569 11.9112C186.569 12.9837 185.886 13.6662 184.346 13.6662H182.338ZM190.547 15.1481H192.38V5.20361H190.547V15.1481Z" fill="#232431"/>
<path d="M195.624 15.1481H197.944L202.507 7.34849H202.546V15.1481H204.379V5.20361H202.059L197.496 13.0032H197.457V5.20361H195.624V15.1481ZM200.07 3.13672C201.708 3.13672 202.956 2.29827 203.034 0.484863H201.708C201.571 1.34282 200.967 1.81079 200.07 1.81079C199.173 1.81079 198.51 1.34282 198.373 0.484863H196.989C197.067 2.29827 198.432 3.13672 200.07 3.13672Z" fill="#232431"/>
<path d="M45.3259 33.1471H47.1588V24.9575H47.1978L49.9082 30.6122H51.7411L54.4514 24.9575H54.4904V33.1471H56.3233V23.2026H53.574L50.8636 28.8768L48.1533 23.2026H45.3259V33.1471Z" fill="#232431"/>
<path d="M63.9956 33.3031C66.9984 33.3031 69.0848 31.2167 69.0848 28.1749C69.0848 25.133 66.9984 23.0466 63.9956 23.0466C60.9927 23.0466 58.9063 25.133 58.9063 28.1749C58.9063 31.2167 60.9927 33.3031 63.9956 33.3031ZM63.9956 31.8212C62.2797 31.8212 60.8562 30.3977 60.8562 28.1749C60.8562 25.952 62.2797 24.5286 63.9956 24.5286C65.692 24.5286 67.1349 25.952 67.1349 28.1749C67.1349 30.3977 65.7115 31.8212 63.9956 31.8212Z" fill="#232431"/>
<path d="M71.6609 33.1471H73.4938V28.7208H78.4856V33.1471H80.3185V23.2026H78.4856V27.2389H73.4938V23.2026H71.6609V33.1471Z" fill="#232431"/>
<path d="M83.5621 33.1471H85.8825L90.4453 25.3475H90.4843V33.1471H92.3172V23.2026H89.9968L85.434 31.0022H85.3951V23.2026H83.5621V33.1471Z" fill="#232431"/>
<path d="M97.7035 33.1471H99.5364V24.6846H103.007V23.2026H94.2326V24.6846H97.7035V33.1471Z" fill="#232431"/>
<path d="M109.068 33.3031C112.071 33.3031 114.157 31.2167 114.157 28.1749C114.157 25.133 112.071 23.0466 109.068 23.0466C106.065 23.0466 103.979 25.133 103.979 28.1749C103.979 31.2167 106.065 33.3031 109.068 33.3031ZM109.068 31.8212C107.352 31.8212 105.929 30.3977 105.929 28.1749C105.929 25.952 107.352 24.5286 109.068 24.5286C110.764 24.5286 112.207 25.952 112.207 28.1749C112.207 30.3977 110.784 31.8212 109.068 31.8212Z" fill="#232431"/>
<path d="M118.566 31.8407H118.644C119.21 32.5621 120.341 33.3031 121.939 33.3031C124.767 33.3031 126.444 30.9242 126.444 28.0969C126.444 25.211 124.767 23.0466 121.842 23.0466C121.062 23.0466 119.58 23.2221 118.527 24.6261H118.488V23.2026H116.733V37.5149H118.566V31.8407ZM121.51 31.8212C119.717 31.8212 118.566 30.3977 118.566 28.1944C118.566 25.9715 119.736 24.5286 121.569 24.5286C123.343 24.5286 124.494 25.913 124.494 28.0384C124.494 30.3393 123.324 31.8212 121.51 31.8212Z" fill="#232431"/>
<path d="M129.015 33.1471H131.336L135.898 25.3475H135.937V33.1471H137.77V23.2026H135.45L130.887 31.0022H130.848V23.2026H129.015V33.1471Z" fill="#232431"/>
<path d="M141.012 33.1471H142.845V28.7208H147.836V33.1471H149.669V23.2026H147.836V27.2389H142.845V23.2026H141.012V33.1471Z" fill="#232431"/>
<path d="M152.913 33.1471H154.746V24.6846H159.231V23.2026H152.913V33.1471Z" fill="#232431"/>
</svg>
