<svg width="246" height="38" viewBox="0 0 246 38" fill="none" xmlns="http://www.w3.org/2000/svg">
<rect y="1" width="36" height="36" fill="#31A7FD"/>
<path d="M23.9751 8.99902V4.99902L11.9751 4.99902V8.99902H23.9751Z" fill="white"/>
<path d="M23.9751 33.001V29.001H11.9751V33.001H23.9751Z" fill="white"/>
<path d="M11.9751 9.00097L11.9751 29.001H7.9751L7.9751 9.00097H11.9751Z" fill="white"/>
<path d="M27.9751 9.00097V29.001H23.9751V9.00097H27.9751Z" fill="white"/>
<path d="M19.9751 23.0005V27.0005H15.9751V23.0005H19.9751Z" fill="white"/>
<path d="M44.663 15.3625H46.496V7.1725H46.535L49.2455 12.8275H51.0785L53.789 7.1725H53.828V15.3625H55.661V5.4175H52.9115L50.201 11.092L47.4905 5.4175H44.663V15.3625Z" fill="#232431"/>
<path d="M63.3336 15.5185C66.3366 15.5185 68.4231 13.432 68.4231 10.39C68.4231 7.348 66.3366 5.2615 63.3336 5.2615C60.3306 5.2615 58.2441 7.348 58.2441 10.39C58.2441 13.432 60.3306 15.5185 63.3336 15.5185ZM63.3336 14.0365C61.6176 14.0365 60.1941 12.613 60.1941 10.39C60.1941 8.167 61.6176 6.7435 63.3336 6.7435C65.0301 6.7435 66.4731 8.167 66.4731 10.39C66.4731 12.613 65.0496 14.0365 63.3336 14.0365Z" fill="#232431"/>
<path d="M75.5234 15.5185C78.4874 15.5185 80.5154 13.3735 80.5154 10.39C80.5154 7.3675 78.7019 5.2615 75.8744 5.2615C74.2169 5.2615 72.8714 6.0805 72.1304 7.309H72.0329L72.0524 6.8215C72.1499 4.4035 73.2029 2.7265 75.7184 2.2975C77.0249 2.083 78.2534 2.239 79.6379 1.8685V0.25C77.7659 0.7375 76.7324 0.367 74.8799 0.834999C71.5064 1.693 70.3364 4.4425 70.3364 8.011C70.3364 12.5155 71.7014 15.5185 75.5234 15.5185ZM75.5234 14.0365C73.7099 14.0365 72.4619 12.4375 72.4619 10.39C72.4619 8.44 73.6124 6.7435 75.5234 6.7435C77.4344 6.7435 78.5654 8.44 78.5654 10.39C78.5654 12.379 77.3759 14.0365 75.5234 14.0365Z" fill="#232431"/>
<path d="M83.0917 15.3625H85.4122L89.9752 7.5625H90.0142V15.3625H91.8472V5.4175H89.5267L84.9637 13.2175H84.9247V5.4175H83.0917V15.3625Z" fill="#232431"/>
<path d="M94.6598 15.5185C96.7268 15.5185 97.6823 13.2175 97.6823 7.1725V6.8995H101.524V15.3625H103.357V5.4175H96.0248V6.1975C96.0248 11.755 95.5958 13.822 94.3088 13.822C94.0358 13.822 93.7433 13.7245 93.7433 13.7245V15.382C93.7433 15.4015 94.1918 15.5185 94.6598 15.5185Z" fill="#232431"/>
<path d="M106.591 15.3625H110.783C113.611 15.3625 114.878 14.0755 114.878 12.106C114.878 10.1365 113.611 8.8495 110.783 8.8495H108.424V5.4175H106.591V15.3625ZM110.783 10.3315C112.324 10.3315 113.006 11.0335 113.006 12.106C113.006 13.1785 112.343 13.8805 110.783 13.8805H108.424V10.3315H110.783Z" fill="#232431"/>
<path d="M116.931 15.3625H118.764V10.936H123.756V15.3625H125.589V5.4175H123.756V9.454H118.764V5.4175H116.931V15.3625Z" fill="#232431"/>
<path d="M131.387 15.5185C132.635 15.5185 134.039 15.07 134.878 13.8415H134.917V15.3625H136.789V9.181C136.789 6.4315 135.19 5.2615 132.479 5.2615C131.27 5.2615 129.905 5.4955 128.911 5.9245V7.6405C130.1 6.997 131.192 6.7825 132.245 6.7825C133.883 6.7825 134.956 7.4065 134.956 8.83V9.1615H133.123C129.652 9.1615 127.994 10.3705 127.994 12.535C127.994 14.3875 129.32 15.5185 131.387 15.5185ZM131.836 13.9585C130.666 13.9585 129.944 13.4125 129.944 12.418C129.944 11.3455 130.783 10.5655 133.201 10.5655H134.956V11.1895C134.956 12.7105 133.649 13.9585 131.836 13.9585Z" fill="#232431"/>
<path d="M138.673 15.3625H140.837L142.787 11.8135H145.556V15.3625H147.389V5.4175H142.943C140.408 5.4175 139.199 6.685 139.199 8.6155C139.199 10.0195 139.96 10.9945 140.974 11.4625L138.673 15.3625ZM142.943 10.3315C141.695 10.3315 141.071 9.6685 141.071 8.635C141.071 7.582 141.676 6.8995 142.943 6.8995H145.556V10.3315H142.943Z" fill="#232431"/>
<path d="M49.031 33.5185H49.8305V37.75H51.6635V33.5185H52.463C55.3685 33.5185 57.494 31.5295 57.494 28.312C57.494 24.9385 55.544 23.2615 52.619 23.2615C52.2875 23.2615 51.9755 23.281 51.6635 23.3395V18.5425H49.8305V23.32C49.499 23.3005 49.2065 23.2615 48.914 23.2615C46.0475 23.2615 44 25.153 44 28.3705C44 31.744 46.106 33.5185 49.031 33.5185ZM52.463 24.685C54.3155 24.685 55.544 25.7185 55.544 28.2535C55.544 30.9835 54.218 32.095 52.19 32.095H51.6635V24.763C51.8975 24.724 52.151 24.685 52.463 24.685ZM45.95 28.429C45.95 25.699 47.354 24.685 49.07 24.685C49.3235 24.685 49.577 24.7045 49.8305 24.7435V32.095H49.304C47.276 32.095 45.95 30.964 45.95 28.429Z" fill="#232431"/>
<path d="M68.6488 28.7995V28.2925C68.6488 24.919 66.9328 23.2615 64.1053 23.2615C61.4728 23.2615 59.4058 25.1725 59.4058 28.2145C59.4058 31.5295 61.2973 33.5185 64.6513 33.5185C66.2503 33.5185 67.3423 33.2065 67.9663 33.0115V31.2175C67.2253 31.6465 65.9578 31.9975 64.7683 31.9975C62.7598 31.9975 61.5118 30.847 61.2973 28.7995H68.6488ZM64.0858 24.7435C65.5873 24.7435 66.6988 25.7185 66.6988 27.4345H61.2973C61.5313 25.7965 62.5648 24.7435 64.0858 24.7435Z" fill="#232431"/>
<path d="M73.1181 32.056H73.1961C73.7616 32.7775 74.8926 33.5185 76.4916 33.5185C79.3191 33.5185 80.9961 31.1395 80.9961 28.312C80.9961 25.426 79.3191 23.2615 76.3941 23.2615C75.6141 23.2615 74.1321 23.437 73.0791 24.841H73.0401V23.4175H71.2851V37.7305H73.1181V32.056ZM76.0626 32.0365C74.2686 32.0365 73.1181 30.613 73.1181 28.4095C73.1181 26.1865 74.2881 24.7435 76.1211 24.7435C77.8956 24.7435 79.0461 26.128 79.0461 28.2535C79.0461 30.5545 77.8761 32.0365 76.0626 32.0365Z" fill="#232431"/>
<path d="M83.5678 33.3625H85.4008V25.1725H85.4398L88.1503 30.8275H89.9833L92.6938 25.1725H92.7328V33.3625H94.5658V23.4175H91.8163L89.1058 29.092L86.3953 23.4175H83.5678V33.3625Z" fill="#232431"/>
<path d="M100.366 33.5185C101.614 33.5185 103.018 33.07 103.857 31.8415H103.896V33.3625H105.768V27.181C105.768 24.4315 104.169 23.2615 101.458 23.2615C100.249 23.2615 98.8844 23.4955 97.8899 23.9245V25.6405C99.0794 24.997 100.171 24.7825 101.224 24.7825C102.862 24.7825 103.935 25.4065 103.935 26.83V27.1615H102.102C98.6309 27.1615 96.9734 28.3705 96.9734 30.535C96.9734 32.3875 98.2994 33.5185 100.366 33.5185ZM100.815 31.9585C99.6449 31.9585 98.9234 31.4125 98.9234 30.418C98.9234 29.3455 99.7619 28.5655 102.18 28.5655H103.935V29.1895C103.935 30.7105 102.628 31.9585 100.815 31.9585Z" fill="#232431"/>
</svg>
