<svg width="246" height="36" viewBox="0 0 246 36" fill="none" xmlns="http://www.w3.org/2000/svg">
<rect width="36" height="36" fill="#DA321B"/>
<rect x="6" y="24" width="12" height="4" transform="rotate(-90 6 24)" fill="white"/>
<rect x="24" y="30" width="12" height="4" transform="rotate(180 24 30)" fill="white"/>
<rect x="26" y="24" width="12" height="4" transform="rotate(-90 26 24)" fill="white"/>
<rect x="24" y="9.99951" width="12" height="4" transform="rotate(180 24 9.99951)" fill="white"/>
<rect x="10" y="9.99951" width="4" height="4" transform="rotate(180 10 9.99951)" fill="white"/>
<rect x="10" y="30" width="4" height="4" transform="rotate(180 10 30)" fill="white"/>
<rect x="30" y="9.99951" width="4" height="4" transform="rotate(180 30 9.99951)" fill="white"/>
<rect x="30" y="30" width="4" height="4" transform="rotate(180 30 30)" fill="white"/>
<path d="M44 12.0554H45.833V16.0724H47.6855L50.5715 12.0554H52.7165L49.3235 16.7744L53.1845 22.0004H50.903L47.666 17.5544H45.833V22.0004H44V12.0554Z" fill="#232431"/>
<path d="M59.2619 22.1564C58.5079 22.1564 57.8189 22.0329 57.195 21.7859C56.5709 21.5389 56.0314 21.1879 55.5764 20.7329C55.1344 20.2779 54.7899 19.7384 54.5429 19.1144C54.2959 18.4904 54.1724 17.7949 54.1724 17.0279C54.1724 16.2739 54.2959 15.5849 54.5429 14.9609C54.7899 14.3239 55.1344 13.7779 55.5764 13.3229C56.0314 12.8679 56.5709 12.5169 57.195 12.2699C57.8189 12.0229 58.5079 11.8994 59.2619 11.8994C60.0159 11.8994 60.7049 12.0229 61.3289 12.2699C61.9529 12.5169 62.486 12.8679 62.9279 13.3229C63.3829 13.7779 63.7339 14.3239 63.9809 14.9609C64.2279 15.5849 64.3514 16.2739 64.3514 17.0279C64.3514 17.7949 64.2279 18.4904 63.9809 19.1144C63.7339 19.7384 63.3829 20.2779 62.9279 20.7329C62.486 21.1879 61.9529 21.5389 61.3289 21.7859C60.7049 22.0329 60.0159 22.1564 59.2619 22.1564ZM59.2619 20.6744C59.6909 20.6744 60.094 20.5899 60.4709 20.4209C60.8609 20.2519 61.1924 20.0114 61.4655 19.6994C61.7514 19.3744 61.9789 18.9909 62.1479 18.5489C62.3169 18.0939 62.4014 17.5869 62.4014 17.0279C62.4014 16.4689 62.3169 15.9684 62.1479 15.5264C61.9789 15.0714 61.7514 14.6879 61.4655 14.3759C61.1795 14.0509 60.8479 13.8039 60.4709 13.6349C60.094 13.4659 59.6909 13.3814 59.2619 13.3814C58.8329 13.3814 58.4234 13.4659 58.0334 13.6349C57.6564 13.8039 57.325 14.0509 57.0389 14.3759C56.766 14.6879 56.545 15.0714 56.3759 15.5264C56.207 15.9684 56.1224 16.4689 56.1224 17.0279C56.1224 17.5869 56.207 18.0939 56.3759 18.5489C56.545 18.9909 56.766 19.3744 57.0389 19.6994C57.325 20.0114 57.6564 20.2519 58.0334 20.4209C58.4234 20.5899 58.8329 20.6744 59.2619 20.6744Z" fill="#232431"/>
<path d="M66.9277 12.0554H69.7552L72.4657 17.7299L75.1762 12.0554H77.9257V22.0004H76.0927V13.8104H76.0537L73.3432 19.4654H71.5102L68.7997 13.8104H68.7607V22.0004H66.9277V12.0554Z" fill="#232431"/>
<path d="M83.7264 22.1564C82.6864 22.1564 81.8609 21.8964 81.2499 21.3764C80.6389 20.8434 80.3334 20.1089 80.3334 19.1729C80.3334 18.0809 80.7494 17.2489 81.5814 16.6769C82.4264 16.0919 83.7199 15.7994 85.4619 15.7994H87.2949V15.4679C87.2949 14.7529 87.0479 14.2329 86.5539 13.9079C86.0599 13.5829 85.4034 13.4204 84.5844 13.4204C84.0514 13.4204 83.5119 13.4854 82.9659 13.6154C82.4199 13.7324 81.8479 13.9534 81.2499 14.2784V12.5624C81.7439 12.3414 82.3094 12.1789 82.9464 12.0749C83.5834 11.9579 84.2074 11.8994 84.8184 11.8994C86.1834 11.8994 87.2429 12.2114 87.9969 12.8354C88.7509 13.4464 89.1279 14.4409 89.1279 15.8189V22.0004H87.2559V20.4794H87.2169C86.8009 21.0904 86.2679 21.5259 85.6179 21.7859C84.9809 22.0329 84.3504 22.1564 83.7264 22.1564ZM84.1749 20.5964C84.6299 20.5964 85.0459 20.5249 85.4229 20.3819C85.8129 20.2389 86.1444 20.0439 86.4174 19.7969C86.6904 19.5369 86.9049 19.2379 87.0609 18.8999C87.2169 18.5619 87.2949 18.2044 87.2949 17.8274V17.2034H85.5399C84.9289 17.2034 84.4154 17.2489 83.9994 17.3399C83.5964 17.4309 83.2649 17.5609 83.0049 17.7299C82.7449 17.8989 82.5564 18.0939 82.4394 18.3149C82.3354 18.5359 82.2834 18.7829 82.2834 19.0559C82.2834 19.5499 82.4524 19.9334 82.7904 20.2064C83.1284 20.4664 83.5899 20.5964 84.1749 20.5964Z" fill="#232431"/>
<path d="M92.0454 12.0554H93.8784V16.0919H98.8704V12.0554H100.703V22.0004H98.8704V17.5739H93.8784V22.0004H92.0454V12.0554Z" fill="#232431"/>
<path d="M103.83 20.5184C104.064 20.1284 104.253 19.7254 104.396 19.3094C104.552 18.8804 104.675 18.4059 104.766 17.8859C104.857 17.3659 104.916 16.7679 104.942 16.0919C104.981 15.4159 105.013 14.6294 105.039 13.7324L105.078 12.0554H112.137V20.5184H113.58V24.8084H111.825V22.0004H104.357V24.8084H102.602V20.5184H103.83ZM106.658 14.3174C106.632 15.0324 106.599 15.6824 106.56 16.2674C106.534 16.8524 106.482 17.3919 106.404 17.8859C106.326 18.3799 106.209 18.8414 106.053 19.2704C105.897 19.6994 105.696 20.1154 105.449 20.5184H110.304V13.5374H106.677L106.658 14.3174Z" fill="#232431"/>
<path d="M118.099 22.1564C117.059 22.1564 116.233 21.8964 115.622 21.3764C115.011 20.8434 114.706 20.1089 114.706 19.1729C114.706 18.0809 115.122 17.2489 115.954 16.6769C116.799 16.0919 118.092 15.7994 119.834 15.7994H121.667V15.4679C121.667 14.7529 121.42 14.2329 120.926 13.9079C120.432 13.5829 119.776 13.4204 118.957 13.4204C118.424 13.4204 117.884 13.4854 117.338 13.6154C116.792 13.7324 116.22 13.9534 115.622 14.2784V12.5624C116.116 12.3414 116.682 12.1789 117.319 12.0749C117.956 11.9579 118.58 11.8994 119.191 11.8994C120.556 11.8994 121.615 12.2114 122.369 12.8354C123.123 13.4464 123.5 14.4409 123.5 15.8189V22.0004H121.628V20.4794H121.589C121.173 21.0904 120.64 21.5259 119.99 21.7859C119.353 22.0329 118.723 22.1564 118.099 22.1564ZM118.547 20.5964C119.002 20.5964 119.418 20.5249 119.795 20.3819C120.185 20.2389 120.517 20.0439 120.79 19.7969C121.063 19.5369 121.277 19.2379 121.433 18.8999C121.589 18.5619 121.667 18.2044 121.667 17.8274V17.2034H119.912C119.301 17.2034 118.788 17.2489 118.372 17.3399C117.969 17.4309 117.637 17.5609 117.377 17.7299C117.117 17.8989 116.929 18.0939 116.812 18.3149C116.708 18.5359 116.656 18.7829 116.656 19.0559C116.656 19.5499 116.825 19.9334 117.163 20.2064C117.501 20.4664 117.962 20.5964 118.547 20.5964Z" fill="#232431"/>
</svg>
