<svg width="246" height="36" viewBox="0 0 246 36" fill="none" xmlns="http://www.w3.org/2000/svg">
<rect width="36" height="36" fill="#2AB7C1"/>
<path fill-rule="evenodd" clip-rule="evenodd" d="M30 12.0005V16.0005V16.0011V16.0018V16.0025V16.0032V16.004V16.0048V16.0056V16.0065V16.0074V16.0084V16.0094V16.0104V16.0115V16.0126V16.0137V16.0149V16.0161V16.0174V16.0187V16.02V16.0214V16.0228V16.0242V16.0257V16.0272V16.0288V16.0303V16.032V16.0336V16.0353V16.0371V16.0388V16.0406V16.0425V16.0443V16.0463V16.0482V16.0502V16.0522V16.0543V16.0564V16.0585V16.0606V16.0628V16.0651V16.0674V16.0697V16.072V16.0744V16.0768V16.0792V16.0817V16.0842V16.0868V16.0894V16.092V16.0946V16.0973V16.1V16.1028V16.1056V16.1084V16.1113V16.1142V16.1171V16.1201V16.1231V16.1261V16.1292V16.1323V16.1354V16.1386V16.1418V16.145V16.1483V16.1516V16.155V16.1583V16.1617V16.1652V16.1686V16.1722V16.1757V16.1793V16.1829V16.1865V16.1902V16.1939V16.1976V16.2014V16.2052V16.209V16.2129V16.2168V16.2207V16.2247V16.2287V16.2327V16.2368V16.2409V16.245V16.2492V16.2534V16.2576V16.2619V16.2662V16.2705V16.2748V16.2792V16.2836V16.2881V16.2926V16.2971V16.3016V16.3062V16.3108V16.3154V16.3201V16.3248V16.3295V16.3343V16.3391V16.3439V16.3488V16.3536V16.3586V16.3635V16.3685V16.3735V16.3785V16.3836V16.3887V16.3938V16.399V16.4042V16.4094V16.4147V16.4199V16.4253V16.4306V16.436V16.4414V16.4468V16.4523V16.4578V16.4633V16.4688V16.4744V16.48V16.4856V16.4913V16.497V16.5027V16.5085V16.5143V16.5201V16.5259V16.5318V16.5377V16.5436V16.5496V16.5556V16.5616V16.5676V16.5737V16.5798V16.5859V16.5921V16.5983V16.6045V16.6107V16.617V16.6233V16.6296V16.636V16.6424V16.6488V16.6552V16.6617V16.6682V16.6747V16.6813V16.6878V16.6944V16.7011V16.7077V16.7144V16.7211V16.7279V16.7346V16.7414V16.7483V16.7551V16.762V16.7689V16.7758V16.7828V16.7898V16.7968V16.8038V16.8109V16.8179V16.8251V16.8322V16.8394V16.8466V16.8538V16.861V16.8683V16.8756V16.8829V16.8903V16.8976V16.905V16.9125V16.9199V16.9274V16.9349V16.9424V16.95V16.9576V16.9652V16.9728V16.9805V16.9881V16.9958V17.0036V17.0113V17.0191V17.0269V17.0347V17.0426V17.0505V17.0584V17.0663V17.0743V17.0822V17.0902V17.0983V17.1063V17.1144V17.1225V17.1306V17.1388V17.1469V17.1551V17.1633V17.1716V17.1798V17.1881V17.1964V17.2048V17.2131V17.2215V17.2299V17.2384V17.2468V17.2553V17.2638V17.2723V17.2809V17.2894V17.298V17.3066V17.3153V17.3239V17.3326V17.3413V17.35V17.3588V17.3676V17.3764V17.3852V17.394V17.4029V17.4118V17.4207V17.4296V17.4385V17.4475V17.4565V17.4655V17.4746V17.4836V17.4927V17.5018V17.5109V17.5201V17.5292V17.5384V17.5476V17.5569V17.5661V17.5754V17.5847V17.594V17.6033V17.6127V17.6221V17.6314V17.6409V17.6503V17.6598V17.6692V17.6787V17.6883V17.6978V17.7074V17.717V17.7266V17.7362V17.7458V17.7555V17.7652V17.7749V17.7846V17.7943V17.8041V17.8139V17.8237V17.8335V17.8433V17.8532V17.8631V17.873V17.8829V17.8928V17.9028V17.9128V17.9227V17.9328V17.9428V17.9528V17.9629V17.973V17.9831V17.9932V18.0034V18.0135V18.0237V18.0339V18.0441V18.0544V18.0646V18.0749V18.0852V18.0955V18.1058V18.1162V18.1265V18.1369V18.1473V18.1577V18.1681V18.1786V18.1891V18.1996V18.2101V18.2206V18.2311V18.2417V18.2522V18.2628V18.2734V18.2841V18.2947V18.3054V18.316V18.3267V18.3374V18.3482V18.3589V18.3697V18.3804V18.3912V18.402V18.4128V18.4237V18.4345V18.4454V18.4563V18.4672V18.4781V18.4891V18.5V18.511V18.522V18.533V18.544V18.555V18.566V18.5771V18.5882V18.5993V18.6104V18.6215V18.6326V18.6438V18.655V18.6661V18.6773V18.6886V18.6998V18.711V18.7223V18.7336V18.7448V18.7561V18.7675V18.7788V18.7901V18.8015V18.8129V18.8242V18.8356V18.8471V18.8585V18.8699V18.8814V18.8929V18.9043V18.9158V18.9273V18.9389V18.9504V18.962V18.9735V18.9851V18.9967V19.0083V19.0199V19.0315V19.0432V19.0549V19.0665V19.0782V19.0899V19.1016V19.1133V19.1251V19.1368V19.1486V19.1603V19.1721V19.1839V19.1957V19.2076V19.2194V19.2312V19.2431V19.255V19.2669V19.2787V19.2907V19.3026V19.3145V19.3264V19.3384V19.3504V19.3623V19.3743V19.3863V19.3983V19.4104V19.4224V19.4344V19.4465V19.4586V19.4706V19.4827V19.4948V19.5069V19.519V19.5312V19.5433V19.5555V19.5676V19.5798V19.592V19.6042V19.6164V19.6286V19.6408V19.6531V19.6653V19.6776V19.6898V19.7021V19.7144V19.7267V19.739V19.7513V19.7636V19.776V19.7883V19.8007V19.813V19.8254V19.8378V19.8502V19.8626V19.875V19.8874V19.8998V19.9123V19.9247V19.9372V19.9496V19.9621V19.9746V19.9871V19.9995C30 24.4174 26.4187 28.0005 22 28.0005V24.0005C24.2087 24.0005 26 22.2091 26 19.9995V19.9871V19.9746V19.9621V19.9496V19.9372V19.9247V19.9123V19.8998V19.8874V19.875V19.8626V19.8502V19.8378V19.8254V19.813V19.8007V19.7883V19.776V19.7636V19.7513V19.739V19.7267V19.7144V19.7021V19.6898V19.6776V19.6653V19.6531V19.6408V19.6286V19.6164V19.6042V19.592V19.5798V19.5676V19.5555V19.5433V19.5312V19.519V19.5069V19.4948V19.4827V19.4706V19.4586V19.4465V19.4344V19.4224V19.4104V19.3983V19.3863V19.3743V19.3623V19.3504V19.3384V19.3264V19.3145V19.3026V19.2907V19.2787V19.2669V19.255V19.2431V19.2312V19.2194V19.2076V19.1957V19.1839V19.1721V19.1603V19.1486V19.1368V19.1251V19.1133V19.1016V19.0899V19.0782V19.0665V19.0549V19.0432V19.0315V19.0199V19.0083V18.9967V18.9851V18.9735V18.962V18.9504V18.9389V18.9273V18.9158V18.9043V18.8929V18.8814V18.8699V18.8585V18.8471V18.8356V18.8242V18.8129V18.8015V18.7901V18.7788V18.7675V18.7561V18.7448V18.7336V18.7223V18.711V18.6998V18.6886V18.6773V18.6661V18.655V18.6438V18.6326V18.6215V18.6104V18.5993V18.5882V18.5771V18.566V18.555V18.544V18.533V18.522V18.511V18.5V18.4891V18.4781V18.4672V18.4563V18.4454V18.4345V18.4237V18.4128V18.402V18.3912V18.3804V18.3697V18.3589V18.3482V18.3374V18.3267V18.316V18.3054V18.2947V18.2841V18.2734V18.2628V18.2522V18.2417V18.2311V18.2206V18.2101V18.1996V18.1891V18.1786V18.1681V18.1577V18.1473V18.1369V18.1265V18.1162V18.1058V18.0955V18.0852V18.0749V18.0646V18.0544V18.0441V18.0339V18.0237V18.0135V18.0034V17.9932V17.9831V17.973V17.9629V17.9528V17.9428V17.9328V17.9227V17.9128V17.9028V17.8928V17.8829V17.873V17.8631V17.8532V17.8433V17.8335V17.8237V17.8139V17.8041V17.7943V17.7846V17.7749V17.7652V17.7555V17.7458V17.7362V17.7266V17.717V17.7074V17.6978V17.6883V17.6787V17.6692V17.6598V17.6503V17.6409V17.6314V17.622V17.6127V17.6033V17.594V17.5847V17.5754V17.5661V17.5569V17.5476V17.5384V17.5292V17.5201V17.5109V17.5018V17.4927V17.4836V17.4746V17.4655V17.4565V17.4475V17.4385V17.4296V17.4207V17.4118V17.4029V17.394V17.3852V17.3764V17.3676V17.3588V17.35V17.3413V17.3326V17.3239V17.3153V17.3066V17.298V17.2894V17.2809V17.2723V17.2638V17.2553V17.2468V17.2384V17.2299V17.2215V17.2131V17.2048V17.1964V17.1881V17.1798V17.1716V17.1633V17.1551V17.1469V17.1388V17.1306V17.1225V17.1144V17.1063V17.0983V17.0902V17.0822V17.0743V17.0663V17.0584V17.0505V17.0426V17.0347V17.0269V17.0191V17.0113V17.0036V16.9958V16.9881V16.9805V16.9728V16.9652V16.9576V16.95V16.9424V16.9349V16.9274V16.9199V16.9125V16.905V16.8976V16.8903V16.8829V16.8756V16.8683V16.861V16.8538V16.8466V16.8394V16.8322V16.8251V16.8179V16.8109V16.8038V16.7968V16.7898V16.7828V16.7758V16.7689V16.762V16.7551V16.7483V16.7414V16.7346V16.7279V16.7211V16.7144V16.7077V16.7011V16.6944V16.6878V16.6813V16.6747V16.6682V16.6617V16.6552V16.6488V16.6424V16.636V16.6296V16.6233V16.617V16.6107V16.6045V16.5983V16.5921V16.5859V16.5798V16.5737V16.5676V16.5616V16.5556V16.5496V16.5436V16.5377V16.5318V16.5259V16.5201V16.5143V16.5085V16.5027V16.497V16.4913V16.4856V16.48V16.4744V16.4688V16.4633V16.4578V16.4523V16.4468V16.4414V16.436V16.4306V16.4253V16.4199V16.4147V16.4094V16.4042V16.399V16.3938V16.3887V16.3836V16.3785V16.3735V16.3685V16.3635V16.3586V16.3536V16.3488V16.3439V16.3391V16.3343V16.3295V16.3248V16.3201V16.3154V16.3108V16.3062V16.3016V16.2971V16.2926V16.2881V16.2836V16.2792V16.2748V16.2705V16.2662V16.2619V16.2576V16.2534V16.2492V16.245V16.2409V16.2368V16.2327V16.2287V16.2247V16.2207V16.2168V16.2129V16.209V16.2052V16.2014V16.1976V16.1939V16.1902V16.1865V16.1829V16.1793V16.1757V16.1722V16.1686V16.1652V16.1617V16.1583V16.155V16.1516V16.1483V16.145V16.1418V16.1386V16.1354V16.1323V16.1292V16.1261V16.1231V16.1201V16.1171V16.1142V16.1113V16.1084V16.1056V16.1028V16.1V16.0973V16.0946V16.092V16.0894V16.0868V16.0842V16.0817V16.0792V16.0768V16.0744V16.072V16.0697V16.0673V16.0651V16.0628V16.0606V16.0585V16.0564V16.0543V16.0522V16.0502V16.0482V16.0463V16.0443V16.0425V16.0406V16.0388V16.0371V16.0353V16.0336V16.032V16.0303V16.0288V16.0272V16.0257V16.0242V16.0228V16.0214V16.02V16.0187V16.0174V16.0161V16.0149V16.0137V16.0126V16.0115V16.0104V16.0094V16.0084V16.0074V16.0065V16.0056V16.0048V16.004V16.0032V16.0025V16.0018V16.0011V16.0005V12.0005C26 9.79176 24.2086 8.00049 21.9991 8.00049H21.9866H21.9741H21.9616H21.9491H21.9367H21.9242H21.9118H21.8993H21.8869H21.8745H21.8621H21.8497H21.8373H21.8249H21.8125H21.8002H21.7878H21.7755H21.7631H21.7508H21.7385H21.7262H21.7139H21.7016H21.6893H21.6771H21.6648H21.6526H21.6403H21.6281H21.6159H21.6037H21.5915H21.5793H21.5671H21.555H21.5428H21.5307H21.5186H21.5064H21.4943H21.4822H21.4701H21.4581H21.446H21.4339H21.4219H21.4099H21.3978H21.3858H21.3738H21.3618H21.3499H21.3379H21.326H21.314H21.3021H21.2902H21.2783L21.2664 8.00049H21.2545H21.2426H21.2308H21.2189H21.2071H21.1952H21.1834H21.1716H21.1599H21.1481H21.1363H21.1246H21.1128H21.1011H21.0894H21.0777H21.066H21.0544H21.0427H21.0311H21.0194H21.0078H20.9962H20.9846H20.973H20.9615H20.9499H20.9384H20.9269H20.9153H20.9038H20.8924H20.8809H20.8694H20.858H20.8466H20.8351H20.8237H20.8124H20.801H20.7896H20.7783H20.767H20.7556H20.7443H20.7331H20.7218H20.7105H20.6993H20.6881H20.6769H20.6657H20.6545H20.6433H20.6322H20.621H20.6099H20.5988H20.5877H20.5766H20.5656H20.5545H20.5435H20.5325H20.5215H20.5105H20.4995H20.4886H20.4776H20.4667H20.4558H20.4449H20.4341H20.4232H20.4124H20.4015H20.3907H20.3799H20.3692H20.3584H20.3477H20.3369H20.3262H20.3155H20.3049H20.2942H20.2836H20.2729H20.2623H20.2518H20.2412H20.2306H20.2201H20.2096H20.1991H20.1886H20.1781H20.1677H20.1572H20.1468H20.1364H20.126H20.1157H20.1053H20.095H20.0847H20.0744H20.0641H20.0539H20.0436H20.0334H20.0232H20.013H20.0029H19.9927H19.9826H19.9725H19.9624H19.9523H19.9423H19.9323H19.9223H19.9123H19.9023H19.8923H19.8824H19.8725H19.8626H19.8527H19.8428H19.833H19.8232H19.8134H19.8036H19.7938H19.7841H19.7744H19.7647H19.755H19.7453H19.7357H19.7261H19.7165H19.7069H19.6973H19.6878H19.6783H19.6688H19.6593H19.6498H19.6404H19.631H19.6216H19.6122H19.6028H19.5935H19.5842H19.5749H19.5656H19.5564H19.5471H19.5379H19.5287H19.5196H19.5104H19.5013H19.4922H19.4831H19.4741H19.465H19.456H19.447H19.438H19.4291H19.4202H19.4113H19.4024H19.3935H19.3847H19.3759H19.3671H19.3583H19.3495H19.3408H19.3321H19.3234H19.3148H19.3061H19.2975H19.2889H19.2804H19.2718H19.2633H19.2548H19.2463H19.2379H19.2294H19.221H19.2127H19.2043H19.196H19.1876H19.1794H19.1711H19.1629H19.1546H19.1464H19.1383H19.1301H19.122H19.1139H19.1058H19.0978L19.0898 8.00049H19.0818H19.0738H19.0658H19.0579H19.05H19.0421H19.0343H19.0264H19.0186H19.0108H19.0031H18.9954H18.9877H18.98H18.9723H18.9647H18.9571H18.9495H18.9419H18.9344H18.9269H18.9194H18.912H18.9046H18.8972H18.8898H18.8824H18.8751H18.8678H18.8605H18.8533H18.8461H18.8389H18.8317H18.8246H18.8175H18.8104H18.8033H18.7963H18.7893H18.7823H18.7753H18.7684H18.7615H18.7546H18.7478H18.7409H18.7342H18.7274H18.7206H18.7139H18.7072H18.7006H18.694H18.6873H18.6808H18.6742H18.6677H18.6612H18.6547H18.6483H18.6419H18.6355H18.6292H18.6228H18.6165H18.6103H18.604H18.5978H18.5916H18.5855H18.5793H18.5732H18.5672H18.5611H18.5551H18.5491H18.5431H18.5372H18.5313H18.5254H18.5196H18.5138H18.508H18.5023H18.4965H18.4908H18.4852H18.4795H18.4739H18.4683H18.4628H18.4573H18.4518H18.4463H18.4409H18.4355H18.4301H18.4248H18.4195H18.4142H18.4089H18.4037H18.3985H18.3933H18.3882H18.3831H18.378H18.373H18.368H18.363H18.3581H18.3532H18.3483H18.3434H18.3386H18.3338H18.329H18.3243H18.3196H18.3149H18.3103H18.3057H18.3011H18.2966H18.2921H18.2876H18.2831H18.2787H18.2743H18.27H18.2657H18.2614H18.2571H18.2529H18.2487H18.2445H18.2404H18.2363H18.2323H18.2282H18.2242H18.2203H18.2163H18.2124H18.2086H18.2047H18.2009H18.1971H18.1934H18.1897H18.186H18.1824H18.1788H18.1752H18.1717H18.1682H18.1647H18.1612H18.1578H18.1545H18.1511H18.1478H18.1446H18.1413H18.1381H18.1349H18.1318H18.1287H18.1256H18.1226H18.1196H18.1166H18.1137H18.1108H18.1079H18.1051H18.1023H18.0996H18.0968H18.0941H18.0915H18.0889H18.0863H18.0837H18.0812H18.0787H18.0763H18.0739H18.0715H18.0692H18.0669H18.0646H18.0624H18.0602H18.058H18.0559H18.0538H18.0517H18.0497H18.0477H18.0458H18.0439H18.042H18.0401H18.0383H18.0366H18.0348H18.0331H18.0315H18.0299H18.0283H18.0267H18.0252H18.0237H18.0223H18.0209H18.0195H18.0182H18.0169H18.0156H18.0144H18.0132H18.0121H18.011H18.0099H18.0089H18.0079H18.0069H18.006H18.0051H18.0043H18.0035H18.0027H18.002H18.0013H18.0006H18L14 8.00049C11.7913 8.00049 10 9.79188 10 12.0014V12.0139V12.0264V12.0389V12.0514V12.0638V12.0763V12.0887V12.1012V12.1136V12.126V12.1384V12.1508V12.1632V12.1756V12.188V12.2003V12.2127V12.225V12.2373V12.2497V12.262V12.2743V12.2866V12.2989V12.3111V12.3234V12.3357V12.3479V12.3601V12.3724V12.3846V12.3968V12.409V12.4212V12.4333V12.4455V12.4577V12.4698V12.4819V12.4941V12.5062V12.5183V12.5304V12.5424V12.5545V12.5666V12.5786V12.5906V12.6026V12.6147V12.6267V12.6386V12.6506V12.6626V12.6745V12.6865V12.6984V12.7103V12.7222V12.7341V12.746V12.7579V12.7697V12.7816V12.7934V12.8052V12.8171V12.8288V12.8406V12.8524V12.8642V12.8759V12.8876V12.8994V12.9111V12.9228V12.9345V12.9461V12.9578V12.9694V12.9811V12.9927V13.0043V13.0159V13.0275V13.039V13.0506V13.0621V13.0736V13.0851V13.0966V13.1081V13.1196V13.1311V13.1425V13.1539V13.1653V13.1767V13.1881V13.1995V13.2109V13.2222V13.2335V13.2448V13.2561V13.2674V13.2787V13.29V13.3012V13.3124V13.3236V13.3348V13.346V13.3572V13.3683V13.3795V13.3906V13.4017V13.4128V13.4239V13.4349V13.446V13.457V13.468V13.479V13.49V13.501V13.5119V13.5229V13.5338V13.5447V13.5556V13.5664V13.5773V13.5881V13.599V13.6098V13.6206V13.6313V13.6421V13.6528V13.6636V13.6743V13.6849V13.6956V13.7063V13.7169V13.7275V13.7381V13.7487V13.7593V13.7699V13.7804V13.7909V13.8014V13.8119V13.8224V13.8328V13.8433V13.8537V13.8641V13.8745V13.8848V13.8952V13.9055V13.9158V13.9261V13.9364V13.9466V13.9569V13.9671V13.9773V13.9874V13.9976V14.0078V14.0179V14.028V14.0381V14.0481V14.0582V14.0682V14.0782V14.0882V14.0982V14.1082V14.1181V14.128V14.1379V14.1478V14.1576V14.1675V14.1773V14.1871V14.1969V14.2067V14.2164V14.2261V14.2358V14.2455V14.2552V14.2648V14.2744V14.284V14.2936V14.3032V14.3127V14.3222V14.3317V14.3412V14.3507V14.3601V14.3695V14.3789V14.3883V14.3977V14.407V14.4163V14.4256V14.4349V14.4441V14.4534V14.4626V14.4718V14.4809V14.4901V14.4992V14.5083V14.5174V14.5264V14.5355V14.5445V14.5535V14.5624V14.5714V14.5803V14.5892V14.5981V14.607V14.6158V14.6246V14.6334V14.6422V14.6509V14.6597V14.6684V14.6771V14.6857V14.6944V14.703V14.7116V14.7201V14.7287V14.7372V14.7457V14.7542V14.7626V14.7711V14.7795V14.7878V14.7962V14.8045V14.8128V14.8211V14.8294V14.8376V14.8459V14.8541V14.8622V14.8704V14.8785V14.8866V14.8947V14.9027V14.9107V14.9187V14.9267V14.9347V14.9426V14.9505V14.9584V14.9662V14.9741V14.9819V14.9896V14.9974V15.0051V15.0128V15.0205V15.0282V15.0358V15.0434V15.051V15.0585V15.0661V15.0736V15.0811V15.0885V15.0959V15.1033V15.1107V15.1181V15.1254V15.1327V15.14V15.1472V15.1544V15.1616V15.1688V15.1759V15.183V15.1901V15.1972V15.2042V15.2112V15.2182V15.2252V15.2321V15.239V15.2459V15.2527V15.2595V15.2663V15.2731V15.2798V15.2866V15.2932V15.2999V15.3065V15.3131V15.3197V15.3263V15.3328V15.3393V15.3458V15.3522V15.3586V15.365V15.3713V15.3777V15.384V15.3902V15.3965V15.4027V15.4089V15.415V15.4212V15.4273V15.4333V15.4394V15.4454V15.4514V15.4573V15.4633V15.4692V15.475V15.4809V15.4867V15.4925V15.4982V15.504V15.5097V15.5153V15.521V15.5266V15.5322V15.5377V15.5432V15.5487V15.5542V15.5596V15.565V15.5704V15.5757V15.581V15.5863V15.5916V15.5968V15.602V15.6071V15.6123V15.6174V15.6224V15.6275V15.6325V15.6375V15.6424V15.6473V15.6522V15.6571V15.6619V15.6667V15.6714V15.6762V15.6809V15.6855V15.6902V15.6948V15.6994V15.7039V15.7084V15.7129V15.7173V15.7218V15.7261V15.7305V15.7348V15.7391V15.7434V15.7476V15.7518V15.7559V15.7601V15.7642V15.7682V15.7723V15.7763V15.7802V15.7842V15.7881V15.7919V15.7958V15.7996V15.8034V15.8071V15.8108V15.8145V15.8181V15.8217V15.8253V15.8288V15.8323V15.8358V15.8392V15.8427V15.846V15.8494V15.8527V15.8559V15.8592V15.8624V15.8656V15.8687V15.8718V15.8749V15.8779V15.8809V15.8839V15.8868V15.8897V15.8925V15.8954V15.8982V15.9009V15.9037V15.9063V15.909V15.9116V15.9142V15.9168V15.9193V15.9218V15.9242V15.9266V15.929V15.9313V15.9336V15.9359V15.9381V15.9403V15.9425V15.9446V15.9467V15.9488V15.9508V15.9528V15.9547V15.9566V15.9585V15.9604V15.9622V15.9639V15.9657V15.9674V15.969V15.9706V15.9722V15.9738V15.9753V15.9768V15.9782V15.9796V15.981V15.9823V15.9836V15.9849V15.9861V15.9873V15.9884V15.9895V15.9906V15.9916V15.9926V15.9936V15.9945V15.9954V15.9962V15.997V15.9978V15.9985V15.9992V15.9999L10 16.0005L10 20.0005C10 22.2096 11.7909 24.0005 14 24.0005L14 28.0005C9.58172 28.0005 6 24.4188 6 20.0005L6 16.0005L6 15.9999V15.9992V15.9985V15.9978V15.997V15.9962V15.9954V15.9945V15.9936V15.9926V15.9916V15.9906V15.9895V15.9884V15.9873V15.9861V15.9849V15.9836V15.9823V15.981V15.9796V15.9782V15.9768V15.9753V15.9738V15.9722V15.9706V15.969V15.9674V15.9657V15.9639V15.9622V15.9604V15.9585V15.9566V15.9547V15.9528V15.9508V15.9488V15.9467V15.9446V15.9425V15.9403V15.9381V15.9359V15.9336V15.9313V15.929V15.9266V15.9242V15.9218V15.9193V15.9168V15.9142V15.9116V15.909V15.9063V15.9037V15.9009V15.8982V15.8954V15.8925V15.8897V15.8868V15.8839V15.8809V15.8779V15.8749V15.8718V15.8687V15.8656V15.8624V15.8592V15.8559V15.8527V15.8494V15.846V15.8427V15.8392V15.8358V15.8323V15.8288V15.8253V15.8217V15.8181V15.8145V15.8108V15.8071V15.8034V15.7996V15.7958V15.7919V15.7881V15.7842V15.7802V15.7763V15.7723V15.7682V15.7642V15.7601V15.7559V15.7518V15.7476V15.7434V15.7391V15.7348V15.7305V15.7261V15.7218V15.7173V15.7129V15.7084V15.7039V15.6994V15.6948V15.6902V15.6855V15.6809V15.6762V15.6714V15.6667V15.6619V15.6571V15.6522V15.6473V15.6424V15.6375V15.6325V15.6275V15.6224V15.6174V15.6123V15.6071V15.602V15.5968V15.5916V15.5863V15.581V15.5757V15.5704V15.565V15.5596V15.5542V15.5487V15.5432V15.5377V15.5322V15.5266V15.521V15.5153V15.5097V15.504V15.4982V15.4925V15.4867V15.4809V15.475V15.4692V15.4633V15.4573V15.4514V15.4454V15.4394V15.4333V15.4273V15.4212V15.415V15.4089V15.4027V15.3965V15.3902V15.384V15.3777V15.3713V15.365V15.3586V15.3522V15.3458V15.3393V15.3328V15.3263V15.3197V15.3131V15.3065V15.2999V15.2932V15.2866V15.2799V15.2731V15.2663V15.2595V15.2527V15.2459V15.239V15.2321V15.2252V15.2182V15.2112V15.2042V15.1972V15.1901V15.183V15.1759V15.1688V15.1616V15.1544V15.1472V15.14V15.1327V15.1254V15.1181V15.1107V15.1033V15.0959V15.0885V15.0811V15.0736V15.0661V15.0585V15.051V15.0434V15.0358V15.0282V15.0205V15.0128V15.0051V14.9974V14.9896V14.9819V14.9741V14.9662V14.9584V14.9505V14.9426V14.9347V14.9267V14.9187V14.9107V14.9027V14.8947V14.8866V14.8785V14.8704V14.8622V14.8541V14.8459V14.8376V14.8294V14.8211V14.8128V14.8045V14.7962V14.7878V14.7795V14.7711V14.7626V14.7542V14.7457V14.7372V14.7287V14.7201V14.7116V14.703V14.6944V14.6857V14.6771V14.6684V14.6597V14.6509V14.6422V14.6334V14.6246V14.6158V14.607V14.5981V14.5892V14.5803V14.5714V14.5624V14.5535V14.5445V14.5355V14.5264V14.5174V14.5083V14.4992V14.4901V14.4809V14.4718V14.4626V14.4534V14.4441V14.4349V14.4256V14.4163V14.407V14.3977V14.3883V14.3789V14.3695V14.3601V14.3507V14.3412V14.3317V14.3222V14.3127V14.3032V14.2936V14.284V14.2744V14.2648V14.2552V14.2455V14.2358V14.2261V14.2164V14.2067V14.1969V14.1871V14.1773V14.1675V14.1576V14.1478V14.1379V14.128V14.1181V14.1082V14.0982V14.0882V14.0782V14.0682V14.0582V14.0481V14.0381V14.028V14.0179V14.0078V13.9976V13.9874V13.9773V13.9671V13.9569V13.9466V13.9364V13.9261V13.9158V13.9055V13.8952V13.8848V13.8745V13.8641V13.8537V13.8433V13.8328V13.8224V13.8119V13.8014V13.7909V13.7804V13.7699V13.7593V13.7487V13.7381V13.7275V13.7169V13.7063V13.6956V13.6849V13.6743V13.6636V13.6528V13.6421V13.6313V13.6206V13.6098V13.599V13.5881V13.5773V13.5664V13.5556V13.5447V13.5338V13.5229V13.5119V13.501V13.49V13.479V13.468V13.457V13.446V13.4349V13.4239V13.4128V13.4017V13.3906V13.3795V13.3683V13.3572V13.346V13.3348V13.3236V13.3124V13.3012V13.29V13.2787V13.2674V13.2561V13.2448V13.2335V13.2222V13.2109V13.1995V13.1881V13.1767V13.1653V13.1539V13.1425V13.1311V13.1196V13.1081V13.0966V13.0851V13.0736V13.0621V13.0506V13.039V13.0275V13.0159V13.0043V12.9927V12.9811V12.9694V12.9578V12.9461V12.9345V12.9228V12.9111V12.8994V12.8876V12.8759V12.8642V12.8524V12.8406V12.8288V12.8171V12.8052V12.7934V12.7816V12.7697V12.7579V12.746V12.7341V12.7222V12.7103V12.6984V12.6865V12.6745V12.6626V12.6506V12.6386V12.6267V12.6147V12.6026V12.5906V12.5786V12.5666V12.5545V12.5424V12.5304V12.5183V12.5062V12.4941V12.4819V12.4698V12.4577V12.4455V12.4333V12.4212V12.409V12.3968V12.3846V12.3724V12.3601V12.3479V12.3357V12.3234V12.3111V12.2989V12.2866V12.2743V12.262V12.2497V12.2373V12.225V12.2127V12.2003V12.188V12.1756V12.1632V12.1508V12.1384V12.126V12.1136V12.1012V12.0887V12.0763V12.0638V12.0514V12.0389V12.0264V12.0139V12.0014C6 7.58356 9.58131 4.00049 14 4.00049L18 4.00049H18.0006H18.0013H18.002H18.0027H18.0035H18.0043H18.0051H18.006H18.0069H18.0079H18.0089H18.0099H18.011H18.0121H18.0132H18.0144H18.0156H18.0169H18.0182H18.0195H18.0209H18.0223H18.0237H18.0252H18.0267H18.0283H18.0299H18.0315H18.0331H18.0348H18.0366H18.0383H18.0401H18.042H18.0439H18.0458H18.0477H18.0497H18.0517H18.0538H18.0559H18.058H18.0602H18.0624H18.0646H18.0669H18.0692H18.0715H18.0739H18.0763H18.0787H18.0812H18.0837H18.0863H18.0889H18.0915H18.0941H18.0968H18.0996H18.1023H18.1051H18.1079H18.1108H18.1137H18.1166H18.1196H18.1226H18.1256H18.1287H18.1318H18.1349H18.1381H18.1413H18.1446H18.1478H18.1511H18.1545H18.1578H18.1612H18.1647H18.1682H18.1717H18.1752H18.1788H18.1824H18.186H18.1897H18.1934H18.1971H18.2009H18.2047H18.2086H18.2124H18.2163H18.2203H18.2242H18.2282H18.2323H18.2363H18.2404H18.2445H18.2487H18.2529H18.2571H18.2614H18.2657H18.27H18.2743H18.2787H18.2831H18.2876H18.2921H18.2966H18.3011H18.3057H18.3103H18.3149H18.3196H18.3243H18.329H18.3338H18.3386H18.3434H18.3483H18.3532H18.3581H18.363H18.368H18.373H18.378H18.3831H18.3882H18.3934H18.3985H18.4037H18.4089H18.4142H18.4195H18.4248H18.4301H18.4355H18.4409H18.4463H18.4518H18.4573H18.4628H18.4683H18.4739H18.4795H18.4852H18.4908H18.4965H18.5023H18.508H18.5138H18.5196H18.5254H18.5313H18.5372H18.5431L18.5491 4.00049H18.5551H18.5611H18.5672H18.5732H18.5793H18.5855H18.5916H18.5978H18.604H18.6103H18.6165H18.6228H18.6292H18.6355H18.6419H18.6483H18.6547H18.6612H18.6677H18.6742H18.6808H18.6873H18.694H18.7006H18.7072H18.7139H18.7206H18.7274H18.7342H18.7409H18.7478H18.7546H18.7615H18.7684H18.7753H18.7823H18.7893H18.7963H18.8033H18.8104H18.8175H18.8246H18.8317H18.8389H18.8461H18.8533H18.8605H18.8678H18.8751H18.8824H18.8898H18.8972H18.9046H18.912H18.9194H18.9269H18.9344H18.9419H18.9495H18.9571H18.9647H18.9723H18.98H18.9877H18.9954H19.0031H19.0108H19.0186H19.0264H19.0343H19.0421H19.05H19.0579H19.0658H19.0738H19.0818H19.0898H19.0978H19.1058H19.1139H19.122H19.1301H19.1383H19.1464H19.1546H19.1629H19.1711H19.1794H19.1876H19.196H19.2043H19.2127H19.221H19.2294H19.2379H19.2463H19.2548H19.2633H19.2718H19.2804H19.2889H19.2975H19.3061H19.3148H19.3234H19.3321H19.3408H19.3495H19.3583H19.3671H19.3759H19.3847H19.3935H19.4024H19.4113H19.4202H19.4291H19.438H19.447H19.456H19.465H19.4741H19.4831H19.4922H19.5013H19.5104H19.5196H19.5287H19.5379H19.5471H19.5564H19.5656H19.5749H19.5842H19.5935H19.6028H19.6122H19.6216H19.631L19.6404 4.00049H19.6498H19.6593H19.6688H19.6783H19.6878H19.6973H19.7069H19.7165H19.7261H19.7357H19.7453H19.755H19.7647H19.7744H19.7841H19.7938H19.8036H19.8134H19.8232H19.833H19.8428H19.8527H19.8626H19.8725H19.8824H19.8923H19.9023H19.9123H19.9223H19.9323H19.9423H19.9524H19.9624H19.9725H19.9826H19.9927H20.0029H20.013H20.0232H20.0334H20.0436H20.0539H20.0641H20.0744H20.0847H20.095H20.1053H20.1157H20.126H20.1364H20.1468H20.1572H20.1677H20.1781H20.1886H20.1991H20.2096H20.2201H20.2306H20.2412H20.2518H20.2623H20.2729H20.2836H20.2942H20.3049H20.3155H20.3262H20.3369H20.3477H20.3584H20.3692H20.3799H20.3907H20.4015H20.4124H20.4232H20.4341H20.4449H20.4558H20.4667H20.4776H20.4886H20.4995H20.5105H20.5215H20.5325H20.5435H20.5545H20.5656H20.5766H20.5877H20.5988H20.6099H20.621H20.6322H20.6433H20.6545H20.6657H20.6769H20.6881H20.6993H20.7105H20.7218L20.7331 4.00049H20.7443H20.7556H20.767H20.7783H20.7896H20.801H20.8124H20.8238H20.8352H20.8466H20.858H20.8694H20.8809H20.8924H20.9038H20.9153H20.9269H20.9384H20.9499H20.9615H20.973H20.9846H20.9962H21.0078H21.0194H21.0311H21.0427H21.0544H21.066H21.0777H21.0894H21.1011H21.1128H21.1246H21.1363H21.1481H21.1599H21.1716H21.1834H21.1952H21.2071H21.2189H21.2308H21.2426H21.2545H21.2664H21.2783H21.2902H21.3021H21.314H21.326H21.3379H21.3499H21.3618H21.3738H21.3858H21.3978H21.4099H21.4219H21.4339H21.446H21.4581H21.4701H21.4822H21.4943H21.5064H21.5186H21.5307H21.5428H21.555H21.5671H21.5793H21.5915H21.6037H21.6159H21.6281H21.6403H21.6526H21.6648H21.6771H21.6893H21.7016H21.7139H21.7262H21.7385H21.7508H21.7631H21.7755H21.7878H21.8002H21.8125L21.8249 4.00049H21.8373H21.8497H21.8621H21.8745H21.8869H21.8993H21.9118H21.9242H21.9367H21.9491H21.9616H21.9741H21.9866H21.9991C26.4169 4.00049 30 7.5818 30 12.0005ZM22 28.0005V32.0005H14V28.0005H22ZM16 23.5005H20V16.0005H16V23.5005Z" fill="white"/>
<path d="M44 12.0562H52.463V22.0012H50.63V13.5382H45.833V22.0012H44V12.0562Z" fill="#232431"/>
<path d="M57.5254 26.3692H55.6924V12.0562H57.4474V13.4797H57.4864C57.7464 13.1287 58.0259 12.8492 58.3249 12.6412C58.6369 12.4332 58.9424 12.2772 59.2414 12.1732C59.5404 12.0562 59.8264 11.9847 60.0994 11.9587C60.3724 11.9197 60.6064 11.9002 60.8014 11.9002C61.5294 11.9002 62.1794 12.0302 62.7514 12.2902C63.3234 12.5372 63.8044 12.8882 64.1944 13.3432C64.5844 13.7982 64.8834 14.3377 65.0914 14.9617C65.2994 15.5727 65.4034 16.2357 65.4034 16.9507C65.4034 17.6527 65.2994 18.3222 65.0914 18.9592C64.8964 19.5832 64.6039 20.1357 64.2139 20.6167C63.8239 21.0847 63.3494 21.4617 62.7904 21.7477C62.2314 22.0207 61.6009 22.1572 60.8989 22.1572C60.0929 22.1572 59.4104 22.0077 58.8514 21.7087C58.3054 21.3967 57.8894 21.0587 57.6034 20.6947H57.5254V26.3692ZM60.4699 20.6752C61.3799 20.6752 62.1014 20.3372 62.6344 19.6612C63.1804 18.9722 63.4534 18.0492 63.4534 16.8922C63.4534 15.8262 63.1869 14.9747 62.6539 14.3377C62.1339 13.7007 61.4254 13.3822 60.5284 13.3822C59.6054 13.3822 58.8709 13.7137 58.3249 14.3767C57.7919 15.0397 57.5254 15.9302 57.5254 17.0482C57.5254 18.1532 57.7919 19.0372 58.3249 19.7002C58.8579 20.3502 59.5729 20.6752 60.4699 20.6752Z" fill="#232431"/>
<path d="M72.4016 22.1572C71.6476 22.1572 70.9586 22.0337 70.3346 21.7867C69.7106 21.5397 69.1711 21.1887 68.7161 20.7337C68.2741 20.2787 67.9296 19.7392 67.6826 19.1152C67.4356 18.4912 67.3121 17.7957 67.3121 17.0287C67.3121 16.2747 67.4356 15.5857 67.6826 14.9617C67.9296 14.3247 68.2741 13.7787 68.7161 13.3237C69.1711 12.8687 69.7106 12.5177 70.3346 12.2707C70.9586 12.0237 71.6476 11.9002 72.4016 11.9002C73.1556 11.9002 73.8446 12.0237 74.4686 12.2707C75.0926 12.5177 75.6256 12.8687 76.0676 13.3237C76.5226 13.7787 76.8736 14.3247 77.1206 14.9617C77.3676 15.5857 77.4911 16.2747 77.4911 17.0287C77.4911 17.7957 77.3676 18.4912 77.1206 19.1152C76.8736 19.7392 76.5226 20.2787 76.0676 20.7337C75.6256 21.1887 75.0926 21.5397 74.4686 21.7867C73.8446 22.0337 73.1556 22.1572 72.4016 22.1572ZM72.4016 20.6752C72.8306 20.6752 73.2336 20.5907 73.6106 20.4217C74.0006 20.2527 74.3321 20.0122 74.6051 19.7002C74.8911 19.3752 75.1186 18.9917 75.2876 18.5497C75.4566 18.0947 75.5411 17.5877 75.5411 17.0287C75.5411 16.4697 75.4566 15.9692 75.2876 15.5272C75.1186 15.0722 74.8911 14.6887 74.6051 14.3767C74.3191 14.0517 73.9876 13.8047 73.6106 13.6357C73.2336 13.4667 72.8306 13.3822 72.4016 13.3822C71.9726 13.3822 71.5631 13.4667 71.1731 13.6357C70.7961 13.8047 70.4646 14.0517 70.1786 14.3767C69.9056 14.6887 69.6846 15.0722 69.5156 15.5272C69.3466 15.9692 69.2621 16.4697 69.2621 17.0287C69.2621 17.5877 69.3466 18.0947 69.5156 18.5497C69.6846 18.9917 69.9056 19.3752 70.1786 19.7002C70.4646 20.0122 70.7961 20.2527 71.1731 20.4217C71.5631 20.5907 71.9726 20.6752 72.4016 20.6752Z" fill="#232431"/>
<path d="M84.5914 22.1572C83.6294 22.1572 82.8169 21.9817 82.1539 21.6307C81.5039 21.2667 80.9709 20.7597 80.5549 20.1097C80.1519 19.4467 79.8594 18.6537 79.6774 17.7307C79.4954 16.8077 79.4044 15.7807 79.4044 14.6497C79.4044 13.7527 79.4824 12.9207 79.6384 12.1537C79.7944 11.3737 80.0479 10.6717 80.3989 10.0477C80.7629 9.42367 81.2309 8.89717 81.8029 8.46817C82.3879 8.02617 83.1029 7.69467 83.9479 7.47367C84.4159 7.35667 84.8384 7.28517 85.2154 7.25917C85.5924 7.22017 85.9564 7.19417 86.3074 7.18117C86.6714 7.16817 87.0419 7.14867 87.4189 7.12267C87.8089 7.08367 88.2379 7.00567 88.7059 6.88867V8.50717C88.0169 8.68917 87.3539 8.78017 86.7169 8.78017C86.0799 8.78017 85.4364 8.83217 84.7864 8.93617C83.5254 9.15717 82.6089 9.66417 82.0369 10.4572C81.4779 11.2372 81.1724 12.2382 81.1204 13.4602L81.1009 13.9477H81.1984C81.5754 13.3237 82.0824 12.8297 82.7194 12.4657C83.3694 12.0887 84.1104 11.9002 84.9424 11.9002C85.6444 11.9002 86.2814 12.0302 86.8534 12.2902C87.4254 12.5372 87.9129 12.8882 88.3159 13.3432C88.7189 13.7852 89.0309 14.3247 89.2519 14.9617C89.4729 15.5857 89.5834 16.2747 89.5834 17.0287C89.5834 17.7697 89.4599 18.4587 89.2129 19.0957C88.9789 19.7197 88.6409 20.2592 88.1989 20.7142C87.7569 21.1692 87.2304 21.5267 86.6194 21.7867C86.0084 22.0337 85.3324 22.1572 84.5914 22.1572ZM84.5914 20.6752C85.0594 20.6752 85.4754 20.5777 85.8394 20.3827C86.2164 20.1877 86.5349 19.9277 86.7949 19.6027C87.0679 19.2647 87.2759 18.8747 87.4189 18.4327C87.5619 17.9907 87.6334 17.5227 87.6334 17.0287C87.6334 16.5477 87.5619 16.0862 87.4189 15.6442C87.2889 15.2022 87.0939 14.8122 86.8339 14.4742C86.5739 14.1362 86.2554 13.8697 85.8784 13.6747C85.5014 13.4797 85.0724 13.3822 84.5914 13.3822C84.1104 13.3822 83.6814 13.4797 83.3044 13.6747C82.9274 13.8697 82.6024 14.1362 82.3294 14.4742C82.0694 14.8122 81.8679 15.2022 81.7249 15.6442C81.5949 16.0862 81.5299 16.5477 81.5299 17.0287C81.5299 17.5357 81.6014 18.0167 81.7444 18.4717C81.9004 18.9137 82.1084 19.2972 82.3684 19.6222C82.6414 19.9472 82.9664 20.2072 83.3434 20.4022C83.7204 20.5842 84.1364 20.6752 84.5914 20.6752Z" fill="#232431"/>
<path d="M91.5402 22.1572C91.3062 22.1572 91.0917 22.1377 90.8967 22.0987C90.7147 22.0597 90.6237 22.0337 90.6237 22.0207V20.3632C90.6757 20.3892 90.7342 20.4087 90.7992 20.4217C90.9292 20.4477 91.0592 20.4607 91.1892 20.4607C91.5142 20.4607 91.7807 20.3242 91.9887 20.0512C92.2097 19.7782 92.3852 19.3427 92.5152 18.7447C92.6582 18.1337 92.7557 17.3472 92.8077 16.3852C92.8727 15.4102 92.9052 14.2272 92.9052 12.8362V12.0562H100.237V22.0012H98.4042V13.5382H94.5627V13.8112C94.5627 15.3192 94.4977 16.6062 94.3677 17.6722C94.2507 18.7252 94.0687 19.5832 93.8217 20.2462C93.5747 20.9092 93.2627 21.3967 92.8857 21.7087C92.5087 22.0077 92.0602 22.1572 91.5402 22.1572Z" fill="#232431"/>
<path d="M104.7 17.4382C104.804 18.4652 105.155 19.2582 105.753 19.8172C106.351 20.3632 107.157 20.6362 108.171 20.6362C108.769 20.6362 109.354 20.5647 109.926 20.4217C110.511 20.2657 110.992 20.0772 111.369 19.8562V21.6502C111.057 21.7542 110.628 21.8647 110.082 21.9817C109.536 22.0987 108.86 22.1572 108.054 22.1572C106.364 22.1572 105.064 21.6892 104.154 20.7532C103.257 19.8172 102.808 18.5172 102.808 16.8532C102.808 16.0992 102.925 15.4167 103.159 14.8057C103.406 14.1947 103.738 13.6747 104.154 13.2457C104.583 12.8167 105.083 12.4852 105.655 12.2512C106.227 12.0172 106.845 11.9002 107.508 11.9002C108.925 11.9002 110.036 12.3162 110.842 13.1482C111.648 13.9802 112.051 15.2412 112.051 16.9312V17.4382H104.7ZM107.488 13.3822C106.721 13.3822 106.091 13.6292 105.597 14.1232C105.116 14.6042 104.817 15.2542 104.7 16.0732H110.101C110.101 15.2152 109.854 14.5522 109.36 14.0842C108.866 13.6162 108.242 13.3822 107.488 13.3822Z" fill="#232431"/>
<path d="M114.688 12.0562H117.515L120.226 17.7307L122.936 12.0562H125.686V22.0012H123.853V13.8112H123.814L121.103 19.4662H119.27L116.56 13.8112H116.521V22.0012H114.688V12.0562Z" fill="#232431"/>
<path d="M128.932 12.0562H130.765V15.4882H132.773C134.19 15.4882 135.224 15.7872 135.874 16.3852C136.537 16.9702 136.868 17.7632 136.868 18.7642C136.868 19.7522 136.537 20.5387 135.874 21.1237C135.224 21.7087 134.19 22.0012 132.773 22.0012H128.932V12.0562ZM132.773 20.5192C133.553 20.5192 134.119 20.3632 134.47 20.0512C134.821 19.7392 134.996 19.3102 134.996 18.7642C134.996 18.2182 134.821 17.7827 134.47 17.4577C134.119 17.1327 133.553 16.9702 132.773 16.9702H130.765V20.5192H132.773ZM138.974 12.0562H140.807V22.0012H138.974V12.0562Z" fill="#232431"/>
</svg>
