<svg width="246" height="37" viewBox="0 0 246 37" fill="none" xmlns="http://www.w3.org/2000/svg">
<rect y="1" width="36" height="36" fill="#5974FF"/>
<path d="M14 6.99951H10V10.9995H14V6.99951Z" fill="white"/>
<path d="M26 6.99951H22V10.9995H26V6.99951Z" fill="white"/>
<path d="M20 6.99951H16V10.9995H20V6.99951Z" fill="white"/>
<path d="M10 10.999H6V26.999H10V10.999Z" fill="white"/>
<path d="M26 31V27H10V31H26Z" fill="white"/>
<path d="M30 10.999H26V26.999H30V10.999Z" fill="white"/>
<path d="M44.8384 5.05835H46.6712V12.8575H46.7102L51.2728 5.05835H53.593V15.0023H51.7602V7.20313H51.7212L47.1587 15.0023H44.8384V5.05835Z" fill="#232431"/>
<path d="M56.8342 5.05835H58.6671V9.09443H63.6585V5.05835H65.4914V15.0023H63.6585V10.5763H58.6671V15.0023H56.8342V5.05835Z" fill="#232431"/>
<path d="M70.8797 6.5402H67.409V5.05835H76.1831V6.5402H72.7125V15.0023H70.8797V6.5402Z" fill="#232431"/>
<path d="M79.0458 10.4398C79.1498 11.4667 79.5008 12.2596 80.0987 12.8185C80.6966 13.3645 81.5026 13.6375 82.5165 13.6375C83.1144 13.6375 83.6993 13.566 84.2713 13.423C84.8562 13.267 85.3372 13.0785 85.7141 12.8575V14.6514C85.4022 14.7553 84.9732 14.8658 84.4273 14.9828C83.8813 15.0998 83.2054 15.1583 82.3995 15.1583C80.7096 15.1583 79.4098 14.6903 78.4999 13.7544C77.603 12.8185 77.1545 11.5187 77.1545 9.85485C77.1545 9.10093 77.2715 8.4185 77.5055 7.80757C77.7524 7.19663 78.0839 6.67668 78.4999 6.24773C78.9288 5.81877 79.4293 5.48731 80.0012 5.25333C80.5732 5.01936 81.1906 4.90237 81.8535 4.90237C83.2704 4.90237 84.3818 5.31832 85.1877 6.15024C85.9936 6.98215 86.3966 8.24302 86.3966 9.93284V10.4398H79.0458ZM81.834 6.38421C81.0671 6.38421 80.4367 6.63119 79.9427 7.12514C79.4618 7.60609 79.1628 8.25602 79.0458 9.07493H84.4468C84.4468 8.21702 84.1998 7.55409 83.7058 7.08614C83.2119 6.61819 82.588 6.38421 81.834 6.38421Z" fill="#232431"/>
<path d="M88.6036 15.1583C88.3697 15.1583 88.1552 15.1388 87.9602 15.0998C87.7782 15.0608 87.6872 15.0348 87.6872 15.0218V13.3645C87.7392 13.3905 87.7977 13.41 87.8627 13.423C87.9927 13.449 88.1227 13.462 88.2527 13.462C88.5776 13.462 88.8441 13.3255 89.0521 13.0525C89.2731 12.7795 89.4486 12.3441 89.5785 11.7462C89.7215 11.1352 89.819 10.3488 89.871 9.3869C89.936 8.412 89.9685 7.22913 89.9685 5.83827V5.05835H97.2997V15.0023H95.4669V6.5402H91.6258V6.81317C91.6258 8.32101 91.5608 9.60788 91.4309 10.6738C91.3139 11.7267 91.1319 12.5846 90.8849 13.2475C90.6379 13.9104 90.326 14.3979 89.949 14.7098C89.572 15.0088 89.1236 15.1583 88.6036 15.1583Z" fill="#232431"/>
<path d="M100.104 15.1583C99.8704 15.1583 99.656 15.1388 99.461 15.0998C99.279 15.0608 99.188 15.0348 99.188 15.0218V13.3645C99.24 13.3905 99.2985 13.41 99.3635 13.423C99.4935 13.449 99.6235 13.462 99.7534 13.462C100.078 13.462 100.345 13.3255 100.553 13.0525C100.774 12.7795 100.949 12.3441 101.079 11.7462C101.222 11.1352 101.32 10.3488 101.372 9.3869C101.437 8.412 101.469 7.22913 101.469 5.83827V5.05835H108.801V15.0023H106.968V6.5402H103.127V6.81317C103.127 8.32101 103.062 9.60788 102.932 10.6738C102.815 11.7267 102.633 12.5846 102.386 13.2475C102.139 13.9104 101.827 14.3979 101.45 14.7098C101.073 15.0088 100.624 15.1583 100.104 15.1583Z" fill="#232431"/>
<path d="M113.263 10.4398C113.367 11.4667 113.717 12.2596 114.315 12.8185C114.913 13.3645 115.719 13.6375 116.733 13.6375C117.331 13.6375 117.916 13.566 118.488 13.423C119.073 13.267 119.554 13.0785 119.931 12.8575V14.6514C119.619 14.7553 119.19 14.8658 118.644 14.9828C118.098 15.0998 117.422 15.1583 116.616 15.1583C114.926 15.1583 113.626 14.6903 112.717 13.7544C111.82 12.8185 111.371 11.5187 111.371 9.85485C111.371 9.10093 111.488 8.4185 111.722 7.80757C111.969 7.19663 112.301 6.67668 112.717 6.24773C113.146 5.81877 113.646 5.48731 114.218 5.25333C114.79 5.01936 115.407 4.90237 116.07 4.90237C117.487 4.90237 118.598 5.31832 119.404 6.15024C120.21 6.98215 120.613 8.24302 120.613 9.93284V10.4398H113.263ZM116.051 6.38421C115.284 6.38421 114.653 6.63119 114.159 7.12514C113.678 7.60609 113.38 8.25602 113.263 9.07493H118.663C118.663 8.21702 118.416 7.55409 117.923 7.08614C117.429 6.61819 116.805 6.38421 116.051 6.38421Z" fill="#232431"/>
<path d="M123.249 5.05835H125.082V9.07493H126.934L129.82 5.05835H131.965L128.572 9.77686L132.433 15.0023H130.152L126.915 10.5568H125.082V15.0023H123.249V5.05835Z" fill="#232431"/>
<path d="M136.419 6.5402H132.948V5.05835H141.722V6.5402H138.252V15.0023H136.419V6.5402Z" fill="#232431"/>
<path d="M144.574 19.3699C144.444 19.3699 144.327 19.3634 144.223 19.3504C144.119 19.3504 144.034 19.3439 143.969 19.3309C143.878 19.3179 143.8 19.2984 143.735 19.2724V17.771C143.8 17.784 143.872 17.797 143.95 17.81C144.015 17.823 144.086 17.8295 144.164 17.8295C144.255 17.8295 144.353 17.8295 144.457 17.8295C145.016 17.8295 145.425 17.6735 145.685 17.3616C145.958 17.0496 146.205 16.5882 146.426 15.9772L146.601 15.4898L142.526 5.05835H144.535L147.557 13.2085H147.693L150.774 5.05835H152.626L148.493 15.3923C148.194 16.1202 147.921 16.7376 147.674 17.2446C147.44 17.7515 147.18 18.161 146.894 18.473C146.608 18.7849 146.283 19.0124 145.919 19.1554C145.555 19.2984 145.106 19.3699 144.574 19.3699Z" fill="#232431"/>
<path d="M156.917 15.1583C155.877 15.1583 155.051 14.8983 154.44 14.3784C153.829 13.8454 153.524 13.111 153.524 12.1751C153.524 11.0832 153.94 10.2513 154.772 9.67937C155.617 9.09443 156.91 8.80196 158.652 8.80196H160.485V8.4705C160.485 7.75557 160.238 7.23563 159.744 6.91066C159.25 6.58569 158.593 6.42321 157.774 6.42321C157.242 6.42321 156.702 6.4882 156.156 6.61819C155.61 6.73518 155.038 6.95615 154.44 7.28112V5.5653C154.934 5.34432 155.5 5.18184 156.137 5.07785C156.774 4.96086 157.397 4.90237 158.008 4.90237C159.373 4.90237 160.433 5.21434 161.187 5.83827C161.941 6.44921 162.317 7.4436 162.317 8.82146V15.0023H160.446V13.4815H160.407C159.991 14.0924 159.458 14.5279 158.808 14.7878C158.171 15.0348 157.54 15.1583 156.917 15.1583ZM157.365 13.5985C157.82 13.5985 158.236 13.527 158.613 13.384C159.003 13.241 159.334 13.046 159.607 12.799C159.88 12.5391 160.095 12.2401 160.251 11.9021C160.407 11.5642 160.485 11.2067 160.485 10.8298V10.2058H158.73C158.119 10.2058 157.605 10.2513 157.19 10.3423C156.787 10.4333 156.455 10.5633 156.195 10.7323C155.935 10.9012 155.747 11.0962 155.63 11.3172C155.526 11.5382 155.474 11.7852 155.474 12.0581C155.474 12.5521 155.643 12.9355 155.981 13.2085C156.319 13.4685 156.78 13.5985 157.365 13.5985Z" fill="#232431"/>
<path d="M164.806 15.1583C164.572 15.1583 164.357 15.1388 164.162 15.0998C163.98 15.0608 163.889 15.0348 163.889 15.0218V13.3645C163.941 13.3905 164 13.41 164.065 13.423C164.195 13.449 164.325 13.462 164.455 13.462C164.78 13.462 165.046 13.3255 165.254 13.0525C165.475 12.7795 165.651 12.3441 165.781 11.7462C165.924 11.1352 166.021 10.3488 166.073 9.3869C166.138 8.412 166.171 7.22913 166.171 5.83827V5.05835H173.502V15.0023H171.669V6.5402H167.828V6.81317C167.828 8.32101 167.763 9.60788 167.633 10.6738C167.516 11.7267 167.334 12.5846 167.087 13.2475C166.84 13.9104 166.528 14.3979 166.151 14.7098C165.774 15.0088 165.326 15.1583 164.806 15.1583Z" fill="#232431"/>
<path d="M176.735 5.05835H178.568V8.48999H180.928C182.344 8.48999 183.378 8.78896 184.028 9.3869C184.691 9.97184 185.022 10.7583 185.022 11.7462C185.022 12.7341 184.691 13.527 184.028 14.1249C183.378 14.7098 182.344 15.0023 180.928 15.0023H176.735V5.05835ZM178.568 9.97184V13.5205H180.928C181.707 13.5205 182.273 13.3645 182.624 13.0525C182.975 12.7276 183.15 12.2921 183.15 11.7462C183.15 11.2002 182.975 10.7713 182.624 10.4593C182.273 10.1343 181.707 9.97184 180.928 9.97184H178.568Z" fill="#232431"/>
<path d="M187.075 5.05835H188.908V9.09443H193.899V5.05835H195.732V15.0023H193.899V10.5763H188.908V15.0023H187.075V5.05835Z" fill="#232431"/>
<path d="M198.975 5.05835H200.808V8.48999H202.816C204.233 8.48999 205.267 8.78896 205.917 9.3869C206.58 9.97184 206.911 10.7648 206.911 11.7657C206.911 12.7535 206.58 13.54 205.917 14.1249C205.267 14.7098 204.233 15.0023 202.816 15.0023H198.975V5.05835ZM202.816 13.5205C203.596 13.5205 204.162 13.3645 204.513 13.0525C204.864 12.7406 205.039 12.3116 205.039 11.7657C205.039 11.2197 204.864 10.7843 204.513 10.4593C204.162 10.1343 203.596 9.97184 202.816 9.97184H200.808V13.5205H202.816ZM209.017 5.05835H210.85V15.0023H209.017V5.05835Z" fill="#232431"/>
<path d="M214.094 5.05835H215.927V12.8575H215.966L220.528 5.05835H222.849V15.0023H221.016V7.20313H220.977L216.414 15.0023H214.094V5.05835ZM218.539 2.99157C218.124 2.99157 217.734 2.93957 217.37 2.83558C217.006 2.73159 216.687 2.56911 216.414 2.34813C216.141 2.12716 215.914 1.85419 215.732 1.52922C215.563 1.19126 215.472 0.794797 215.459 0.339844H216.843C216.908 0.768799 217.09 1.10026 217.389 1.33424C217.701 1.55522 218.085 1.66571 218.539 1.66571C218.994 1.66571 219.365 1.55522 219.651 1.33424C219.937 1.10026 220.112 0.768799 220.177 0.339844H221.503C221.464 1.24975 221.165 1.91918 220.606 2.34813C220.047 2.77709 219.358 2.99157 218.539 2.99157Z" fill="#232431"/>
<path d="M47.3927 33.1564C46.3528 33.1564 45.5273 32.8965 44.9164 32.3765C44.3055 31.8436 44 31.1091 44 30.1732C44 29.0813 44.416 28.2494 45.2479 27.6775C46.0928 27.0926 47.3862 26.8001 49.128 26.8001H50.9608V26.4686C50.9608 25.7537 50.7138 25.2337 50.2199 24.9088C49.7259 24.5838 49.0695 24.4213 48.2506 24.4213C47.7176 24.4213 47.1782 24.4863 46.6322 24.6163C46.0863 24.7333 45.5143 24.9543 44.9164 25.2792V23.5634C45.4104 23.3424 45.9758 23.18 46.6127 23.076C47.2497 22.959 47.8736 22.9005 48.4845 22.9005C49.8494 22.9005 50.9088 23.2125 51.6627 23.8364C52.4166 24.4473 52.7936 25.4417 52.7936 26.8196V33.0004H50.9218V31.4796H50.8828C50.4668 32.0905 49.9339 32.526 49.284 32.786C48.647 33.0329 48.0166 33.1564 47.3927 33.1564ZM47.8411 31.5966C48.2961 31.5966 48.712 31.5251 49.089 31.3821C49.4789 31.2391 49.8104 31.0441 50.0834 30.7972C50.3563 30.5372 50.5708 30.2382 50.7268 29.9003C50.8828 29.5623 50.9608 29.2048 50.9608 28.8279V28.2039H49.206C48.595 28.2039 48.0816 28.2494 47.6656 28.3404C47.2627 28.4314 46.9312 28.5614 46.6712 28.7304C46.4113 28.8994 46.2228 29.0943 46.1058 29.3153C46.0018 29.5363 45.9498 29.7833 45.9498 30.0562C45.9498 30.5502 46.1188 30.9337 46.4567 31.2066C46.7947 31.4666 47.2562 31.5966 47.8411 31.5966Z" fill="#232431"/>
<path d="M55.7108 23.0565H57.5436V27.0926H62.5351V23.0565H64.3679V33.0004H62.5351V28.5744H57.5436V33.0004H55.7108V23.0565Z" fill="#232431"/>
<path d="M70.1657 33.1564C69.1258 33.1564 68.3004 32.8965 67.6895 32.3765C67.0785 31.8436 66.773 31.1091 66.773 30.1732C66.773 29.0813 67.189 28.2494 68.0209 27.6775C68.8658 27.0926 70.1592 26.8001 71.901 26.8001H73.7338V26.4686C73.7338 25.7537 73.4869 25.2337 72.9929 24.9088C72.499 24.5838 71.8425 24.4213 71.0236 24.4213C70.4907 24.4213 69.9512 24.4863 69.4053 24.6163C68.8593 24.7333 68.2874 24.9543 67.6895 25.2792V23.5634C68.1834 23.3424 68.7488 23.18 69.3858 23.076C70.0227 22.959 70.6466 22.9005 71.2576 22.9005C72.6224 22.9005 73.6818 23.2125 74.4358 23.8364C75.1897 24.4473 75.5666 25.4417 75.5666 26.8196V33.0004H73.6948V31.4796H73.6558C73.2399 32.0905 72.7069 32.526 72.057 32.786C71.4201 33.0329 70.7896 33.1564 70.1657 33.1564ZM70.6142 31.5966C71.0691 31.5966 71.4851 31.5251 71.862 31.3821C72.252 31.2391 72.5835 31.0441 72.8564 30.7972C73.1294 30.5372 73.3439 30.2382 73.4999 29.9003C73.6558 29.5623 73.7338 29.2048 73.7338 28.8279V28.2039H71.979C71.3681 28.2039 70.8546 28.2494 70.4387 28.3404C70.0357 28.4314 69.7042 28.5614 69.4443 28.7304C69.1843 28.8994 68.9958 29.0943 68.8788 29.3153C68.7748 29.5363 68.7228 29.7833 68.7228 30.0562C68.7228 30.5502 68.8918 30.9337 69.2298 31.2066C69.5678 31.4666 70.0292 31.5966 70.6142 31.5966Z" fill="#232431"/>
<path d="M78.0549 33.1564C77.8209 33.1564 77.6065 33.1369 77.4115 33.0979C77.2295 33.0589 77.1385 33.0329 77.1385 33.0199V31.3626C77.1905 31.3886 77.249 31.4081 77.314 31.4211C77.444 31.4471 77.574 31.4601 77.704 31.4601C78.0289 31.4601 78.2954 31.3236 78.5034 31.0506C78.7244 30.7777 78.8998 30.3422 79.0298 29.7443C79.1728 29.1333 79.2703 28.3469 79.3223 27.385C79.3873 26.4101 79.4198 25.2272 79.4198 23.8364V23.0565H86.751V33.0004H84.9182V24.5383H81.0771V24.8113C81.0771 26.3191 81.0121 27.606 80.8821 28.6719C80.7651 29.7248 80.5832 30.5827 80.3362 31.2456C80.0892 31.9086 79.7772 32.396 79.4003 32.708C79.0233 33.0069 78.5749 33.1564 78.0549 33.1564Z" fill="#232431"/>
<path d="M89.9846 23.0565H91.8175V30.8557H91.8565L96.419 23.0565H98.7393V33.0004H96.9064V25.2013H96.8674L92.3049 33.0004H89.9846V23.0565Z" fill="#232431"/>
<path d="M104.418 33.1564C103.911 33.1564 103.456 33.1304 103.053 33.0784C102.663 33.0264 102.331 32.9744 102.058 32.9224C101.786 32.8575 101.578 32.799 101.435 32.747C101.292 32.695 101.22 32.669 101.22 32.669V31.0896C101.454 31.2066 101.727 31.3041 102.039 31.3821C102.299 31.4601 102.611 31.5316 102.975 31.5966C103.352 31.6486 103.768 31.6746 104.223 31.6746C105.159 31.6746 105.861 31.5316 106.329 31.2456C106.796 30.9597 107.03 30.5632 107.03 30.0562C107.03 29.6013 106.835 29.2373 106.446 28.9644C106.069 28.6914 105.484 28.5549 104.691 28.5549H103.092V27.1121H104.398C105.191 27.1121 105.763 26.9886 106.114 26.7416C106.465 26.4816 106.641 26.1502 106.641 25.7472C106.641 25.3312 106.452 24.9998 106.075 24.7528C105.711 24.5058 105.146 24.3823 104.379 24.3823C104.002 24.3823 103.644 24.4083 103.306 24.4603C102.968 24.5123 102.669 24.5708 102.409 24.6358C102.11 24.7138 101.838 24.7983 101.591 24.8893V23.2905C101.838 23.2125 102.11 23.1475 102.409 23.0955C102.669 23.0435 102.975 22.998 103.326 22.959C103.677 22.92 104.067 22.9005 104.496 22.9005C105.913 22.9005 106.946 23.1475 107.596 23.6414C108.259 24.1224 108.59 24.7528 108.59 25.5327C108.59 26.0657 108.441 26.5206 108.142 26.8976C107.856 27.2745 107.42 27.5605 106.835 27.7555V27.775C107.537 27.931 108.07 28.2364 108.434 28.6914C108.798 29.1333 108.98 29.6533 108.98 30.2512C108.98 30.6542 108.896 31.0311 108.727 31.3821C108.558 31.7331 108.285 32.045 107.908 32.318C107.544 32.578 107.069 32.786 106.485 32.9419C105.913 33.0849 105.224 33.1564 104.418 33.1564Z" fill="#232431"/>
<path d="M120.151 33.1564C119.384 33.1564 118.689 33.0329 118.065 32.786C117.454 32.539 116.934 32.1945 116.505 31.7526C116.076 31.2976 115.745 30.7582 115.511 30.1342C115.29 29.4973 115.179 28.7954 115.179 28.0285C115.179 27.2615 115.296 26.5661 115.53 25.9422C115.764 25.3052 116.096 24.7658 116.525 24.3238C116.967 23.8689 117.493 23.5179 118.104 23.271C118.715 23.024 119.404 22.9005 120.171 22.9005C120.561 22.9005 120.905 22.92 121.204 22.959C121.516 22.998 121.783 23.0435 122.004 23.0955C122.251 23.1475 122.465 23.2125 122.647 23.2905V24.8698C122.452 24.7788 122.238 24.7008 122.004 24.6358C121.796 24.5708 121.555 24.5123 121.282 24.4603C121.009 24.4083 120.704 24.3823 120.366 24.3823C119.326 24.3823 118.527 24.7008 117.968 25.3377C117.409 25.9617 117.129 26.8586 117.129 28.0285C117.129 29.1983 117.409 30.1017 117.968 30.7387C118.527 31.3626 119.319 31.6746 120.346 31.6746C120.684 31.6746 120.99 31.6486 121.263 31.5966C121.549 31.5446 121.796 31.4861 122.004 31.4211C122.238 31.3561 122.452 31.2716 122.647 31.1676V32.7665C122.452 32.8445 122.231 32.9094 121.984 32.9614C121.763 33.0134 121.497 33.0589 121.185 33.0979C120.873 33.1369 120.528 33.1564 120.151 33.1564Z" fill="#232431"/>
<path d="M129.637 33.1564C128.883 33.1564 128.194 33.0329 127.57 32.786C126.946 32.539 126.406 32.188 125.951 31.7331C125.509 31.2781 125.165 30.7387 124.918 30.1147C124.671 29.4908 124.548 28.7954 124.548 28.0285C124.548 27.2745 124.671 26.5856 124.918 25.9617C125.165 25.3247 125.509 24.7788 125.951 24.3238C126.406 23.8689 126.946 23.5179 127.57 23.271C128.194 23.024 128.883 22.9005 129.637 22.9005C130.39 22.9005 131.079 23.024 131.703 23.271C132.327 23.5179 132.86 23.8689 133.302 24.3238C133.757 24.7788 134.108 25.3247 134.355 25.9617C134.602 26.5856 134.726 27.2745 134.726 28.0285C134.726 28.7954 134.602 29.4908 134.355 30.1147C134.108 30.7387 133.757 31.2781 133.302 31.7331C132.86 32.188 132.327 32.539 131.703 32.786C131.079 33.0329 130.39 33.1564 129.637 33.1564ZM129.637 31.6746C130.066 31.6746 130.468 31.5901 130.845 31.4211C131.235 31.2521 131.567 31.0116 131.84 30.6997C132.126 30.3747 132.353 29.9913 132.522 29.5493C132.691 29.0943 132.776 28.5874 132.776 28.0285C132.776 27.4695 132.691 26.9691 132.522 26.5271C132.353 26.0722 132.126 25.6887 131.84 25.3767C131.554 25.0518 131.222 24.8048 130.845 24.6358C130.468 24.4668 130.066 24.3823 129.637 24.3823C129.208 24.3823 128.798 24.4668 128.408 24.6358C128.031 24.8048 127.7 25.0518 127.414 25.3767C127.141 25.6887 126.92 26.0722 126.751 26.5271C126.582 26.9691 126.497 27.4695 126.497 28.0285C126.497 28.5874 126.582 29.0943 126.751 29.5493C126.92 29.9913 127.141 30.3747 127.414 30.6997C127.7 31.0116 128.031 31.2521 128.408 31.4211C128.798 31.5901 129.208 31.6746 129.637 31.6746Z" fill="#232431"/>
<path d="M141.825 33.1564C140.863 33.1564 140.051 32.9809 139.388 32.63C138.738 32.266 138.205 31.7591 137.789 31.1091C137.386 30.4462 137.094 29.6533 136.912 28.7304C136.73 27.8075 136.639 26.7806 136.639 25.6497C136.639 24.7528 136.717 23.9209 136.873 23.154C137.029 22.374 137.282 21.6721 137.633 21.0482C137.997 20.4243 138.465 19.8978 139.037 19.4688C139.622 19.0269 140.337 18.6954 141.182 18.4745C141.65 18.3575 142.072 18.286 142.449 18.26C142.826 18.221 143.19 18.195 143.541 18.182C143.905 18.169 144.275 18.1495 144.652 18.1235C145.042 18.0845 145.471 18.0065 145.939 17.8895V19.5078C145.25 19.6898 144.587 19.7808 143.95 19.7808C143.313 19.7808 142.67 19.8328 142.02 19.9368C140.759 20.1578 139.843 20.6647 139.271 21.4576C138.712 22.2376 138.406 23.2385 138.354 24.4603L138.335 24.9478H138.432C138.809 24.3238 139.316 23.8299 139.953 23.4659C140.603 23.089 141.344 22.9005 142.176 22.9005C142.878 22.9005 143.515 23.0305 144.087 23.2905C144.659 23.5374 145.146 23.8884 145.549 24.3433C145.952 24.7853 146.264 25.3247 146.485 25.9617C146.706 26.5856 146.817 27.2745 146.817 28.0285C146.817 28.7694 146.693 29.4583 146.446 30.0952C146.212 30.7192 145.874 31.2586 145.432 31.7136C144.99 32.1685 144.464 32.526 143.853 32.786C143.242 33.0329 142.566 33.1564 141.825 33.1564ZM141.825 31.6746C142.293 31.6746 142.709 31.5771 143.073 31.3821C143.45 31.1871 143.768 30.9272 144.028 30.6022C144.301 30.2642 144.509 29.8743 144.652 29.4323C144.795 28.9904 144.867 28.5224 144.867 28.0285C144.867 27.5475 144.795 27.0861 144.652 26.6441C144.522 26.2021 144.327 25.8122 144.067 25.4742C143.807 25.1363 143.489 24.8698 143.112 24.6748C142.735 24.4798 142.306 24.3823 141.825 24.3823C141.344 24.3823 140.915 24.4798 140.538 24.6748C140.161 24.8698 139.836 25.1363 139.563 25.4742C139.303 25.8122 139.102 26.2021 138.959 26.6441C138.829 27.0861 138.764 27.5475 138.764 28.0285C138.764 28.5354 138.835 29.0164 138.978 29.4713C139.134 29.9133 139.342 30.2967 139.602 30.6217C139.875 30.9467 140.2 31.2066 140.577 31.4016C140.954 31.5836 141.37 31.6746 141.825 31.6746Z" fill="#232431"/>
<path d="M149.393 23.0565H151.225V26.4881H153.234C154.651 26.4881 155.684 26.7871 156.334 27.385C156.997 27.97 157.328 28.7629 157.328 29.7638C157.328 30.7517 156.997 31.5381 156.334 32.123C155.684 32.708 154.651 33.0004 153.234 33.0004H149.393V23.0565ZM153.234 31.5186C154.014 31.5186 154.579 31.3626 154.93 31.0506C155.281 30.7387 155.456 30.3097 155.456 29.7638C155.456 29.2178 155.281 28.7824 154.93 28.4574C154.579 28.1324 154.014 27.97 153.234 27.97H151.225V31.5186H153.234ZM159.434 23.0565H161.267V33.0004H159.434V23.0565Z" fill="#232431"/>
<path d="M166.656 24.5383H163.185V23.0565H171.959V24.5383H168.489V33.0004H166.656V24.5383Z" fill="#232431"/>
<path d="M173.879 23.0565H175.712V30.8557H175.751L180.314 23.0565H182.634V33.0004H180.801V25.2013H180.762L176.2 33.0004H173.879V23.0565Z" fill="#232431"/>
<path d="M185.875 23.0565H187.708V30.8557H187.747L192.31 23.0565H194.63V33.0004H192.797V25.2013H192.758L188.195 33.0004H185.875V23.0565ZM190.321 20.9897C189.905 20.9897 189.515 20.9377 189.151 20.8337C188.787 20.7297 188.468 20.5672 188.195 20.3463C187.922 20.1253 187.695 19.8523 187.513 19.5273C187.344 19.1894 187.253 18.7929 187.24 18.338H188.624C188.689 18.7669 188.871 19.0984 189.17 19.3324C189.482 19.5533 189.866 19.6638 190.321 19.6638C190.776 19.6638 191.146 19.5533 191.432 19.3324C191.718 19.0984 191.894 18.7669 191.959 18.338H193.284C193.245 19.2479 192.946 19.9173 192.387 20.3463C191.829 20.7752 191.14 20.9897 190.321 20.9897Z" fill="#232431"/>
</svg>
