<svg width="246" height="36" viewBox="0 0 246 36" fill="none" xmlns="http://www.w3.org/2000/svg">
<rect width="36" height="36" fill="#2AB7C1"/>
<path d="M8 11.9995L8 15.9995L12 15.9995L12 11.9995L8 11.9995Z" fill="white"/>
<path d="M28 24.001L28 20.001L24 20.001L24 24.001L28 24.001Z" fill="white"/>
<path fill-rule="evenodd" clip-rule="evenodd" d="M16 3.99951L16 7.99951C16 12.4182 19.5831 15.9995 24.0009 15.9995L28 15.9995L28 11.9995L24.0009 11.9995C21.7914 11.9995 20 10.2082 20 7.99951L20 3.99951L16 3.99951Z" fill="white"/>
<path fill-rule="evenodd" clip-rule="evenodd" d="M20 32.0005L20 28.0005C20 23.5818 16.4169 20.0005 11.9991 20.0005L8 20.0005L8 24.0005L11.9991 24.0005C14.2086 24.0005 16 25.7918 16 28.0005L16 32.0005L20 32.0005Z" fill="white"/>
<path d="M44 22.0014H46.3205L50.8835 14.2014H50.9225V22.0014H52.7555V12.0564H50.435L45.872 19.8564H45.833V12.0564H44V22.0014Z" fill="#232431"/>
<path d="M58.4346 22.1574C61.6716 22.1574 62.9976 20.8509 62.9976 19.2519C62.9976 18.0624 62.2566 17.0874 60.8526 16.7754V16.7559C62.0226 16.3659 62.6076 15.5859 62.6076 14.5329C62.6076 12.9924 61.3401 11.9004 58.5126 11.9004C56.8161 11.9004 55.6071 12.2904 55.6071 12.2904V13.8894C55.6071 13.8894 56.8746 13.3824 58.3956 13.3824C59.9166 13.3824 60.6576 13.9089 60.6576 14.7474C60.6576 15.5469 59.9946 16.1124 58.4151 16.1124H57.1086V17.5554H58.7076C60.2871 17.5554 61.0476 18.1404 61.0476 19.0569C61.0476 20.0709 60.1116 20.6754 58.2396 20.6754C56.4066 20.6754 55.2366 20.0904 55.2366 20.0904V21.6699C55.2366 21.6894 56.3871 22.1574 58.4346 22.1574Z" fill="#232431"/>
<path d="M65.3662 22.0014H67.1992V13.8114H67.2382L69.9487 19.4664H71.7817L74.4922 13.8114H74.5312V22.0014H76.3642V12.0564H73.6147L70.9042 17.7309L68.1937 12.0564H65.3662V22.0014Z" fill="#232431"/>
<path d="M88.1904 17.4384V16.9314C88.1904 13.5579 86.4744 11.9004 83.6469 11.9004C81.0144 11.9004 78.9474 13.8114 78.9474 16.8534C78.9474 20.1684 80.8389 22.1574 84.1929 22.1574C85.7919 22.1574 86.8839 21.8454 87.5079 21.6504V19.8564C86.7669 20.2854 85.4994 20.6364 84.3099 20.6364C82.3014 20.6364 81.0534 19.4859 80.8389 17.4384H88.1904ZM83.6274 13.3824C85.1289 13.3824 86.2404 14.3574 86.2404 16.0734H80.8389C81.0729 14.4354 82.1064 13.3824 83.6274 13.3824Z" fill="#232431"/>
<path d="M90.8267 22.0014H92.6597V17.5749H97.6517V22.0014H99.4847V12.0564H97.6517V16.0929H92.6597V12.0564H90.8267V22.0014Z" fill="#232431"/>
<path d="M111.309 17.4384V16.9314C111.309 13.5579 109.593 11.9004 106.765 11.9004C104.133 11.9004 102.066 13.8114 102.066 16.8534C102.066 20.1684 103.957 22.1574 107.311 22.1574C108.91 22.1574 110.002 21.8454 110.626 21.6504V19.8564C109.885 20.2854 108.618 20.6364 107.428 20.6364C105.42 20.6364 104.172 19.4859 103.957 17.4384H111.309ZM106.746 13.3824C108.247 13.3824 109.359 14.3574 109.359 16.0734H103.957C104.191 14.4354 105.225 13.3824 106.746 13.3824Z" fill="#232431"/>
<path d="M113.945 22.0014H115.778V17.5749H120.77V22.0014H122.603V12.0564H120.77V16.0929H115.778V12.0564H113.945V22.0014Z" fill="#232431"/>
<path d="M125.847 22.0014H128.167L132.73 14.2014H132.769V22.0014H134.602V12.0564H132.282L127.719 19.8564H127.68V12.0564H125.847V22.0014Z" fill="#232431"/>
<path d="M136.81 22.0014H138.975L140.925 18.4524H143.694V22.0014H145.527V12.0564H141.081C138.546 12.0564 137.337 13.3239 137.337 15.2544C137.337 16.6584 138.097 17.6334 139.111 18.1014L136.81 22.0014ZM141.081 16.9704C139.833 16.9704 139.209 16.3074 139.209 15.2739C139.209 14.2209 139.813 13.5384 141.081 13.5384H143.694V16.9704H141.081Z" fill="#232431"/>
</svg>
