<svg width="246" height="37" viewBox="0 0 246 37" fill="none" xmlns="http://www.w3.org/2000/svg">
<rect width="36" height="36" fill="#15CE96"/>
<path d="M25.9751 10V6L9.9751 6V10H25.9751Z" fill="white"/>
<path d="M9.9751 9.99902H5.9751V25.999H9.9751V9.99902Z" fill="white"/>
<path d="M25.9751 30.0005V26.0005H9.9751V30.0005H25.9751Z" fill="white"/>
<path d="M29.9751 9.99902H25.9751V25.999H29.9751V9.99902Z" fill="white"/>
<path d="M21.9751 12H17.9751L13.9751 24H17.9751L21.9751 12Z" fill="white"/>
<path d="M44 14.0004H45.833V5.53741H50.63V14.0004H52.463V4.05541H44V14.0004Z" fill="#232431"/>
<path d="M60.1189 14.1564C63.1219 14.1564 65.2084 12.0699 65.2084 9.02791C65.2084 5.98591 63.1219 3.89941 60.1189 3.89941C57.1159 3.89941 55.0294 5.98591 55.0294 9.02791C55.0294 12.0699 57.1159 14.1564 60.1189 14.1564ZM60.1189 12.6744C58.4029 12.6744 56.9794 11.2509 56.9794 9.02791C56.9794 6.80491 58.4029 5.38141 60.1189 5.38141C61.8154 5.38141 63.2584 6.80491 63.2584 9.02791C63.2584 11.2509 61.8349 12.6744 60.1189 12.6744Z" fill="#232431"/>
<path d="M69.6177 12.6939H69.6957C70.2612 13.4154 71.3922 14.1564 72.9912 14.1564C75.8187 14.1564 77.4957 11.7774 77.4957 8.94991C77.4957 6.06391 75.8187 3.89941 72.8937 3.89941C72.1137 3.89941 70.6317 4.07491 69.5787 5.47891H69.5397V4.05541H67.7847V18.3684H69.6177V12.6939ZM72.5622 12.6744C70.7682 12.6744 69.6177 11.2509 69.6177 9.04741C69.6177 6.82441 70.7877 5.38141 72.6207 5.38141C74.3952 5.38141 75.5457 6.76591 75.5457 8.89141C75.5457 11.1924 74.3757 12.6744 72.5622 12.6744Z" fill="#232431"/>
<path d="M82.2124 14.0004H84.0454V5.53741H87.5164V4.05541H78.7414V5.53741H82.2124V14.0004Z" fill="#232431"/>
<path d="M91.991 14.1564C93.239 14.1564 94.643 13.7079 95.4815 12.4794H95.5205V14.0004H97.3925V7.81891C97.3925 5.06941 95.7935 3.89941 93.083 3.89941C91.874 3.89941 90.509 4.13341 89.5145 4.56241V6.27841C90.704 5.63491 91.796 5.42041 92.849 5.42041C94.487 5.42041 95.5595 6.04441 95.5595 7.46791V7.79941H93.7265C90.2555 7.79941 88.598 9.00841 88.598 11.1729C88.598 13.0254 89.924 14.1564 91.991 14.1564ZM92.4395 12.5964C91.2695 12.5964 90.548 12.0504 90.548 11.0559C90.548 9.98342 91.3865 9.20341 93.8045 9.20341H95.5595V9.82741C95.5595 11.3484 94.253 12.5964 92.4395 12.5964Z" fill="#232431"/>
<path d="M99.8811 14.1564C101.948 14.1564 102.904 11.8554 102.904 5.81041V5.53741H106.745V14.0004H108.578V4.05541H101.246V4.83541C101.246 10.3929 100.817 12.4599 99.5301 12.4599C99.2571 12.4599 98.9646 12.3624 98.9646 12.3624V14.0199C98.9646 14.0394 99.4131 14.1564 99.8811 14.1564Z" fill="#232431"/>
<path d="M45.833 30.6939H45.911C46.4765 31.4154 47.6075 32.1564 49.2065 32.1564C52.034 32.1564 53.711 29.7774 53.711 26.9499C53.711 24.0639 52.034 21.8994 49.109 21.8994C48.329 21.8994 46.847 22.0749 45.794 23.4789H45.755V22.0554H44V36.3684H45.833V30.6939ZM48.7775 30.6744C46.9835 30.6744 45.833 29.2509 45.833 27.0474C45.833 24.8244 47.003 23.3814 48.836 23.3814C50.6105 23.3814 51.761 24.7659 51.761 26.8914C51.761 29.1924 50.591 30.6744 48.7775 30.6744Z" fill="#232431"/>
<path d="M58.742 32.1564C59.99 32.1564 61.394 31.7079 62.2325 30.4794H62.2715V32.0004H64.1435V25.8189C64.1435 23.0694 62.5445 21.8994 59.834 21.8994C58.625 21.8994 57.26 22.1334 56.2655 22.5624V24.2784C57.455 23.6349 58.547 23.4204 59.6 23.4204C61.238 23.4204 62.3105 24.0444 62.3105 25.4679V25.7994H60.4775C57.0065 25.7994 55.349 27.0084 55.349 29.1729C55.349 31.0254 56.675 32.1564 58.742 32.1564ZM59.1905 30.5964C58.0205 30.5964 57.299 30.0504 57.299 29.0559C57.299 27.9834 58.1375 27.2034 60.5555 27.2034H62.3105V27.8274C62.3105 29.3484 61.004 30.5964 59.1905 30.5964Z" fill="#232431"/>
<path d="M69.4985 32.1564C72.7355 32.1564 74.0615 30.8499 74.0615 29.2509C74.0615 28.0614 73.3205 27.0864 71.9165 26.7744V26.7549C73.0865 26.3649 73.6715 25.5849 73.6715 24.5319C73.6715 22.9914 72.404 21.8994 69.5765 21.8994C67.88 21.8994 66.671 22.2894 66.671 22.2894V23.8884C66.671 23.8884 67.9385 23.3814 69.4595 23.3814C70.9805 23.3814 71.7215 23.9079 71.7215 24.7464C71.7215 25.5459 71.0585 26.1114 69.479 26.1114H68.1725V27.5544H69.7715C71.351 27.5544 72.1115 28.1394 72.1115 29.0559C72.1115 30.0699 71.1755 30.6744 69.3035 30.6744C67.4705 30.6744 66.3005 30.0894 66.3005 30.0894V31.6689C66.3005 31.6884 67.451 32.1564 69.4985 32.1564Z" fill="#232431"/>
<path d="M78.2632 30.6939H78.3412C78.9067 31.4154 80.0377 32.1564 81.6367 32.1564C84.4642 32.1564 86.1412 29.7774 86.1412 26.9499C86.1412 24.0639 84.4642 21.8994 81.5392 21.8994C80.7592 21.8994 79.2772 22.0749 78.2242 23.4789H78.1852V22.0554H76.4302V36.3684H78.2632V30.6939ZM81.2077 30.6744C79.4137 30.6744 78.2632 29.2509 78.2632 27.0474C78.2632 24.8244 79.4332 23.3814 81.2662 23.3814C83.0407 23.3814 84.1912 24.7659 84.1912 26.8914C84.1912 29.1924 83.0212 30.6744 81.2077 30.6744Z" fill="#232431"/>
<path d="M91.1722 32.1564C92.4202 32.1564 93.8242 31.7079 94.6627 30.4794H94.7017V32.0004H96.5737V25.8189C96.5737 23.0694 94.9747 21.8994 92.2642 21.8994C91.0552 21.8994 89.6902 22.1334 88.6957 22.5624V24.2784C89.8852 23.6349 90.9772 23.4204 92.0302 23.4204C93.6682 23.4204 94.7407 24.0444 94.7407 25.4679V25.7994H92.9077C89.4367 25.7994 87.7792 27.0084 87.7792 29.1729C87.7792 31.0254 89.1052 32.1564 91.1722 32.1564ZM91.6207 30.5964C90.4507 30.5964 89.7292 30.0504 89.7292 29.0559C89.7292 27.9834 90.5677 27.2034 92.9857 27.2034H94.7407V27.8274C94.7407 29.3484 93.4342 30.5964 91.6207 30.5964Z" fill="#232431"/>
<path d="M104.015 32.1564C106.979 32.1564 109.007 30.0114 109.007 27.0279C109.007 24.0054 107.194 21.8994 104.366 21.8994C102.709 21.8994 101.363 22.7184 100.622 23.9469H100.525L100.544 23.4594C100.642 21.0414 101.695 19.3644 104.21 18.9354C105.517 18.7209 106.745 18.8769 108.13 18.5064V16.8879C106.258 17.3754 105.224 17.0049 103.372 17.4729C99.9982 18.3309 98.8282 21.0804 98.8282 24.6489C98.8282 29.1534 100.193 32.1564 104.015 32.1564ZM104.015 30.6744C102.202 30.6744 100.954 29.0754 100.954 27.0279C100.954 25.0779 102.104 23.3814 104.015 23.3814C105.926 23.3814 107.057 25.0779 107.057 27.0279C107.057 29.0169 105.868 30.6744 104.015 30.6744Z" fill="#232431"/>
<path d="M116.01 32.1564C119.013 32.1564 121.1 30.0699 121.1 27.0279C121.1 23.9859 119.013 21.8994 116.01 21.8994C113.007 21.8994 110.921 23.9859 110.921 27.0279C110.921 30.0699 113.007 32.1564 116.01 32.1564ZM116.01 30.6744C114.294 30.6744 112.871 29.2509 112.871 27.0279C112.871 24.8049 114.294 23.3814 116.01 23.3814C117.707 23.3814 119.15 24.8049 119.15 27.0279C119.15 29.2509 117.726 30.6744 116.01 30.6744Z" fill="#232431"/>
<path d="M125.535 32.0004H127.368V23.5374H130.839V22.0554H122.064V23.5374H125.535V32.0004Z" fill="#232431"/>
<path d="M132.759 32.0004H134.592V27.5544H136.425L139.662 32.0004H141.944L138.083 26.7744L141.476 22.0554H139.331L136.445 26.0724H134.592V22.0554H132.759V32.0004Z" fill="#232431"/>
<path d="M143.785 32.0004H146.106L150.669 24.2004H150.708V32.0004H152.541V22.0554H150.22L145.657 29.8554H145.618V22.0554H143.785V32.0004Z" fill="#232431"/>
</svg>
