<svg width="246" height="37" viewBox="0 0 246 37" fill="none" xmlns="http://www.w3.org/2000/svg">
<rect width="36" height="36" fill="#2AB7C1"/>
<path d="M19.9998 6L15.9998 6L15.9998 30H19.9998L19.9998 6Z" fill="white"/>
<path d="M25.9998 8L21.9998 8L21.9998 30H25.9998L25.9998 8Z" fill="white"/>
<path d="M31.9998 10H27.9998V30H31.9998V10Z" fill="white"/>
<path d="M20.0002 10L20.0002 6L8.00024 6L8.00024 10L20.0002 10Z" fill="white"/>
<path d="M20.0002 30L20.0002 26L4.00025 26L4.00024 30L20.0002 30Z" fill="white"/>
<path d="M7.99976 10H3.99976L3.99976 28H7.99976L7.99976 10Z" fill="white"/>
<path d="M44.663 3.90711H46.496V7.95269H48.3485L51.2345 3.90711H53.3795L49.9865 8.65968L53.8475 13.9229H51.566L48.329 9.44523H46.496V13.9229H44.663V3.90711Z" fill="#232431"/>
<path d="M58.2434 14.08C57.2034 14.08 56.3779 13.8181 55.7669 13.2944C55.1559 12.7576 54.8504 12.0179 54.8504 11.0752C54.8504 9.97548 55.2664 9.13756 56.0984 8.56149C56.9434 7.97233 58.2369 7.67775 59.9789 7.67775H61.8119V7.34389C61.8119 6.6238 61.5649 6.1001 61.0709 5.77279C60.5769 5.44548 59.9204 5.28182 59.1014 5.28182C58.5684 5.28182 58.0289 5.34728 57.4829 5.47821C56.9369 5.59604 56.3649 5.81861 55.7669 6.14593V4.41772C56.2609 4.19514 56.8264 4.03149 57.4634 3.92675C58.1004 3.80892 58.7244 3.75 59.3354 3.75C60.7004 3.75 61.7599 4.06422 62.5139 4.69266C63.2679 5.30801 63.6449 6.30958 63.6449 7.69739V13.9229H61.7729V12.391H61.7339C61.3179 13.0064 60.7849 13.445 60.1349 13.7068C59.4979 13.9556 58.8674 14.08 58.2434 14.08ZM58.6919 12.5089C59.1469 12.5089 59.5629 12.4369 59.9399 12.2928C60.3299 12.1488 60.6614 11.9524 60.9344 11.7037C61.2074 11.4418 61.4219 11.1407 61.5779 10.8003C61.7339 10.4599 61.8119 10.0999 61.8119 9.72017V9.09174H60.0569C59.4459 9.09174 58.9324 9.13756 58.5164 9.22921C58.1134 9.32085 57.7819 9.45178 57.5219 9.62198C57.2619 9.79218 57.0734 9.98857 56.9564 10.2111C56.8524 10.4337 56.8004 10.6825 56.8004 10.9574C56.8004 11.4549 56.9694 11.8412 57.3074 12.1161C57.6454 12.3779 58.1069 12.5089 58.6919 12.5089Z" fill="#232431"/>
<path d="M68.7074 5.39965H65.2364V3.90711H74.0114V5.39965H70.5404V13.9229H68.7074V5.39965Z" fill="#232431"/>
<path d="M78.4861 14.08C77.4461 14.08 76.6206 13.8181 76.0096 13.2944C75.3986 12.7576 75.0931 12.0179 75.0931 11.0752C75.0931 9.97548 75.5091 9.13756 76.3411 8.56149C77.1861 7.97233 78.4796 7.67775 80.2216 7.67775H82.0546V7.34389C82.0546 6.6238 81.8076 6.1001 81.3136 5.77279C80.8196 5.44548 80.1631 5.28182 79.3441 5.28182C78.8111 5.28182 78.2716 5.34728 77.7256 5.47821C77.1796 5.59604 76.6076 5.81861 76.0096 6.14593V4.41772C76.5036 4.19514 77.0691 4.03149 77.7061 3.92675C78.3431 3.80892 78.9671 3.75 79.5781 3.75C80.9431 3.75 82.0026 4.06422 82.7566 4.69266C83.5106 5.30801 83.8876 6.30958 83.8876 7.69739V13.9229H82.0156V12.391H81.9766C81.5606 13.0064 81.0276 13.445 80.3776 13.7068C79.7406 13.9556 79.1101 14.08 78.4861 14.08ZM78.9346 12.5089C79.3896 12.5089 79.8056 12.4369 80.1826 12.2928C80.5726 12.1488 80.9041 11.9524 81.1771 11.7037C81.4501 11.4418 81.6646 11.1407 81.8206 10.8003C81.9766 10.4599 82.0546 10.0999 82.0546 9.72017V9.09174H80.2996C79.6886 9.09174 79.1751 9.13756 78.7591 9.22921C78.3561 9.32085 78.0246 9.45178 77.7646 9.62198C77.5046 9.79218 77.3161 9.98857 77.1991 10.2111C77.0951 10.4337 77.0431 10.6825 77.0431 10.9574C77.0431 11.4549 77.2121 11.8412 77.5501 12.1161C77.8881 12.3779 78.3496 12.5089 78.9346 12.5089Z" fill="#232431"/>
<path d="M86.3761 14.08C86.1421 14.08 85.9276 14.0603 85.7326 14.0211C85.5506 13.9818 85.4596 13.9556 85.4596 13.9425V12.2732C85.5116 12.2994 85.5701 12.319 85.6351 12.3321C85.7651 12.3583 85.8951 12.3714 86.0251 12.3714C86.3501 12.3714 86.6166 12.2339 86.8246 11.959C87.0456 11.684 87.2211 11.2454 87.3511 10.6432C87.4941 10.0278 87.5916 9.23575 87.6436 8.26691C87.7086 7.28497 87.7411 6.09355 87.7411 4.69266V3.90711H95.0731V13.9229H93.2401V5.39965H89.3986V5.6746C89.3986 7.19332 89.3336 8.48948 89.2036 9.56306C89.0866 10.6236 88.9046 11.4877 88.6576 12.1554C88.4106 12.8231 88.0986 13.3141 87.7216 13.6283C87.3446 13.9294 86.8961 14.08 86.3761 14.08Z" fill="#232431"/>
<path d="M102.734 14.08C101.98 14.08 101.291 13.9556 100.667 13.7068C100.043 13.4581 99.503 13.1046 99.048 12.6463C98.606 12.1881 98.2615 11.6448 98.0145 11.0163C97.7675 10.3879 97.644 9.68744 97.644 8.91499C97.644 8.15562 97.7675 7.46172 98.0145 6.83328C98.2615 6.19175 98.606 5.64186 99.048 5.18363C99.503 4.72539 100.043 4.37189 100.667 4.12314C101.291 3.87438 101.98 3.75 102.734 3.75C103.488 3.75 104.177 3.87438 104.801 4.12314C105.425 4.37189 105.958 4.72539 106.4 5.18363C106.855 5.64186 107.206 6.19175 107.453 6.83328C107.7 7.46172 107.823 8.15562 107.823 8.91499C107.823 9.68744 107.7 10.3879 107.453 11.0163C107.206 11.6448 106.855 12.1881 106.4 12.6463C105.958 13.1046 105.425 13.4581 104.801 13.7068C104.177 13.9556 103.488 14.08 102.734 14.08ZM102.734 12.5874C103.163 12.5874 103.566 12.5023 103.943 12.3321C104.333 12.1619 104.664 11.9197 104.937 11.6055C105.223 11.2782 105.451 10.892 105.62 10.4468C105.789 9.98857 105.873 9.47796 105.873 8.91499C105.873 8.35201 105.789 7.84795 105.62 7.4028C105.451 6.94457 105.223 6.55834 104.937 6.24412C104.651 5.91681 104.32 5.66805 103.943 5.49785C103.566 5.32764 103.163 5.24254 102.734 5.24254C102.305 5.24254 101.895 5.32764 101.505 5.49785C101.128 5.66805 100.797 5.91681 100.511 6.24412C100.238 6.55834 100.017 6.94457 99.8475 7.4028C99.6785 7.84795 99.594 8.35201 99.594 8.91499C99.594 9.47796 99.6785 9.98857 99.8475 10.4468C100.017 10.892 100.238 11.2782 100.511 11.6055C100.797 11.9197 101.128 12.1619 101.505 12.3321C101.895 12.5023 102.305 12.5874 102.734 12.5874Z" fill="#232431"/>
<path d="M110.399 3.90711H116.717V5.39965H112.232V13.9229H110.399V3.90711Z" fill="#232431"/>
<path d="M48.9725 32.208C48.2055 32.208 47.51 32.0837 46.886 31.8349C46.275 31.5861 45.755 31.2392 45.326 30.794C44.897 30.3358 44.5655 29.7925 44.3315 29.164C44.1105 28.5225 44 27.8155 44 27.043C44 26.2706 44.117 25.5701 44.351 24.9417C44.585 24.3002 44.9165 23.7568 45.3455 23.3117C45.7875 22.8535 46.314 22.5 46.925 22.2512C47.536 22.0024 48.225 21.8781 48.992 21.8781C49.382 21.8781 49.7265 21.8977 50.0255 21.937C50.3375 21.9763 50.604 22.0221 50.825 22.0744C51.072 22.1268 51.2865 22.1923 51.4685 22.2708V23.8616C51.2735 23.7699 51.059 23.6914 50.825 23.6259C50.617 23.5604 50.3765 23.5015 50.1035 23.4492C49.8305 23.3968 49.525 23.3706 49.187 23.3706C48.147 23.3706 47.3475 23.6914 46.7885 24.3329C46.2295 24.9613 45.95 25.8647 45.95 27.043C45.95 28.2214 46.2295 29.1313 46.7885 29.7728C47.3475 30.4013 48.1405 30.7155 49.1675 30.7155C49.5055 30.7155 49.811 30.6893 50.084 30.6369C50.37 30.5846 50.617 30.5256 50.825 30.4602C51.059 30.3947 51.2735 30.3096 51.4685 30.2049V31.8153C51.2735 31.8938 51.0525 31.9593 50.8055 32.0116C50.5845 32.064 50.318 32.1098 50.006 32.1491C49.694 32.1884 49.3495 32.208 48.9725 32.208Z" fill="#232431"/>
<path d="M55.2606 27.4555C55.3646 28.4898 55.7156 29.2884 56.3136 29.8514C56.9116 30.4013 57.7176 30.6762 58.7316 30.6762C59.3296 30.6762 59.9146 30.6042 60.4866 30.4602C61.0716 30.3031 61.5526 30.1132 61.9296 29.8907V31.6974C61.6176 31.8022 61.1886 31.9135 60.6426 32.0313C60.0966 32.1491 59.4206 32.208 58.6146 32.208C56.9246 32.208 55.6246 31.7367 54.7146 30.794C53.8176 29.8514 53.3691 28.5421 53.3691 26.8663C53.3691 26.1069 53.4861 25.4196 53.7201 24.8042C53.9671 24.1889 54.2986 23.6652 54.7146 23.2331C55.1436 22.8011 55.6441 22.4672 56.2161 22.2316C56.7881 21.9959 57.4056 21.8781 58.0686 21.8781C59.4856 21.8781 60.5971 22.297 61.4031 23.1349C62.2091 23.9729 62.6121 25.2428 62.6121 26.9449V27.4555H55.2606ZM58.0491 23.3706C57.2821 23.3706 56.6516 23.6194 56.1576 24.1169C55.6766 24.6013 55.3776 25.2559 55.2606 26.0807H60.6621C60.6621 25.2166 60.4151 24.5489 59.9211 24.0776C59.4271 23.6063 58.8031 23.3706 58.0491 23.3706Z" fill="#232431"/>
<path d="M67.0814 36.45H65.2484V22.0352H67.0035V23.4688H67.0424C67.3025 23.1153 67.5819 22.8338 67.8809 22.6243C68.1929 22.4149 68.4984 22.2577 68.7975 22.153C69.0965 22.0352 69.3825 21.9632 69.6555 21.937C69.9285 21.8977 70.1625 21.8781 70.3575 21.8781C71.0855 21.8781 71.7355 22.009 72.3074 22.2708C72.8794 22.5196 73.3605 22.8731 73.7505 23.3313C74.1405 23.7896 74.4394 24.3329 74.6474 24.9613C74.8554 25.5767 74.9594 26.2444 74.9594 26.9645C74.9594 27.6715 74.8554 28.3458 74.6474 28.9873C74.4524 29.6157 74.16 30.1722 73.77 30.6566C73.3799 31.1279 72.9055 31.5076 72.3465 31.7956C71.7875 32.0706 71.157 32.208 70.455 32.208C69.649 32.208 68.9664 32.0575 68.4074 31.7563C67.8615 31.4421 67.4454 31.1017 67.1595 30.7351H67.0814V36.45ZM70.026 30.7155C70.936 30.7155 71.6575 30.3751 72.1905 29.6943C72.7365 29.0004 73.0095 28.0708 73.0095 26.9056C73.0095 25.832 72.743 24.9744 72.21 24.3329C71.69 23.6914 70.9814 23.3706 70.0844 23.3706C69.1614 23.3706 68.4269 23.7045 67.8809 24.3722C67.3479 25.0399 67.0814 25.9367 67.0814 27.0627C67.0814 28.1755 67.3479 29.0658 67.8809 29.7336C68.4139 30.3882 69.129 30.7155 70.026 30.7155Z" fill="#232431"/>
<path d="M85.4482 24.6668C85.4482 25.1905 85.3182 25.6225 85.0582 25.9629C84.8112 26.2902 84.4407 26.5586 83.9467 26.7681V26.8074C85.2077 27.2263 85.8382 27.9988 85.8382 29.1248C85.8382 29.5437 85.7537 29.9299 85.5847 30.2834C85.4287 30.6369 85.1882 30.9446 84.8632 31.2065C84.5512 31.4683 84.1482 31.6778 83.6542 31.8349C83.1732 31.9789 82.6012 32.0509 81.9382 32.0509H77.5312V22.0352H81.5482C82.2502 22.0352 82.8482 22.1072 83.3422 22.2512C83.8362 22.3821 84.2392 22.5654 84.5512 22.8011C84.8632 23.0367 85.0907 23.3182 85.2337 23.6455C85.3767 23.9598 85.4482 24.3002 85.4482 24.6668ZM81.9382 30.5584C82.6012 30.5584 83.0822 30.4275 83.3812 30.1656C83.6932 29.9038 83.8492 29.5437 83.8492 29.0855C83.8492 28.6272 83.6932 28.2672 83.3812 28.0053C83.0822 27.7304 82.6012 27.5929 81.9382 27.5929H79.3642V30.5584H81.9382ZM81.5482 26.1004C82.2112 26.1004 82.6922 25.976 82.9912 25.7272C83.3032 25.4654 83.4592 25.1577 83.4592 24.8042C83.4592 24.4507 83.3032 24.1496 82.9912 23.9008C82.6922 23.6521 82.2112 23.5277 81.5482 23.5277H79.3642V26.1004H81.5482Z" fill="#232431"/>
<path d="M88.1952 22.0352H90.0282V29.8907H90.0672L94.6302 22.0352H96.9507V32.0509H95.1177V24.1954H95.0787L90.5157 32.0509H88.1952V22.0352Z" fill="#232431"/>
<path d="M104.502 32.208C103.735 32.208 103.039 32.0837 102.415 31.8349C101.804 31.5861 101.284 31.2392 100.855 30.794C100.426 30.3358 100.095 29.7925 99.8608 29.164C99.6398 28.5225 99.5293 27.8155 99.5293 27.043C99.5293 26.2706 99.6463 25.5701 99.8803 24.9417C100.114 24.3002 100.446 23.7568 100.875 23.3117C101.317 22.8535 101.843 22.5 102.454 22.2512C103.065 22.0024 103.754 21.8781 104.521 21.8781C104.911 21.8781 105.256 21.8977 105.555 21.937C105.867 21.9763 106.133 22.0221 106.354 22.0744C106.601 22.1268 106.816 22.1923 106.998 22.2708V23.8616C106.803 23.7699 106.588 23.6914 106.354 23.6259C106.146 23.5604 105.906 23.5015 105.633 23.4492C105.36 23.3968 105.054 23.3706 104.716 23.3706C103.676 23.3706 102.877 23.6914 102.318 24.3329C101.759 24.9613 101.479 25.8647 101.479 27.043C101.479 28.2214 101.759 29.1313 102.318 29.7728C102.877 30.4013 103.67 30.7155 104.697 30.7155C105.035 30.7155 105.34 30.6893 105.613 30.6369C105.899 30.5846 106.146 30.5256 106.354 30.4602C106.588 30.3947 106.803 30.3096 106.998 30.2049V31.8153C106.803 31.8938 106.582 31.9593 106.335 32.0116C106.114 32.064 105.847 32.1098 105.535 32.1491C105.223 32.1884 104.879 32.208 104.502 32.208Z" fill="#232431"/>
<path d="M113.988 32.208C113.234 32.208 112.545 32.0837 111.921 31.8349C111.297 31.5861 110.757 31.2326 110.302 30.7744C109.86 30.3162 109.516 29.7728 109.269 29.1444C109.022 28.516 108.898 27.8155 108.898 27.043C108.898 26.2837 109.022 25.5898 109.269 24.9613C109.516 24.3198 109.86 23.7699 110.302 23.3117C110.757 22.8535 111.297 22.5 111.921 22.2512C112.545 22.0024 113.234 21.8781 113.988 21.8781C114.742 21.8781 115.431 22.0024 116.055 22.2512C116.679 22.5 117.212 22.8535 117.654 23.3117C118.109 23.7699 118.46 24.3198 118.707 24.9613C118.954 25.5898 119.077 26.2837 119.077 27.043C119.077 27.8155 118.954 28.516 118.707 29.1444C118.46 29.7728 118.109 30.3162 117.654 30.7744C117.212 31.2326 116.679 31.5861 116.055 31.8349C115.431 32.0837 114.742 32.208 113.988 32.208ZM113.988 30.7155C114.417 30.7155 114.82 30.6304 115.197 30.4602C115.587 30.29 115.918 30.0478 116.191 29.7336C116.477 29.4062 116.705 29.02 116.874 28.5749C117.043 28.1166 117.127 27.606 117.127 27.043C117.127 26.4801 117.043 25.976 116.874 25.5309C116.705 25.0726 116.477 24.6864 116.191 24.3722C115.905 24.0449 115.574 23.7961 115.197 23.6259C114.82 23.4557 114.417 23.3706 113.988 23.3706C113.559 23.3706 113.149 23.4557 112.759 23.6259C112.382 23.7961 112.051 24.0449 111.765 24.3722C111.492 24.6864 111.271 25.0726 111.102 25.5309C110.933 25.976 110.848 26.4801 110.848 27.043C110.848 27.606 110.933 28.1166 111.102 28.5749C111.271 29.02 111.492 29.4062 111.765 29.7336C112.051 30.0478 112.382 30.29 112.759 30.4602C113.149 30.6304 113.559 30.7155 113.988 30.7155Z" fill="#232431"/>
<path d="M129.571 24.6668C129.571 25.1905 129.441 25.6225 129.181 25.9629C128.934 26.2902 128.563 26.5586 128.069 26.7681V26.8074C129.33 27.2263 129.961 27.9988 129.961 29.1248C129.961 29.5437 129.876 29.9299 129.707 30.2834C129.551 30.6369 129.311 30.9446 128.986 31.2065C128.674 31.4683 128.271 31.6778 127.777 31.8349C127.296 31.9789 126.724 32.0509 126.061 32.0509H121.654V22.0352H125.671C126.373 22.0352 126.971 22.1072 127.465 22.2512C127.959 22.3821 128.362 22.5654 128.674 22.8011C128.986 23.0367 129.213 23.3182 129.356 23.6455C129.499 23.9598 129.571 24.3002 129.571 24.6668ZM126.061 30.5584C126.724 30.5584 127.205 30.4275 127.504 30.1656C127.816 29.9038 127.972 29.5437 127.972 29.0855C127.972 28.6272 127.816 28.2672 127.504 28.0053C127.205 27.7304 126.724 27.5929 126.061 27.5929H123.487V30.5584H126.061ZM125.671 26.1004C126.334 26.1004 126.815 25.976 127.114 25.7272C127.426 25.4654 127.582 25.1577 127.582 24.8042C127.582 24.4507 127.426 24.1496 127.114 23.9008C126.815 23.6521 126.334 23.5277 125.671 23.5277H123.487V26.1004H125.671Z" fill="#232431"/>
</svg>
