<svg width="246" height="36" viewBox="0 0 246 36" fill="none" xmlns="http://www.w3.org/2000/svg">
<rect width="36" height="36" fill="#9849FF"/>
<path d="M30 6H6V10H30V6Z" fill="white"/>
<path d="M18 14.0005H6V18.0005H18V14.0005Z" fill="white"/>
<path d="M30 20.0005H18V24.0005H30V20.0005Z" fill="white"/>
<path d="M18 26.0005H6V30.0005H18V26.0005Z" fill="white"/>
<path d="M47.393 22.1559C46.353 22.1559 45.5275 21.8959 44.9165 21.3759C44.3055 20.8429 44 20.1084 44 19.1724C44 18.0804 44.416 17.2484 45.248 16.6764C46.093 16.0914 47.3865 15.7989 49.1285 15.7989H50.9615V15.4674C50.9615 14.7524 50.7145 14.2324 50.2205 13.9074C49.7265 13.5824 49.07 13.4199 48.251 13.4199C47.718 13.4199 47.1785 13.4849 46.6325 13.6149C46.0865 13.7319 45.5145 13.9529 44.9165 14.2779V12.5619C45.4105 12.3409 45.976 12.1784 46.613 12.0744C47.25 11.9574 47.874 11.8989 48.485 11.8989C49.85 11.8989 50.9095 12.2109 51.6635 12.8349C52.4175 13.4459 52.7945 14.4404 52.7945 15.8184V21.9999H50.9225V20.4789H50.8835C50.4675 21.0899 49.9345 21.5254 49.2845 21.7854C48.6475 22.0324 48.017 22.1559 47.393 22.1559ZM47.8415 20.5959C48.2965 20.5959 48.7125 20.5244 49.0895 20.3814C49.4795 20.2384 49.811 20.0434 50.084 19.7964C50.357 19.5364 50.5715 19.2374 50.7275 18.8994C50.8835 18.5614 50.9615 18.2039 50.9615 17.8269V17.2029H49.2065C48.5955 17.2029 48.082 17.2484 47.666 17.3394C47.263 17.4304 46.9315 17.5604 46.6715 17.7294C46.4115 17.8984 46.223 18.0934 46.106 18.3144C46.002 18.5354 45.95 18.7824 45.95 19.0554C45.95 19.5494 46.119 19.9329 46.457 20.2059C46.795 20.4659 47.2565 20.5959 47.8415 20.5959Z" fill="#232431"/>
<path d="M57.545 26.3679H55.712V12.0549H57.467V13.4784H57.506C57.766 13.1274 58.0455 12.8479 58.3445 12.6399C58.6565 12.4319 58.962 12.2759 59.261 12.1719C59.56 12.0549 59.846 11.9834 60.119 11.9574C60.392 11.9184 60.626 11.8989 60.821 11.8989C61.549 11.8989 62.199 12.0289 62.771 12.2889C63.343 12.5359 63.824 12.8869 64.214 13.3419C64.604 13.7969 64.903 14.3364 65.111 14.9604C65.319 15.5714 65.423 16.2344 65.423 16.9494C65.423 17.6514 65.319 18.3209 65.111 18.9579C64.916 19.5819 64.6235 20.1344 64.2335 20.6154C63.8435 21.0834 63.369 21.4604 62.81 21.7464C62.251 22.0194 61.6205 22.1559 60.9185 22.1559C60.1125 22.1559 59.43 22.0064 58.871 21.7074C58.325 21.3954 57.909 21.0574 57.623 20.6934H57.545V26.3679ZM60.4895 20.6739C61.3995 20.6739 62.121 20.3359 62.654 19.6599C63.2 18.9709 63.473 18.0479 63.473 16.8909C63.473 15.8249 63.2065 14.9734 62.6735 14.3364C62.1535 13.6994 61.445 13.3809 60.548 13.3809C59.625 13.3809 58.8905 13.7124 58.3445 14.3754C57.8115 15.0384 57.545 15.9289 57.545 17.0469C57.545 18.1519 57.8115 19.0359 58.3445 19.6989C58.8775 20.3489 59.5925 20.6739 60.4895 20.6739Z" fill="#232431"/>
<path d="M70.1489 16.7934L66.6389 12.0549H68.9204L71.3774 15.7404L73.8734 12.0549H75.9209L72.4499 16.7934L76.1354 21.9999H73.8734L71.2214 18.0219L68.5694 21.9999H66.3854L70.1489 16.7934Z" fill="#232431"/>
<path d="M78.1446 12.0549H79.9776V19.8549H80.0166L84.5796 12.0549H86.9001V21.9999H85.0671V14.1999H85.0281L80.4651 21.9999H78.1446V12.0549Z" fill="#232431"/>
<path d="M92.2867 13.5369H88.8157V12.0549H97.5907V13.5369H94.1197V21.9999H92.2867V13.5369Z" fill="#232431"/>
<path d="M100.454 17.4369C100.558 18.4639 100.909 19.2569 101.507 19.8159C102.105 20.3619 102.911 20.6349 103.925 20.6349C104.523 20.6349 105.108 20.5634 105.68 20.4204C106.265 20.2644 106.746 20.0759 107.123 19.8549V21.6489C106.811 21.7529 106.382 21.8634 105.836 21.9804C105.29 22.0974 104.614 22.1559 103.808 22.1559C102.118 22.1559 100.818 21.6879 99.9077 20.7519C99.0107 19.8159 98.5622 18.5159 98.5622 16.8519C98.5622 16.0979 98.6792 15.4154 98.9132 14.8044C99.1602 14.1934 99.4917 13.6734 99.9077 13.2444C100.337 12.8154 100.837 12.4839 101.409 12.2499C101.981 12.0159 102.599 11.8989 103.262 11.8989C104.679 11.8989 105.79 12.3149 106.596 13.1469C107.402 13.9789 107.805 15.2399 107.805 16.9299V17.4369H100.454ZM103.242 13.3809C102.475 13.3809 101.845 13.6279 101.351 14.1219C100.87 14.6029 100.571 15.2529 100.454 16.0719H105.855C105.855 15.2139 105.608 14.5509 105.114 14.0829C104.62 13.6149 103.996 13.3809 103.242 13.3809Z" fill="#232431"/>
<path d="M110.442 12.0549H112.275V16.0719H114.127L117.013 12.0549H119.158L115.765 16.7739L119.626 21.9999H117.345L114.108 17.5539H112.275V21.9999H110.442V12.0549Z" fill="#232431"/>
<path d="M123.612 13.5369H120.141V12.0549H128.916V13.5369H125.445V21.9999H123.612V13.5369Z" fill="#232431"/>
<path d="M131.768 26.3679C131.638 26.3679 131.521 26.3614 131.417 26.3484C131.313 26.3484 131.228 26.3419 131.163 26.3289C131.072 26.3159 130.994 26.2964 130.929 26.2704V24.7689C130.994 24.7819 131.066 24.7949 131.144 24.8079C131.209 24.8209 131.28 24.8274 131.358 24.8274C131.449 24.8274 131.547 24.8274 131.651 24.8274C132.21 24.8274 132.619 24.6714 132.879 24.3594C133.152 24.0474 133.399 23.5859 133.62 22.9749L133.796 22.4874L129.72 12.0549H131.729L134.751 20.2059H134.888L137.969 12.0549H139.821L135.687 22.3899C135.388 23.1179 135.115 23.7354 134.868 24.2424C134.634 24.7494 134.374 25.1589 134.088 25.4709C133.802 25.7829 133.477 26.0104 133.113 26.1534C132.749 26.2964 132.301 26.3679 131.768 26.3679Z" fill="#232431"/>
<path d="M143.581 26.3679H141.748V12.0549H143.503V13.4784H143.542C143.802 13.1274 144.082 12.8479 144.381 12.6399C144.693 12.4319 144.998 12.2759 145.297 12.1719C145.596 12.0549 145.882 11.9834 146.155 11.9574C146.428 11.9184 146.662 11.8989 146.857 11.8989C147.585 11.8989 148.235 12.0289 148.807 12.2889C149.379 12.5359 149.86 12.8869 150.25 13.3419C150.64 13.7969 150.939 14.3364 151.147 14.9604C151.355 15.5714 151.459 16.2344 151.459 16.9494C151.459 17.6514 151.355 18.3209 151.147 18.9579C150.952 19.5819 150.66 20.1344 150.27 20.6154C149.88 21.0834 149.405 21.4604 148.846 21.7464C148.287 22.0194 147.657 22.1559 146.955 22.1559C146.149 22.1559 145.466 22.0064 144.907 21.7074C144.361 21.3954 143.945 21.0574 143.659 20.6934H143.581V26.3679ZM146.526 20.6739C147.436 20.6739 148.157 20.3359 148.69 19.6599C149.236 18.9709 149.509 18.0479 149.509 16.8909C149.509 15.8249 149.243 14.9734 148.71 14.3364C148.19 13.6994 147.481 13.3809 146.584 13.3809C145.661 13.3809 144.927 13.7124 144.381 14.3754C143.848 15.0384 143.581 15.9289 143.581 17.0469C143.581 18.1519 143.848 19.0359 144.381 19.6989C144.914 20.3489 145.629 20.6739 146.526 20.6739Z" fill="#232431"/>
<path d="M156.49 22.1559C155.45 22.1559 154.625 21.8959 154.014 21.3759C153.403 20.8429 153.097 20.1084 153.097 19.1724C153.097 18.0804 153.513 17.2484 154.345 16.6764C155.19 16.0914 156.484 15.7989 158.226 15.7989H160.059V15.4674C160.059 14.7524 159.812 14.2324 159.318 13.9074C158.824 13.5824 158.167 13.4199 157.348 13.4199C156.815 13.4199 156.276 13.4849 155.73 13.6149C155.184 13.7319 154.612 13.9529 154.014 14.2779V12.5619C154.508 12.3409 155.073 12.1784 155.71 12.0744C156.347 11.9574 156.971 11.8989 157.582 11.8989C158.947 11.8989 160.007 12.2109 160.761 12.8349C161.515 13.4459 161.892 14.4404 161.892 15.8184V21.9999H160.02V20.4789H159.981C159.565 21.0899 159.032 21.5254 158.382 21.7854C157.745 22.0324 157.114 22.1559 156.49 22.1559ZM156.939 20.5959C157.394 20.5959 157.81 20.5244 158.187 20.3814C158.577 20.2384 158.908 20.0434 159.181 19.7964C159.454 19.5364 159.669 19.2374 159.825 18.8994C159.981 18.5614 160.059 18.2039 160.059 17.8269V17.2029H158.304C157.693 17.2029 157.179 17.2484 156.763 17.3394C156.36 17.4304 156.029 17.5604 155.769 17.7294C155.509 17.8984 155.32 18.0934 155.203 18.3144C155.099 18.5354 155.047 18.7824 155.047 19.0554C155.047 19.5494 155.216 19.9329 155.554 20.2059C155.892 20.4659 156.354 20.5959 156.939 20.5959Z" fill="#232431"/>
</svg>
