<svg width="246" height="36" viewBox="0 0 246 36" fill="none" xmlns="http://www.w3.org/2000/svg">
<rect width="36" height="36" fill="#15CE96"/>
<path fill-rule="evenodd" clip-rule="evenodd" d="M29.9751 20.0005V22.0005C29.9751 26.4193 26.3915 30.0005 21.9738 30.0005H19.9751V26.0005H21.9738C24.1835 26.0005 25.9751 24.2091 25.9751 22.0005V20.0005H29.9751Z" fill="white"/>
<path fill-rule="evenodd" clip-rule="evenodd" d="M15.9751 30.0005L13.9751 30.0005C9.55626 30.0005 5.9751 26.4169 5.9751 21.9992L5.9751 20.0005L9.9751 20.0005L9.9751 21.9992C9.9751 24.2089 11.7665 26.0005 13.9751 26.0005L15.9751 26.0005L15.9751 30.0005Z" fill="white"/>
<path d="M21.9751 12H17.9751L13.9751 24H17.9751L21.9751 12Z" fill="white"/>
<path fill-rule="evenodd" clip-rule="evenodd" d="M5.9751 16.0015L5.9751 14.0015C5.9751 9.58263 9.55867 6.00146 13.9764 6.00146L15.9751 6.00146L15.9751 10.0015L13.9764 10.0015C11.7667 10.0015 9.9751 11.7929 9.9751 14.0015L9.9751 16.0015L5.9751 16.0015Z" fill="white"/>
<path fill-rule="evenodd" clip-rule="evenodd" d="M19.9751 6.00146L21.9751 6.00146C26.3939 6.00146 29.9751 9.58503 29.9751 14.0028L29.9751 16.0015L25.9751 16.0015L25.9751 14.0028C25.9751 11.7931 24.1837 10.0015 21.9751 10.0015L19.9751 10.0015L19.9751 6.00146Z" fill="white"/>
<path d="M44 13.0544H45.833V17.0714H47.6855L50.5715 13.0544H52.7165L49.3235 17.7734L53.1845 22.9994H50.903L47.666 18.5534H45.833V22.9994H44V13.0544ZM59.262 23.1554C58.508 23.1554 57.819 23.0319 57.195 22.7849C56.571 22.5379 56.0315 22.1869 55.5765 21.7319C55.1345 21.2769 54.79 20.7374 54.543 20.1134C54.296 19.4894 54.1725 18.7939 54.1725 18.0269C54.1725 17.2729 54.296 16.5839 54.543 15.9599C54.79 15.3229 55.1345 14.7769 55.5765 14.3219C56.0315 13.8669 56.571 13.5159 57.195 13.2689C57.819 13.0219 58.508 12.8984 59.262 12.8984C60.016 12.8984 60.705 13.0219 61.329 13.2689C61.953 13.5159 62.486 13.8669 62.928 14.3219C63.383 14.7769 63.734 15.3229 63.981 15.9599C64.228 16.5839 64.3515 17.2729 64.3515 18.0269C64.3515 18.7939 64.228 19.4894 63.981 20.1134C63.734 20.7374 63.383 21.2769 62.928 21.7319C62.486 22.1869 61.953 22.5379 61.329 22.7849C60.705 23.0319 60.016 23.1554 59.262 23.1554ZM59.262 21.6734C59.691 21.6734 60.094 21.5889 60.471 21.4199C60.861 21.2509 61.1925 21.0104 61.4655 20.6984C61.7515 20.3734 61.979 19.9899 62.148 19.5479C62.317 19.0929 62.4015 18.5859 62.4015 18.0269C62.4015 17.4679 62.317 16.9674 62.148 16.5254C61.979 16.0704 61.7515 15.6869 61.4655 15.3749C61.1795 15.0499 60.848 14.8029 60.471 14.6339C60.094 14.4649 59.691 14.3804 59.262 14.3804C58.833 14.3804 58.4235 14.4649 58.0335 14.6339C57.6565 14.8029 57.325 15.0499 57.039 15.3749C56.766 15.6869 56.545 16.0704 56.376 16.5254C56.207 16.9674 56.1225 17.4679 56.1225 18.0269C56.1225 18.5859 56.207 19.0929 56.376 19.5479C56.545 19.9899 56.766 20.3734 57.039 20.6984C57.325 21.0104 57.6565 21.2509 58.0335 21.4199C58.4235 21.5889 58.833 21.6734 59.262 21.6734ZM66.7155 21.5174C66.9495 21.1274 67.138 20.7244 67.281 20.3084C67.437 19.8794 67.5605 19.4049 67.6515 18.8849C67.7425 18.3649 67.801 17.7669 67.827 17.0909C67.866 16.4149 67.8985 15.6284 67.9245 14.7314L67.9635 13.0544H75.0225V21.5174H76.4655V25.8074H74.7105V22.9994H67.242V25.8074H65.487V21.5174H66.7155ZM69.543 15.3164C69.517 16.0314 69.4845 16.6814 69.4455 17.2664C69.4195 17.8514 69.3675 18.3909 69.2895 18.8849C69.2115 19.3789 69.0945 19.8404 68.9385 20.2694C68.7825 20.6984 68.581 21.1144 68.334 21.5174H73.1895V14.5364H69.5625L69.543 15.3164Z" fill="#232431"/>
</svg>
