<svg width="246" height="37" viewBox="0 0 246 37" fill="none" xmlns="http://www.w3.org/2000/svg">
<rect y="1" width="36" height="36" fill="#15CE96"/>
<path fill-rule="evenodd" clip-rule="evenodd" d="M26.0002 7H10.0002V11H6.00018V31H10.0002V11H26.0002V31H30.0002V11H26.0002V7ZM20.0002 21H24.0002V25H20.0002V21ZM18.0002 27H14.0002V31H18.0002V27ZM24.0002 27H20.0002V31H24.0002V27Z" fill="white"/>
<path d="M45.2285 13.6305C45.4625 13.2405 45.651 12.8375 45.794 12.4215C45.95 11.9925 46.0735 11.518 46.1645 10.998C46.2555 10.478 46.314 9.88 46.34 9.204C46.379 8.528 46.4115 7.7415 46.4375 6.8445L46.4765 5.1675H53.5355V13.6305H54.9785V17.9205H53.2235V15.1125H45.755V17.9205H44V13.6305H45.2285ZM48.056 7.4295C48.03 8.1445 47.9975 8.7945 47.9585 9.3795C47.9325 9.9645 47.8805 10.504 47.8025 10.998C47.7245 11.492 47.6075 11.9535 47.4515 12.3825C47.2955 12.8115 47.094 13.2275 46.847 13.6305H51.7025V6.6495H48.0755L48.056 7.4295Z" fill="#232431"/>
<path d="M56.9427 5.1675H58.7757V12.9675H58.8147L63.3777 5.1675H65.6982V15.1125H63.8652V7.3125H63.8262L59.2632 15.1125H56.9427V5.1675Z" fill="#232431"/>
<path d="M73.2492 15.2685C72.4822 15.2685 71.7867 15.145 71.1627 14.898C70.5517 14.651 70.0317 14.3065 69.6027 13.8645C69.1737 13.4095 68.8422 12.87 68.6082 12.246C68.3872 11.609 68.2767 10.907 68.2767 10.14C68.2767 9.373 68.3937 8.6775 68.6277 8.0535C68.8617 7.4165 69.1932 6.877 69.6222 6.435C70.0642 5.98 70.5907 5.629 71.2017 5.382C71.8127 5.135 72.5017 5.0115 73.2687 5.0115C73.6587 5.0115 74.0032 5.031 74.3022 5.07C74.6142 5.109 74.8807 5.1545 75.1017 5.2065C75.3487 5.2585 75.5632 5.3235 75.7452 5.4015V6.981C75.5502 6.89 75.3357 6.812 75.1017 6.747C74.8937 6.682 74.6532 6.6235 74.3802 6.5715C74.1072 6.5195 73.8017 6.4935 73.4637 6.4935C72.4237 6.4935 71.6242 6.812 71.0652 7.449C70.5062 8.073 70.2267 8.97 70.2267 10.14C70.2267 11.31 70.5062 12.2135 71.0652 12.8505C71.6242 13.4745 72.4172 13.7865 73.4442 13.7865C73.7822 13.7865 74.0877 13.7605 74.3607 13.7085C74.6467 13.6565 74.8937 13.598 75.1017 13.533C75.3357 13.468 75.5502 13.3835 75.7452 13.2795V14.8785C75.5502 14.9565 75.3292 15.0215 75.0822 15.0735C74.8612 15.1255 74.5947 15.171 74.2827 15.21C73.9707 15.249 73.6262 15.2685 73.2492 15.2685Z" fill="#232431"/>
<path d="M80.5491 6.6495H77.0781V5.1675H85.8531V6.6495H82.3821V15.1125H80.5491V6.6495Z" fill="#232431"/>
<path d="M89.6062 19.4805H87.7732V5.1675H89.5282V6.591H89.5672C89.8272 6.24 90.1067 5.9605 90.4057 5.7525C90.7177 5.5445 91.0232 5.3885 91.3222 5.2845C91.6212 5.1675 91.9072 5.096 92.1802 5.07C92.4532 5.031 92.6872 5.0115 92.8822 5.0115C93.6102 5.0115 94.2602 5.1415 94.8322 5.4015C95.4042 5.6485 95.8852 5.9995 96.2752 6.4545C96.6652 6.9095 96.9642 7.449 97.1722 8.073C97.3802 8.684 97.4842 9.347 97.4842 10.062C97.4842 10.764 97.3802 11.4335 97.1722 12.0705C96.9772 12.6945 96.6847 13.247 96.2947 13.728C95.9047 14.196 95.4302 14.573 94.8712 14.859C94.3122 15.132 93.6817 15.2685 92.9797 15.2685C92.1737 15.2685 91.4912 15.119 90.9322 14.82C90.3862 14.508 89.9702 14.17 89.6842 13.806H89.6062V19.4805ZM92.5507 13.7865C93.4607 13.7865 94.1822 13.4485 94.7152 12.7725C95.2612 12.0835 95.5342 11.1605 95.5342 10.0035C95.5342 8.9375 95.2677 8.086 94.7347 7.449C94.2147 6.812 93.5062 6.4935 92.6092 6.4935C91.6862 6.4935 90.9517 6.825 90.4057 7.488C89.8727 8.151 89.6062 9.0415 89.6062 10.1595C89.6062 11.2645 89.8727 12.1485 90.4057 12.8115C90.9387 13.4615 91.6537 13.7865 92.5507 13.7865Z" fill="#232431"/>
<path d="M100.056 5.1675H101.889V12.9675H101.928L106.491 5.1675H108.811V15.1125H106.978V7.3125H106.939L102.376 15.1125H100.056V5.1675Z" fill="#232431"/>
<path d="M116.577 15.2685C115.615 15.2685 114.803 15.093 114.14 14.742C113.49 14.378 112.957 13.871 112.541 13.221C112.138 12.558 111.845 11.765 111.663 10.842C111.481 9.919 111.39 8.892 111.39 7.761C111.39 6.864 111.468 6.032 111.624 5.265C111.78 4.485 112.034 3.783 112.385 3.159C112.749 2.535 113.217 2.0085 113.789 1.5795C114.374 1.1375 115.089 0.806 115.934 0.584999C116.402 0.468 116.824 0.3965 117.201 0.3705C117.578 0.3315 117.942 0.305499 118.293 0.2925C118.657 0.2795 119.028 0.26 119.405 0.234C119.795 0.195 120.224 0.117 120.692 0V1.6185C120.003 1.8005 119.34 1.8915 118.703 1.8915C118.066 1.8915 117.422 1.9435 116.772 2.0475C115.511 2.2685 114.595 2.7755 114.023 3.5685C113.464 4.3485 113.158 5.3495 113.106 6.5715L113.087 7.059H113.184C113.561 6.435 114.068 5.941 114.705 5.577C115.355 5.2 116.096 5.0115 116.928 5.0115C117.63 5.0115 118.267 5.1415 118.839 5.4015C119.411 5.6485 119.899 5.9995 120.302 6.4545C120.705 6.8965 121.017 7.436 121.238 8.073C121.459 8.697 121.569 9.386 121.569 10.14C121.569 10.881 121.446 11.57 121.199 12.207C120.965 12.831 120.627 13.3705 120.185 13.8255C119.743 14.2805 119.216 14.638 118.605 14.898C117.994 15.145 117.318 15.2685 116.577 15.2685ZM116.577 13.7865C117.045 13.7865 117.461 13.689 117.825 13.494C118.202 13.299 118.521 13.039 118.781 12.714C119.054 12.376 119.262 11.986 119.405 11.544C119.548 11.102 119.619 10.634 119.619 10.14C119.619 9.659 119.548 9.1975 119.405 8.7555C119.275 8.3135 119.08 7.9235 118.82 7.5855C118.56 7.2475 118.241 6.981 117.864 6.786C117.487 6.591 117.058 6.4935 116.577 6.4935C116.096 6.4935 115.667 6.591 115.29 6.786C114.913 6.981 114.588 7.2475 114.315 7.5855C114.055 7.9235 113.854 8.3135 113.711 8.7555C113.581 9.1975 113.516 9.659 113.516 10.14C113.516 10.647 113.587 11.128 113.73 11.583C113.886 12.025 114.094 12.4085 114.354 12.7335C114.627 13.0585 114.952 13.3185 115.329 13.5135C115.706 13.6955 116.122 13.7865 116.577 13.7865Z" fill="#232431"/>
<path d="M124.601 19.4805C124.471 19.4805 124.354 19.474 124.25 19.461C124.146 19.461 124.061 19.4545 123.996 19.4415C123.905 19.4285 123.827 19.409 123.762 19.383V17.8815C123.827 17.8945 123.899 17.9075 123.977 17.9205C124.042 17.9335 124.113 17.94 124.191 17.94C124.282 17.94 124.38 17.94 124.484 17.94C125.043 17.94 125.452 17.784 125.712 17.472C125.985 17.16 126.232 16.6985 126.453 16.0875L126.629 15.6L122.553 5.1675H124.562L127.584 13.3185H127.721L130.802 5.1675H132.654L128.52 15.5025C128.221 16.2305 127.948 16.848 127.701 17.355C127.467 17.862 127.207 18.2715 126.921 18.5835C126.635 18.8955 126.31 19.123 125.946 19.266C125.582 19.409 125.134 19.4805 124.601 19.4805Z" fill="#232431"/>
<path d="M136.726 6.6495H133.255V5.1675H142.03V6.6495H138.559V15.1125H136.726V6.6495Z" fill="#232431"/>
<path d="M143.95 5.1675H145.783V12.9675H145.822L150.385 5.1675H152.705V15.1125H150.872V7.3125H150.833L146.27 15.1125H143.95V5.1675Z" fill="#232431"/>
<path d="M163.864 7.7805C163.864 8.3005 163.734 8.7295 163.474 9.0675C163.227 9.3925 162.857 9.659 162.363 9.867V9.906C163.624 10.322 164.254 11.089 164.254 12.207C164.254 12.623 164.17 13.0065 164.001 13.3575C163.845 13.7085 163.604 14.014 163.279 14.274C162.967 14.534 162.564 14.742 162.07 14.898C161.589 15.041 161.017 15.1125 160.354 15.1125H155.947V5.1675H159.964C160.666 5.1675 161.264 5.239 161.758 5.382C162.252 5.512 162.655 5.694 162.967 5.928C163.279 6.162 163.507 6.4415 163.65 6.7665C163.793 7.0785 163.864 7.4165 163.864 7.7805ZM160.354 13.6305C161.017 13.6305 161.498 13.5005 161.797 13.2405C162.109 12.9805 162.265 12.623 162.265 12.168C162.265 11.713 162.109 11.3555 161.797 11.0955C161.498 10.8225 161.017 10.686 160.354 10.686H157.78V13.6305H160.354ZM159.964 9.204C160.627 9.204 161.108 9.0805 161.407 8.8335C161.719 8.5735 161.875 8.268 161.875 7.917C161.875 7.566 161.719 7.267 161.407 7.02C161.108 6.773 160.627 6.6495 159.964 6.6495H157.78V9.204H159.964Z" fill="#232431"/>
<path d="M166.611 5.1675H168.444V8.5995H170.453C171.87 8.5995 172.903 8.8985 173.553 9.4965C174.216 10.0815 174.548 10.8745 174.548 11.8755C174.548 12.8635 174.216 13.65 173.553 14.235C172.903 14.82 171.87 15.1125 170.453 15.1125H166.611V5.1675ZM170.453 13.6305C171.233 13.6305 171.798 13.4745 172.149 13.1625C172.5 12.8505 172.676 12.4215 172.676 11.8755C172.676 11.3295 172.5 10.894 172.149 10.569C171.798 10.244 171.233 10.0815 170.453 10.0815H168.444V13.6305H170.453ZM176.654 5.1675H178.487V15.1125H176.654V5.1675Z" fill="#232431"/>
<path d="M45.3455 23.1675H47.1785V30.9675H47.2175L51.7805 23.1675H54.101V33.1125H52.268V25.3125H52.229L47.666 33.1125H45.3455V23.1675Z" fill="#232431"/>
<path d="M61.4077 33.2685C61.1737 33.2685 60.9592 33.249 60.7642 33.21C60.5822 33.171 60.4912 33.145 60.4912 33.132V31.4745C60.5432 31.5005 60.6017 31.52 60.6667 31.533C60.7967 31.559 60.9267 31.572 61.0567 31.572C61.3817 31.572 61.6482 31.4355 61.8562 31.1625C62.0772 30.8895 62.2527 30.454 62.3827 29.856C62.5257 29.245 62.6232 28.4585 62.6752 27.4965C62.7402 26.5215 62.7727 25.3385 62.7727 23.9475V23.1675H70.1047V33.1125H68.2717V24.6495H64.4302V24.9225C64.4302 26.4305 64.3652 27.7175 64.2352 28.7835C64.1182 29.8365 63.9362 30.6945 63.6892 31.3575C63.4422 32.0205 63.1302 32.508 62.7532 32.82C62.3762 33.119 61.9277 33.2685 61.4077 33.2685Z" fill="#232431"/>
<path d="M73.3387 23.1675H75.1717V30.9675H75.2107L79.7737 23.1675H82.0942V33.1125H80.2612V25.3125H80.2222L75.6592 33.1125H73.3387V23.1675Z" fill="#232431"/>
<path d="M93.3112 33.1125H85.3357V23.1675H87.1687V31.6305H91.7902V23.1675H93.6232V31.6305H95.0662V35.9205H93.3112V33.1125Z" fill="#232431"/>
<path d="M98.0662 28.5495C98.1702 29.5765 98.5212 30.3695 99.1192 30.9285C99.7172 31.4745 100.523 31.7475 101.537 31.7475C102.135 31.7475 102.72 31.676 103.292 31.533C103.877 31.377 104.358 31.1885 104.735 30.9675V32.7615C104.423 32.8655 103.994 32.976 103.448 33.093C102.902 33.21 102.226 33.2685 101.42 33.2685C99.7302 33.2685 98.4302 32.8005 97.5202 31.8645C96.6232 30.9285 96.1747 29.6285 96.1747 27.9645C96.1747 27.2105 96.2917 26.528 96.5257 25.917C96.7727 25.306 97.1042 24.786 97.5202 24.357C97.9492 23.928 98.4497 23.5965 99.0217 23.3625C99.5937 23.1285 100.211 23.0115 100.874 23.0115C102.291 23.0115 103.403 23.4275 104.209 24.2595C105.015 25.0915 105.418 26.3525 105.418 28.0425V28.5495H98.0662ZM100.855 24.4935C100.088 24.4935 99.4572 24.7405 98.9632 25.2345C98.4822 25.7155 98.1832 26.3655 98.0662 27.1845H103.468C103.468 26.3265 103.221 25.6635 102.727 25.1955C102.233 24.7275 101.609 24.4935 100.855 24.4935Z" fill="#232431"/>
<path d="M108.054 23.1675H109.887V27.204H114.879V23.1675H116.712V33.1125H114.879V28.686H109.887V33.1125H108.054V23.1675Z" fill="#232431"/>
<path d="M122.393 33.2685C121.886 33.2685 121.431 33.2425 121.028 33.1905C120.638 33.1385 120.307 33.0865 120.034 33.0345C119.761 32.9695 119.553 32.911 119.41 32.859C119.267 32.807 119.195 32.781 119.195 32.781V31.2015C119.429 31.3185 119.702 31.416 120.014 31.494C120.274 31.572 120.586 31.6435 120.95 31.7085C121.327 31.7605 121.743 31.7865 122.198 31.7865C123.134 31.7865 123.836 31.6435 124.304 31.3575C124.772 31.0715 125.006 30.675 125.006 30.168C125.006 29.713 124.811 29.349 124.421 29.076C124.044 28.803 123.459 28.6665 122.666 28.6665H121.067V27.2235H122.374C123.167 27.2235 123.739 27.1 124.09 26.853C124.441 26.593 124.616 26.2615 124.616 25.8585C124.616 25.4425 124.428 25.111 124.051 24.864C123.687 24.617 123.121 24.4935 122.354 24.4935C121.977 24.4935 121.62 24.5195 121.282 24.5715C120.944 24.6235 120.645 24.682 120.385 24.747C120.086 24.825 119.813 24.9095 119.566 25.0005V23.4015C119.813 23.3235 120.086 23.2585 120.385 23.2065C120.645 23.1545 120.95 23.109 121.301 23.07C121.652 23.031 122.042 23.0115 122.471 23.0115C123.888 23.0115 124.922 23.2585 125.572 23.7525C126.235 24.2335 126.566 24.864 126.566 25.644C126.566 26.177 126.417 26.632 126.118 27.009C125.832 27.386 125.396 27.672 124.811 27.867V27.8865C125.513 28.0425 126.046 28.348 126.41 28.803C126.774 29.245 126.956 29.765 126.956 30.363C126.956 30.766 126.872 31.143 126.703 31.494C126.534 31.845 126.261 32.157 125.884 32.43C125.52 32.69 125.045 32.898 124.46 33.054C123.888 33.197 123.199 33.2685 122.393 33.2685Z" fill="#232431"/>
<path d="M129.325 23.1675H131.158V30.9675H131.197L135.76 23.1675H138.08V33.1125H136.247V25.3125H136.208L131.645 33.1125H129.325V23.1675Z" fill="#232431"/>
<path d="M141.322 23.1675H143.155V30.9675H143.194L147.757 23.1675H150.078V33.1125H148.245V25.3125H148.206L143.643 33.1125H141.322V23.1675Z" fill="#232431"/>
</svg>
