<svg width="246" height="36" viewBox="0 0 246 36" fill="none" xmlns="http://www.w3.org/2000/svg">
<rect width="36" height="36" fill="#9849FF"/>
<path d="M25.9998 8L25.9998 4L11.9998 4L11.9998 8L25.9998 8Z" fill="white"/>
<path d="M19.9999 12H15.9999L15.9999 24H19.9999L19.9999 12Z" fill="white"/>
<path d="M23.9999 32L23.9999 28L9.99988 28L9.99988 32L23.9999 32Z" fill="white"/>
<path d="M12 8H8L4 20H8L12 8Z" fill="white"/>
<path d="M31.9999 16H27.9999L23.9999 28H27.9999L31.9999 16Z" fill="white"/>
<path d="M47.159 12.6934V18.3679H45.326V4.05492H47.081V5.47843H47.12C48.173 4.07443 49.655 3.89893 50.435 3.89893C53.36 3.89893 55.037 6.06343 55.037 8.94943C55.037 11.7769 53.36 14.1559 50.5325 14.1559C48.9335 14.1559 47.8025 13.4149 47.237 12.6934H47.159ZM50.1035 12.6739C51.917 12.6739 53.087 11.1919 53.087 8.89092C53.087 6.76543 51.9365 5.38093 50.162 5.38093C48.329 5.38093 47.159 6.82392 47.159 9.04693C47.159 11.2504 48.3095 12.6739 50.1035 12.6739Z" fill="#232431"/>
<path d="M66.1887 9.43693H58.8372C59.0517 11.4844 60.2997 12.6349 62.3082 12.6349C63.4977 12.6349 64.7652 12.2839 65.5062 11.8549V13.6489C64.8822 13.8439 63.7902 14.1559 62.1912 14.1559C58.8372 14.1559 56.9457 12.1669 56.9457 8.85193C56.9457 5.80993 59.0127 3.89893 61.6452 3.89893C64.4727 3.89893 66.1887 5.55643 66.1887 8.92993V9.43693ZM61.6257 5.38093C60.1047 5.38093 59.0712 6.43393 58.8372 8.07193H64.2387C64.2387 6.35593 63.1272 5.38093 61.6257 5.38093Z" fill="#232431"/>
<path d="M77.405 9.43693H70.0535C70.268 11.4844 71.516 12.6349 73.5245 12.6349C74.714 12.6349 75.9815 12.2839 76.7225 11.8549V13.6489C76.0985 13.8439 75.0065 14.1559 73.4075 14.1559C70.0535 14.1559 68.162 12.1669 68.162 8.85193C68.162 5.80993 70.229 3.89893 72.8615 3.89893C75.689 3.89893 77.405 5.55643 77.405 8.92993V9.43693ZM72.842 5.38093C71.321 5.38093 70.2875 6.43393 70.0535 8.07193H75.455C75.455 6.35593 74.3435 5.38093 72.842 5.38093Z" fill="#232431"/>
<path d="M84.3508 14.1559C81.2698 14.1559 79.3783 12.0889 79.3783 9.02743C79.3783 5.96593 81.3283 3.89893 84.3703 3.89893C85.9498 3.89893 86.8468 4.28893 86.8468 4.28893V5.86843C86.8468 5.86843 85.9108 5.38093 84.5653 5.38093C82.4983 5.38093 81.3283 6.70693 81.3283 9.02743C81.3283 11.3479 82.4983 12.6739 84.5458 12.6739C85.9108 12.6739 86.8468 12.1669 86.8468 12.1669V13.7659C86.8468 13.7659 85.8913 14.1559 84.3508 14.1559Z" fill="#232431"/>
<path d="M91.6507 13.9999V5.53693H88.1797V4.05492H96.9547V5.53693H93.4837V13.9999H91.6507Z" fill="#232431"/>
<path d="M100.708 12.6934V18.3679H98.8748V4.05492H100.63V5.47843H100.669C101.722 4.07443 103.204 3.89893 103.984 3.89893C106.909 3.89893 108.586 6.06343 108.586 8.94943C108.586 11.7769 106.909 14.1559 104.081 14.1559C102.482 14.1559 101.351 13.4149 100.786 12.6934H100.708ZM103.652 12.6739C105.466 12.6739 106.636 11.1919 106.636 8.89092C106.636 6.76543 105.485 5.38093 103.711 5.38093C101.878 5.38093 100.708 6.82392 100.708 9.04693C100.708 11.2504 101.858 12.6739 103.652 12.6739Z" fill="#232431"/>
<path d="M44 31.9999L49.4015 18.3499H51.4685L56.87 31.9999H54.725L53.4185 28.4899H47.3735L46.067 31.9999H44ZM50.396 20.3974L47.9585 26.9299H52.853L50.435 20.3974H50.396Z" fill="#232431"/>
<path d="M58.9844 31.9999V18.3499H63.3524C66.7259 18.3499 68.3054 19.9099 68.3054 22.6594C68.3054 25.4089 66.7259 26.9689 63.3524 26.9689H60.8954V31.9999H58.9844ZM60.8954 25.2529H63.3524C65.3414 25.2529 66.2774 24.3754 66.2774 22.6594C66.2774 20.9434 65.3414 20.0659 63.3524 20.0659H60.8954V25.2529Z" fill="#232431"/>
<path d="M70.9303 31.9999V18.3499H72.8413V31.9999H70.9303Z" fill="#232431"/>
</svg>
