<svg width="260" height="36" viewBox="0 0 260 36" fill="none" xmlns="http://www.w3.org/2000/svg">
<rect width="36" height="36" fill="#31A7FD"/>
<path fill-rule="evenodd" clip-rule="evenodd" d="M29.9751 20.001V22.001C29.9751 26.4198 26.3915 30.001 21.9738 30.001H19.9751V26.001H21.9738C24.1835 26.001 25.9751 24.2096 25.9751 22.001V20.001H29.9751Z" fill="white"/>
<path fill-rule="evenodd" clip-rule="evenodd" d="M15.9751 30.001L13.9751 30.001C9.55626 30.001 5.9751 26.4174 5.9751 21.9997L5.9751 20.001L9.9751 20.001L9.9751 21.9997C9.9751 24.2094 11.7665 26.001 13.9751 26.001L15.9751 26.001L15.9751 30.001Z" fill="white"/>
<path fill-rule="evenodd" clip-rule="evenodd" d="M5.9751 15.9995L5.9751 13.9995C5.9751 9.58067 9.55867 5.99951 13.9764 5.99951L15.9751 5.99951L15.9751 9.99951L13.9764 9.99951C11.7667 9.99951 9.9751 11.7909 9.9751 13.9995L9.9751 15.9995L5.9751 15.9995Z" fill="white"/>
<path fill-rule="evenodd" clip-rule="evenodd" d="M19.9751 5.99951L21.9751 5.99951C26.3939 5.99951 29.9751 9.58308 29.9751 14.0008L29.9751 15.9995L25.9751 15.9995L25.9751 14.0008C25.9751 11.7911 24.1837 9.99951 21.9751 9.99951L19.9751 9.99951L19.9751 5.99951Z" fill="white"/>
<path d="M44.663 4.05492H50.981V5.53693H46.496V13.9999H44.663V4.05492Z" fill="#232431"/>
<path d="M54.08 9.43693C54.184 10.4639 54.535 11.2569 55.133 11.8159C55.731 12.3619 56.537 12.6349 57.551 12.6349C58.149 12.6349 58.734 12.5634 59.306 12.4204C59.891 12.2644 60.372 12.0759 60.749 11.8549V13.6489C60.437 13.7529 60.008 13.8634 59.462 13.9804C58.916 14.0974 58.24 14.1559 57.434 14.1559C55.744 14.1559 54.444 13.6879 53.534 12.7519C52.637 11.8159 52.1885 10.5159 52.1885 8.85193C52.1885 8.09793 52.3055 7.41543 52.5395 6.80443C52.7865 6.19343 53.118 5.67343 53.534 5.24443C53.963 4.81543 54.4635 4.48393 55.0355 4.24993C55.6075 4.01593 56.225 3.89893 56.888 3.89893C58.305 3.89893 59.4165 4.31493 60.2225 5.14693C61.0285 5.97893 61.4315 7.23993 61.4315 8.92993V9.43693H54.08ZM56.8685 5.38093C56.1015 5.38093 55.471 5.62793 54.977 6.12193C54.496 6.60293 54.197 7.25293 54.08 8.07193H59.4815C59.4815 7.21393 59.2345 6.55093 58.7405 6.08293C58.2465 5.61493 57.6225 5.38093 56.8685 5.38093Z" fill="#232431"/>
<path d="M64.0678 4.05492H65.9008V8.09143H70.8928V4.05492H72.7258V13.9999H70.8928V9.57343H65.9008V13.9999H64.0678V4.05492Z" fill="#232431"/>
<path d="M77.1981 9.43693C77.3021 10.4639 77.6531 11.2569 78.2511 11.8159C78.8491 12.3619 79.6551 12.6349 80.6691 12.6349C81.2671 12.6349 81.8521 12.5634 82.4241 12.4204C83.0091 12.2644 83.4901 12.0759 83.8671 11.8549V13.6489C83.5551 13.7529 83.1261 13.8634 82.5801 13.9804C82.0341 14.0974 81.3581 14.1559 80.5521 14.1559C78.8621 14.1559 77.5621 13.6879 76.6521 12.7519C75.7551 11.8159 75.3066 10.5159 75.3066 8.85193C75.3066 8.09793 75.4236 7.41543 75.6576 6.80443C75.9046 6.19343 76.2361 5.67343 76.6521 5.24443C77.0811 4.81543 77.5816 4.48393 78.1536 4.24993C78.7256 4.01593 79.3431 3.89893 80.0061 3.89893C81.4231 3.89893 82.5346 4.31493 83.3406 5.14693C84.1466 5.97893 84.5496 7.23993 84.5496 8.92993V9.43693H77.1981ZM79.9866 5.38093C79.2196 5.38093 78.5891 5.62793 78.0951 6.12193C77.6141 6.60293 77.3151 7.25293 77.1981 8.07193H82.5996C82.5996 7.21393 82.3526 6.55093 81.8586 6.08293C81.3646 5.61493 80.7406 5.38093 79.9866 5.38093Z" fill="#232431"/>
<path d="M89.019 18.3679H87.186V4.05492H88.941V5.47843H88.9799C89.24 5.12743 89.5195 4.84793 89.8185 4.63993C90.1305 4.43193 90.436 4.27593 90.735 4.17193C91.034 4.05493 91.32 3.98343 91.593 3.95743C91.866 3.91843 92.1 3.89893 92.295 3.89893C93.023 3.89893 93.673 4.02893 94.245 4.28893C94.817 4.53593 95.298 4.88693 95.688 5.34193C96.078 5.79693 96.377 6.33643 96.585 6.96043C96.793 7.57143 96.897 8.23443 96.897 8.94943C96.897 9.65143 96.793 10.3209 96.585 10.9579C96.39 11.5819 96.0975 12.1344 95.7075 12.6154C95.3175 13.0834 94.843 13.4604 94.284 13.7464C93.725 14.0194 93.0945 14.1559 92.3925 14.1559C91.5865 14.1559 90.904 14.0064 90.345 13.7074C89.799 13.3954 89.383 13.0574 89.097 12.6934H89.019V18.3679ZM91.9635 12.6739C92.8735 12.6739 93.595 12.3359 94.128 11.6599C94.674 10.9709 94.947 10.0479 94.947 8.89093C94.947 7.82493 94.6805 6.97343 94.1475 6.33643C93.6275 5.69943 92.919 5.38093 92.022 5.38093C91.099 5.38093 90.3645 5.71243 89.8185 6.37543C89.2855 7.03843 89.019 7.92893 89.019 9.04693C89.019 10.1519 89.2855 11.0359 89.8185 11.6989C90.3515 12.3489 91.0665 12.6739 91.9635 12.6739Z" fill="#232431"/>
<path d="M101.928 14.1559C100.888 14.1559 100.062 13.8959 99.4515 13.3759C98.8405 12.8429 98.535 12.1084 98.535 11.1724C98.535 10.0804 98.951 9.24843 99.783 8.67643C100.628 8.09143 101.921 7.79893 103.663 7.79893H105.496V7.46743C105.496 6.75243 105.249 6.23243 104.755 5.90743C104.261 5.58243 103.605 5.41993 102.786 5.41993C102.253 5.41993 101.713 5.48493 101.167 5.61493C100.621 5.73193 100.049 5.95293 99.4515 6.27793V4.56193C99.9455 4.34093 100.511 4.17843 101.148 4.07443C101.785 3.95743 102.409 3.89893 103.02 3.89893C104.385 3.89893 105.444 4.21093 106.198 4.83493C106.952 5.44593 107.329 6.44043 107.329 7.81843V13.9999H105.457V12.4789H105.418C105.002 13.0899 104.469 13.5254 103.819 13.7854C103.182 14.0324 102.552 14.1559 101.928 14.1559ZM102.376 12.5959C102.831 12.5959 103.247 12.5244 103.624 12.3814C104.014 12.2384 104.346 12.0434 104.619 11.7964C104.892 11.5364 105.106 11.2374 105.262 10.8994C105.418 10.5614 105.496 10.2039 105.496 9.82693V9.20293H103.741C103.13 9.20293 102.617 9.24843 102.201 9.33943C101.798 9.43043 101.466 9.56043 101.206 9.72943C100.946 9.89843 100.758 10.0934 100.641 10.3144C100.537 10.5354 100.485 10.7824 100.485 11.0554C100.485 11.5494 100.654 11.9329 100.992 12.2059C101.33 12.4659 101.791 12.5959 102.376 12.5959Z" fill="#232431"/>
<path d="M118.222 13.9999H110.247V4.05492H112.08V12.5179H116.701V4.05492H118.534V12.5179H119.977V16.8079H118.222V13.9999Z" fill="#232431"/>
<path d="M121.939 4.05492H123.772V11.8549H123.811L128.374 4.05492H130.695V13.9999H128.862V6.19993H128.823L124.26 13.9999H121.939V4.05492Z" fill="#232431"/>
<path d="M135.204 10.0999C134.697 9.86593 134.274 9.50843 133.936 9.02743C133.598 8.54643 133.429 7.95493 133.429 7.25293C133.429 6.27793 133.735 5.50443 134.346 4.93243C134.957 4.34743 135.899 4.05492 137.173 4.05492H141.619V13.9999H139.786V10.4509H137.017L135.067 13.9999H132.903L135.204 10.0999ZM139.786 8.96893V5.53693H137.173C136.536 5.53693 136.062 5.69293 135.75 6.00493C135.451 6.31693 135.301 6.73943 135.301 7.27243C135.301 7.79243 135.457 8.20843 135.769 8.52043C136.081 8.81943 136.549 8.96893 137.173 8.96893H139.786Z" fill="#232431"/>
<path d="M48.9725 32.1559C48.2055 32.1559 47.51 32.0324 46.886 31.7854C46.275 31.5384 45.755 31.1939 45.326 30.7519C44.897 30.2969 44.5655 29.7574 44.3315 29.1334C44.1105 28.4964 44 27.7944 44 27.0274C44 26.2604 44.117 25.5649 44.351 24.9409C44.585 24.3039 44.9165 23.7644 45.3455 23.3224C45.7875 22.8674 46.314 22.5164 46.925 22.2694C47.536 22.0224 48.225 21.8989 48.992 21.8989C49.382 21.8989 49.7265 21.9184 50.0255 21.9574C50.3375 21.9964 50.604 22.0419 50.825 22.0939C51.072 22.1459 51.2865 22.2109 51.4685 22.2889V23.8684C51.2735 23.7774 51.059 23.6994 50.825 23.6344C50.617 23.5694 50.3765 23.5109 50.1035 23.4589C49.8305 23.4069 49.525 23.3809 49.187 23.3809C48.147 23.3809 47.3475 23.6994 46.7885 24.3364C46.2295 24.9604 45.95 25.8574 45.95 27.0274C45.95 28.1974 46.2295 29.1009 46.7885 29.7379C47.3475 30.3619 48.1405 30.6739 49.1675 30.6739C49.5055 30.6739 49.811 30.6479 50.084 30.5959C50.37 30.5439 50.617 30.4854 50.825 30.4204C51.059 30.3554 51.2735 30.2709 51.4685 30.1669V31.7659C51.2735 31.8439 51.0525 31.9089 50.8055 31.9609C50.5845 32.0129 50.318 32.0584 50.006 32.0974C49.694 32.1364 49.3495 32.1559 48.9725 32.1559Z" fill="#232431"/>
<path d="M54.1274 22.0549H55.9604V29.8549H55.9994L60.5624 22.0549H62.8829V31.9999H61.0499V24.1999H61.0109L56.4479 31.9999H54.1274V22.0549Z" fill="#232431"/>
<path d="M66.1244 22.0549H67.9574V26.0914H72.9494V22.0549H74.7824V31.9999H72.9494V27.5734H67.9574V31.9999H66.1244V22.0549Z" fill="#232431"/>
<path d="M80.1713 23.5369H76.7003V22.0549H85.4753V23.5369H82.0043V31.9999H80.1713V23.5369Z" fill="#232431"/>
<path d="M88.3383 27.4369C88.4423 28.4639 88.7933 29.2569 89.3913 29.8159C89.9893 30.3619 90.7953 30.6349 91.8093 30.6349C92.4073 30.6349 92.9923 30.5634 93.5643 30.4204C94.1493 30.2644 94.6303 30.0759 95.0073 29.8549V31.6489C94.6953 31.7529 94.2663 31.8634 93.7203 31.9804C93.1743 32.0974 92.4983 32.1559 91.6923 32.1559C90.0023 32.1559 88.7023 31.6879 87.7923 30.7519C86.8953 29.8159 86.4468 28.5159 86.4468 26.8519C86.4468 26.0979 86.5638 25.4154 86.7978 24.8044C87.0448 24.1934 87.3763 23.6734 87.7923 23.2444C88.2213 22.8154 88.7218 22.4839 89.2938 22.2499C89.8658 22.0159 90.4833 21.8989 91.1463 21.8989C92.5633 21.8989 93.6748 22.3149 94.4808 23.1469C95.2868 23.9789 95.6898 25.2399 95.6898 26.9299V27.4369H88.3383ZM91.1268 23.3809C90.3598 23.3809 89.7293 23.6279 89.2353 24.1219C88.7543 24.6029 88.4553 25.2529 88.3383 26.0719H93.7398C93.7398 25.2139 93.4928 24.5509 92.9988 24.0829C92.5048 23.6149 91.8808 23.3809 91.1268 23.3809Z" fill="#232431"/>
<path d="M100.471 23.5369H97.0001V22.0549H105.775V23.5369H102.304V31.9999H100.471V23.5369Z" fill="#232431"/>
<path d="M107.695 22.0549H109.528V29.8549H109.567L114.13 22.0549H116.451V31.9999H114.618V24.1999H114.579L110.016 31.9999H107.695V22.0549Z" fill="#232431"/>
<path d="M125.64 28.1584C125.341 28.2234 124.951 28.2884 124.47 28.3534C123.989 28.4054 123.488 28.4314 122.968 28.4314C121.811 28.4314 120.888 28.1974 120.199 27.7294C119.523 27.2614 119.185 26.5269 119.185 25.5259V22.0549H121.018V24.9799C121.018 25.3569 121.051 25.6754 121.116 25.9354C121.194 26.1824 121.324 26.3839 121.506 26.5399C121.688 26.6829 121.928 26.7869 122.227 26.8519C122.539 26.9169 122.929 26.9494 123.397 26.9494C124.19 26.9494 124.938 26.8909 125.64 26.7739V22.0549H127.473V31.9999H125.64V28.1584Z" fill="#232431"/>
<path d="M131.947 27.4369C132.051 28.4639 132.402 29.2569 133 29.8159C133.598 30.3619 134.404 30.6349 135.418 30.6349C136.016 30.6349 136.601 30.5634 137.173 30.4204C137.758 30.2644 138.239 30.0759 138.616 29.8549V31.6489C138.304 31.7529 137.875 31.8634 137.329 31.9804C136.783 32.0974 136.107 32.1559 135.301 32.1559C133.611 32.1559 132.311 31.6879 131.401 30.7519C130.504 29.8159 130.055 28.5159 130.055 26.8519C130.055 26.0979 130.172 25.4154 130.406 24.8044C130.653 24.1934 130.985 23.6734 131.401 23.2444C131.83 22.8154 132.33 22.4839 132.902 22.2499C133.474 22.0159 134.092 21.8989 134.755 21.8989C136.172 21.8989 137.283 22.3149 138.089 23.1469C138.895 23.9789 139.298 25.2399 139.298 26.9299V27.4369H131.947ZM134.735 23.3809C133.968 23.3809 133.338 23.6279 132.844 24.1219C132.363 24.6029 132.064 25.2529 131.947 26.0719H137.348C137.348 25.2139 137.101 24.5509 136.607 24.0829C136.113 23.6149 135.489 23.3809 134.735 23.3809Z" fill="#232431"/>
<path d="M146.244 32.1559C145.477 32.1559 144.781 32.0324 144.158 31.7854C143.547 31.5384 143.026 31.1939 142.598 30.7519C142.169 30.2969 141.837 29.7574 141.603 29.1334C141.382 28.4964 141.271 27.7944 141.271 27.0274C141.271 26.2604 141.389 25.5649 141.623 24.9409C141.856 24.3039 142.188 23.7644 142.617 23.3224C143.059 22.8674 143.586 22.5164 144.197 22.2694C144.808 22.0224 145.496 21.8989 146.264 21.8989C146.654 21.8989 146.998 21.9184 147.297 21.9574C147.609 21.9964 147.876 22.0419 148.097 22.0939C148.343 22.1459 148.558 22.2109 148.74 22.2889V23.8684C148.545 23.7774 148.33 23.6994 148.097 23.6344C147.889 23.5694 147.648 23.5109 147.375 23.4589C147.102 23.4069 146.797 23.3809 146.459 23.3809C145.419 23.3809 144.619 23.6994 144.06 24.3364C143.501 24.9604 143.222 25.8574 143.222 27.0274C143.222 28.1974 143.501 29.1009 144.06 29.7379C144.619 30.3619 145.412 30.6739 146.439 30.6739C146.777 30.6739 147.082 30.6479 147.355 30.5959C147.641 30.5439 147.889 30.4854 148.097 30.4204C148.33 30.3554 148.545 30.2709 148.74 30.1669V31.7659C148.545 31.8439 148.324 31.9089 148.077 31.9609C147.856 32.0129 147.59 32.0584 147.278 32.0974C146.965 32.1364 146.621 32.1559 146.244 32.1559Z" fill="#232431"/>
<path d="M151.399 22.0549H153.232V26.0719H155.084L157.97 22.0549H160.115L156.722 26.7739L160.583 31.9999H158.302L155.065 27.5539H153.232V31.9999H151.399V22.0549Z" fill="#232431"/>
<path d="M162.425 22.0549H164.258V29.8549H164.297L168.86 22.0549H171.18V31.9999H169.347V24.1999H169.308L164.745 31.9999H162.425V22.0549Z" fill="#232431"/>
<path d="M176.957 26.7934L173.447 22.0549H175.728L178.185 25.7404L180.681 22.0549H182.729L179.258 26.7934L182.943 31.9999H180.681L178.029 28.0219L175.377 31.9999H173.193L176.957 26.7934Z" fill="#232431"/>
<path d="M189.33 30.5179C189.564 30.1279 189.752 29.7249 189.895 29.3089C190.051 28.8799 190.175 28.4054 190.266 27.8854C190.357 27.3654 190.415 26.7674 190.441 26.0914C190.48 25.4154 190.513 24.6289 190.539 23.7319L190.578 22.0549H197.637V30.5179H199.08V34.8079H197.325V31.9999H189.856V34.8079H188.101V30.5179H189.33ZM192.157 24.3169C192.131 25.0319 192.099 25.6819 192.06 26.2669C192.034 26.8519 191.982 27.3914 191.904 27.8854C191.826 28.3794 191.709 28.8409 191.553 29.2699C191.397 29.6989 191.195 30.1149 190.948 30.5179H195.804V23.5369H192.177L192.157 24.3169Z" fill="#232431"/>
<path d="M203.598 32.1559C202.558 32.1559 201.733 31.8959 201.122 31.3759C200.511 30.8429 200.205 30.1084 200.205 29.1724C200.205 28.0804 200.621 27.2484 201.453 26.6764C202.298 26.0914 203.592 25.7989 205.334 25.7989H207.167V25.4674C207.167 24.7524 206.92 24.2324 206.426 23.9074C205.932 23.5824 205.275 23.4199 204.456 23.4199C203.923 23.4199 203.384 23.4849 202.838 23.6149C202.292 23.7319 201.72 23.9529 201.122 24.2779V22.5619C201.616 22.3409 202.181 22.1784 202.818 22.0744C203.455 21.9574 204.079 21.8989 204.69 21.8989C206.055 21.8989 207.115 22.2109 207.869 22.8349C208.623 23.4459 209 24.4404 209 25.8184V31.9999H207.128V30.4789H207.089C206.673 31.0899 206.14 31.5254 205.49 31.7854C204.853 32.0324 204.222 32.1559 203.598 32.1559ZM204.047 30.5959C204.502 30.5959 204.918 30.5244 205.295 30.3814C205.685 30.2384 206.016 30.0434 206.289 29.7964C206.562 29.5364 206.777 29.2374 206.933 28.8994C207.089 28.5614 207.167 28.2039 207.167 27.8269V27.2029H205.412C204.801 27.2029 204.287 27.2484 203.871 27.3394C203.468 27.4304 203.137 27.5604 202.877 27.7294C202.617 27.8984 202.428 28.0934 202.311 28.3144C202.207 28.5354 202.155 28.7824 202.155 29.0554C202.155 29.5494 202.324 29.9329 202.662 30.2059C203 30.4659 203.462 30.5959 204.047 30.5959Z" fill="#232431"/>
<path d="M211.917 22.0549H213.75V26.0914H218.742V22.0549H220.575V31.9999H218.742V27.5734H213.75V31.9999H211.917V22.0549Z" fill="#232431"/>
<path d="M223.819 22.0549H225.652V26.0914H230.644V22.0549H232.477V31.9999H230.644V27.5734H225.652V31.9999H223.819V22.0549Z" fill="#232431"/>
<path d="M235.721 22.0549H237.554V25.4869H239.563C240.98 25.4869 242.013 25.7859 242.663 26.3839C243.326 26.9689 243.658 27.7619 243.658 28.7629C243.658 29.7509 243.326 30.5374 242.663 31.1224C242.013 31.7074 240.98 31.9999 239.563 31.9999H235.721V22.0549ZM239.563 30.5179C240.343 30.5179 240.908 30.3619 241.259 30.0499C241.61 29.7379 241.786 29.3089 241.786 28.7629C241.786 28.2169 241.61 27.7814 241.259 27.4564C240.908 27.1314 240.343 26.9689 239.563 26.9689H237.554V30.5179H239.563ZM245.764 22.0549H247.597V31.9999H245.764V22.0549Z" fill="#232431"/>
<path d="M253.376 26.7934L249.866 22.0549H252.148L254.605 25.7404L257.101 22.0549H259.148L255.677 26.7934L259.363 31.9999H257.101L254.449 28.0219L251.797 31.9999H249.613L253.376 26.7934Z" fill="#232431"/>
</svg>
