<svg width="246" height="36" viewBox="0 0 246 36" fill="none" xmlns="http://www.w3.org/2000/svg">
<rect width="36" height="36" fill="#DA321B"/>
<path d="M11.9751 9.99951H7.9751V25.9995H11.9751V9.99951Z" fill="white"/>
<path d="M27.9751 9.99951H23.9751V25.9995H27.9751V9.99951Z" fill="white"/>
<path d="M23.9751 6H7.9751V10H23.9751V6Z" fill="white"/>
<path d="M27.9751 26.0005H7.9751V30.0005H27.9751V26.0005Z" fill="white"/>
<path d="M44 20.5194V24.8094H45.755V22.0014H53.2235V24.8094H54.9785V20.5194H53.5355V12.0564H46.4765L46.4375 13.7334C46.3595 17.3409 46.184 18.9399 45.2285 20.5194H44ZM48.056 14.3184L48.0755 13.5384H51.7025V20.5194H46.847C47.861 18.9204 47.978 17.1654 48.056 14.3184Z" fill="#232431"/>
<path d="M61.1787 22.1574C64.1817 22.1574 66.2682 20.0709 66.2682 17.0289C66.2682 13.9869 64.1817 11.9004 61.1787 11.9004C58.1757 11.9004 56.0892 13.9869 56.0892 17.0289C56.0892 20.0709 58.1757 22.1574 61.1787 22.1574ZM61.1787 20.6754C59.4627 20.6754 58.0392 19.2519 58.0392 17.0289C58.0392 14.8059 59.4627 13.3824 61.1787 13.3824C62.8752 13.3824 64.3182 14.8059 64.3182 17.0289C64.3182 19.2519 62.8947 20.6754 61.1787 20.6754Z" fill="#232431"/>
<path d="M68.8445 22.0014H70.6775V17.5554H72.5105L75.7475 22.0014H78.029L74.168 16.7754L77.561 12.0564H75.416L72.53 16.0734H70.6775V12.0564H68.8445V22.0014Z" fill="#232431"/>
<path d="M80.7066 26.3694C82.8516 26.3694 83.4561 25.2969 84.6261 22.3914L88.7601 12.0564H86.9076L83.8266 20.2074H83.6901L80.6676 12.0564H78.6591L82.7346 22.4889L82.5591 22.9764C82.1106 24.1854 81.7206 24.8289 80.5896 24.8289C80.2191 24.8289 79.8681 24.7704 79.8681 24.7704V26.2719C79.8681 26.2719 80.1996 26.3694 80.7066 26.3694Z" fill="#232431"/>
<path d="M90.6868 22.0014H92.5198V13.8114H92.5588L95.2693 19.4664H97.1023L99.8128 13.8114H99.8518V22.0014H101.685V12.0564H98.9353L96.2248 17.7309L93.5143 12.0564H90.6868V22.0014Z" fill="#232431"/>
<path d="M113.511 17.4384V16.9314C113.511 13.5579 111.795 11.9004 108.967 11.9004C106.335 11.9004 104.268 13.8114 104.268 16.8534C104.268 20.1684 106.159 22.1574 109.513 22.1574C111.112 22.1574 112.204 21.8454 112.828 21.6504V19.8564C112.087 20.2854 110.82 20.6364 109.63 20.6364C107.622 20.6364 106.374 19.4859 106.159 17.4384H113.511ZM108.948 13.3824C110.449 13.3824 111.561 14.3574 111.561 16.0734H106.159C106.393 14.4354 107.427 13.3824 108.948 13.3824Z" fill="#232431"/>
<path d="M116.147 22.0014H117.98V17.5749H122.972V22.0014H124.805V12.0564H122.972V16.0929H117.98V12.0564H116.147V22.0014Z" fill="#232431"/>
<path d="M130.194 22.0014H132.027V13.5384H135.498V12.0564H126.723V13.5384H130.194V22.0014Z" fill="#232431"/>
<path d="M137.418 22.0014H141.26C144.087 22.0014 145.355 20.7339 145.355 18.7644C145.355 16.7754 144.087 15.4884 141.26 15.4884H139.251V12.0564H137.418V22.0014ZM139.251 20.5194V16.9704H141.26C142.8 16.9704 143.483 17.6724 143.483 18.7644C143.483 19.8369 142.8 20.5194 141.26 20.5194H139.251ZM147.461 22.0014H149.294V12.0564H147.461V22.0014Z" fill="#232431"/>
</svg>
