<svg width="246" height="36" viewBox="0 0 246 36" fill="none" xmlns="http://www.w3.org/2000/svg">
<rect width="36" height="36" fill="#2AB7C1"/>
<path d="M12 25.9995L12 29.9995L26 29.9995L26 25.9995L12 25.9995Z" fill="white"/>
<path d="M30 9.99902L26 9.99902L26 25.999L30 25.999L30 9.99902Z" fill="white"/>
<path d="M12 5.99902L12 9.99902L26 9.99902L26 5.99902L12 5.99902Z" fill="white"/>
<path d="M6 16.0005L6 20.0005L24 20.0005L24 16.0005L6 16.0005Z" fill="white"/>
<path d="M44 12.5184V16.8084H45.755V14.0004H53.2235V16.8084H54.9785V12.5184H53.5355V4.05541H46.4765L46.4375 5.73241C46.3595 9.33991 46.184 10.9389 45.2285 12.5184H44ZM48.056 6.31741L48.0755 5.53741H51.7025V12.5184H46.847C47.861 10.9194 47.978 9.16441 48.056 6.31741Z" fill="#232431"/>
<path d="M61.1787 14.1564C64.1817 14.1564 66.2682 12.0699 66.2682 9.02791C66.2682 5.98591 64.1817 3.89941 61.1787 3.89941C58.1757 3.89941 56.0892 5.98591 56.0892 9.02791C56.0892 12.0699 58.1757 14.1564 61.1787 14.1564ZM61.1787 12.6744C59.4627 12.6744 58.0392 11.2509 58.0392 9.02791C58.0392 6.80491 59.4627 5.38141 61.1787 5.38141C62.8752 5.38141 64.3182 6.80491 64.3182 9.02791C64.3182 11.2509 62.8947 12.6744 61.1787 12.6744Z" fill="#232431"/>
<path d="M73.154 14.1564C74.6945 14.1564 75.65 13.7664 75.65 13.7664V12.1674C75.65 12.1674 74.714 12.6744 73.349 12.6744C71.3015 12.6744 70.1315 11.3484 70.1315 9.02791C70.1315 6.70741 71.3015 5.38141 73.3685 5.38141C74.714 5.38141 75.65 5.86891 75.65 5.86891V4.28941C75.65 4.28941 74.753 3.89941 73.1735 3.89941C70.1315 3.89941 68.1815 5.96641 68.1815 9.02791C68.1815 12.0894 70.073 14.1564 73.154 14.1564Z" fill="#232431"/>
<path d="M80.4539 14.0004H82.2869V5.53741H85.7579V4.05541H76.9829V5.53741H80.4539V14.0004Z" fill="#232431"/>
<path d="M88.6095 18.3684C90.7545 18.3684 91.3589 17.2959 92.5289 14.3904L96.663 4.05541H94.8105L91.7295 12.2064H91.5929L88.5704 4.05541H86.562L90.6375 14.4879L90.462 14.9754C90.0135 16.1844 89.6235 16.8279 88.4925 16.8279C88.122 16.8279 87.771 16.7694 87.771 16.7694V18.2709C87.771 18.2709 88.1025 18.3684 88.6095 18.3684Z" fill="#232431"/>
<path d="M98.5896 14.0004H100.423V5.53741H105.22V14.0004H107.053V4.05541H98.5896V14.0004Z" fill="#232431"/>
<path d="M110.282 14.0004H114.124C116.951 14.0004 118.219 12.7329 118.219 10.7634C118.219 8.77441 116.951 7.48741 114.124 7.48741H112.115V4.05541H110.282V14.0004ZM112.115 12.5184V8.96941H114.124C115.664 8.96941 116.347 9.67141 116.347 10.7634C116.347 11.8359 115.664 12.5184 114.124 12.5184H112.115ZM120.325 14.0004H122.158V4.05541H120.325V14.0004Z" fill="#232431"/>
<path d="M45.3455 32.0004H47.666L52.229 24.2004H52.268V32.0004H54.101V22.0554H51.7805L47.2175 29.8554H47.1785V22.0554H45.3455V32.0004Z" fill="#232431"/>
<path d="M64.2742 32.1564C67.5112 32.1564 68.8372 30.8499 68.8372 29.2509C68.8372 28.0614 68.0962 27.0864 66.6922 26.7744V26.7549C67.8622 26.3649 68.4472 25.5849 68.4472 24.5319C68.4472 22.9914 67.1797 21.8994 64.3522 21.8994C62.6557 21.8994 61.4467 22.2894 61.4467 22.2894V23.8884C61.4467 23.8884 62.7142 23.3814 64.2352 23.3814C65.7562 23.3814 66.4972 23.9079 66.4972 24.7464C66.4972 25.5459 65.8342 26.1114 64.2547 26.1114H62.9482V27.5544H64.5472C66.1267 27.5544 66.8872 28.1394 66.8872 29.0559C66.8872 30.0699 65.9512 30.6744 64.0792 30.6744C62.2462 30.6744 61.0762 30.0894 61.0762 30.0894V31.6689C61.0762 31.6884 62.2267 32.1564 64.2742 32.1564Z" fill="#232431"/>
<path d="M73.7604 32.1564C75.0084 32.1564 76.4124 31.7079 77.2509 30.4794H77.2899V32.0004H79.1619V25.8189C79.1619 23.0694 77.5629 21.8994 74.8524 21.8994C73.6434 21.8994 72.2784 22.1334 71.2839 22.5624V24.2784C72.4734 23.6349 73.5654 23.4204 74.6184 23.4204C76.2564 23.4204 77.3289 24.0444 77.3289 25.4679V25.7994H75.4959C72.0249 25.7994 70.3674 27.0084 70.3674 29.1729C70.3674 31.0254 71.6934 32.1564 73.7604 32.1564ZM74.2089 30.5964C73.0389 30.5964 72.3174 30.0504 72.3174 29.0559C72.3174 27.9834 73.1559 27.2034 75.5739 27.2034H77.3289V27.8274C77.3289 29.3484 76.0224 30.5964 74.2089 30.5964Z" fill="#232431"/>
<path d="M81.0459 32.0004H83.2104L85.1604 28.4514H87.9294V32.0004H89.7624V22.0554H85.3164C82.7814 22.0554 81.5724 23.3229 81.5724 25.2534C81.5724 26.6574 82.3329 27.6324 83.3469 28.1004L81.0459 32.0004ZM85.3164 26.9694C84.0684 26.9694 83.4444 26.3064 83.4444 25.2729C83.4444 24.2199 84.0489 23.5374 85.3164 23.5374H87.9294V26.9694H85.3164Z" fill="#232431"/>
<path d="M100.908 24.6684C100.908 23.1864 99.8355 22.0554 97.008 22.0554H92.991V32.0004H97.398C100.031 32.0004 101.298 30.7329 101.298 29.0949C101.298 27.9444 100.655 27.2034 99.4065 26.7939V26.7549C100.401 26.3454 100.908 25.7019 100.908 24.6684ZM94.824 30.5184V27.5739H97.398C98.724 27.5739 99.309 28.1589 99.309 29.0559C99.309 29.9529 98.724 30.5184 97.398 30.5184H94.824ZM94.824 26.0919V23.5374H97.008C98.334 23.5374 98.919 24.1029 98.919 24.8049C98.919 25.5069 98.334 26.0919 97.008 26.0919H94.824Z" fill="#232431"/>
<path d="M103.655 32.0004H105.488V27.5544H107.321L110.558 32.0004H112.84L108.979 26.7744L112.372 22.0554H110.227L107.341 26.0724H105.488V22.0554H103.655V32.0004Z" fill="#232431"/>
<path d="M114.681 32.0004H117.001L121.564 24.2004H121.603V32.0004H123.436V22.0554H121.116L116.553 29.8554H116.514V22.0554H114.681V32.0004Z" fill="#232431"/>
</svg>
