<svg width="246" height="36" viewBox="0 0 246 36" fill="none" xmlns="http://www.w3.org/2000/svg">
<rect width="36" height="36" fill="#2AB7C1"/>
<path d="M26 7.99854V3.99854L10 3.99854V7.99854L26 7.99854Z" fill="white"/>
<path d="M10 8H6V22H10V8Z" fill="white"/>
<path d="M30 8H26V22H30V8Z" fill="white"/>
<path d="M26 28.0005H10V32.0005H26V28.0005Z" fill="white"/>
<path d="M26 21.9985H10V25.9985H26V21.9985Z" fill="white"/>
<path d="M130.298 12.0552H132.131V15.4872H134.14C135.557 15.4872 136.59 15.7862 137.24 16.3842C137.903 16.9692 138.235 17.7622 138.235 18.7632C138.235 19.7512 137.903 20.5377 137.24 21.1227C136.59 21.7077 135.557 22.0002 134.14 22.0002H130.298V12.0552ZM134.14 20.5182C134.92 20.5182 135.485 20.3622 135.836 20.0502C136.187 19.7382 136.363 19.3092 136.363 18.7632C136.363 18.2172 136.187 17.7817 135.836 17.4567C135.485 17.1317 134.92 16.9692 134.14 16.9692H132.131V20.5182H134.14ZM140.341 12.0552H142.174V22.0002H140.341V12.0552Z" fill="#232431"/>
<path d="M127.551 14.6682C127.551 15.1882 127.421 15.6172 127.161 15.9552C126.914 16.2802 126.544 16.5467 126.05 16.7547V16.7937C127.311 17.2097 127.941 17.9767 127.941 19.0947C127.941 19.5107 127.857 19.8942 127.688 20.2452C127.532 20.5962 127.291 20.9017 126.966 21.1617C126.654 21.4217 126.251 21.6297 125.757 21.7857C125.276 21.9287 124.704 22.0002 124.041 22.0002H119.634V12.0552H123.651C124.353 12.0552 124.951 12.1267 125.445 12.2697C125.939 12.3997 126.342 12.5817 126.654 12.8157C126.966 13.0497 127.194 13.3292 127.337 13.6542C127.48 13.9662 127.551 14.3042 127.551 14.6682ZM124.041 20.5182C124.704 20.5182 125.185 20.3882 125.484 20.1282C125.796 19.8682 125.952 19.5107 125.952 19.0557C125.952 18.6007 125.796 18.2432 125.484 17.9832C125.185 17.7102 124.704 17.5737 124.041 17.5737H121.467V20.5182H124.041ZM123.651 16.0917C124.314 16.0917 124.795 15.9682 125.094 15.7212C125.406 15.4612 125.562 15.1557 125.562 14.8047C125.562 14.4537 125.406 14.1547 125.094 13.9077C124.795 13.6607 124.314 13.5372 123.651 13.5372H121.467V16.0917H123.651Z" fill="#232431"/>
<path d="M107.637 12.0552H109.47V19.8552H109.509L114.072 12.0552H116.393V22.0002H114.56V14.2002H114.521L109.958 22.0002H107.637V12.0552Z" fill="#232431"/>
<path d="M100.413 13.5372H96.9419V12.0552H105.717V13.5372H102.246V22.0002H100.413V13.5372Z" fill="#232431"/>
<path d="M87.2419 12.0552H89.0749V16.0722H90.9274L93.8134 12.0552H95.9584L92.5654 16.7742L96.4264 22.0002H94.1449L90.9079 17.5542H89.0749V22.0002H87.2419V12.0552Z" fill="#232431"/>
<path d="M78.9229 22.1564C77.8829 22.1564 77.0574 21.8964 76.4464 21.3764C75.8354 20.8434 75.5299 20.1089 75.5299 19.1729C75.5299 18.0809 75.9459 17.2489 76.7779 16.6769C77.6229 16.0919 78.9164 15.7994 80.6584 15.7994H82.4914V15.4679C82.4914 14.7529 82.2444 14.2329 81.7504 13.9079C81.2564 13.5829 80.5999 13.4204 79.7809 13.4204C79.2479 13.4204 78.7084 13.4854 78.1624 13.6154C77.6164 13.7324 77.0444 13.9534 76.4464 14.2784V12.5624C76.9404 12.3414 77.5059 12.1789 78.1429 12.0749C78.7799 11.9579 79.4039 11.8994 80.0149 11.8994C81.3799 11.8994 82.4394 12.2114 83.1934 12.8354C83.9474 13.4464 84.3244 14.4409 84.3244 15.8189V22.0004H82.4524V20.4794H82.4134C81.9974 21.0904 81.4644 21.5259 80.8144 21.7859C80.1774 22.0329 79.5469 22.1564 78.9229 22.1564ZM79.3714 20.5964C79.8264 20.5964 80.2424 20.5249 80.6194 20.3819C81.0094 20.2389 81.3409 20.0439 81.6139 19.7969C81.8869 19.5369 82.1014 19.2379 82.2574 18.8999C82.4134 18.5619 82.4914 18.2044 82.4914 17.8274V17.2034H80.7364C80.1254 17.2034 79.6119 17.2489 79.1959 17.3399C78.7929 17.4309 78.4614 17.5609 78.2014 17.7299C77.9414 17.8989 77.7529 18.0939 77.6359 18.3149C77.5319 18.5359 77.4799 18.7829 77.4799 19.0559C77.4799 19.5499 77.6489 19.9334 77.9869 20.2064C78.3249 20.4664 78.7864 20.5964 79.3714 20.5964Z" fill="#232431"/>
<path d="M68.0149 15.292H73.6699V17.008H68.0149V15.292Z" fill="#232431"/>
<path d="M61.1255 10.0661H56.9525V8.3501H67.2095V10.0661H63.0365V22.0001H61.1255V10.0661Z" fill="#232431"/>
<path d="M44 8.3501H45.911V18.3146L45.872 19.4846H45.911L46.652 18.2171L52.385 8.3501H54.803V22.0001H52.892V12.1916L52.931 10.8266H52.892L52.229 11.9771L46.418 22.0001H44V8.3501Z" fill="#232431"/>
</svg>
