<svg width="246" height="36" viewBox="0 0 246 36" fill="none" xmlns="http://www.w3.org/2000/svg">
<rect width="36" height="36" fill="#31A7FD"/>
<path fill-rule="evenodd" clip-rule="evenodd" d="M4 20.0005L4 16.0005C4 11.5818 7.58307 8.00049 12.0009 8.00049L16 8.00049L16 12.0005L12.0009 12.0005C9.79139 12.0005 8 13.7918 8 16.0005L8 20.0005L4 20.0005Z" fill="white"/>
<path fill-rule="evenodd" clip-rule="evenodd" d="M32 15.999L32 19.999C32 24.4177 28.4169 27.999 23.9991 27.999L20 27.999L20 23.999L23.9991 23.999C26.2086 23.999 28 22.2078 28 19.999L28 15.999L32 15.999Z" fill="white"/>
<path fill-rule="evenodd" clip-rule="evenodd" d="M14 27.999L12 27.999C7.58131 27.999 4 24.4159 4 19.9981L4 15.999L8 15.999L8 19.9981C8 22.2076 9.79127 23.999 12 23.999L14 23.999L14 27.999Z" fill="white"/>
<path fill-rule="evenodd" clip-rule="evenodd" d="M22 8.00049L24 8.00049C28.4187 8.00049 32 11.5836 32 16.0014L32 20.0005L28 20.0005L28 16.0014C28 13.7919 26.2087 12.0005 24 12.0005L22 12.0005L22 8.00049Z" fill="white"/>
<path d="M21.9751 12H17.9751L13.9751 24H17.9751L21.9751 12Z" fill="white"/>
<path d="M49.0895 22.1557C48.3355 22.1557 47.6465 22.0322 47.0225 21.7852C46.3985 21.5382 45.859 21.1872 45.404 20.7322C44.962 20.2772 44.6175 19.7377 44.3705 19.1137C44.1235 18.4897 44 17.7942 44 17.0272C44 16.2732 44.1235 15.5842 44.3705 14.9602C44.6175 14.3232 44.962 13.7772 45.404 13.3222C45.859 12.8672 46.3985 12.5162 47.0225 12.2692C47.6465 12.0222 48.3355 11.8987 49.0895 11.8987C49.8435 11.8987 50.5325 12.0222 51.1565 12.2692C51.7805 12.5162 52.3135 12.8672 52.7555 13.3222C53.2105 13.7772 53.5615 14.3232 53.8085 14.9602C54.0555 15.5842 54.179 16.2732 54.179 17.0272C54.179 17.7942 54.0555 18.4897 53.8085 19.1137C53.5615 19.7377 53.2105 20.2772 52.7555 20.7322C52.3135 21.1872 51.7805 21.5382 51.1565 21.7852C50.5325 22.0322 49.8435 22.1557 49.0895 22.1557ZM49.0895 20.6737C49.5185 20.6737 49.9215 20.5892 50.2985 20.4202C50.6885 20.2512 51.02 20.0107 51.293 19.6987C51.579 19.3737 51.8065 18.9902 51.9755 18.5482C52.1445 18.0932 52.229 17.5862 52.229 17.0272C52.229 16.4682 52.1445 15.9677 51.9755 15.5257C51.8065 15.0707 51.579 14.6872 51.293 14.3752C51.007 14.0502 50.6755 13.8032 50.2985 13.6342C49.9215 13.4652 49.5185 13.3807 49.0895 13.3807C48.6605 13.3807 48.251 13.4652 47.861 13.6342C47.484 13.8032 47.1525 14.0502 46.8665 14.3752C46.5935 14.6872 46.3725 15.0707 46.2035 15.5257C46.0345 15.9677 45.95 16.4682 45.95 17.0272C45.95 17.5862 46.0345 18.0932 46.2035 18.5482C46.3725 18.9902 46.5935 19.3737 46.8665 19.6987C47.1525 20.0107 47.484 20.2512 47.861 20.4202C48.251 20.5892 48.6605 20.6737 49.0895 20.6737Z" fill="#232431"/>
<path d="M61.2793 22.1557C60.3173 22.1557 59.5048 21.9802 58.8418 21.6292C58.1918 21.2652 57.6588 20.7582 57.2428 20.1082C56.8398 19.4452 56.5473 18.6522 56.3653 17.7292C56.1833 16.8062 56.0923 15.7792 56.0923 14.6482C56.0923 13.7512 56.1703 12.9192 56.3263 12.1522C56.4823 11.3722 56.7358 10.6702 57.0868 10.0462C57.4508 9.42221 57.9188 8.89571 58.4908 8.46671C59.0758 8.02471 59.7908 7.69321 60.6358 7.47221C61.1038 7.35521 61.5263 7.28371 61.9033 7.25771C62.2803 7.21871 62.6443 7.19271 62.9953 7.17971C63.3593 7.16671 63.7298 7.14721 64.1068 7.12121C64.4968 7.08221 64.9258 7.00421 65.3938 6.88721V8.50571C64.7048 8.68771 64.0418 8.77871 63.4048 8.77871C62.7678 8.77871 62.1243 8.83071 61.4743 8.93471C60.2133 9.15571 59.2968 9.66271 58.7248 10.4557C58.1658 11.2357 57.8603 12.2367 57.8083 13.4587L57.7888 13.9462H57.8863C58.2633 13.3222 58.7703 12.8282 59.4073 12.4642C60.0573 12.0872 60.7983 11.8987 61.6303 11.8987C62.3323 11.8987 62.9693 12.0287 63.5413 12.2887C64.1133 12.5357 64.6008 12.8867 65.0038 13.3417C65.4068 13.7837 65.7188 14.3232 65.9398 14.9602C66.1608 15.5842 66.2713 16.2732 66.2713 17.0272C66.2713 17.7682 66.1478 18.4572 65.9008 19.0942C65.6668 19.7182 65.3288 20.2577 64.8868 20.7127C64.4448 21.1677 63.9183 21.5252 63.3073 21.7852C62.6963 22.0322 62.0203 22.1557 61.2793 22.1557ZM61.2793 20.6737C61.7473 20.6737 62.1633 20.5762 62.5273 20.3812C62.9043 20.1862 63.2228 19.9262 63.4828 19.6012C63.7558 19.2632 63.9638 18.8732 64.1068 18.4312C64.2498 17.9892 64.3213 17.5212 64.3213 17.0272C64.3213 16.5462 64.2498 16.0847 64.1068 15.6427C63.9768 15.2007 63.7818 14.8107 63.5218 14.4727C63.2618 14.1347 62.9433 13.8682 62.5663 13.6732C62.1893 13.4782 61.7603 13.3807 61.2793 13.3807C60.7983 13.3807 60.3693 13.4782 59.9923 13.6732C59.6153 13.8682 59.2903 14.1347 59.0173 14.4727C58.7573 14.8107 58.5558 15.2007 58.4128 15.6427C58.2828 16.0847 58.2178 16.5462 58.2178 17.0272C58.2178 17.5342 58.2893 18.0152 58.4323 18.4702C58.5883 18.9122 58.7963 19.2957 59.0563 19.6207C59.3293 19.9457 59.6543 20.2057 60.0313 20.4007C60.4083 20.5827 60.8243 20.6737 61.2793 20.6737Z" fill="#232431"/>
<path d="M70.0761 17.4367C70.1801 18.4637 70.5311 19.2567 71.1291 19.8157C71.7271 20.3617 72.5331 20.6347 73.5471 20.6347C74.1451 20.6347 74.7301 20.5632 75.3021 20.4202C75.8871 20.2642 76.3681 20.0757 76.7451 19.8547V21.6487C76.4331 21.7527 76.0041 21.8632 75.4581 21.9802C74.9121 22.0972 74.2361 22.1557 73.4301 22.1557C71.7401 22.1557 70.4401 21.6877 69.5301 20.7517C68.6331 19.8157 68.1846 18.5157 68.1846 16.8517C68.1846 16.0977 68.3016 15.4152 68.5356 14.8042C68.7826 14.1932 69.1141 13.6732 69.5301 13.2442C69.9591 12.8152 70.4596 12.4837 71.0316 12.2497C71.6036 12.0157 72.2211 11.8987 72.8841 11.8987C74.3011 11.8987 75.4126 12.3147 76.2186 13.1467C77.0246 13.9787 77.4276 15.2397 77.4276 16.9297V17.4367H70.0761ZM72.8646 13.3807C72.0976 13.3807 71.4671 13.6277 70.9731 14.1217C70.4921 14.6027 70.1931 15.2527 70.0761 16.0717H75.4776C75.4776 15.2137 75.2306 14.5507 74.7366 14.0827C74.2426 13.6147 73.6186 13.3807 72.8646 13.3807Z" fill="#232431"/>
<path d="M82.5014 22.1557C81.9944 22.1557 81.5394 22.1297 81.1364 22.0777C80.7464 22.0257 80.4149 21.9737 80.1419 21.9217C79.8689 21.8567 79.6609 21.7982 79.5179 21.7462C79.3749 21.6942 79.3034 21.6682 79.3034 21.6682V20.0887C79.5374 20.2057 79.8104 20.3032 80.1224 20.3812C80.3824 20.4592 80.6944 20.5307 81.0584 20.5957C81.4354 20.6477 81.8514 20.6737 82.3064 20.6737C83.2424 20.6737 83.9444 20.5307 84.4124 20.2447C84.8804 19.9587 85.1144 19.5622 85.1144 19.0552C85.1144 18.6002 84.9194 18.2362 84.5294 17.9632C84.1524 17.6902 83.5674 17.5537 82.7744 17.5537H81.1754V16.1107H82.4819C83.2749 16.1107 83.8469 15.9872 84.1979 15.7402C84.5489 15.4802 84.7244 15.1487 84.7244 14.7457C84.7244 14.3297 84.5359 13.9982 84.1589 13.7512C83.7949 13.5042 83.2294 13.3807 82.4624 13.3807C82.0854 13.3807 81.7279 13.4067 81.3899 13.4587C81.0519 13.5107 80.7529 13.5692 80.4929 13.6342C80.1939 13.7122 79.9209 13.7967 79.6739 13.8877V12.2887C79.9209 12.2107 80.1939 12.1457 80.4929 12.0937C80.7529 12.0417 81.0584 11.9962 81.4094 11.9572C81.7604 11.9182 82.1504 11.8987 82.5794 11.8987C83.9964 11.8987 85.0299 12.1457 85.6799 12.6397C86.3429 13.1207 86.6744 13.7512 86.6744 14.5312C86.6744 15.0642 86.5249 15.5192 86.2259 15.8962C85.9399 16.2732 85.5044 16.5592 84.9194 16.7542V16.7737C85.6214 16.9297 86.1544 17.2352 86.5184 17.6902C86.8824 18.1322 87.0644 18.6522 87.0644 19.2502C87.0644 19.6532 86.9799 20.0302 86.8109 20.3812C86.6419 20.7322 86.3689 21.0442 85.9919 21.3172C85.6279 21.5772 85.1534 21.7852 84.5684 21.9412C83.9964 22.0842 83.3074 22.1557 82.5014 22.1557Z" fill="#232431"/>
<path d="M89.004 22.1557C88.77 22.1557 88.5555 22.1362 88.3605 22.0972C88.1785 22.0582 88.0875 22.0322 88.0875 22.0192V20.3617C88.1395 20.3877 88.198 20.4072 88.263 20.4202C88.393 20.4462 88.523 20.4592 88.653 20.4592C88.978 20.4592 89.2445 20.3227 89.4525 20.0497C89.6735 19.7767 89.849 19.3412 89.979 18.7432C90.122 18.1322 90.2195 17.3457 90.2715 16.3837C90.3365 15.4087 90.369 14.2257 90.369 12.8347V12.0547H97.701V21.9997H95.868V13.5367H92.0265V13.8097C92.0265 15.3177 91.9615 16.6047 91.8315 17.6707C91.7145 18.7237 91.5325 19.5817 91.2855 20.2447C91.0385 20.9077 90.7265 21.3952 90.3495 21.7072C89.9725 22.0062 89.524 22.1557 89.004 22.1557Z" fill="#232431"/>
<path d="M100.935 12.0547H102.768V19.8547H102.807L107.37 12.0547H109.69V21.9997H107.857V14.1997H107.818L103.255 21.9997H100.935V12.0547Z" fill="#232431"/>
<path d="M118.88 18.1582C118.581 18.2232 118.191 18.2882 117.71 18.3532C117.229 18.4052 116.728 18.4312 116.208 18.4312C115.051 18.4312 114.128 18.1972 113.439 17.7292C112.763 17.2612 112.425 16.5267 112.425 15.5257V12.0547H114.258V14.9797C114.258 15.3567 114.291 15.6752 114.356 15.9352C114.434 16.1822 114.564 16.3837 114.746 16.5397C114.928 16.6827 115.168 16.7867 115.467 16.8517C115.779 16.9167 116.169 16.9492 116.637 16.9492C117.43 16.9492 118.178 16.8907 118.88 16.7737V12.0547H120.713V21.9997H118.88V18.1582Z" fill="#232431"/>
<path d="M123.958 12.0547H125.791V19.8547H125.83L130.393 12.0547H132.713V21.9997H130.88V14.1997H130.841L126.278 21.9997H123.958V12.0547Z" fill="#232431"/>
<path d="M143.872 14.6677C143.872 15.1877 143.742 15.6167 143.482 15.9547C143.235 16.2797 142.865 16.5462 142.37 16.7542V16.7932C143.632 17.2092 144.262 17.9762 144.262 19.0942C144.262 19.5102 144.177 19.8937 144.008 20.2447C143.852 20.5957 143.612 20.9012 143.287 21.1612C142.975 21.4212 142.572 21.6292 142.078 21.7852C141.597 21.9282 141.025 21.9997 140.362 21.9997H135.955V12.0547H139.972C140.674 12.0547 141.272 12.1262 141.766 12.2692C142.26 12.3992 142.663 12.5812 142.975 12.8152C143.287 13.0492 143.514 13.3287 143.657 13.6537C143.8 13.9657 143.872 14.3037 143.872 14.6677ZM140.362 20.5177C141.025 20.5177 141.506 20.3877 141.805 20.1277C142.117 19.8677 142.273 19.5102 142.273 19.0552C142.273 18.6002 142.117 18.2427 141.805 17.9827C141.506 17.7097 141.025 17.5732 140.362 17.5732H137.788V20.5177H140.362ZM139.972 16.0912C140.635 16.0912 141.116 15.9677 141.415 15.7207C141.727 15.4607 141.883 15.1552 141.883 14.8042C141.883 14.4532 141.727 14.1542 141.415 13.9072C141.116 13.6602 140.635 13.5367 139.972 13.5367H137.788V16.0912H139.972Z" fill="#232431"/>
<path d="M149.174 22.1557C148.134 22.1557 147.308 21.8957 146.697 21.3757C146.086 20.8427 145.781 20.1082 145.781 19.1722C145.781 18.0802 146.197 17.2482 147.029 16.6762C147.874 16.0912 149.167 15.7987 150.909 15.7987H152.742V15.4672C152.742 14.7522 152.495 14.2322 152.001 13.9072C151.507 13.5822 150.851 13.4197 150.032 13.4197C149.499 13.4197 148.959 13.4847 148.413 13.6147C147.867 13.7317 147.295 13.9527 146.697 14.2777V12.5617C147.191 12.3407 147.757 12.1782 148.394 12.0742C149.031 11.9572 149.655 11.8987 150.266 11.8987C151.631 11.8987 152.69 12.2107 153.444 12.8347C154.198 13.4457 154.575 14.4402 154.575 15.8182V21.9997H152.703V20.4787H152.664C152.248 21.0897 151.715 21.5252 151.065 21.7852C150.428 22.0322 149.798 22.1557 149.174 22.1557ZM149.622 20.5957C150.077 20.5957 150.493 20.5242 150.87 20.3812C151.26 20.2382 151.592 20.0432 151.865 19.7962C152.138 19.5362 152.352 19.2372 152.508 18.8992C152.664 18.5612 152.742 18.2037 152.742 17.8267V17.2027H150.987C150.376 17.2027 149.863 17.2482 149.447 17.3392C149.044 17.4302 148.712 17.5602 148.452 17.7292C148.192 17.8982 148.004 18.0932 147.887 18.3142C147.783 18.5352 147.731 18.7822 147.731 19.0552C147.731 19.5492 147.9 19.9327 148.238 20.2057C148.576 20.4657 149.037 20.5957 149.622 20.5957Z" fill="#232431"/>
<path d="M157.493 12.0547H159.326V16.0912H164.318V12.0547H166.151V21.9997H164.318V17.5732H159.326V21.9997H157.493V12.0547Z" fill="#232431"/>
<path d="M169.394 12.0547H171.227V19.8547H171.266L175.829 12.0547H178.15V21.9997H176.317V14.1997H176.278L171.715 21.9997H169.394V12.0547Z" fill="#232431"/>
<path d="M182.62 17.4367C182.724 18.4637 183.075 19.2567 183.673 19.8157C184.271 20.3617 185.077 20.6347 186.091 20.6347C186.689 20.6347 187.274 20.5632 187.846 20.4202C188.431 20.2642 188.912 20.0757 189.289 19.8547V21.6487C188.977 21.7527 188.548 21.8632 188.002 21.9802C187.456 22.0972 186.78 22.1557 185.974 22.1557C184.284 22.1557 182.984 21.6877 182.074 20.7517C181.177 19.8157 180.729 18.5157 180.729 16.8517C180.729 16.0977 180.846 15.4152 181.08 14.8042C181.327 14.1932 181.658 13.6732 182.074 13.2442C182.503 12.8152 183.004 12.4837 183.576 12.2497C184.148 12.0157 184.765 11.8987 185.428 11.8987C186.845 11.8987 187.957 12.3147 188.763 13.1467C189.569 13.9787 189.972 15.2397 189.972 16.9297V17.4367H182.62ZM185.409 13.3807C184.642 13.3807 184.011 13.6277 183.517 14.1217C183.036 14.6027 182.737 15.2527 182.62 16.0717H188.022C188.022 15.2137 187.775 14.5507 187.281 14.0827C186.787 13.6147 186.163 13.3807 185.409 13.3807Z" fill="#232431"/>
</svg>
