<svg width="246" height="37" viewBox="0 0 246 37" fill="none" xmlns="http://www.w3.org/2000/svg">
<rect width="36" height="36" fill="#31A7FD"/>
<rect x="5.9751" y="26" width="24" height="4" fill="white"/>
<path d="M23.9751 11.9995H19.9751L15.9751 23.9995H19.9751L23.9751 11.9995Z" fill="white"/>
<path fill-rule="evenodd" clip-rule="evenodd" d="M6 23.999L6 13.999C6 9.58034 9.58307 5.99902 14.0009 5.99902L18 5.99902L18 9.99902L14.0009 9.99902C11.7914 9.99902 10 11.7903 10 13.999L10 23.999L6 23.999Z" fill="white"/>
<path fill-rule="evenodd" clip-rule="evenodd" d="M18 5.99902L22 5.99902C26.4183 5.99902 30 9.58066 30 13.999L30 23.999L26 23.999L26 13.999C26 11.7899 24.2092 9.99902 22 9.99902L18 9.99902L18 5.99902Z" fill="white"/>
<path d="M45.326 13.9985H47.159V9.57196H52.151V13.9985H53.984V4.05346H52.151V8.08996H47.159V4.05346H45.326V13.9985Z" fill="#232431"/>
<path d="M59.7824 14.1545C61.0304 14.1545 62.4344 13.706 63.2729 12.4775H63.3119V13.9985H65.1839V7.81696C65.1839 5.06746 63.5849 3.89746 60.8744 3.89746C59.6654 3.89746 58.3004 4.13146 57.3059 4.56046V6.27646C58.4954 5.63296 59.5874 5.41846 60.6404 5.41846C62.2784 5.41846 63.3509 6.04246 63.3509 7.46596V7.79746H61.5179C58.0469 7.79746 56.3894 9.00646 56.3894 11.171C56.3894 13.0235 57.7154 14.1545 59.7824 14.1545ZM60.2309 12.5945C59.0609 12.5945 58.3394 12.0485 58.3394 11.054C58.3394 9.98146 59.1779 9.20146 61.5959 9.20146H63.3509V9.82546C63.3509 11.3465 62.0444 12.5945 60.2309 12.5945Z" fill="#232431"/>
<path d="M68.1014 13.9985H69.9344V5.53546H74.4194V4.05346H68.1014V13.9985Z" fill="#232431"/>
<path d="M78.4085 12.692H78.4865C79.052 13.4135 80.183 14.1545 81.782 14.1545C84.6095 14.1545 86.2865 11.7755 86.2865 8.94796C86.2865 6.06196 84.6095 3.89746 81.6845 3.89746C80.9045 3.89746 79.4225 4.07296 78.3695 5.47696H78.3305V4.05346H76.5755V18.3665H78.4085V12.692ZM81.353 12.6725C79.559 12.6725 78.4085 11.249 78.4085 9.04546C78.4085 6.82246 79.5785 5.37946 81.4115 5.37946C83.186 5.37946 84.3365 6.76396 84.3365 8.88946C84.3365 11.1905 83.1665 12.6725 81.353 12.6725Z" fill="#232431"/>
<path d="M89.3136 18.3665C91.4586 18.3665 92.0631 17.294 93.2331 14.3885L97.3671 4.05346H95.5146L92.4336 12.2045H92.2971L89.2746 4.05346H87.2661L91.3416 14.486L91.1661 14.9735C90.7176 16.1825 90.3276 16.826 89.1966 16.826C88.8261 16.826 88.4751 16.7675 88.4751 16.7675V18.269C88.4751 18.269 88.8066 18.3665 89.3136 18.3665Z" fill="#232431"/>
<path d="M101.731 14.1545C104.968 14.1545 106.294 12.848 106.294 11.249C106.294 10.0595 105.553 9.08446 104.149 8.77246V8.75296C105.319 8.36296 105.904 7.58296 105.904 6.52996C105.904 4.98946 104.637 3.89746 101.809 3.89746C100.113 3.89746 98.9038 4.28746 98.9038 4.28746V5.88646C98.9038 5.88646 100.171 5.37946 101.692 5.37946C103.213 5.37946 103.954 5.90596 103.954 6.74446C103.954 7.54396 103.291 8.10946 101.712 8.10946H100.405V9.55246H102.004C103.584 9.55246 104.344 10.1375 104.344 11.054C104.344 12.068 103.408 12.6725 101.536 12.6725C99.7033 12.6725 98.5333 12.0875 98.5333 12.0875V13.667C98.5333 13.6865 99.6838 14.1545 101.731 14.1545Z" fill="#232431"/>
<path d="M113.089 14.1545C116.092 14.1545 118.179 12.068 118.179 9.02596C118.179 5.98396 116.092 3.89746 113.089 3.89746C110.086 3.89746 108 5.98396 108 9.02596C108 12.068 110.086 14.1545 113.089 14.1545ZM113.089 12.6725C111.373 12.6725 109.95 11.249 109.95 9.02596C109.95 6.80296 111.373 5.37946 113.089 5.37946C114.786 5.37946 116.229 6.80296 116.229 9.02596C116.229 11.249 114.805 12.6725 113.089 12.6725Z" fill="#232431"/>
<path d="M126.703 13.9985H128.536V4.05346H126.703V8.77246C126.001 8.88946 125.221 8.94796 124.46 8.94796C122.608 8.94796 122.081 8.49946 122.081 6.97846V4.05346H120.248V7.52446C120.248 9.51346 121.73 10.43 124.031 10.43C125.065 10.43 126.098 10.274 126.703 10.157V13.9985Z" fill="#232431"/>
<path d="M131.781 13.9985H133.614V9.57196H138.606V13.9985H140.439V4.05346H138.606V8.08996H133.614V4.05346H131.781V13.9985Z" fill="#232431"/>
<path d="M148.109 14.1545C151.112 14.1545 153.199 12.068 153.199 9.02596C153.199 5.98396 151.112 3.89746 148.109 3.89746C145.106 3.89746 143.02 5.98396 143.02 9.02596C143.02 12.068 145.106 14.1545 148.109 14.1545ZM148.109 12.6725C146.393 12.6725 144.97 11.249 144.97 9.02596C144.97 6.80296 146.393 5.37946 148.109 5.37946C149.806 5.37946 151.249 6.80296 151.249 9.02596C151.249 11.249 149.825 12.6725 148.109 12.6725Z" fill="#232431"/>
<path d="M164.355 9.43546V8.92846C164.355 5.55496 162.639 3.89746 159.812 3.89746C157.179 3.89746 155.112 5.80846 155.112 8.85046C155.112 12.1655 157.004 14.1545 160.358 14.1545C161.957 14.1545 163.049 13.8425 163.673 13.6475V11.8535C162.932 12.2825 161.664 12.6335 160.475 12.6335C158.466 12.6335 157.218 11.483 157.004 9.43546H164.355ZM159.792 5.37946C161.294 5.37946 162.405 6.35446 162.405 8.07046H157.004C157.238 6.43246 158.271 5.37946 159.792 5.37946Z" fill="#232431"/>
<path d="M47.471 31.9985H49.304V23.5355H52.775V22.0535H44V23.5355H47.471V31.9985Z" fill="#232431"/>
<path d="M62.9895 27.4355V26.9285C62.9895 23.555 61.2735 21.8975 58.446 21.8975C55.8135 21.8975 53.7465 23.8085 53.7465 26.8505C53.7465 30.1655 55.638 32.1545 58.992 32.1545C60.591 32.1545 61.683 31.8425 62.307 31.6475V29.8535C61.566 30.2825 60.2985 30.6335 59.109 30.6335C57.1005 30.6335 55.8525 29.483 55.638 27.4355H62.9895ZM58.4265 23.3795C59.928 23.3795 61.0395 24.3545 61.0395 26.0705H55.638C55.872 24.4325 56.9055 23.3795 58.4265 23.3795Z" fill="#232431"/>
<path d="M69.9353 32.1545C71.4758 32.1545 72.4313 31.7645 72.4313 31.7645V30.1655C72.4313 30.1655 71.4953 30.6725 70.1303 30.6725C68.0828 30.6725 66.9128 29.3465 66.9128 27.026C66.9128 24.7055 68.0828 23.3795 70.1498 23.3795C71.4953 23.3795 72.4313 23.867 72.4313 23.867V22.2875C72.4313 22.2875 71.5343 21.8975 69.9548 21.8975C66.9128 21.8975 64.9628 23.9645 64.9628 27.026C64.9628 30.0875 66.8543 32.1545 69.9353 32.1545Z" fill="#232431"/>
<path d="M77.2352 31.9985H79.0682V23.5355H82.5392V22.0535H73.7642V23.5355H77.2352V31.9985Z" fill="#232431"/>
<path d="M84.4593 31.9985H86.7798L91.3428 24.1985H91.3818V31.9985H93.2148V22.0535H90.8943L86.3313 29.8535H86.2923V22.0535H84.4593V31.9985Z" fill="#232431"/>
<path d="M98.2894 30.692H98.3674C98.9329 31.4135 100.064 32.1545 101.663 32.1545C104.49 32.1545 106.167 29.7755 106.167 26.948C106.167 24.062 104.49 21.8975 101.565 21.8975C100.785 21.8975 99.3034 22.073 98.2504 23.477H98.2114V22.0535H96.4564V36.3665H98.2894V30.692ZM101.234 30.6725C99.4399 30.6725 98.2894 29.249 98.2894 27.0455C98.2894 24.8225 99.4594 23.3795 101.292 23.3795C103.067 23.3795 104.217 24.764 104.217 26.8895C104.217 29.1905 103.047 30.6725 101.234 30.6725Z" fill="#232431"/>
<path d="M113.166 32.1545C116.169 32.1545 118.255 30.068 118.255 27.026C118.255 23.984 116.169 21.8975 113.166 21.8975C110.163 21.8975 108.076 23.984 108.076 27.026C108.076 30.068 110.163 32.1545 113.166 32.1545ZM113.166 30.6725C111.45 30.6725 110.026 29.249 110.026 27.026C110.026 24.803 111.45 23.3795 113.166 23.3795C114.862 23.3795 116.305 24.803 116.305 27.026C116.305 29.249 114.882 30.6725 113.166 30.6725Z" fill="#232431"/>
<path d="M128.748 24.6665C128.748 23.1845 127.676 22.0535 124.848 22.0535H120.831V31.9985H125.238C127.871 31.9985 129.138 30.731 129.138 29.093C129.138 27.9425 128.495 27.2015 127.247 26.792V26.753C128.241 26.3435 128.748 25.7 128.748 24.6665ZM122.664 30.5165V27.572H125.238C126.564 27.572 127.149 28.157 127.149 29.054C127.149 29.951 126.564 30.5165 125.238 30.5165H122.664ZM122.664 26.09V23.5355H124.848C126.174 23.5355 126.759 24.101 126.759 24.803C126.759 25.505 126.174 26.09 124.848 26.09H122.664Z" fill="#232431"/>
<path d="M134.05 32.1545C135.298 32.1545 136.702 31.706 137.54 30.4775H137.579V31.9985H139.451V25.817C139.451 23.0675 137.852 21.8975 135.142 21.8975C133.933 21.8975 132.568 22.1315 131.573 22.5605V24.2765C132.763 23.633 133.855 23.4185 134.908 23.4185C136.546 23.4185 137.618 24.0425 137.618 25.466V25.7975H135.785C132.314 25.7975 130.657 27.0065 130.657 29.171C130.657 31.0235 131.983 32.1545 134.05 32.1545ZM134.498 30.5945C133.328 30.5945 132.607 30.0485 132.607 29.054C132.607 27.9815 133.445 27.2015 135.863 27.2015H137.618V27.8255C137.618 29.3465 136.312 30.5945 134.498 30.5945Z" fill="#232431"/>
<path d="M142.369 31.9985H144.202V27.572H149.194V31.9985H151.027V22.0535H149.194V26.09H144.202V22.0535H142.369V31.9985Z" fill="#232431"/>
<path d="M154.271 31.9985H156.591L161.154 24.1985H161.193V31.9985H163.026V22.0535H160.706L156.143 29.8535H156.104V22.0535H154.271V31.9985Z" fill="#232431"/>
<path d="M174.848 27.4355V26.9285C174.848 23.555 173.132 21.8975 170.304 21.8975C167.672 21.8975 165.605 23.8085 165.605 26.8505C165.605 30.1655 167.496 32.1545 170.85 32.1545C172.449 32.1545 173.541 31.8425 174.165 31.6475V29.8535C173.424 30.2825 172.157 30.6335 170.967 30.6335C168.959 30.6335 167.711 29.483 167.496 27.4355H174.848ZM170.285 23.3795C171.786 23.3795 172.898 24.3545 172.898 26.0705H167.496C167.73 24.4325 168.764 23.3795 170.285 23.3795Z" fill="#232431"/>
</svg>
