<svg width="246" height="36" viewBox="0 0 246 36" fill="none" xmlns="http://www.w3.org/2000/svg">
<rect y="0.00195312" width="35.9965" height="35.9965" fill="#5974FF"/>
<path d="M31.9969 21.9995H27.9973V25.9991H31.9969V21.9995Z" fill="white"/>
<path d="M19.9981 16.0004L19.9981 20L31.9969 20L31.9969 16.0004L19.9981 16.0004Z" fill="white"/>
<path d="M11.9988 27.9992V27.9992C15.3122 27.9992 17.9983 25.3132 17.9983 21.9998V20" stroke="white" stroke-width="3.99962"/>
<path d="M11.9988 8.00145V8.00145C8.68545 8.00145 5.99942 10.6875 5.99942 14.0009L5.99942 18.0005" stroke="white" stroke-width="3.99962"/>
<path d="M5.99942 18.0005C5.99942 18.1028 5.99942 19.866 5.99942 21.9992C5.99942 25.3126 8.68545 27.9995 11.9988 27.9995V27.9995" stroke="white" stroke-width="3.99962"/>
<path d="M17.9983 16.0005C17.9983 15.939 17.9983 15.1265 17.9983 14.002C17.9983 10.6886 15.3122 8.00126 11.9988 8.00126V8.00126" stroke="white" stroke-width="3.99962"/>
<path d="M46.0828 18.366C45.9528 18.366 45.8359 18.3595 45.7319 18.3465C45.6279 18.3465 45.5434 18.34 45.4784 18.327C45.3874 18.3141 45.3094 18.2946 45.2444 18.2686V16.7672C45.3094 16.7802 45.3809 16.7932 45.4589 16.8062C45.5239 16.8192 45.5954 16.8257 45.6734 16.8257C45.7644 16.8257 45.8619 16.8257 45.9658 16.8257C46.5248 16.8257 46.9343 16.6697 47.1942 16.3577C47.4672 16.0458 47.7142 15.5843 47.9352 14.9734L48.1106 14.4859L44.0355 4.05442H46.0438L49.066 12.2046H49.2025L52.2832 4.05442H54.1356L50.002 14.3884C49.703 15.1164 49.43 15.7338 49.183 16.2408C48.9491 16.7477 48.6891 17.1572 48.4031 17.4691C48.1171 17.7811 47.7922 18.0086 47.4282 18.1516C47.0642 18.2946 46.6158 18.366 46.0828 18.366Z" fill="#232431"/>
<path d="M56.0621 4.05442H64.5243V13.9985H62.6914V5.53628H57.8949V13.9985H56.0621V4.05442Z" fill="#232431"/>
<path d="M69.5861 18.366H67.7533V4.05442H69.5082V5.47779H69.5472C69.8071 5.12682 70.0866 4.84735 70.3856 4.63937C70.6975 4.43139 71.003 4.2754 71.302 4.17141C71.601 4.05442 71.8869 3.98293 72.1599 3.95693C72.4329 3.91794 72.6669 3.89844 72.8618 3.89844C73.5898 3.89844 74.2397 4.02843 74.8116 4.2884C75.3836 4.53538 75.8645 4.88634 76.2545 5.3413C76.6445 5.79626 76.9434 6.3357 77.1514 6.95964C77.3594 7.57058 77.4634 8.23352 77.4634 8.94845C77.4634 9.65038 77.3594 10.3198 77.1514 10.9568C76.9564 11.5807 76.664 12.1331 76.274 12.6141C75.884 13.0821 75.4096 13.459 74.8506 13.745C74.2917 14.018 73.6613 14.1545 72.9593 14.1545C72.1534 14.1545 71.471 14.005 70.912 13.706C70.3661 13.394 69.9501 13.0561 69.6641 12.6921H69.5861V18.366ZM72.5304 12.6726C73.4403 12.6726 74.1617 12.3346 74.6947 11.6587C75.2406 10.9698 75.5136 10.0468 75.5136 8.88996C75.5136 7.82406 75.2471 6.97264 74.7142 6.3357C74.1942 5.69876 73.4858 5.38029 72.5889 5.38029C71.6659 5.38029 70.9315 5.71176 70.3856 6.3747C69.8526 7.03764 69.5861 7.92805 69.5861 9.04594C69.5861 10.1508 69.8526 11.0348 70.3856 11.6977C70.9185 12.3476 71.6335 12.6726 72.5304 12.6726Z" fill="#232431"/>
<path d="M82.4939 14.1545C81.454 14.1545 80.6286 13.8945 80.0176 13.3745C79.4067 12.8416 79.1012 12.1071 79.1012 11.1712C79.1012 10.0793 79.5172 9.24742 80.3491 8.67548C81.194 8.09053 82.4874 7.79806 84.2292 7.79806H86.0621V7.46659C86.0621 6.75166 85.8151 6.23171 85.3211 5.90674C84.8272 5.58178 84.1707 5.41929 83.3518 5.41929C82.8189 5.41929 82.2794 5.48428 81.7335 5.61427C81.1875 5.73126 80.6156 5.95224 80.0176 6.27721V4.56137C80.5116 4.34039 81.077 4.17791 81.714 4.07392C82.3509 3.95693 82.9749 3.89844 83.5858 3.89844C84.9507 3.89844 86.0101 4.21041 86.764 4.83435C87.5179 5.44529 87.8949 6.43969 87.8949 7.81756V13.9985H86.0231V12.4776H85.9841C85.5681 13.0886 85.0352 13.524 84.3852 13.784C83.7483 14.031 83.1178 14.1545 82.4939 14.1545ZM82.9424 12.5946C83.3973 12.5946 83.8133 12.5231 84.1902 12.3801C84.5802 12.2371 84.9117 12.0422 85.1847 11.7952C85.4576 11.5352 85.6721 11.2362 85.8281 10.8983C85.9841 10.5603 86.0621 10.2028 86.0621 9.82587V9.20193H84.3072C83.6963 9.20193 83.1828 9.24742 82.7669 9.33841C82.3639 9.42941 82.0325 9.55939 81.7725 9.72838C81.5125 9.89736 81.324 10.0923 81.207 10.3133C81.103 10.5343 81.051 10.7813 81.051 11.0542C81.051 11.5482 81.22 11.9317 81.558 12.2046C81.896 12.4646 82.3574 12.5946 82.9424 12.5946Z" fill="#232431"/>
<path d="M98.7284 6.66717C98.7284 7.18712 98.5984 7.61608 98.3384 7.95405C98.0914 8.27902 97.721 8.54549 97.227 8.75347V8.79247C98.4879 9.20843 99.1183 9.97535 99.1183 11.0932C99.1183 11.5092 99.0339 11.8927 98.8649 12.2436C98.7089 12.5946 98.4684 12.9001 98.1434 13.16C97.8315 13.42 97.4285 13.628 96.9346 13.784C96.4536 13.927 95.8817 13.9985 95.2187 13.9985H90.8121V4.05442H94.8288C95.5307 4.05442 96.1286 4.12592 96.6226 4.2689C97.1165 4.39889 97.5195 4.58087 97.8315 4.81485C98.1434 5.04883 98.3709 5.3283 98.5139 5.65327C98.6569 5.96524 98.7284 6.30321 98.7284 6.66717ZM95.2187 12.5166C95.8817 12.5166 96.3626 12.3866 96.6616 12.1266C96.9736 11.8667 97.1295 11.5092 97.1295 11.0542C97.1295 10.5993 96.9736 10.2418 96.6616 9.98185C96.3626 9.70888 95.8817 9.57239 95.2187 9.57239H92.645V12.5166H95.2187ZM94.8288 8.09053C95.4917 8.09053 95.9726 7.96705 96.2716 7.72007C96.5836 7.4601 96.7396 7.15462 96.7396 6.80366C96.7396 6.45269 96.5836 6.15372 96.2716 5.90674C95.9726 5.65977 95.4917 5.53628 94.8288 5.53628H92.645V8.09053H94.8288Z" fill="#232431"/>
<path d="M101.046 14.1545C100.812 14.1545 100.598 14.135 100.403 14.096C100.221 14.057 100.13 14.031 100.13 14.018V12.3606C100.182 12.3866 100.24 12.4061 100.305 12.4191C100.435 12.4451 100.565 12.4581 100.695 12.4581C101.02 12.4581 101.287 12.3216 101.495 12.0487C101.716 11.7757 101.891 11.3402 102.021 10.7423C102.164 10.1313 102.262 9.34491 102.314 8.38301C102.379 7.4081 102.411 6.22521 102.411 4.83435V4.05442H109.742V13.9985H107.91V5.53628H104.068V5.80925C104.068 7.31711 104.003 8.60398 103.873 9.66988C103.756 10.7228 103.574 11.5807 103.328 12.2436C103.081 12.9066 102.769 13.394 102.392 13.706C102.015 14.005 101.566 14.1545 101.046 14.1545Z" fill="#232431"/>
<path d="M114.204 9.4359C114.308 10.4628 114.659 11.2557 115.257 11.8147C115.855 12.3606 116.661 12.6336 117.675 12.6336C118.273 12.6336 118.858 12.5621 119.43 12.4191C120.015 12.2631 120.496 12.0747 120.873 11.8537V13.6475C120.561 13.7515 120.132 13.862 119.586 13.979C119.04 14.096 118.364 14.1545 117.558 14.1545C115.868 14.1545 114.568 13.6865 113.658 12.7506C112.762 11.8147 112.313 10.5148 112.313 8.85096C112.313 8.09703 112.43 7.4146 112.664 6.80366C112.911 6.19272 113.243 5.67277 113.658 5.24381C114.087 4.81485 114.588 4.48338 115.16 4.2494C115.732 4.01543 116.349 3.89844 117.012 3.89844C118.429 3.89844 119.54 4.3144 120.346 5.14632C121.152 5.97824 121.555 7.23912 121.555 8.92895V9.4359H114.204ZM116.993 5.38029C116.226 5.38029 115.595 5.62727 115.101 6.12122C114.62 6.60218 114.321 7.25211 114.204 8.07104H119.605C119.605 7.21312 119.358 6.55018 118.864 6.08223C118.371 5.61427 117.747 5.38029 116.993 5.38029Z" fill="#232431"/>
<path d="M124.191 4.05442H126.024V8.09053H131.016V4.05442H132.848V13.9985H131.016V9.57239H126.024V13.9985H124.191V4.05442Z" fill="#232431"/>
<path d="M136.092 4.05442H137.925V11.8537H137.964L142.526 4.05442H144.847V13.9985H143.014V6.19922H142.975L138.412 13.9985H136.092V4.05442Z" fill="#232431"/>
<path d="M149.316 9.4359C149.42 10.4628 149.771 11.2557 150.369 11.8147C150.967 12.3606 151.773 12.6336 152.787 12.6336C153.385 12.6336 153.97 12.5621 154.542 12.4191C155.127 12.2631 155.608 12.0747 155.985 11.8537V13.6475C155.673 13.7515 155.244 13.862 154.698 13.979C154.152 14.096 153.476 14.1545 152.67 14.1545C150.98 14.1545 149.68 13.6865 148.77 12.7506C147.873 11.8147 147.425 10.5148 147.425 8.85096C147.425 8.09703 147.542 7.4146 147.776 6.80366C148.023 6.19272 148.354 5.67277 148.77 5.24381C149.199 4.81485 149.7 4.48338 150.272 4.2494C150.844 4.01543 151.461 3.89844 152.124 3.89844C153.541 3.89844 154.652 4.3144 155.458 5.14632C156.264 5.97824 156.667 7.23912 156.667 8.92895V9.4359H149.316ZM152.104 5.38029C151.338 5.38029 150.707 5.62727 150.213 6.12122C149.732 6.60218 149.433 7.25211 149.316 8.07104H154.717C154.717 7.21312 154.47 6.55018 153.976 6.08223C153.482 5.61427 152.858 5.38029 152.104 5.38029Z" fill="#232431"/>
<path d="M44.9129 32.1527C44.679 32.1527 44.4645 32.1332 44.2695 32.0942C44.0875 32.0552 43.9965 32.0292 43.9965 32.0162V30.3589C44.0485 30.3849 44.107 30.4044 44.172 30.4174C44.302 30.4434 44.432 30.4564 44.562 30.4564C44.887 30.4564 45.1534 30.3199 45.3614 30.0469C45.5824 29.7739 45.7579 29.3385 45.8879 28.7405C46.0308 28.1296 46.1283 27.3432 46.1803 26.3813C46.2453 25.4064 46.2778 24.2235 46.2778 22.8326V22.0527H53.6091V31.9967H51.7763V23.5345H47.9352V23.8075C47.9352 25.3154 47.8702 26.6023 47.7402 27.6681C47.6232 28.721 47.4412 29.579 47.1942 30.2419C46.9473 30.9048 46.6353 31.3923 46.2583 31.7043C45.8814 32.0032 45.4329 32.1527 44.9129 32.1527Z" fill="#232431"/>
<path d="M56.8428 22.0527H58.6756V29.8519H58.7146L63.2771 22.0527H65.5974V31.9967H63.7646V24.1975H63.7256L59.163 31.9967H56.8428V22.0527Z" fill="#232431"/>
<path d="M76.8134 31.9967H68.8387V22.0527H70.6715V30.5149H75.2925V22.0527H77.1254V30.5149H78.5682V34.8045H76.8134V31.9967Z" fill="#232431"/>
<path d="M81.5679 27.4342C81.6719 28.4611 82.0229 29.254 82.6208 29.8129C83.2187 30.3589 84.0247 30.6319 85.0386 30.6319C85.6365 30.6319 86.2215 30.5604 86.7934 30.4174C87.3783 30.2614 87.8593 30.0729 88.2363 29.8519V31.6458C87.9243 31.7498 87.4953 31.8602 86.9494 31.9772C86.4034 32.0942 85.7275 32.1527 84.9216 32.1527C83.2317 32.1527 81.9319 31.6848 81.0219 30.7489C80.125 29.8129 79.6766 28.5131 79.6766 26.8492C79.6766 26.0953 79.7936 25.4129 80.0275 24.8019C80.2745 24.191 80.606 23.671 81.0219 23.2421C81.4509 22.8131 81.9514 22.4816 82.5233 22.2477C83.0953 22.0137 83.7127 21.8967 84.3756 21.8967C85.7925 21.8967 86.9039 22.3127 87.7098 23.1446C88.5157 23.9765 88.9187 25.2374 88.9187 26.9272V27.4342H81.5679ZM84.3561 23.3786C83.5892 23.3786 82.9588 23.6255 82.4648 24.1195C81.9839 24.6004 81.6849 25.2504 81.5679 26.0693H86.9689C86.9689 25.2114 86.7219 24.5485 86.228 24.0805C85.734 23.6125 85.1101 23.3786 84.3561 23.3786Z" fill="#232431"/>
<path d="M91.5547 22.0527H93.3876V26.0888H98.3791V22.0527H100.212V31.9967H98.3791V27.5707H93.3876V31.9967H91.5547V22.0527Z" fill="#232431"/>
<path d="M105.893 32.1527C105.386 32.1527 104.931 32.1267 104.528 32.0747C104.138 32.0227 103.806 31.9707 103.533 31.9187C103.26 31.8537 103.052 31.7953 102.91 31.7433C102.767 31.6913 102.695 31.6653 102.695 31.6653V30.0859C102.929 30.2029 103.202 30.3004 103.514 30.3784C103.774 30.4564 104.086 30.5279 104.45 30.5929C104.827 30.6449 105.243 30.6709 105.698 30.6709C106.634 30.6709 107.336 30.5279 107.804 30.2419C108.271 29.9559 108.505 29.5595 108.505 29.0525C108.505 28.5976 108.31 28.2336 107.921 27.9606C107.544 27.6876 106.959 27.5512 106.166 27.5512H104.567V26.1083H105.873C106.666 26.1083 107.238 25.9848 107.589 25.7378C107.94 25.4779 108.116 25.1464 108.116 24.7434C108.116 24.3275 107.927 23.996 107.55 23.749C107.186 23.5021 106.621 23.3786 105.854 23.3786C105.477 23.3786 105.119 23.4046 104.781 23.4566C104.443 23.5086 104.144 23.567 103.884 23.632C103.585 23.71 103.312 23.7945 103.065 23.8855V22.2867C103.312 22.2087 103.585 22.1437 103.884 22.0917C104.144 22.0397 104.45 21.9942 104.801 21.9552C105.152 21.9162 105.542 21.8967 105.971 21.8967C107.388 21.8967 108.421 22.1437 109.071 22.6376C109.734 23.1186 110.065 23.749 110.065 24.529C110.065 25.0619 109.916 25.5169 109.617 25.8938C109.331 26.2708 108.895 26.5568 108.31 26.7517V26.7712C109.012 26.9272 109.545 27.2327 109.909 27.6876C110.273 28.1296 110.455 28.6496 110.455 29.2475C110.455 29.6505 110.371 30.0274 110.202 30.3784C110.033 30.7294 109.76 31.0413 109.383 31.3143C109.019 31.5743 108.544 31.7823 107.96 31.9382C107.388 32.0812 106.699 32.1527 105.893 32.1527Z" fill="#232431"/>
<path d="M112.824 22.0527H114.657V29.8519H114.696L119.258 22.0527H121.578V31.9967H119.746V24.1975H119.707L115.144 31.9967H112.824V22.0527Z" fill="#232431"/>
<path d="M126.087 28.0971C125.58 27.8631 125.158 27.5057 124.82 27.0247C124.482 26.5438 124.313 25.9523 124.313 25.2504C124.313 24.2755 124.618 23.5021 125.229 22.9301C125.84 22.3452 126.782 22.0527 128.056 22.0527H132.502V31.9967H130.669V28.4481H127.9L125.951 31.9967H123.786L126.087 28.0971ZM130.669 26.9662V23.5345H128.056C127.419 23.5345 126.945 23.6905 126.633 24.0025C126.334 24.3145 126.184 24.7369 126.184 25.2699C126.184 25.7898 126.34 26.2058 126.652 26.5178C126.964 26.8167 127.432 26.9662 128.056 26.9662H130.669Z" fill="#232431"/>
<path d="M135.73 22.0527H138.557L141.268 27.7266L143.978 22.0527H146.727V31.9967H144.894V23.8075H144.855L142.145 29.462H140.312L137.602 23.8075H137.563V31.9967H135.73V22.0527Z" fill="#232431"/>
<path d="M149.973 22.0527H151.806V29.8519H151.845L156.407 22.0527H158.728V31.9967H156.895V24.1975H156.856L152.293 31.9967H149.973V22.0527Z" fill="#232431"/>
</svg>
