<svg width="246" height="37" viewBox="0 0 246 37" fill="none" xmlns="http://www.w3.org/2000/svg">
<rect width="36.0002" height="36.0002" fill="#5974FF"/>
<path d="M10 29.9996C10.0615 29.9996 10.8741 29.9996 11.9988 29.9996C15.3125 29.9996 18.0001 27.3133 18.0001 23.9996V7.99951" stroke="white" stroke-width="4.00003"/>
<path d="M16.0001 5.99991C15.8978 5.99991 14.1344 5.99991 12.001 5.99991C8.6873 5.99991 6.00004 8.68622 6.00004 11.9999L6.00004 20" stroke="white" stroke-width="4.00003"/>
<path d="M30.0002 18.9995C30.0002 18.8385 30.0002 15.5125 30.0002 11.9997C30.0002 8.68599 27.3139 5.99943 24.0002 5.99943L20.0001 5.99943" stroke="white" stroke-width="4.00003"/>
<path d="M47.1982 14.2302C46.6912 14.2302 46.2361 14.2042 45.8331 14.1522C45.4431 14.1002 45.1116 14.0482 44.8385 13.9962C44.5655 13.9312 44.3575 13.8727 44.2145 13.8207C44.0715 13.7687 44 13.7427 44 13.7427V12.1631C44.234 12.2801 44.507 12.3776 44.819 12.4556C45.0791 12.5336 45.3911 12.6051 45.7551 12.6701C46.1321 12.7221 46.5481 12.7481 47.0032 12.7481C47.9392 12.7481 48.6413 12.6051 49.1093 12.3191C49.5773 12.0331 49.8113 11.6366 49.8113 11.1295C49.8113 10.6745 49.6163 10.3105 49.2263 10.0375C48.8493 9.76447 48.2642 9.62797 47.4712 9.62797H45.8721V8.18489H47.1787C47.9717 8.18489 48.5438 8.06138 48.8948 7.81437C49.2458 7.55435 49.4213 7.22283 49.4213 6.81981C49.4213 6.40379 49.2328 6.07227 48.8558 5.82526C48.4918 5.57824 47.9262 5.45474 47.1592 5.45474C46.7822 5.45474 46.4246 5.48074 46.0866 5.53274C45.7486 5.58474 45.4496 5.64325 45.1896 5.70825C44.8906 5.78626 44.6175 5.87076 44.3705 5.96177V4.36268C44.6175 4.28467 44.8906 4.21967 45.1896 4.16767C45.4496 4.11566 45.7551 4.07016 46.1061 4.03116C46.4571 3.99216 46.8472 3.97266 47.2762 3.97266C48.6933 3.97266 49.7268 4.21967 50.3769 4.7137C51.0399 5.19472 51.3714 5.82526 51.3714 6.6053C51.3714 7.13833 51.2219 7.59335 50.9229 7.97038C50.6369 8.3474 50.2014 8.63341 49.6163 8.82842V8.84792C50.3184 9.00393 50.8514 9.30945 51.2154 9.76447C51.5794 10.2065 51.7614 10.7265 51.7614 11.3246C51.7614 11.7276 51.6769 12.1046 51.5079 12.4556C51.3389 12.8066 51.0659 13.1187 50.6889 13.3917C50.3249 13.6517 49.8503 13.8597 49.2653 14.0157C48.6933 14.1587 48.0042 14.2302 47.1982 14.2302Z" fill="#232431"/>
<path d="M58.557 14.2302C57.8029 14.2302 57.1139 14.1067 56.4899 13.8597C55.8658 13.6127 55.3263 13.2617 54.8713 12.8066C54.4292 12.3516 54.0847 11.8121 53.8377 11.1881C53.5907 10.564 53.4672 9.86848 53.4672 9.10144C53.4672 8.3474 53.5907 7.65836 53.8377 7.03432C54.0847 6.39729 54.4292 5.85126 54.8713 5.39623C55.3263 4.94121 55.8658 4.59019 56.4899 4.34318C57.1139 4.09616 57.8029 3.97266 58.557 3.97266C59.311 3.97266 60 4.09616 60.6241 4.34318C61.2481 4.59019 61.7812 4.94121 62.2232 5.39623C62.6782 5.85126 63.0292 6.39729 63.2762 7.03432C63.5232 7.65836 63.6468 8.3474 63.6468 9.10144C63.6468 9.86848 63.5232 10.564 63.2762 11.1881C63.0292 11.8121 62.6782 12.3516 62.2232 12.8066C61.7812 13.2617 61.2481 13.6127 60.6241 13.8597C60 14.1067 59.311 14.2302 58.557 14.2302ZM58.557 12.7481C58.986 12.7481 59.389 12.6636 59.766 12.4946C60.1561 12.3256 60.4876 12.0851 60.7606 11.7731C61.0466 11.4481 61.2741 11.0645 61.4431 10.6225C61.6121 10.1675 61.6966 9.66047 61.6966 9.10144C61.6966 8.54241 61.6121 8.04188 61.4431 7.59986C61.2741 7.14483 61.0466 6.76131 60.7606 6.44929C60.4746 6.12427 60.1431 5.87726 59.766 5.70825C59.389 5.53924 58.986 5.45474 58.557 5.45474C58.1279 5.45474 57.7184 5.53924 57.3284 5.70825C56.9514 5.87726 56.6199 6.12427 56.3338 6.44929C56.0608 6.76131 55.8398 7.14483 55.6708 7.59986C55.5018 8.04188 55.4173 8.54241 55.4173 9.10144C55.4173 9.66047 55.5018 10.1675 55.6708 10.6225C55.8398 11.0645 56.0608 11.4481 56.3338 11.7731C56.6199 12.0851 56.9514 12.3256 57.3284 12.4946C57.7184 12.6636 58.1279 12.7481 58.557 12.7481Z" fill="#232431"/>
<path d="M66.2232 4.12866H68.0563V8.16539H73.0486V4.12866H74.8817V14.0742H73.0486V9.64747H68.0563V14.0742H66.2232V4.12866Z" fill="#232431"/>
<path d="M80.2708 5.61075H76.7996V4.12866H85.5751V5.61075H82.1039V14.0742H80.2708V5.61075Z" fill="#232431"/>
<path d="M87.4954 4.12866H89.3285V11.9291H89.3675L93.9308 4.12866H96.2514V14.0742H94.4183V6.27378H94.3793L89.816 14.0742H87.4954V4.12866Z" fill="#232431"/>
<path d="M105.441 10.2325C105.142 10.2975 104.752 10.3625 104.271 10.4275C103.79 10.4795 103.289 10.5055 102.769 10.5055C101.612 10.5055 100.689 10.2715 100 9.80348C99.3241 9.33545 98.9861 8.60091 98.9861 7.59986V4.12866H100.819V7.05383C100.819 7.43085 100.852 7.74936 100.917 8.00938C100.995 8.25639 101.125 8.4579 101.307 8.61391C101.489 8.75692 101.729 8.86092 102.028 8.92593C102.34 8.99093 102.73 9.02343 103.198 9.02343C103.991 9.02343 104.739 8.96493 105.441 8.84792V4.12866H107.274V14.0742H105.441V10.2325Z" fill="#232431"/>
<path d="M110.52 4.12866H112.353V8.16539H117.345V4.12866H119.178V14.0742H117.345V9.64747H112.353V14.0742H110.52V4.12866Z" fill="#232431"/>
<path d="M124.977 14.2302C123.937 14.2302 123.111 13.9702 122.5 13.4502C121.889 12.9171 121.584 12.1826 121.584 11.2466C121.584 10.1545 122 9.32245 122.832 8.75042C123.677 8.16539 124.97 7.87287 126.712 7.87287H128.546V7.54135C128.546 6.82631 128.299 6.30628 127.804 5.98127C127.31 5.65625 126.654 5.49374 125.835 5.49374C125.302 5.49374 124.762 5.55874 124.216 5.68875C123.67 5.80576 123.098 6.02677 122.5 6.35179V4.63569C122.994 4.41468 123.56 4.25217 124.197 4.14817C124.834 4.03116 125.458 3.97266 126.069 3.97266C127.434 3.97266 128.494 4.28467 129.248 4.90871C130.002 5.51974 130.379 6.5143 130.379 7.89237V14.0742H128.507V12.5531H128.468C128.051 13.1642 127.518 13.5997 126.868 13.8597C126.231 14.1067 125.601 14.2302 124.977 14.2302ZM125.425 12.6701C125.88 12.6701 126.296 12.5986 126.673 12.4556C127.063 12.3126 127.395 12.1176 127.668 11.8706C127.941 11.6106 128.156 11.3116 128.312 10.9735C128.468 10.6355 128.546 10.278 128.546 9.90098V9.27695H126.79C126.179 9.27695 125.666 9.32245 125.25 9.41345C124.847 9.50446 124.515 9.63447 124.255 9.80348C123.995 9.97249 123.807 10.1675 123.69 10.3885C123.586 10.6095 123.534 10.8565 123.534 11.1295C123.534 11.6236 123.703 12.0071 124.041 12.2801C124.379 12.5401 124.84 12.6701 125.425 12.6701Z" fill="#232431"/>
<path d="M134.564 10.174C134.057 9.93998 133.634 9.58246 133.296 9.10144C132.958 8.62041 132.789 8.02888 132.789 7.32684C132.789 6.35179 133.095 5.57824 133.706 5.00621C134.317 4.42118 135.259 4.12866 136.534 4.12866H140.98V14.0742H139.147V10.525H136.378L134.427 14.0742H132.263L134.564 10.174ZM139.147 9.04293V5.61075H136.534C135.896 5.61075 135.422 5.76675 135.11 6.07877C134.811 6.39079 134.661 6.81331 134.661 7.34634C134.661 7.86637 134.817 8.28239 135.129 8.59441C135.441 8.89343 135.909 9.04293 136.534 9.04293H139.147Z" fill="#232431"/>
<path d="M153.013 14.2302C152.246 14.2302 151.55 14.1067 150.926 13.8597C150.315 13.6127 149.795 13.2682 149.366 12.8261C148.937 12.3711 148.605 11.8316 148.371 11.2076C148.15 10.5705 148.04 9.86848 148.04 9.10144C148.04 8.33439 148.157 7.63886 148.391 7.01482C148.625 6.37779 148.956 5.83826 149.386 5.39623C149.828 4.94121 150.354 4.59019 150.965 4.34318C151.576 4.09616 152.265 3.97266 153.032 3.97266C153.422 3.97266 153.767 3.99216 154.066 4.03116C154.378 4.07016 154.644 4.11566 154.865 4.16767C155.112 4.21967 155.327 4.28467 155.509 4.36268V5.94226C155.314 5.85126 155.099 5.77325 154.865 5.70825C154.657 5.64325 154.417 5.58474 154.144 5.53274C153.871 5.48074 153.565 5.45474 153.227 5.45474C152.187 5.45474 151.388 5.77326 150.829 6.41029C150.27 7.03432 149.99 7.93137 149.99 9.10144C149.99 10.2715 150.27 11.1751 150.829 11.8121C151.388 12.4361 152.181 12.7481 153.208 12.7481C153.546 12.7481 153.851 12.7221 154.124 12.6701C154.41 12.6181 154.657 12.5596 154.865 12.4946C155.099 12.4296 155.314 12.3451 155.509 12.2411V13.8402C155.314 13.9182 155.093 13.9832 154.846 14.0352C154.625 14.0872 154.358 14.1327 154.046 14.1717C153.734 14.2107 153.39 14.2302 153.013 14.2302Z" fill="#232431"/>
<path d="M158.168 4.12866H160.001V11.9291H160.04L164.603 4.12866H166.924V14.0742H165.091V6.27378H165.052L160.488 14.0742H158.168V4.12866Z" fill="#232431"/>
<path d="M174.475 14.2302C173.708 14.2302 173.013 14.1067 172.389 13.8597C171.778 13.6127 171.258 13.2682 170.829 12.8261C170.4 12.3711 170.068 11.8316 169.834 11.2076C169.613 10.5705 169.503 9.86848 169.503 9.10144C169.503 8.33439 169.62 7.63886 169.854 7.01482C170.088 6.37779 170.419 5.83826 170.848 5.39623C171.29 4.94121 171.817 4.59019 172.428 4.34318C173.039 4.09616 173.728 3.97266 174.495 3.97266C174.885 3.97266 175.229 3.99216 175.528 4.03116C175.84 4.07016 176.107 4.11566 176.328 4.16767C176.575 4.21967 176.789 4.28467 176.971 4.36268V5.94226C176.776 5.85126 176.562 5.77325 176.328 5.70825C176.12 5.64325 175.879 5.58474 175.606 5.53274C175.333 5.48074 175.028 5.45474 174.69 5.45474C173.65 5.45474 172.85 5.77326 172.291 6.41029C171.732 7.03432 171.453 7.93137 171.453 9.10144C171.453 10.2715 171.732 11.1751 172.291 11.8121C172.85 12.4361 173.643 12.7481 174.67 12.7481C175.008 12.7481 175.314 12.7221 175.587 12.6701C175.873 12.6181 176.12 12.5596 176.328 12.4946C176.562 12.4296 176.776 12.3451 176.971 12.2411V13.8402C176.776 13.9182 176.555 13.9832 176.308 14.0352C176.087 14.0872 175.821 14.1327 175.509 14.1717C175.197 14.2107 174.852 14.2302 174.475 14.2302Z" fill="#232431"/>
<path d="M181.776 5.61075H178.304V4.12866H187.08V5.61075H183.609V14.0742H181.776V5.61075Z" fill="#232431"/>
<path d="M189.943 9.51096C190.047 10.538 190.398 11.3311 190.996 11.8901C191.594 12.4361 192.4 12.7091 193.414 12.7091C194.012 12.7091 194.597 12.6376 195.169 12.4946C195.754 12.3386 196.235 12.1501 196.612 11.9291V13.7232C196.3 13.8272 195.871 13.9377 195.325 14.0547C194.779 14.1717 194.103 14.2302 193.297 14.2302C191.607 14.2302 190.307 13.7622 189.397 12.8261C188.5 11.8901 188.051 10.59 188.051 8.92593C188.051 8.17189 188.168 7.48935 188.402 6.87832C188.65 6.26728 188.981 5.74725 189.397 5.31823C189.826 4.88921 190.327 4.55769 190.899 4.32368C191.471 4.08966 192.088 3.97266 192.751 3.97266C194.168 3.97266 195.28 4.38868 196.086 5.22072C196.892 6.05277 197.295 7.31384 197.295 9.00393V9.51096H189.943ZM192.732 5.45474C191.965 5.45474 191.334 5.70175 190.84 6.19578C190.359 6.6768 190.06 7.32684 189.943 8.14588H195.345C195.345 7.28784 195.098 6.6248 194.604 6.15678C194.11 5.68875 193.486 5.45474 192.732 5.45474Z" fill="#232431"/>
<path d="M199.931 4.12866H202.759L205.47 9.80348L208.18 4.12866H210.93V14.0742H209.097V5.88376H209.058L206.347 11.5391H204.514L201.804 5.88376H201.765V14.0742H199.931V4.12866Z" fill="#232431"/>
<path d="M216.731 14.2302C215.691 14.2302 214.865 13.9702 214.254 13.4502C213.643 12.9171 213.338 12.1826 213.338 11.2466C213.338 10.1545 213.754 9.32245 214.586 8.75042C215.431 8.16539 216.725 7.87287 218.467 7.87287H220.3V7.54135C220.3 6.82631 220.053 6.30628 219.559 5.98127C219.065 5.65625 218.408 5.49374 217.589 5.49374C217.056 5.49374 216.517 5.55874 215.971 5.68875C215.424 5.80576 214.852 6.02677 214.254 6.35179V4.63569C214.748 4.41468 215.314 4.25217 215.951 4.14817C216.588 4.03116 217.212 3.97266 217.823 3.97266C219.188 3.97266 220.248 4.28467 221.002 4.90871C221.756 5.51974 222.133 6.5143 222.133 7.89237V14.0742H220.261V12.5531H220.222C219.806 13.1642 219.273 13.5997 218.623 13.8597C217.986 14.1067 217.355 14.2302 216.731 14.2302ZM217.18 12.6701C217.635 12.6701 218.051 12.5986 218.428 12.4556C218.818 12.3126 219.149 12.1176 219.422 11.8706C219.695 11.6106 219.91 11.3116 220.066 10.9735C220.222 10.6355 220.3 10.278 220.3 9.90098V9.27695H218.545C217.934 9.27695 217.42 9.32245 217.004 9.41345C216.601 9.50446 216.27 9.63447 216.01 9.80348C215.749 9.97249 215.561 10.1675 215.444 10.3885C215.34 10.6095 215.288 10.8565 215.288 11.1295C215.288 11.6236 215.457 12.0071 215.795 12.2801C216.133 12.5401 216.595 12.6701 217.18 12.6701Z" fill="#232431"/>
<path d="M44.7605 22.1297H47.5882L50.2989 27.8045L53.0095 22.1297H55.7592V32.0752H53.9261V23.8847H53.8871L51.1764 29.5401H49.3433L46.6326 23.8847H46.5936V32.0752H44.7605V22.1297Z" fill="#232431"/>
<path d="M63.4322 32.2312C62.6782 32.2312 61.9892 32.1077 61.3651 31.8607C60.7411 31.6137 60.2016 31.2627 59.7465 30.8076C59.3045 30.3526 58.96 29.8131 58.713 29.189C58.466 28.565 58.3425 27.8695 58.3425 27.1024C58.3425 26.3484 58.466 25.6593 58.713 25.0353C58.96 24.3983 59.3045 23.8522 59.7465 23.3972C60.2016 22.9422 60.7411 22.5912 61.3651 22.3442C61.9892 22.0971 62.6782 21.9736 63.4322 21.9736C64.1863 21.9736 64.8753 22.0971 65.4994 22.3442C66.1234 22.5912 66.6564 22.9422 67.0985 23.3972C67.5535 23.8522 67.9045 24.3983 68.1515 25.0353C68.3985 25.6593 68.522 26.3484 68.522 27.1024C68.522 27.8695 68.3985 28.565 68.1515 29.189C67.9045 29.8131 67.5535 30.3526 67.0985 30.8076C66.6564 31.2627 66.1234 31.6137 65.4994 31.8607C64.8753 32.1077 64.1863 32.2312 63.4322 32.2312ZM63.4322 30.7491C63.8613 30.7491 64.2643 30.6646 64.6413 30.4956C65.0313 30.3266 65.3629 30.0861 65.6359 29.7741C65.9219 29.4491 66.1494 29.0655 66.3184 28.6235C66.4874 28.1685 66.5719 27.6615 66.5719 27.1024C66.5719 26.5434 66.4874 26.0429 66.3184 25.6008C66.1494 25.1458 65.9219 24.7623 65.6359 24.4503C65.3499 24.1253 65.0183 23.8782 64.6413 23.7092C64.2643 23.5402 63.8613 23.4557 63.4322 23.4557C63.0032 23.4557 62.5937 23.5402 62.2037 23.7092C61.8267 23.8782 61.4951 24.1253 61.2091 24.4503C60.9361 24.7623 60.7151 25.1458 60.5461 25.6008C60.3771 26.0429 60.2926 26.5434 60.2926 27.1024C60.2926 27.6615 60.3771 28.1685 60.5461 28.6235C60.7151 29.0655 60.9361 29.4491 61.2091 29.7741C61.4951 30.0861 61.8267 30.3266 62.2037 30.4956C62.5937 30.6646 63.0032 30.7491 63.4322 30.7491Z" fill="#232431"/>
<path d="M71.0985 22.1297H72.9316V26.1664H77.9239V22.1297H79.757V32.0752H77.9239V27.6485H72.9316V32.0752H71.0985V22.1297Z" fill="#232431"/>
<path d="M83.001 22.1297H84.8341V29.9301H84.8731L89.4364 22.1297H91.757V32.0752H89.9239V24.2748H89.8849L85.3216 32.0752H83.001V22.1297Z" fill="#232431"/>
<path d="M97.1439 23.6117H93.6727V22.1297H102.448V23.6117H98.977V32.0752H97.1439V23.6117Z" fill="#232431"/>
<path d="M108.51 32.2312C107.755 32.2312 107.066 32.1077 106.442 31.8607C105.818 31.6137 105.279 31.2627 104.824 30.8076C104.382 30.3526 104.037 29.8131 103.79 29.189C103.543 28.565 103.42 27.8695 103.42 27.1024C103.42 26.3484 103.543 25.6593 103.79 25.0353C104.037 24.3983 104.382 23.8522 104.824 23.3972C105.279 22.9422 105.818 22.5912 106.442 22.3442C107.066 22.0971 107.755 21.9736 108.51 21.9736C109.264 21.9736 109.953 22.0971 110.577 22.3442C111.201 22.5912 111.734 22.9422 112.176 23.3972C112.631 23.8522 112.982 24.3983 113.229 25.0353C113.476 25.6593 113.599 26.3484 113.599 27.1024C113.599 27.8695 113.476 28.565 113.229 29.189C112.982 29.8131 112.631 30.3526 112.176 30.8076C111.734 31.2627 111.201 31.6137 110.577 31.8607C109.953 32.1077 109.264 32.2312 108.51 32.2312ZM108.51 30.7491C108.939 30.7491 109.342 30.6646 109.719 30.4956C110.109 30.3266 110.44 30.0861 110.713 29.7741C110.999 29.4491 111.227 29.0655 111.396 28.6235C111.565 28.1685 111.649 27.6615 111.649 27.1024C111.649 26.5434 111.565 26.0429 111.396 25.6008C111.227 25.1458 110.999 24.7623 110.713 24.4503C110.427 24.1253 110.096 23.8782 109.719 23.7092C109.342 23.5402 108.939 23.4557 108.51 23.4557C108.08 23.4557 107.671 23.5402 107.281 23.7092C106.904 23.8782 106.572 24.1253 106.286 24.4503C106.013 24.7623 105.792 25.1458 105.623 25.6008C105.454 26.0429 105.37 26.5434 105.37 27.1024C105.37 27.6615 105.454 28.1685 105.623 28.6235C105.792 29.0655 106.013 29.4491 106.286 29.7741C106.572 30.0861 106.904 30.3266 107.281 30.4956C107.671 30.6646 108.08 30.7491 108.51 30.7491Z" fill="#232431"/>
<path d="M118.009 36.4434H116.176V22.1297H117.931V23.5532H117.97C118.23 23.2022 118.509 22.9227 118.808 22.7147C119.12 22.5067 119.426 22.3507 119.725 22.2467C120.024 22.1297 120.31 22.0581 120.583 22.0321C120.856 21.9931 121.09 21.9736 121.285 21.9736C122.013 21.9736 122.663 22.1036 123.235 22.3637C123.807 22.6107 124.288 22.9617 124.678 23.4167C125.068 23.8717 125.367 24.4113 125.575 25.0353C125.783 25.6463 125.887 26.3094 125.887 27.0244C125.887 27.7265 125.783 28.396 125.575 29.033C125.38 29.6571 125.088 30.2096 124.698 30.6906C124.308 31.1586 123.833 31.5357 123.274 31.8217C122.715 32.0947 122.085 32.2312 121.383 32.2312C120.576 32.2312 119.894 32.0817 119.335 31.7827C118.789 31.4707 118.373 31.1326 118.087 30.7686H118.009V36.4434ZM120.953 30.7491C121.864 30.7491 122.585 30.4111 123.118 29.7351C123.664 29.046 123.937 28.123 123.937 26.9659C123.937 25.8999 123.671 25.0483 123.138 24.4113C122.618 23.7742 121.909 23.4557 121.012 23.4557C120.089 23.4557 119.354 23.7872 118.808 24.4503C118.275 25.1133 118.009 26.0039 118.009 27.1219C118.009 28.227 118.275 29.111 118.808 29.7741C119.341 30.4241 120.056 30.7491 120.953 30.7491Z" fill="#232431"/>
<path d="M128.459 22.1297H130.292V29.9301H130.331L134.895 22.1297H137.215V32.0752H135.382V24.2748H135.343L130.78 32.0752H128.459V22.1297Z" fill="#232431"/>
<path d="M140.457 22.1297H142.29V26.1664H147.282V22.1297H149.115V32.0752H147.282V27.6485H142.29V32.0752H140.457V22.1297Z" fill="#232431"/>
<path d="M152.359 22.1297H158.678V23.6117H154.193V32.0752H152.359V22.1297Z" fill="#232431"/>
<path d="M163.389 32.2312C162.349 32.2312 161.523 31.9712 160.912 31.4512C160.301 30.9181 159.995 30.1836 159.995 29.2475C159.995 28.1555 160.411 27.3234 161.244 26.7514C162.089 26.1664 163.382 25.8739 165.124 25.8739H166.957V25.5423C166.957 24.8273 166.71 24.3073 166.216 23.9823C165.722 23.6572 165.066 23.4947 164.247 23.4947C163.714 23.4947 163.174 23.5597 162.628 23.6897C162.082 23.8067 161.51 24.0278 160.912 24.3528V22.6367C161.406 22.4157 161.972 22.2532 162.609 22.1492C163.246 22.0321 163.87 21.9736 164.481 21.9736C165.846 21.9736 166.905 22.2857 167.659 22.9097C168.413 23.5207 168.79 24.5153 168.79 25.8934V32.0752H166.918V30.5541H166.879C166.463 31.1651 165.93 31.6007 165.28 31.8607C164.643 32.1077 164.013 32.2312 163.389 32.2312ZM163.837 30.6711C164.292 30.6711 164.708 30.5996 165.085 30.4566C165.475 30.3136 165.807 30.1186 166.08 29.8716C166.353 29.6116 166.567 29.3125 166.723 28.9745C166.879 28.6365 166.957 28.279 166.957 27.902V27.2779H165.202C164.591 27.2779 164.078 27.3234 163.662 27.4144C163.259 27.5054 162.927 27.6355 162.667 27.8045C162.407 27.9735 162.219 28.1685 162.102 28.3895C161.998 28.6105 161.946 28.8575 161.946 29.1305C161.946 29.6246 162.115 30.0081 162.453 30.2811C162.791 30.5411 163.252 30.6711 163.837 30.6711Z" fill="#232431"/>
</svg>
