<svg width="246" height="37" viewBox="0 0 246 37" fill="none" xmlns="http://www.w3.org/2000/svg">
<rect width="36" height="36" fill="#5974FF"/>
<path d="M16 23.9995L20 23.9995L20 5.99951L16 5.99951L16 23.9995Z" fill="white"/>
<path d="M12 14.0005H8V24.0005H12V14.0005Z" fill="white"/>
<path d="M28 30.0005L28 26.0005L8 26.0005L8 30.0005L28 30.0005Z" fill="white"/>
<path d="M28 10.0015H24V24.0015H28V10.0015Z" fill="white"/>
<path d="M44 4.05591H46.8276L49.5383 9.73072L52.2489 4.05591H54.9986V14.0015H53.1655V5.81101H53.1265L50.4158 11.4663H48.5827L45.8721 5.81101H45.8331V14.0015H44V4.05591Z" fill="#232431"/>
<path d="M62.6716 14.1575C61.9176 14.1575 61.2285 14.034 60.6045 13.7869C59.9805 13.5399 59.4409 13.1889 58.9859 12.7339C58.5439 12.2789 58.1994 11.7393 57.9524 11.1153C57.7053 10.4913 57.5818 9.79573 57.5818 9.02868C57.5818 8.27464 57.7053 7.58561 57.9524 6.96157C58.1994 6.32454 58.5439 5.77851 58.9859 5.32348C59.4409 4.86846 59.9805 4.51744 60.6045 4.27042C61.2285 4.02341 61.9176 3.8999 62.6716 3.8999C63.4256 3.8999 64.1147 4.02341 64.7387 4.27042C65.3627 4.51744 65.8958 4.86846 66.3378 5.32348C66.7928 5.77851 67.1438 6.32454 67.3908 6.96157C67.6378 7.58561 67.7614 8.27464 67.7614 9.02868C67.7614 9.79573 67.6378 10.4913 67.3908 11.1153C67.1438 11.7393 66.7928 12.2789 66.3378 12.7339C65.8958 13.1889 65.3627 13.5399 64.7387 13.7869C64.1147 14.034 63.4256 14.1575 62.6716 14.1575ZM62.6716 12.6754C63.1006 12.6754 63.5036 12.5909 63.8807 12.4219C64.2707 12.2529 64.6022 12.0123 64.8752 11.7003C65.1612 11.3753 65.3887 10.9918 65.5577 10.5498C65.7267 10.0947 65.8113 9.58771 65.8113 9.02868C65.8113 8.46965 65.7267 7.96913 65.5577 7.5271C65.3887 7.07208 65.1612 6.68856 64.8752 6.37654C64.5892 6.05152 64.2577 5.80451 63.8807 5.6355C63.5036 5.46649 63.1006 5.38198 62.6716 5.38198C62.2426 5.38198 61.833 5.46649 61.443 5.6355C61.066 5.80451 60.7345 6.05152 60.4485 6.37654C60.1755 6.68856 59.9545 7.07208 59.7854 7.5271C59.6164 7.96913 59.5319 8.46965 59.5319 9.02868C59.5319 9.58771 59.6164 10.0947 59.7854 10.5498C59.9545 10.9918 60.1755 11.3753 60.4485 11.7003C60.7345 12.0123 61.066 12.2529 61.443 12.4219C61.833 12.5909 62.2426 12.6754 62.6716 12.6754Z" fill="#232431"/>
<path d="M70.3378 4.05591H72.1709V8.09263H77.1631V4.05591H78.9962V14.0015H77.1631V9.57471H72.1709V14.0015H70.3378V4.05591Z" fill="#232431"/>
<path d="M82.2402 4.05591H84.0733V11.8563H84.1123L88.6756 4.05591H90.9962V14.0015H89.1631V6.20103H89.1241L84.5608 14.0015H82.2402V4.05591Z" fill="#232431"/>
<path d="M96.383 5.53799H92.9118V4.05591H101.687V5.53799H98.2161V14.0015H96.383V5.53799Z" fill="#232431"/>
<path d="M107.749 14.1575C106.995 14.1575 106.306 14.034 105.681 13.7869C105.057 13.5399 104.518 13.1889 104.063 12.7339C103.621 12.2789 103.276 11.7393 103.029 11.1153C102.782 10.4913 102.659 9.79573 102.659 9.02868C102.659 8.27464 102.782 7.58561 103.029 6.96157C103.276 6.32454 103.621 5.77851 104.063 5.32348C104.518 4.86846 105.057 4.51744 105.681 4.27042C106.306 4.02341 106.995 3.8999 107.749 3.8999C108.503 3.8999 109.192 4.02341 109.816 4.27042C110.44 4.51744 110.973 4.86846 111.415 5.32348C111.87 5.77851 112.221 6.32454 112.468 6.96157C112.715 7.58561 112.838 8.27464 112.838 9.02868C112.838 9.79573 112.715 10.4913 112.468 11.1153C112.221 11.7393 111.87 12.2789 111.415 12.7339C110.973 13.1889 110.44 13.5399 109.816 13.7869C109.192 14.034 108.503 14.1575 107.749 14.1575ZM107.749 12.6754C108.178 12.6754 108.581 12.5909 108.958 12.4219C109.348 12.2529 109.679 12.0123 109.952 11.7003C110.238 11.3753 110.466 10.9918 110.635 10.5498C110.804 10.0947 110.888 9.58771 110.888 9.02868C110.888 8.46965 110.804 7.96913 110.635 7.5271C110.466 7.07208 110.238 6.68856 109.952 6.37654C109.666 6.05152 109.335 5.80451 108.958 5.6355C108.581 5.46649 108.178 5.38198 107.749 5.38198C107.32 5.38198 106.91 5.46649 106.52 5.6355C106.143 5.80451 105.811 6.05152 105.525 6.37654C105.252 6.68856 105.031 7.07208 104.862 7.5271C104.693 7.96913 104.609 8.46965 104.609 9.02868C104.609 9.58771 104.693 10.0947 104.862 10.5498C105.031 10.9918 105.252 11.3753 105.525 11.7003C105.811 12.0123 106.143 12.2529 106.52 12.4219C106.91 12.5909 107.32 12.6754 107.749 12.6754Z" fill="#232431"/>
<path d="M117.248 18.3697H115.415V4.05591H117.17V5.47949H117.209C117.469 5.12847 117.748 4.84895 118.047 4.64094C118.359 4.43293 118.665 4.27692 118.964 4.17292C119.263 4.05591 119.549 3.98441 119.822 3.9584C120.095 3.9194 120.329 3.8999 120.524 3.8999C121.252 3.8999 121.902 4.02991 122.474 4.28992C123.046 4.53694 123.527 4.88796 123.917 5.34298C124.307 5.79801 124.606 6.33754 124.814 6.96157C125.022 7.5726 125.126 8.23564 125.126 8.95068C125.126 9.65272 125.022 10.3223 124.814 10.9593C124.619 11.5833 124.327 12.1359 123.937 12.6169C123.547 13.0849 123.072 13.4619 122.513 13.7479C121.954 14.021 121.324 14.1575 120.622 14.1575C119.815 14.1575 119.133 14.008 118.574 13.7089C118.028 13.3969 117.612 13.0589 117.326 12.6949H117.248V18.3697ZM120.193 12.6754C121.103 12.6754 121.824 12.3374 122.357 11.6613C122.903 10.9723 123.176 10.0492 123.176 8.89218C123.176 7.82612 122.91 6.97457 122.377 6.33754C121.857 5.7005 121.148 5.38198 120.251 5.38198C119.328 5.38198 118.593 5.7135 118.047 6.37654C117.514 7.03958 117.248 7.93012 117.248 9.04819C117.248 10.1532 117.514 11.0373 118.047 11.7003C118.58 12.3504 119.295 12.6754 120.193 12.6754Z" fill="#232431"/>
<path d="M127.698 4.05591H129.531V11.8563H129.57L134.133 4.05591H136.454V14.0015H134.621V6.20103H134.582L130.019 14.0015H127.698V4.05591Z" fill="#232431"/>
<path d="M139.696 4.05591H141.529V8.09263H146.521V4.05591H148.354V14.0015H146.521V9.57471H141.529V14.0015H139.696V4.05591Z" fill="#232431"/>
<path d="M151.598 4.05591H157.917V5.53799H153.431V14.0015H151.598V4.05591Z" fill="#232431"/>
<path d="M45.8331 36.3707H44V22.0569H45.7551V23.4805H45.7941C46.0541 23.1295 46.3336 22.8499 46.6326 22.6419C46.9447 22.4339 47.2502 22.2779 47.5492 22.1739C47.8482 22.0569 48.1342 21.9854 48.4072 21.9594C48.6802 21.9204 48.9143 21.9009 49.1093 21.9009C49.8373 21.9009 50.4873 22.0309 51.0594 22.2909C51.6314 22.5379 52.1124 22.8889 52.5024 23.344C52.8925 23.799 53.1915 24.3385 53.3995 24.9626C53.6075 25.5736 53.7115 26.2366 53.7115 26.9517C53.7115 27.6537 53.6075 28.3232 53.3995 28.9603C53.2045 29.5843 52.912 30.1368 52.5219 30.6179C52.1319 31.0859 51.6574 31.4629 51.0984 31.7489C50.5393 32.0219 49.9088 32.1585 49.2068 32.1585C48.4007 32.1585 47.7182 32.0089 47.1592 31.7099C46.6131 31.3979 46.1971 31.0599 45.9111 30.6959H45.8331V36.3707ZM48.7777 30.6764C49.6878 30.6764 50.4093 30.3384 50.9424 29.6623C51.4884 28.9733 51.7614 28.0502 51.7614 26.8932C51.7614 25.8271 51.4949 24.9756 50.9619 24.3385C50.4418 23.7015 49.7333 23.383 48.8362 23.383C47.9132 23.383 47.1787 23.7145 46.6326 24.3775C46.0996 25.0406 45.8331 25.9311 45.8331 27.0492C45.8331 28.1542 46.0996 29.0383 46.6326 29.7013C47.1657 30.3514 47.8807 30.6764 48.7777 30.6764Z" fill="#232431"/>
<path d="M58.7428 32.1585C57.7027 32.1585 56.8772 31.8984 56.2661 31.3784C55.6551 30.8454 55.3496 30.1108 55.3496 29.1748C55.3496 28.0827 55.7656 27.2507 56.5976 26.6787C57.4427 26.0936 58.7363 25.8011 60.4783 25.8011H62.3114V25.4696C62.3114 24.7545 62.0644 24.2345 61.5704 23.9095C61.0764 23.5845 60.4198 23.422 59.6008 23.422C59.0678 23.422 58.5282 23.487 57.9822 23.617C57.4362 23.734 56.8642 23.955 56.2661 24.28V22.5639C56.7601 22.3429 57.3257 22.1804 57.9627 22.0764C58.5997 21.9594 59.2238 21.9009 59.8348 21.9009C61.1999 21.9009 62.2594 22.2129 63.0135 22.8369C63.7675 23.448 64.1445 24.4425 64.1445 25.8206V32.0024H62.2724V30.4814H62.2334C61.8174 31.0924 61.2844 31.5279 60.6343 31.7879C59.9973 32.0349 59.3668 32.1585 58.7428 32.1585ZM59.1913 30.5984C59.6463 30.5984 60.0623 30.5269 60.4393 30.3839C60.8294 30.2409 61.1609 30.0458 61.4339 29.7988C61.7069 29.5388 61.9214 29.2398 62.0774 28.9018C62.2334 28.5638 62.3114 28.2062 62.3114 27.8292V27.2052H60.5563C59.9453 27.2052 59.4318 27.2507 59.0158 27.3417C58.6127 27.4327 58.2812 27.5627 58.0212 27.7317C57.7612 27.9007 57.5727 28.0957 57.4557 28.3167C57.3517 28.5378 57.2997 28.7848 57.2997 29.0578C57.2997 29.5518 57.4687 29.9353 57.8067 30.2083C58.1447 30.4684 58.6062 30.5984 59.1913 30.5984Z" fill="#232431"/>
<path d="M71.5864 32.1585C70.6244 32.1585 69.8118 31.9829 69.1488 31.6319C68.4988 31.2679 67.9658 30.7609 67.5497 30.1108C67.1467 29.4478 66.8542 28.6548 66.6722 27.7317C66.4902 26.8087 66.3992 25.7816 66.3992 24.6505C66.3992 23.7535 66.4772 22.9214 66.6332 22.1544C66.7892 21.3744 67.0427 20.6723 67.3937 20.0483C67.7577 19.4243 68.2258 18.8977 68.7978 18.4687C69.3828 18.0267 70.0979 17.6952 70.9429 17.4741C71.4109 17.3571 71.8335 17.2856 72.2105 17.2596C72.5875 17.2206 72.9515 17.1946 73.3025 17.1816C73.6665 17.1686 74.0371 17.1491 74.4141 17.1231C74.8041 17.0841 75.2331 17.0061 75.7011 16.8891V18.5077C75.0121 18.6897 74.3491 18.7807 73.712 18.7807C73.075 18.7807 72.4315 18.8327 71.7814 18.9367C70.5204 19.1577 69.6038 19.6648 69.0318 20.4578C68.4728 21.2379 68.1673 22.2389 68.1153 23.461L68.0958 23.9485H68.1933C68.5703 23.3245 69.0773 22.8304 69.7143 22.4664C70.3644 22.0894 71.1054 21.9009 71.9375 21.9009C72.6395 21.9009 73.2765 22.0309 73.8486 22.2909C74.4206 22.5379 74.9081 22.8889 75.3111 23.344C75.7141 23.786 76.0262 24.3255 76.2472 24.9626C76.4682 25.5866 76.5787 26.2756 76.5787 27.0297C76.5787 27.7707 76.4552 28.4598 76.2082 29.0968C75.9742 29.7208 75.6361 30.2604 75.1941 30.7154C74.7521 31.1704 74.2256 31.5279 73.6145 31.7879C73.0035 32.0349 72.3275 32.1585 71.5864 32.1585ZM71.5864 30.6764C72.0545 30.6764 72.4705 30.5789 72.8345 30.3839C73.2115 30.1888 73.53 29.9288 73.7901 29.6038C74.0631 29.2658 74.2711 28.8758 74.4141 28.4338C74.5571 27.9917 74.6286 27.5237 74.6286 27.0297C74.6286 26.5486 74.5571 26.0871 74.4141 25.6451C74.2841 25.2031 74.0891 24.8131 73.8291 24.475C73.569 24.137 73.2505 23.8705 72.8735 23.6755C72.4965 23.4805 72.0675 23.383 71.5864 23.383C71.1054 23.383 70.6764 23.4805 70.2994 23.6755C69.9224 23.8705 69.5973 24.137 69.3243 24.475C69.0643 24.8131 68.8628 25.2031 68.7198 25.6451C68.5898 26.0871 68.5248 26.5486 68.5248 27.0297C68.5248 27.5367 68.5963 28.0177 68.7393 28.4728C68.8953 28.9148 69.1033 29.2983 69.3633 29.6233C69.6363 29.9483 69.9614 30.2083 70.3384 30.4034C70.7154 30.5854 71.1314 30.6764 71.5864 30.6764Z" fill="#232431"/>
<path d="M83.5818 32.1585C82.8278 32.1585 82.1388 32.0349 81.5147 31.7879C80.8907 31.5409 80.3512 31.1899 79.8961 30.7349C79.4541 30.2799 79.1096 29.7403 78.8626 29.1163C78.6156 28.4923 78.4921 27.7967 78.4921 27.0297C78.4921 26.2756 78.6156 25.5866 78.8626 24.9626C79.1096 24.3255 79.4541 23.7795 79.8961 23.3245C80.3512 22.8694 80.8907 22.5184 81.5147 22.2714C82.1388 22.0244 82.8278 21.9009 83.5818 21.9009C84.3359 21.9009 85.0249 22.0244 85.6489 22.2714C86.273 22.5184 86.806 22.8694 87.248 23.3245C87.703 23.7795 88.0541 24.3255 88.3011 24.9626C88.5481 25.5866 88.6716 26.2756 88.6716 27.0297C88.6716 27.7967 88.5481 28.4923 88.3011 29.1163C88.0541 29.7403 87.703 30.2799 87.248 30.7349C86.806 31.1899 86.273 31.5409 85.6489 31.7879C85.0249 32.0349 84.3359 32.1585 83.5818 32.1585ZM83.5818 30.6764C84.0109 30.6764 84.4139 30.5919 84.7909 30.4229C85.1809 30.2539 85.5124 30.0133 85.7854 29.7013C86.0715 29.3763 86.299 28.9928 86.468 28.5508C86.637 28.0957 86.7215 27.5887 86.7215 27.0297C86.7215 26.4706 86.637 25.9701 86.468 25.5281C86.299 25.0731 86.0715 24.6895 85.7854 24.3775C85.4994 24.0525 85.1679 23.8055 84.7909 23.6365C84.4139 23.4675 84.0109 23.383 83.5818 23.383C83.1528 23.383 82.7433 23.4675 82.3533 23.6365C81.9763 23.8055 81.6447 24.0525 81.3587 24.3775C81.0857 24.6895 80.8647 25.0731 80.6957 25.5281C80.5267 25.9701 80.4422 26.4706 80.4422 27.0297C80.4422 27.5887 80.5267 28.0957 80.6957 28.5508C80.8647 28.9928 81.0857 29.3763 81.3587 29.7013C81.6447 30.0133 81.9763 30.2539 82.3533 30.4229C82.7433 30.5919 83.1528 30.6764 83.5818 30.6764Z" fill="#232431"/>
<path d="M97.1958 28.1607C96.8968 28.2257 96.5068 28.2907 96.0258 28.3557C95.5447 28.4077 95.0442 28.4338 94.5242 28.4338C93.3671 28.4338 92.4441 28.1997 91.755 27.7317C91.079 27.2637 90.741 26.5291 90.741 25.5281V22.0569H92.5741V24.9821C92.5741 25.3591 92.6066 25.6776 92.6716 25.9376C92.7496 26.1846 92.8796 26.3861 93.0616 26.5421C93.2436 26.6852 93.4841 26.7892 93.7831 26.8542C94.0952 26.9192 94.4852 26.9517 94.9532 26.9517C95.7462 26.9517 96.4938 26.8932 97.1958 26.7762V22.0569H99.0289V32.0024H97.1958V28.1607Z" fill="#232431"/>
<path d="M102.274 22.0569H104.108V29.8573H104.147L108.71 22.0569H111.03V32.0024H109.197V24.202H109.158L104.595 32.0024H102.274V22.0569Z" fill="#232431"/>
<path d="M116.807 26.7957L113.297 22.0569H115.579L118.036 25.7426L120.532 22.0569H122.58L119.108 26.7957L122.794 32.0024H120.532L117.88 28.0242L115.228 32.0024H113.044L116.807 26.7957Z" fill="#232431"/>
<path d="M133.608 32.1585C132.84 32.1585 132.145 32.0349 131.521 31.7879C130.91 31.5409 130.39 31.1964 129.961 30.7544C129.532 30.2994 129.2 29.7598 128.966 29.1358C128.745 28.4988 128.635 27.7967 128.635 27.0297C128.635 26.2626 128.752 25.5671 128.986 24.9431C129.22 24.306 129.551 23.7665 129.98 23.3245C130.422 22.8694 130.949 22.5184 131.56 22.2714C132.171 22.0244 132.86 21.9009 133.627 21.9009C134.017 21.9009 134.362 21.9204 134.661 21.9594C134.973 21.9984 135.239 22.0439 135.46 22.0959C135.707 22.1479 135.922 22.2129 136.104 22.2909V23.8705C135.909 23.7795 135.694 23.7015 135.46 23.6365C135.252 23.5715 135.012 23.513 134.739 23.461C134.466 23.409 134.16 23.383 133.822 23.383C132.782 23.383 131.982 23.7015 131.423 24.3385C130.864 24.9626 130.585 25.8596 130.585 27.0297C130.585 28.1997 130.864 29.1033 131.423 29.7403C131.982 30.3644 132.775 30.6764 133.803 30.6764C134.141 30.6764 134.446 30.6504 134.719 30.5984C135.005 30.5464 135.252 30.4879 135.46 30.4229C135.694 30.3579 135.909 30.2734 136.104 30.1693V31.7684C135.909 31.8464 135.688 31.9114 135.441 31.9634C135.22 32.0154 134.953 32.0609 134.641 32.1C134.329 32.139 133.985 32.1585 133.608 32.1585Z" fill="#232431"/>
<path d="M140.908 23.539H137.437V22.0569H146.212V23.539H142.741V32.0024H140.908V23.539Z" fill="#232431"/>
<path d="M150.687 32.1585C149.647 32.1585 148.821 31.8984 148.21 31.3784C147.599 30.8454 147.294 30.1108 147.294 29.1748C147.294 28.0827 147.71 27.2507 148.542 26.6787C149.387 26.0936 150.68 25.8011 152.422 25.8011H154.256V25.4696C154.256 24.7545 154.009 24.2345 153.515 23.9095C153.021 23.5845 152.364 23.422 151.545 23.422C151.012 23.422 150.472 23.487 149.926 23.617C149.38 23.734 148.808 23.955 148.21 24.28V22.5639C148.704 22.3429 149.27 22.1804 149.907 22.0764C150.544 21.9594 151.168 21.9009 151.779 21.9009C153.144 21.9009 154.204 22.2129 154.958 22.8369C155.712 23.448 156.089 24.4425 156.089 25.8206V32.0024H154.217V30.4814H154.178C153.762 31.0924 153.229 31.5279 152.578 31.7879C151.941 32.0349 151.311 32.1585 150.687 32.1585ZM151.135 30.5984C151.59 30.5984 152.006 30.5269 152.383 30.3839C152.773 30.2409 153.105 30.0458 153.378 29.7988C153.651 29.5388 153.866 29.2398 154.022 28.9018C154.178 28.5638 154.256 28.2062 154.256 27.8292V27.2052H152.5C151.889 27.2052 151.376 27.2507 150.96 27.3417C150.557 27.4327 150.225 27.5627 149.965 27.7317C149.705 27.9007 149.517 28.0957 149.4 28.3167C149.296 28.5378 149.244 28.7848 149.244 29.0578C149.244 29.5518 149.413 29.9353 149.751 30.2083C150.089 30.4684 150.55 30.5984 151.135 30.5984Z" fill="#232431"/>
<path d="M159.006 22.0569H160.839V26.0936H165.832V22.0569H167.665V32.0024H165.832V27.5757H160.839V32.0024H159.006V22.0569Z" fill="#232431"/>
<path d="M178.885 32.0024H170.909V22.0569H172.742V30.5204H177.364V22.0569H179.197V30.5204H180.64V34.8106H178.885V32.0024Z" fill="#232431"/>
<path d="M182.602 22.0569H184.435V29.8573H184.474L189.037 22.0569H191.358V32.0024H189.525V24.202H189.486L184.922 32.0024H182.602V22.0569Z" fill="#232431"/>
<path d="M194.599 22.0569H196.433V29.8573H196.472L201.035 22.0569H203.355V32.0024H201.522V24.202H201.483L196.92 32.0024H194.599V22.0569ZM199.046 19.9898C198.63 19.9898 198.24 19.9378 197.876 19.8338C197.512 19.7298 197.193 19.5673 196.92 19.3463C196.647 19.1252 196.42 18.8522 196.238 18.5272C196.069 18.1892 195.978 17.7927 195.965 17.3376H197.349C197.414 17.7667 197.596 18.0982 197.895 18.3322C198.207 18.5532 198.591 18.6637 199.046 18.6637C199.501 18.6637 199.871 18.5532 200.157 18.3322C200.443 18.0982 200.619 17.7667 200.684 17.3376H202.01C201.971 18.2477 201.672 18.9172 201.113 19.3463C200.554 19.7753 199.865 19.9898 199.046 19.9898Z" fill="#232431"/>
</svg>
