<svg width="246" height="36" viewBox="0 0 246 36" fill="none" xmlns="http://www.w3.org/2000/svg">
<rect width="36" height="36" fill="#2AB7C1"/>
<path d="M20 4H16V16H20V4Z" fill="white"/>
<path d="M32 20L32 16L20 16L20 20L32 20Z" fill="white"/>
<path d="M20 20H16V32H20V20Z" fill="white"/>
<path d="M16 20L16 16L4 16L4 20L16 20Z" fill="white"/>
<path d="M44 22.0002H45.833V17.5542H47.666L50.903 22.0002H53.1845L49.3235 16.7742L52.7165 12.0552H50.5715L47.6855 16.0722H45.833V12.0552H44V22.0002Z" fill="#232431"/>
<path d="M59.2619 22.1562C62.2649 22.1562 64.3514 20.0697 64.3514 17.0277C64.3514 13.9857 62.2649 11.8992 59.2619 11.8992C56.2589 11.8992 54.1724 13.9857 54.1724 17.0277C54.1724 20.0697 56.2589 22.1562 59.2619 22.1562ZM59.2619 20.6742C57.5459 20.6742 56.1224 19.2507 56.1224 17.0277C56.1224 14.8047 57.5459 13.3812 59.2619 13.3812C60.9584 13.3812 62.4014 14.8047 62.4014 17.0277C62.4014 19.2507 60.9779 20.6742 59.2619 20.6742Z" fill="#232431"/>
<path d="M66.9277 22.0002H68.7607V17.5737H73.7527V22.0002H75.5857V12.0552H73.7527V16.0917H68.7607V12.0552H66.9277V22.0002Z" fill="#232431"/>
<path d="M83.1976 22.1562H83.9971V26.3877H85.8301V22.1562H86.6296C89.5351 22.1562 91.6606 20.1672 91.6606 16.9497C91.6606 13.5762 89.7106 11.8992 86.7856 11.8992C86.4541 11.8992 86.1421 11.9187 85.8301 11.9772V7.18018H83.9971V11.9577C83.6656 11.9382 83.3731 11.8992 83.0806 11.8992C80.2141 11.8992 78.1666 13.7907 78.1666 17.0082C78.1666 20.3817 80.2726 22.1562 83.1976 22.1562ZM86.6296 13.3227C88.4821 13.3227 89.7106 14.3562 89.7106 16.8912C89.7106 19.6212 88.3846 20.7327 86.3566 20.7327H85.8301V13.4007C86.0641 13.3617 86.3176 13.3227 86.6296 13.3227ZM80.1166 17.0667C80.1166 14.3367 81.5206 13.3227 83.2366 13.3227C83.4901 13.3227 83.7436 13.3422 83.9971 13.3812V20.7327H83.4706C81.4426 20.7327 80.1166 19.6017 80.1166 17.0667Z" fill="#232431"/>
<path d="M94.2353 22.0002H96.5558L101.119 14.2002H101.158V22.0002H102.991V12.0552H100.67L96.1073 19.8552H96.0683V12.0552H94.2353V22.0002Z" fill="#232431"/>
<path d="M106.232 22.0002H108.065V13.5372H112.55V12.0552H106.232V22.0002Z" fill="#232431"/>
<path d="M115.638 26.3682C117.783 26.3682 118.387 25.2957 119.557 22.3902L123.691 12.0552H121.839L118.758 20.2062H118.621L115.599 12.0552H113.59L117.666 22.4877L117.49 22.9752C117.042 24.1842 116.652 24.8277 115.521 24.8277C115.15 24.8277 114.799 24.7692 114.799 24.7692V26.2707C114.799 26.2707 115.131 26.3682 115.638 26.3682Z" fill="#232431"/>
<path d="M127.451 20.6937H127.529C128.095 21.4152 129.226 22.1562 130.825 22.1562C133.652 22.1562 135.329 19.7772 135.329 16.9497C135.329 14.0637 133.652 11.8992 130.727 11.8992C129.947 11.8992 128.465 12.0747 127.412 13.4787H127.373V12.0552H125.618V26.3682H127.451V20.6937ZM130.396 20.6742C128.602 20.6742 127.451 19.2507 127.451 17.0472C127.451 14.8242 128.621 13.3812 130.454 13.3812C132.229 13.3812 133.379 14.7657 133.379 16.8912C133.379 19.1922 132.209 20.6742 130.396 20.6742Z" fill="#232431"/>
<path d="M140.36 22.1562C141.608 22.1562 143.012 21.7077 143.851 20.4792H143.89V22.0002H145.762V15.8187C145.762 13.0692 144.163 11.8992 141.452 11.8992C140.243 11.8992 138.878 12.1332 137.884 12.5622V14.2782C139.073 13.6347 140.165 13.4202 141.218 13.4202C142.856 13.4202 143.929 14.0442 143.929 15.4677V15.7992H142.096C138.625 15.7992 136.967 17.0082 136.967 19.1727C136.967 21.0252 138.293 22.1562 140.36 22.1562ZM140.809 20.5962C139.639 20.5962 138.917 20.0502 138.917 19.0557C138.917 17.9832 139.756 17.2032 142.174 17.2032H143.929V17.8272C143.929 19.3482 142.622 20.5962 140.809 20.5962Z" fill="#232431"/>
<path d="M156.655 24.8082H158.41V20.5182H156.967V12.0552H155.134V20.5182H150.512V12.0552H148.679V22.0002H156.655V24.8082Z" fill="#232431"/>
<path d="M160.372 22.0002H162.692L167.255 14.2002H167.294V22.0002H169.127V12.0552H166.807L162.244 19.8552H162.205V12.0552H160.372V22.0002Z" fill="#232431"/>
<path d="M172.369 22.0002H174.689L179.252 14.2002H179.291V22.0002H181.124V12.0552H178.804L174.241 19.8552H174.202V12.0552H172.369V22.0002Z" fill="#232431"/>
</svg>
