<svg width="246" height="37" viewBox="0 0 246 37" fill="none" xmlns="http://www.w3.org/2000/svg">
<rect width="35.9957" height="35.9957" fill="#2AB7C1"/>
<path d="M29.9966 12.3188H25.9971L21.9976 24.6374H25.9971L29.9966 12.3188Z" fill="white"/>
<path d="M23.9974 10.2649L23.9974 6.15869L11.9989 6.15869L11.9989 10.2649L23.9974 10.2649Z" fill="white"/>
<path d="M7.99877 26.6904L11.9983 26.6904L11.9983 10.2657L7.99877 10.2657L7.99877 26.6904Z" fill="white"/>
<path d="M23.9974 30.7966L23.9974 26.6904L7.99936 26.6904L7.99936 30.7966L23.9974 30.7966Z" fill="white"/>
<path d="M47.1977 14.1542C50.4344 14.1542 51.7602 12.8479 51.7602 11.2491C51.7602 10.0597 51.0193 9.08482 49.6154 8.77285V8.75335C50.7853 8.3634 51.3702 7.5835 51.3702 6.53062C51.3702 4.99031 50.1029 3.89844 47.2757 3.89844C45.5794 3.89844 44.3706 4.28839 44.3706 4.28839V5.8872C44.3706 5.8872 45.6379 5.38026 47.1587 5.38026C48.6796 5.38026 49.4205 5.9067 49.4205 6.7451C49.4205 7.5445 48.7576 8.10993 47.1782 8.10993H45.8719V9.55276H47.4707C49.05 9.55276 49.8104 10.1377 49.8104 11.0541C49.8104 12.068 48.8745 12.6724 47.0028 12.6724C45.17 12.6724 44.0001 12.0875 44.0001 12.0875V13.6668C44.0001 13.6863 45.1505 14.1542 47.1977 14.1542Z" fill="#232431"/>
<path d="M56.6827 14.1542C57.9306 14.1542 59.3344 13.7058 60.1728 12.4774H60.2118V13.9982H62.0836V7.81747C62.0836 5.0683 60.4848 3.89844 57.7746 3.89844C56.5658 3.89844 55.2009 4.13241 54.2065 4.56136V6.27715C55.3959 5.63373 56.4878 5.41925 57.5406 5.41925C59.1784 5.41925 60.2508 6.04318 60.2508 7.46651V7.79797H58.418C54.9474 7.79797 53.2901 9.00682 53.2901 11.1711C53.2901 13.0233 54.616 14.1542 56.6827 14.1542ZM57.1312 12.5944C55.9613 12.5944 55.2399 12.0485 55.2399 11.0541C55.2399 9.98171 56.0783 9.2018 58.496 9.2018H60.2508V9.82573C60.2508 11.3465 58.9445 12.5944 57.1312 12.5944Z" fill="#232431"/>
<path d="M65.0008 13.9982H66.8336V5.53624H71.63V13.9982H73.4628V4.05442H65.0008V13.9982Z" fill="#232431"/>
<path d="M78.5245 12.6919H78.6025C79.168 13.4133 80.2988 14.1542 81.8976 14.1542C84.7248 14.1542 86.4016 11.7755 86.4016 8.94833C86.4016 6.06268 84.7248 3.89844 81.8001 3.89844C81.0202 3.89844 79.5384 4.07392 78.4855 5.47775H78.4465V4.05442H76.6918V18.3657H78.5245V12.6919ZM81.4687 12.6724C79.6749 12.6724 78.5245 11.2491 78.5245 9.04582C78.5245 6.82309 79.6944 5.38026 81.5272 5.38026C83.3015 5.38026 84.4518 6.76459 84.4518 8.88984C84.4518 11.1906 83.282 12.6724 81.4687 12.6724Z" fill="#232431"/>
<path d="M93.399 14.1542C96.4016 14.1542 98.4879 12.068 98.4879 9.02632C98.4879 5.98469 96.4016 3.89844 93.399 3.89844C90.3963 3.89844 88.3101 5.98469 88.3101 9.02632C88.3101 12.068 90.3963 14.1542 93.399 14.1542ZM93.399 12.6724C91.6832 12.6724 90.2598 11.2491 90.2598 9.02632C90.2598 6.80359 91.6832 5.38026 93.399 5.38026C95.0953 5.38026 96.5381 6.80359 96.5381 9.02632C96.5381 11.2491 95.1148 12.6724 93.399 12.6724Z" fill="#232431"/>
<path d="M105.373 14.1542C106.913 14.1542 107.869 13.7643 107.869 13.7643V12.1654C107.869 12.1654 106.933 12.6724 105.568 12.6724C103.521 12.6724 102.351 11.3465 102.351 9.02632C102.351 6.7061 103.521 5.38026 105.587 5.38026C106.933 5.38026 107.869 5.8677 107.869 5.8677V4.28839C107.869 4.28839 106.972 3.89844 105.392 3.89844C102.351 3.89844 100.401 5.96519 100.401 9.02632C100.401 12.0875 102.292 14.1542 105.373 14.1542Z" fill="#232431"/>
<path d="M110.527 13.9982H114.368C117.195 13.9982 118.463 12.7309 118.463 10.7616C118.463 8.77285 117.195 7.48601 114.368 7.48601H112.36V4.05442H110.527V13.9982ZM112.36 12.5164V8.96783H114.368C115.908 8.96783 116.591 9.66974 116.591 10.7616C116.591 11.834 115.908 12.5164 114.368 12.5164H112.36ZM120.568 13.9982H122.401V4.05442H120.568V13.9982Z" fill="#232431"/>
<path d="M44.7605 31.9961H46.5933V27.5701H51.5847V31.9961H53.4175V22.0523H51.5847V26.0883H46.5933V22.0523H44.7605V31.9961Z" fill="#232431"/>
<path d="M59.2152 32.152C60.463 32.152 61.8668 31.7036 62.7052 30.4752H62.7442V31.9961H64.616V25.8153C64.616 23.0661 63.0172 21.8963 60.307 21.8963C59.0982 21.8963 57.7333 22.1302 56.7389 22.5592V24.275C57.9283 23.6316 59.0202 23.4171 60.073 23.4171C61.7109 23.4171 62.7832 24.041 62.7832 25.4643V25.7958H60.9504C57.4799 25.7958 55.8226 27.0047 55.8226 29.1689C55.8226 31.0212 57.1484 32.152 59.2152 32.152ZM59.6636 30.5922C58.4937 30.5922 57.7723 30.0463 57.7723 29.0519C57.7723 27.9795 58.6107 27.1996 61.0284 27.1996H62.7832V27.8236C62.7832 29.3444 61.4769 30.5922 59.6636 30.5922Z" fill="#232431"/>
<path d="M76.4528 32.152C79.4554 32.152 81.5417 30.0658 81.5417 27.0242C81.5417 23.9825 79.4554 21.8963 76.4528 21.8963C73.4501 21.8963 71.3639 23.9825 71.3639 27.0242C71.3639 30.0658 73.4501 32.152 76.4528 32.152ZM76.4528 30.6702C74.737 30.6702 73.3136 29.2469 73.3136 27.0242C73.3136 24.8014 74.737 23.3781 76.4528 23.3781C78.1491 23.3781 79.5919 24.8014 79.5919 27.0242C79.5919 29.2469 78.1686 30.6702 76.4528 30.6702Z" fill="#232431"/>
<path d="M88.6411 32.152C91.6047 32.152 93.6325 30.0073 93.6325 27.0242C93.6325 24.002 91.8192 21.8963 88.992 21.8963C87.3347 21.8963 85.9894 22.7152 85.2485 23.9435H85.151L85.1705 23.4561C85.268 21.0384 86.3209 19.3616 88.8361 18.9326C90.1424 18.7182 91.3708 18.8741 92.7551 18.5037V16.8854C90.8833 17.3728 89.8499 17.0024 87.9977 17.4703C84.6246 18.3282 83.4547 21.0774 83.4547 24.6454C83.4547 29.1494 84.8195 32.152 88.6411 32.152ZM88.6411 30.6702C86.8278 30.6702 85.58 29.0714 85.58 27.0242C85.58 25.0744 86.7303 23.3781 88.6411 23.3781C90.5519 23.3781 91.6827 25.0744 91.6827 27.0242C91.6827 29.0129 90.4934 30.6702 88.6411 30.6702Z" fill="#232431"/>
<path d="M100.517 32.152C102.058 32.152 103.013 31.7621 103.013 31.7621V30.1633C103.013 30.1633 102.077 30.6702 100.712 30.6702C98.6652 30.6702 97.4953 29.3444 97.4953 27.0242C97.4953 24.7039 98.6652 23.3781 100.732 23.3781C102.077 23.3781 103.013 23.8655 103.013 23.8655V22.2862C103.013 22.2862 102.116 21.8963 100.537 21.8963C97.4953 21.8963 95.5455 23.963 95.5455 27.0242C95.5455 30.0853 97.4368 32.152 100.517 32.152Z" fill="#232431"/>
<path d="M105.243 32.152C107.309 32.152 108.265 29.8513 108.265 23.807V23.5341H112.106V31.9961H113.939V22.0523H106.608V22.8322C106.608 28.389 106.179 30.4557 104.892 30.4557C104.619 30.4557 104.326 30.3583 104.326 30.3583V32.0156C104.326 32.0351 104.775 32.152 105.243 32.152Z" fill="#232431"/>
<path d="M117.913 36.3635C120.058 36.3635 120.662 35.2912 121.832 32.386L125.966 22.0523H124.113L121.033 30.2023H120.896L117.874 22.0523H115.866L119.941 32.4835L119.765 32.9709C119.317 34.1798 118.927 34.8232 117.796 34.8232C117.426 34.8232 117.075 34.7647 117.075 34.7647V36.2661C117.075 36.2661 117.406 36.3635 117.913 36.3635Z" fill="#232431"/>
<path d="M139.747 31.9961H142.047L138.362 26.7707L141.58 22.0523H139.415L136.725 26.0688H135.184V22.0523H133.352V26.0688H131.811L129.121 22.0523H126.956L130.173 26.7707L126.488 31.9961H128.77L131.811 27.5506H133.352V31.9961H135.184V27.5506H136.705L139.747 31.9961Z" fill="#232431"/>
<path d="M143.886 31.9961H146.207L150.769 24.197H150.808V31.9961H152.641V22.0523H150.321L145.758 29.8513H145.719V22.0523H143.886V31.9961Z" fill="#232431"/>
<path d="M163.798 24.6649C163.798 23.1831 162.726 22.0523 159.898 22.0523H155.882V31.9961H160.288C162.921 31.9961 164.188 30.7287 164.188 29.0909C164.188 27.9406 163.545 27.1996 162.297 26.7902V26.7512C163.291 26.3417 163.798 25.6983 163.798 24.6649ZM157.715 30.5142V27.5701H160.288C161.614 27.5701 162.199 28.155 162.199 29.0519C162.199 29.9488 161.614 30.5142 160.288 30.5142H157.715ZM157.715 26.0883V23.5341H159.898C161.224 23.5341 161.809 24.0995 161.809 24.8014C161.809 25.5033 161.224 26.0883 159.898 26.0883H157.715Z" fill="#232431"/>
<path d="M169.099 32.152C170.347 32.152 171.751 31.7036 172.589 30.4752H172.628V31.9961H174.5V25.8153C174.5 23.0661 172.901 21.8963 170.191 21.8963C168.982 21.8963 167.617 22.1302 166.623 22.5592V24.275C167.812 23.6316 168.904 23.4171 169.957 23.4171C171.595 23.4171 172.667 24.041 172.667 25.4643V25.7958H170.834C167.364 25.7958 165.706 27.0047 165.706 29.1689C165.706 31.0212 167.032 32.152 169.099 32.152ZM169.547 30.5922C168.378 30.5922 167.656 30.0463 167.656 29.0519C167.656 27.9795 168.495 27.1996 170.912 27.1996H172.667V27.8236C172.667 29.3444 171.361 30.5922 169.547 30.5922Z" fill="#232431"/>
<path d="M177.417 31.9961H179.25V27.5701H184.241V31.9961H186.074V22.0523H184.241V26.0883H179.25V22.0523H177.417V31.9961Z" fill="#232431"/>
<path d="M189.317 31.9961H191.638L196.2 24.197H196.239V31.9961H198.072V22.0523H195.752L191.189 29.8513H191.15V22.0523H189.317V31.9961Z" fill="#232431"/>
<path d="M209.892 27.4336V26.9267C209.892 23.5536 208.176 21.8963 205.349 21.8963C202.717 21.8963 200.65 23.807 200.65 26.8487C200.65 30.1633 202.541 32.152 205.895 32.152C207.494 32.152 208.586 31.8401 209.21 31.6451V29.8513C208.469 30.2803 207.201 30.6312 206.012 30.6312C204.004 30.6312 202.756 29.4809 202.541 27.4336H209.892ZM205.33 23.3781C206.831 23.3781 207.942 24.353 207.942 26.0688H202.541C202.775 24.431 203.809 23.3781 205.33 23.3781Z" fill="#232431"/>
</svg>
