<svg width="246" height="38" viewBox="0 0 246 38" fill="none" xmlns="http://www.w3.org/2000/svg">
<rect y="1" width="36" height="36" fill="#31A7FD"/>
<path fill-rule="evenodd" clip-rule="evenodd" d="M4 17.0006V17C4 12.5813 7.58308 9 12.0009 9H12.0134H12.0259H12.0384H12.0509H12.0633H12.0758H12.0882H12.1007H12.1131H12.1255H12.1379H12.1503H12.1627H12.1751H12.1875H12.1998H12.2122H12.2245H12.2369H12.2492H12.2615H12.2738H12.2861H12.2984H12.3107H12.3229H12.3352H12.3474H12.3597H12.3719H12.3841H12.3963H12.4085H12.4207H12.4329H12.445H12.4572H12.4693H12.4814H12.4936H12.5057H12.5178H12.5299H12.5419H12.554H12.5661H12.5781H12.5901H12.6022H12.6142H12.6262H12.6382H12.6501H12.6621H12.6741H12.686H12.6979H12.7098H12.7217H12.7336H12.7455H12.7574H12.7693H12.7811H12.7929H12.8048H12.8166H12.8284H12.8401H12.8519H12.8637H12.8754H12.8872H12.8989H12.9106H12.9223H12.934H12.9456H12.9573H12.9689H12.9806H12.9922H13.0038H13.0154H13.027H13.0385H13.0501H13.0616H13.0731H13.0847H13.0962H13.1076H13.1191H13.1306H13.142H13.1534H13.1649H13.1763H13.1876H13.199H13.2104H13.2217H13.233H13.2444H13.2557H13.2669H13.2782H13.2895H13.3007H13.3119H13.3231H13.3343H13.3455H13.3567H13.3678H13.379H13.3901H13.4012H13.4123H13.4234H13.4344H13.4455H13.4565H13.4675H13.4785H13.4895H13.5005H13.5114H13.5224H13.5333H13.5442H13.5551H13.566H13.5768H13.5876H13.5985H13.6093H13.6201H13.6308H13.6416H13.6523H13.6631H13.6738H13.6845H13.6951H13.7058H13.7164H13.7271H13.7377H13.7483H13.7588H13.7694H13.7799H13.7904H13.8009H13.8114H13.8219H13.8323H13.8428H13.8532H13.8636H13.874H13.8843H13.8947H13.905H13.9153H13.9256H13.9359H13.9461H13.9564H13.9666H13.9768H13.987H13.9971H14.0073H14.0174H14.0275H14.0376H14.0477H14.0577H14.0677H14.0777H14.0877H14.0977H14.1077H14.1176H14.1275H14.1374H14.1473H14.1572H14.167H14.1768H14.1866H14.1964H14.2062H14.2159H14.2256H14.2353H14.245H14.2547H14.2643H14.2739H14.2835H14.2931H14.3027H14.3122H14.3217H14.3312H14.3407H14.3502H14.3596H14.369H14.3784H14.3878H14.3972H14.4065H14.4158H14.4251H14.4344H14.4436H14.4529H14.4621H14.4713H14.4804H14.4896H14.4987H14.5078H14.5169H14.5259H14.535H14.544H14.553H14.562H14.5709H14.5798H14.5887H14.5976H14.6065H14.6153H14.6241H14.6329H14.6417H14.6505H14.6592H14.6679H14.6766H14.6852H14.6939H14.7025H14.7111H14.7196H14.7282H14.7367H14.7452H14.7537H14.7621H14.7706H14.779H14.7873H14.7957H14.804H14.8124H14.8206H14.8289H14.8372H14.8454H14.8536H14.8617H14.8699H14.878H14.8861H14.8942H14.9022H14.9102H14.9183H14.9262H14.9342H14.9421H14.95H14.9579H14.9657H14.9736H14.9814H14.9892H14.9969H15.0046H15.0123H15.02H15.0277H15.0353H15.0429H15.0505H15.0581H15.0656H15.0731H15.0806H15.088H15.0954H15.1028H15.1102H15.1176H15.1249H15.1322H15.1395H15.1467H15.1539H15.1611H15.1683H15.1754H15.1825H15.1896H15.1967H15.2037H15.2107H15.2177H15.2247H15.2316H15.2385H15.2454H15.2522H15.2591H15.2659H15.2726H15.2794H15.2861H15.2928H15.2994H15.306H15.3127H15.3192H15.3258H15.3323H15.3388H15.3453H15.3517H15.3581H15.3645H15.3708H15.3772H15.3835H15.3897H15.396H15.4022H15.4084H15.4145H15.4207H15.4268H15.4329H15.4389H15.4449H15.4509H15.4569H15.4628H15.4687H15.4746H15.4804H15.4862H15.492H15.4978H15.5035H15.5092H15.5148H15.5205H15.5261H15.5317H15.5372H15.5427H15.5482H15.5537H15.5591H15.5645H15.5699H15.5752H15.5805H15.5858H15.5911H15.5963H15.6015H15.6067H15.6118H15.6169H15.622H15.627H15.632H15.637H15.6419H15.6468H15.6517H15.6566H15.6614H15.6662H15.671H15.6757H15.6804H15.6851H15.6897H15.6943H15.6989H15.7034H15.7079H15.7124H15.7169H15.7213H15.7257H15.73H15.7343H15.7386H15.7429H15.7471H15.7513H15.7555H15.7596H15.7637H15.7677H15.7718H15.7758H15.7797H15.7837H15.7876H15.7915H15.7953H15.7991H15.8029H15.8066H15.8103H15.814H15.8176H15.8212H15.8248H15.8283H15.8318H15.8353H15.8388H15.8422H15.8455H15.8489H15.8522H15.8554H15.8587H15.8619H15.8651H15.8682H15.8713H15.8744H15.8774H15.8804H15.8834H15.8863H15.8892H15.8921H15.8949H15.8977H15.9004H15.9032H15.9059H15.9085H15.9111H15.9137H15.9163H15.9188H15.9213H15.9237H15.9261H15.9285H15.9308H15.9331H15.9354H15.9376H15.9398H15.942H15.9441H15.9462H15.9483H15.9503H15.9523H15.9542H15.9561H15.958H15.9599H15.9617H15.9634H15.9652H15.9669H15.9685H15.9701H15.9717H15.9733H15.9748H15.9763H15.9777H15.9791H15.9805H15.9818H15.9831H15.9844H15.9856H15.9868H15.9879H15.989H15.9901H15.9911H15.9921H15.9931H15.994H15.9949H15.9957H15.9965H15.9973H15.998H15.9987H15.9994H16V13H15.9994H15.9987H15.998H15.9973H15.9965H15.9957H15.9949H15.994H15.9931H15.9921H15.9911H15.9901H15.989H15.9879H15.9868H15.9856H15.9844H15.9831H15.9818H15.9805H15.9791H15.9777H15.9763H15.9748H15.9733H15.9717H15.9701H15.9685H15.9669H15.9652H15.9634H15.9617H15.9599H15.958H15.9561H15.9542H15.9523H15.9503H15.9483H15.9462H15.9441H15.942H15.9398H15.9376H15.9354H15.9331H15.9308H15.9285H15.9261H15.9237H15.9213H15.9188H15.9163H15.9137H15.9111H15.9085H15.9059H15.9032H15.9004H15.8977H15.8949H15.8921H15.8892H15.8863H15.8834H15.8804H15.8774H15.8744H15.8713H15.8682H15.8651H15.8619H15.8587H15.8554H15.8522H15.8489H15.8455H15.8422H15.8388H15.8353H15.8318H15.8283H15.8248H15.8212H15.8176H15.814H15.8103H15.8066H15.8029H15.7991H15.7953H15.7915H15.7876H15.7837H15.7797H15.7758H15.7718H15.7677H15.7637H15.7596H15.7555H15.7513H15.7471H15.7429H15.7386H15.7343H15.73H15.7257H15.7213H15.7169H15.7124H15.7079H15.7034H15.6989H15.6943H15.6897H15.6851H15.6804H15.6757H15.671H15.6662H15.6614H15.6566H15.6517H15.6468H15.6419H15.637H15.632H15.627H15.622H15.6169H15.6118H15.6067H15.6015H15.5963H15.5911H15.5858H15.5805H15.5752H15.5699H15.5645H15.5591H15.5537H15.5482H15.5427H15.5372H15.5317H15.5261H15.5205H15.5148H15.5092H15.5035H15.4978H15.492H15.4862H15.4804H15.4746H15.4687H15.4628H15.4569H15.4509H15.4449H15.4389H15.4329H15.4268H15.4207H15.4145H15.4084H15.4022H15.396H15.3897H15.3835H15.3772H15.3708H15.3645H15.3581H15.3517H15.3453H15.3388H15.3323H15.3258H15.3192H15.3127H15.306H15.2994H15.2928H15.2861H15.2794H15.2726H15.2659H15.2591H15.2522H15.2454H15.2385H15.2316H15.2247H15.2177H15.2107H15.2037H15.1967H15.1896H15.1825H15.1754H15.1683H15.1611H15.1539H15.1467H15.1395H15.1322H15.1249H15.1176H15.1102H15.1028H15.0954H15.088H15.0806H15.0731H15.0656H15.0581H15.0505H15.0429H15.0353H15.0277H15.02H15.0123H15.0046H14.9969H14.9892H14.9814H14.9736H14.9657H14.9579H14.95H14.9421H14.9342H14.9262H14.9183H14.9102H14.9022H14.8942H14.8861H14.878H14.8699H14.8617H14.8536H14.8454H14.8372H14.8289H14.8206H14.8124H14.804H14.7957H14.7873H14.779H14.7706H14.7621H14.7537H14.7452H14.7367H14.7282H14.7196H14.7111H14.7025H14.6939H14.6852H14.6766H14.6679H14.6592H14.6505H14.6417H14.6329H14.6241H14.6153H14.6065H14.5976H14.5887H14.5798H14.5709H14.562H14.553H14.544H14.535H14.5259H14.5169H14.5078H14.4987H14.4896H14.4804H14.4713H14.4621H14.4529H14.4436H14.4344H14.4251H14.4158H14.4065H14.3972H14.3878H14.3784H14.369H14.3596H14.3502H14.3407H14.3312H14.3217H14.3122H14.3027H14.2931H14.2835H14.2739H14.2643H14.2547H14.245H14.2353H14.2256H14.2159H14.2062H14.1964H14.1866H14.1768H14.167H14.1572H14.1473H14.1374H14.1275H14.1176H14.1077H14.0977H14.0877H14.0777H14.0677H14.0577H14.0477H14.0376H14.0275H14.0174H14.0073H13.9971H13.987H13.9768H13.9666H13.9564H13.9461H13.9359H13.9256H13.9153H13.905H13.8947H13.8843H13.874H13.8636H13.8532H13.8428H13.8323H13.8219H13.8114H13.8009H13.7904H13.7799H13.7694H13.7588H13.7483H13.7377H13.7271H13.7164H13.7058H13.6951H13.6845H13.6738H13.6631H13.6523H13.6416H13.6308H13.6201H13.6093H13.5985H13.5876H13.5768H13.566H13.5551H13.5442H13.5333H13.5224H13.5114H13.5005H13.4895H13.4785H13.4675H13.4565H13.4455H13.4344H13.4234H13.4123H13.4012H13.3901H13.379H13.3678H13.3567H13.3455H13.3343H13.3232H13.3119H13.3007H13.2895H13.2782H13.2669H13.2557H13.2444H13.233H13.2217H13.2104H13.199H13.1876H13.1763H13.1649H13.1534H13.142H13.1306H13.1191H13.1076H13.0962H13.0847H13.0731H13.0616H13.0501H13.0385H13.027H13.0154H13.0038H12.9922H12.9806H12.9689H12.9573H12.9456H12.934H12.9223H12.9106H12.8989H12.8872H12.8754H12.8637H12.8519H12.8401H12.8284H12.8166H12.8048H12.7929H12.7811H12.7693H12.7574H12.7455H12.7336H12.7217H12.7098H12.6979H12.686H12.6741H12.6621H12.6501H12.6382H12.6262H12.6142H12.6022H12.5901H12.5781H12.5661H12.554H12.5419H12.5299H12.5178H12.5057H12.4936H12.4814H12.4693H12.4572H12.445H12.4329H12.4207H12.4085H12.3963H12.3841H12.3719H12.3597H12.3474H12.3352H12.3229H12.3107H12.2984H12.2861H12.2738H12.2615H12.2492H12.2369H12.2245H12.2122H12.1998H12.1875H12.1751H12.1627H12.1503H12.1379H12.1255H12.1131H12.1007H12.0882H12.0758H12.0633H12.0509H12.0384H12.0259H12.0134H12.0009C9.7914 13 8 14.7913 8 17V17.0006V17.0013V17.002V17.0027V17.0035V17.0043V17.0051V17.006V17.0069V17.0079V17.0089V17.0099V17.011V17.0121V17.0132V17.0144V17.0156V17.0169V17.0182V17.0195V17.0209V17.0223V17.0237V17.0252V17.0267V17.0283V17.0299V17.0315V17.0331V17.0348V17.0366V17.0383V17.0401V17.042V17.0439V17.0458V17.0477V17.0497V17.0517V17.0538V17.0559V17.058V17.0602V17.0624V17.0646V17.0669V17.0692V17.0715V17.0739V17.0763V17.0787V17.0812V17.0837V17.0863V17.0889V17.0915V17.0941V17.0968V17.0996V17.1023V17.1051V17.1079V17.1108V17.1137V17.1166V17.1196V17.1226V17.1256V17.1287V17.1318V17.1349V17.1381V17.1413V17.1446V17.1478V17.1511V17.1545V17.1578V17.1612V17.1647V17.1682V17.1717V17.1752V17.1788V17.1824V17.186V17.1897V17.1934V17.1971V17.2009V17.2047V17.2085V17.2124V17.2163V17.2203V17.2242V17.2282V17.2323V17.2363V17.2404V17.2445V17.2487V17.2529V17.2571V17.2614V17.2657V17.27V17.2743V17.2787V17.2831V17.2876V17.2921V17.2966V17.3011V17.3057V17.3103V17.3149V17.3196V17.3243V17.329V17.3338V17.3386V17.3434V17.3483V17.3532V17.3581V17.363V17.368V17.373V17.378V17.3831V17.3882V17.3933V17.3985V17.4037V17.4089V17.4142V17.4195V17.4248V17.4301V17.4355V17.4409V17.4463V17.4518V17.4573V17.4628V17.4683V17.4739V17.4795V17.4852V17.4908V17.4965V17.5022V17.508V17.5138V17.5196V17.5254V17.5313V17.5372V17.5431V17.5491V17.5551V17.5611V17.5672V17.5732V17.5793V17.5855V17.5916V17.5978V17.604V17.6103V17.6165V17.6228V17.6292V17.6355V17.6419V17.6483V17.6547V17.6612V17.6677V17.6742V17.6808V17.6873V17.694V17.7006V17.7072V17.7139V17.7206V17.7274V17.7341V17.7409V17.7478V17.7546V17.7615V17.7684V17.7753V17.7823V17.7893V17.7963V17.8033V17.8104V17.8175V17.8246V17.8317V17.8389V17.8461V17.8533V17.8605V17.8678V17.8751V17.8824V17.8898V17.8972V17.9046V17.912V17.9194V17.9269V17.9344V17.9419V17.9495V17.9571V17.9647V17.9723V17.98V17.9877V17.9954V18.0031V18.0108V18.0186V18.0264V18.0343V18.0421V18.05V18.0579V18.0658V18.0738V18.0818V18.0898V18.0978V18.1058V18.1139V18.122V18.1301V18.1383V18.1464V18.1546V18.1628V18.1711V18.1794V18.1876V18.196V18.2043V18.2127V18.221V18.2294V18.2379V18.2463V18.2548V18.2633V18.2718V18.2804V18.2889V18.2975V18.3061V18.3148V18.3234V18.3321V18.3408V18.3495V18.3583V18.3671V18.3759V18.3847V18.3935V18.4024V18.4113V18.4202V18.4291V18.438V18.447V18.456V18.465V18.4741V18.4831V18.4922V18.5013V18.5104V18.5196V18.5287V18.5379V18.5471V18.5564V18.5656V18.5749V18.5842V18.5935V18.6028V18.6122V18.6216V18.631V18.6404V18.6498V18.6593V18.6688V18.6783V18.6878V18.6973V18.7069V18.7165V18.7261V18.7357V18.7453V18.755V18.7647V18.7744V18.7841V18.7938V18.8036V18.8134V18.8232V18.833V18.8428V18.8527V18.8626V18.8725V18.8824V18.8923V18.9023V18.9123V18.9223V18.9323V18.9423V18.9523V18.9624V18.9725V18.9826V18.9927V19.0029V19.013V19.0232V19.0334V19.0436V19.0539V19.0641V19.0744V19.0847V19.095V19.1053V19.1157V19.126V19.1364V19.1468V19.1572V19.1677V19.1781V19.1886V19.1991V19.2096V19.2201V19.2306V19.2412V19.2518V19.2623V19.2729V19.2836V19.2942V19.3049V19.3155V19.3262V19.3369V19.3477V19.3584V19.3692V19.3799V19.3907V19.4015V19.4124V19.4232V19.4341V19.4449V19.4558V19.4667V19.4776V19.4886V19.4995V19.5105V19.5215V19.5325V19.5435V19.5545V19.5656V19.5766V19.5877V19.5988V19.6099V19.621V19.6322V19.6433V19.6545V19.6657V19.6769V19.6881V19.6993V19.7105V19.7218V19.7331V19.7443V19.7556V19.767V19.7783V19.7896V19.801V19.8124V19.8237V19.8351V19.8466V19.858V19.8694V19.8809V19.8924V19.9038V19.9153V19.9269V19.9384V19.9499V19.9615V19.973V19.9846V19.9962V20.0078V20.0194V20.0311V20.0427V20.0544V20.066V20.0777V20.0894V20.1011V20.1128V20.1246V20.1363V20.1481V20.1599V20.1716V20.1834V20.1952V20.2071V20.2189V20.2308V20.2426V20.2545V20.2664V20.2783V20.2902V20.3021V20.314V20.326V20.3379V20.3499V20.3618V20.3738V20.3858V20.3978V20.4099V20.4219V20.4339V20.446V20.4581V20.4701V20.4822V20.4943V20.5064V20.5186V20.5307V20.5428V20.555V20.5671V20.5793V20.5915V20.6037V20.6159V20.6281V20.6403V20.6526V20.6648V20.6771V20.6893V20.7016V20.7139V20.7262V20.7385V20.7508V20.7631V20.7755V20.7878V20.8002V20.8125V20.8249V20.8373V20.8497V20.8621V20.8745V20.8869V20.8993V20.9118V20.9242V20.9367V20.9491V20.9616V20.9741V20.9866V20.9991L8 21C8.00051 23.2091 9.79159 25 12 25H14L14 29H12C7.58131 29 4 25.4169 4 20.9991V17.0006ZM32 17.0009V17.0134L28 17C27.9995 14.7909 26.2084 13 24 13L22 13V9H24C28.4184 9 31.9995 12.5826 32 17V17.0009ZM28 17.0134V17.0009L32 17.0134V17.0259V17.0384V17.0509V17.0633V17.0758V17.0882V17.1007V17.1131V17.1255V17.1379V17.1503V17.1627V17.1751V17.1875V17.1998V17.2122V17.2245V17.2369V17.2492V17.2615V17.2738V17.2861V17.2984V17.3107V17.3229V17.3352V17.3474V17.3597V17.3719V17.3841V17.3963V17.4085V17.4207V17.4329V17.445V17.4572V17.4693V17.4814V17.4936V17.5057V17.5178V17.5299V17.5419V17.554V17.5661V17.5781V17.5901V17.6022V17.6142V17.6262V17.6382V17.6501V17.6621V17.6741V17.686V17.6979V17.7098V17.7217V17.7336V17.7455V17.7574V17.7693V17.7811V17.7929V17.8048V17.8166V17.8284V17.8401V17.8519V17.8637V17.8754V17.8872V17.8989V17.9106V17.9223V17.934V17.9456V17.9573V17.9689V17.9806V17.9922V18.0038V18.0154V18.027V18.0385V18.0501V18.0616V18.0732V18.0847V18.0962V18.1076V18.1191V18.1306V18.142V18.1534V18.1649V18.1763V18.1876V18.199V18.2104V18.2217V18.233V18.2444V18.2557V18.2669V18.2782V18.2895V18.3007V18.3119V18.3232V18.3343V18.3455V18.3567V18.3679V18.379V18.3901V18.4012V18.4123V18.4234V18.4344V18.4455V18.4565V18.4675V18.4785V18.4895V18.5005V18.5114V18.5224V18.5333V18.5442V18.5551V18.566V18.5768V18.5876V18.5985V18.6093V18.6201V18.6308V18.6416V18.6523V18.6631V18.6738V18.6845V18.6951V18.7058V18.7164V18.7271V18.7377V18.7483V18.7588V18.7694V18.7799V18.7904V18.8009V18.8114V18.8219V18.8323V18.8428V18.8532V18.8636V18.874V18.8843V18.8947V18.905V18.9153V18.9256V18.9359V18.9461V18.9564V18.9666V18.9768V18.987V18.9971V19.0073V19.0174V19.0275V19.0376V19.0477V19.0577V19.0677V19.0777V19.0877V19.0977V19.1077V19.1176V19.1275V19.1374V19.1473V19.1572V19.167V19.1768V19.1866V19.1964V19.2062V19.2159V19.2256V19.2353V19.245V19.2547V19.2643V19.2739V19.2835V19.2931V19.3027V19.3122V19.3217V19.3312V19.3407V19.3502V19.3596V19.369V19.3784V19.3878V19.3972V19.4065V19.4158V19.4251V19.4344V19.4436V19.4529V19.4621V19.4713V19.4804V19.4896V19.4987V19.5078V19.5169V19.5259V19.535V19.544V19.553V19.562V19.5709V19.5798V19.5887V19.5976V19.6065V19.6153V19.6241V19.6329V19.6417V19.6505V19.6592V19.6679V19.6766V19.6852V19.6939V19.7025V19.7111V19.7196V19.7282V19.7367V19.7452V19.7537V19.7621V19.7706V19.779V19.7874V19.7957V19.804V19.8124V19.8206V19.8289V19.8372V19.8454V19.8536V19.8617V19.8699V19.878V19.8861V19.8942V19.9022V19.9103V19.9183V19.9262V19.9342V19.9421V19.95V19.9579V19.9657V19.9736V19.9814V19.9892V19.9969V20.0046V20.0124V20.02V20.0277V20.0353V20.0429V20.0505V20.0581V20.0656V20.0731V20.0806V20.088V20.0954V20.1028V20.1102V20.1176V20.1249V20.1322V20.1395V20.1467V20.1539V20.1611V20.1683V20.1754V20.1825V20.1896V20.1967V20.2037V20.2107V20.2177V20.2247V20.2316V20.2385V20.2454V20.2522V20.2591V20.2659V20.2726V20.2794V20.2861V20.2928V20.2994V20.3061V20.3127V20.3192V20.3258V20.3323V20.3388V20.3453V20.3517V20.3581V20.3645V20.3708V20.3772V20.3835V20.3897V20.396V20.4022V20.4084V20.4146V20.4207V20.4268V20.4329V20.4389V20.4449V20.4509V20.4569V20.4628V20.4687V20.4746V20.4804V20.4862V20.492V20.4978V20.5035V20.5092V20.5148V20.5205V20.5261V20.5317V20.5372V20.5427V20.5482V20.5537V20.5591V20.5645V20.5699V20.5752V20.5806V20.5858V20.5911V20.5963V20.6015V20.6067V20.6118V20.6169V20.622V20.627V20.632V20.637V20.6419V20.6468V20.6517V20.6566V20.6614V20.6662V20.671V20.6757V20.6804V20.6851V20.6897V20.6943V20.6989V20.7034V20.7079V20.7124V20.7169V20.7213V20.7257V20.73V20.7343V20.7386V20.7429V20.7471V20.7513V20.7555V20.7596V20.7637V20.7677V20.7718V20.7758V20.7797V20.7837V20.7876V20.7915V20.7953V20.7991V20.8029V20.8066V20.8103V20.814V20.8176V20.8212V20.8248V20.8283V20.8318V20.8353V20.8388V20.8422V20.8455V20.8489V20.8522V20.8554V20.8587V20.8619V20.8651V20.8682V20.8713V20.8744V20.8774V20.8804V20.8834V20.8863V20.8892V20.8921V20.8949V20.8977V20.9004V20.9032V20.9059V20.9085V20.9111V20.9137V20.9163V20.9188V20.9213V20.9237V20.9261V20.9285V20.9308V20.9331V20.9354V20.9376V20.9398V20.942V20.9441V20.9462V20.9483V20.9503V20.9523V20.9542V20.9562V20.958V20.9599V20.9617V20.9634V20.9652V20.9669V20.9685V20.9701V20.9717V20.9733V20.9748V20.9763V20.9777V20.9791V20.9805V20.9818V20.9831V20.9844V20.9856V20.9868V20.9879V20.989V20.9901V20.9911V20.9921V20.9931V20.994V20.9949V20.9957V20.9965V20.9973V20.998V20.9987V20.9994L32 21C32 25.4187 28.4169 29 23.9991 29H23.9866H23.9741H23.9616H23.9491H23.9367H23.9242H23.9118H23.8993H23.8869H23.8745H23.8621H23.8497H23.8373H23.8249H23.8125H23.8002H23.7878H23.7755H23.7631H23.7508H23.7385H23.7262H23.7139H23.7016H23.6893H23.6771H23.6648H23.6526H23.6403H23.6281H23.6159H23.6037H23.5915H23.5793H23.5671H23.555H23.5428H23.5307H23.5186H23.5064H23.4943H23.4822H23.4701H23.4581H23.446H23.4339H23.4219H23.4099H23.3978H23.3858H23.3738H23.3618H23.3499H23.3379H23.326H23.314H23.3021H23.2902H23.2783H23.2664H23.2545H23.2426H23.2307H23.2189H23.2071H23.1952H23.1834H23.1716H23.1599H23.1481H23.1363H23.1246H23.1128H23.1011H23.0894H23.0777H23.066H23.0544H23.0427H23.0311H23.0194H23.0078H22.9962H22.9846H22.973H22.9615H22.9499H22.9384H22.9269H22.9153H22.9038H22.8924H22.8809H22.8694H22.858H22.8466H22.8351H22.8237H22.8124H22.801H22.7896H22.7783H22.767H22.7556H22.7443H22.7331H22.7218H22.7105H22.6993H22.6881H22.6769H22.6657H22.6545H22.6433H22.6322H22.621H22.6099H22.5988H22.5877H22.5766H22.5656H22.5545H22.5435H22.5325H22.5215H22.5105H22.4995H22.4886H22.4776H22.4667H22.4558H22.4449H22.4341H22.4232H22.4124H22.4015H22.3907H22.3799H22.3692H22.3584H22.3477H22.3369H22.3262H22.3155H22.3049H22.2942H22.2836H22.2729H22.2623H22.2518H22.2412H22.2306H22.2201H22.2096H22.1991H22.1886H22.1781H22.1677H22.1572H22.1468H22.1364H22.126H22.1157H22.1053H22.095H22.0847H22.0744H22.0641H22.0539H22.0436H22.0334H22.0232H22.013H22.0029H21.9927H21.9826H21.9725H21.9624H21.9523H21.9423H21.9323H21.9223H21.9123H21.9023H21.8923H21.8824H21.8725H21.8626H21.8527H21.8428H21.833H21.8232H21.8134H21.8036H21.7938H21.7841H21.7744H21.7647H21.755H21.7453H21.7357H21.7261H21.7165H21.7069H21.6973H21.6878H21.6783H21.6688H21.6593H21.6498H21.6404H21.631H21.6216H21.6122H21.6028H21.5935H21.5842H21.5749H21.5656H21.5564H21.5471H21.5379H21.5287H21.5196H21.5104H21.5013H21.4922H21.4831H21.4741H21.465H21.456H21.447H21.438H21.4291H21.4202H21.4113H21.4024H21.3935H21.3847H21.3759H21.3671H21.3583H21.3495H21.3408H21.3321H21.3234H21.3148H21.3061H21.2975H21.2889H21.2804H21.2718H21.2633H21.2548H21.2463H21.2379H21.2294H21.221H21.2127H21.2043H21.196H21.1876H21.1794H21.1711H21.1628H21.1546H21.1464H21.1383H21.1301H21.122H21.1139H21.1058H21.0978H21.0898H21.0818H21.0738H21.0658H21.0579H21.05H21.0421H21.0343H21.0264H21.0186H21.0108H21.0031H20.9954H20.9877H20.98H20.9723H20.9647H20.9571H20.9495H20.9419H20.9344H20.9269H20.9194H20.912H20.9046H20.8972H20.8898H20.8824H20.8751H20.8678H20.8605H20.8533H20.8461H20.8389H20.8317H20.8246H20.8175H20.8104H20.8033H20.7963H20.7893H20.7823H20.7753H20.7684H20.7615H20.7546H20.7478H20.7409H20.7341H20.7274H20.7206H20.7139H20.7072H20.7006H20.694H20.6873H20.6808H20.6742H20.6677H20.6612H20.6547H20.6483H20.6419H20.6355H20.6292H20.6228H20.6165H20.6103H20.604H20.5978H20.5916H20.5855H20.5793H20.5732H20.5672H20.5611H20.5551H20.5491H20.5431H20.5372H20.5313H20.5254H20.5196H20.5138H20.508H20.5022H20.4965H20.4908H20.4852H20.4795H20.4739H20.4683H20.4628H20.4573H20.4518H20.4463H20.4409H20.4355H20.4301H20.4248H20.4195H20.4142H20.4089H20.4037H20.3985H20.3933H20.3882H20.3831H20.378H20.373H20.368H20.363H20.3581H20.3532H20.3483H20.3434H20.3386H20.3338H20.329H20.3243H20.3196H20.3149H20.3103H20.3057H20.3011H20.2966H20.2921H20.2876H20.2831H20.2787H20.2743H20.27H20.2657H20.2614H20.2571H20.2529H20.2487H20.2445H20.2404H20.2363H20.2323H20.2282H20.2242H20.2203H20.2163H20.2124H20.2086H20.2047H20.2009H20.1971H20.1934H20.1897H20.186H20.1824H20.1788H20.1752H20.1717H20.1682H20.1647H20.1612H20.1578H20.1545H20.1511H20.1478H20.1446H20.1413H20.1381H20.1349H20.1318H20.1287H20.1256H20.1226H20.1196H20.1166H20.1137H20.1108H20.1079H20.1051H20.1023H20.0996H20.0968H20.0941H20.0915H20.0889H20.0863H20.0837H20.0812H20.0787H20.0763H20.0739H20.0715H20.0692H20.0669H20.0646H20.0624H20.0602H20.058H20.0559H20.0538H20.0517H20.0497H20.0477H20.0458H20.0439H20.042H20.0401H20.0383H20.0366H20.0348H20.0331H20.0315H20.0299H20.0283H20.0267H20.0252H20.0237H20.0223H20.0209H20.0195H20.0182H20.0169H20.0156H20.0144H20.0132H20.0121H20.011H20.0099H20.0089H20.0079H20.0069H20.006H20.0051H20.0043H20.0035H20.0027H20.002H20.0013H20.0006H20V25H20.0006H20.0013H20.002H20.0027H20.0035H20.0043H20.0051H20.006H20.0069H20.0079H20.0089H20.0099H20.011H20.0121H20.0132H20.0144H20.0156H20.0169H20.0182H20.0195H20.0209H20.0223H20.0237H20.0252H20.0267H20.0283H20.0299H20.0315H20.0331H20.0348H20.0366H20.0383H20.0401H20.042H20.0439H20.0458H20.0477H20.0497H20.0517H20.0538H20.0559H20.058H20.0602H20.0624H20.0646H20.0669H20.0692H20.0715H20.0739H20.0763H20.0787H20.0812H20.0837H20.0863H20.0889H20.0915H20.0941H20.0968H20.0996H20.1023H20.1051H20.1079H20.1108H20.1137H20.1166H20.1196H20.1226H20.1256H20.1287H20.1318H20.1349H20.1381H20.1413H20.1446H20.1478H20.1511H20.1545H20.1578H20.1612H20.1647H20.1682H20.1717H20.1752H20.1788H20.1824H20.186H20.1897H20.1934H20.1971H20.2009H20.2047H20.2086H20.2124H20.2163H20.2203H20.2242H20.2282H20.2323H20.2363H20.2404H20.2445H20.2487H20.2529H20.2571H20.2614H20.2657H20.27H20.2743H20.2787H20.2831H20.2876H20.2921H20.2966H20.3011H20.3057H20.3103H20.3149H20.3196H20.3243H20.329H20.3338H20.3386H20.3434H20.3483H20.3532H20.3581H20.363H20.368H20.373H20.378H20.3831H20.3882H20.3933H20.3985H20.4037H20.4089H20.4142H20.4195H20.4248H20.4301H20.4355H20.4409H20.4463H20.4518H20.4573H20.4628H20.4683H20.4739H20.4795H20.4852H20.4908H20.4965H20.5022H20.508H20.5138H20.5196H20.5254H20.5313H20.5372H20.5431H20.5491H20.5551H20.5611H20.5672H20.5732H20.5793H20.5855H20.5916H20.5978H20.604H20.6103H20.6165H20.6228H20.6292H20.6355H20.6419H20.6483H20.6547H20.6612H20.6677H20.6742H20.6808H20.6873H20.694H20.7006H20.7072H20.7139H20.7206H20.7274H20.7341H20.7409H20.7478H20.7546H20.7615H20.7684H20.7753H20.7823H20.7893H20.7963H20.8033H20.8104H20.8175H20.8246H20.8317H20.8389H20.8461H20.8533H20.8605H20.8678H20.8751H20.8824H20.8898H20.8972H20.9046H20.912H20.9194H20.9269H20.9344H20.9419H20.9495H20.9571H20.9647H20.9723H20.98H20.9877H20.9954H21.0031H21.0108H21.0186H21.0264H21.0343H21.0421H21.05H21.0579H21.0658H21.0738H21.0818H21.0898H21.0978H21.1058H21.1139H21.122H21.1301H21.1383H21.1464H21.1546H21.1628H21.1711H21.1794H21.1876H21.196H21.2043H21.2127H21.221H21.2294H21.2379H21.2463H21.2548H21.2633H21.2718H21.2804H21.2889H21.2975H21.3061H21.3148H21.3234H21.3321H21.3408H21.3495H21.3583H21.3671H21.3759H21.3847H21.3935H21.4024H21.4113H21.4202H21.4291H21.438H21.447H21.456H21.465H21.4741H21.4831H21.4922H21.5013H21.5104H21.5196H21.5287H21.5379H21.5471H21.5564H21.5656H21.5749H21.5842H21.5935H21.6028H21.6122H21.6216H21.631H21.6404H21.6498H21.6593H21.6688H21.6783H21.6878H21.6973H21.7069H21.7165H21.7261H21.7357H21.7453H21.755H21.7647H21.7744H21.7841H21.7938H21.8036H21.8134H21.8232H21.833H21.8428H21.8527H21.8626H21.8725H21.8824H21.8923H21.9023H21.9123H21.9223H21.9323H21.9423H21.9523H21.9624H21.9725H21.9826H21.9927H22.0029H22.013H22.0232H22.0334H22.0436H22.0539H22.0641H22.0744H22.0847H22.095H22.1053H22.1157H22.126H22.1364H22.1468H22.1572H22.1677H22.1781H22.1886H22.1991H22.2096H22.2201H22.2306H22.2412H22.2518H22.2623H22.2729H22.2836H22.2942H22.3049H22.3155H22.3262H22.3369H22.3477H22.3584H22.3692H22.3799H22.3907H22.4015H22.4124H22.4232H22.4341H22.4449H22.4558H22.4667H22.4776H22.4886H22.4995H22.5105H22.5215H22.5325H22.5435H22.5545H22.5656H22.5766H22.5877H22.5988H22.6099H22.621H22.6322H22.6433H22.6545H22.6657H22.6769H22.6881H22.6993H22.7105H22.7218H22.7331H22.7443H22.7556H22.767H22.7783H22.7896H22.801H22.8124H22.8237H22.8351H22.8466H22.858H22.8694H22.8809H22.8924H22.9038H22.9153H22.9269H22.9384H22.9499H22.9615H22.973H22.9846H22.9962H23.0078H23.0194H23.0311H23.0427H23.0544H23.066H23.0777H23.0894H23.1011H23.1128H23.1246H23.1363H23.1481H23.1599H23.1716H23.1834H23.1952H23.2071H23.2189H23.2307H23.2426H23.2545H23.2664H23.2783H23.2902H23.3021H23.314H23.326H23.3379H23.3499H23.3618H23.3738H23.3858H23.3978H23.4099H23.4219H23.4339H23.446H23.4581H23.4701H23.4822H23.4943H23.5064H23.5186H23.5307H23.5428H23.555H23.5671H23.5793H23.5915H23.6037H23.6159H23.6281H23.6403H23.6526H23.6648H23.6771H23.6893H23.7016H23.7139H23.7262H23.7385H23.7508H23.7631H23.7755H23.7878H23.8002H23.8125H23.8249H23.8373H23.8497H23.8621H23.8745H23.8869H23.8993H23.9118H23.9242H23.9367H23.9491H23.9616H23.9741H23.9866H23.9991C26.2086 25 28 23.2087 28 21L28 20.9994V20.9987V20.998V20.9973V20.9965V20.9957V20.9949V20.994V20.9931V20.9921V20.9911V20.9901V20.989V20.9879V20.9868V20.9856V20.9844V20.9831V20.9818V20.9805V20.9791V20.9777V20.9763V20.9748V20.9733V20.9717V20.9701V20.9685V20.9669V20.9652V20.9634V20.9617V20.9599V20.958V20.9562V20.9542V20.9523V20.9503V20.9483V20.9462V20.9441V20.942V20.9398V20.9376V20.9354V20.9331V20.9308V20.9285V20.9261V20.9237V20.9213V20.9188V20.9163V20.9137V20.9111V20.9085V20.9059V20.9032V20.9004V20.8977V20.8949V20.8921V20.8892V20.8863V20.8834V20.8804V20.8774V20.8744V20.8713V20.8682V20.8651V20.8619V20.8587V20.8554V20.8522V20.8489V20.8455V20.8422V20.8388V20.8353V20.8318V20.8283V20.8248V20.8212V20.8176V20.814V20.8103V20.8066V20.8029V20.7991V20.7953V20.7915V20.7876V20.7837V20.7797V20.7758V20.7718V20.7677V20.7637V20.7596V20.7555V20.7513V20.7471V20.7429V20.7386V20.7343V20.73V20.7257V20.7213V20.7169V20.7124V20.7079V20.7034V20.6989V20.6943V20.6897V20.6851V20.6804V20.6757V20.671V20.6662V20.6614V20.6566V20.6517V20.6468V20.6419V20.637V20.632V20.627V20.622V20.6169V20.6118V20.6067V20.6015V20.5963V20.5911V20.5858V20.5805V20.5752V20.5699V20.5645V20.5591V20.5537V20.5482V20.5427V20.5372V20.5317V20.5261V20.5205V20.5148V20.5092V20.5035V20.4978V20.492V20.4862V20.4804V20.4746V20.4687V20.4628V20.4569V20.4509V20.4449V20.4389V20.4329V20.4268V20.4207V20.4145V20.4084V20.4022V20.396V20.3897V20.3835V20.3772V20.3708V20.3645V20.3581V20.3517V20.3453V20.3388V20.3323V20.3258V20.3192V20.3127V20.3061V20.2994V20.2928V20.2861V20.2794V20.2726V20.2659V20.2591V20.2522V20.2454V20.2385V20.2316V20.2247V20.2177V20.2107V20.2037V20.1967V20.1896V20.1825V20.1754V20.1683V20.1611V20.1539V20.1467V20.1395V20.1322V20.1249V20.1176V20.1102V20.1028V20.0954V20.088V20.0806V20.0731V20.0656V20.0581V20.0505V20.0429V20.0353V20.0277V20.02V20.0124V20.0046V19.9969V19.9892V19.9814V19.9736V19.9657V19.9579V19.95V19.9421V19.9342V19.9262V19.9183V19.9102V19.9022V19.8942V19.8861V19.878V19.8699V19.8617V19.8536V19.8454V19.8372V19.8289V19.8206V19.8124V19.804V19.7957V19.7873V19.779V19.7706V19.7621V19.7537V19.7452V19.7367V19.7282V19.7196V19.7111V19.7025V19.6939V19.6852V19.6766V19.6679V19.6592V19.6505V19.6417V19.6329V19.6241V19.6153V19.6065V19.5976V19.5887V19.5798V19.5709V19.562V19.553V19.544V19.535V19.5259V19.5169V19.5078V19.4987V19.4896V19.4804V19.4713V19.4621V19.4529V19.4436V19.4344V19.4251V19.4158V19.4065V19.3972V19.3878V19.3784V19.369V19.3596V19.3502V19.3407V19.3312V19.3217V19.3122V19.3027V19.2931V19.2835V19.2739V19.2643V19.2547V19.245V19.2353V19.2256V19.2159V19.2062V19.1964V19.1866V19.1768V19.167V19.1572V19.1473V19.1374V19.1275V19.1176V19.1077V19.0977V19.0877V19.0777V19.0677V19.0577V19.0477V19.0376V19.0275V19.0174V19.0073V18.9971V18.987V18.9768V18.9666V18.9564V18.9461V18.9359V18.9256V18.9153V18.905V18.8947V18.8843V18.874V18.8636V18.8532V18.8428V18.8323V18.8219V18.8114V18.8009V18.7904V18.7799V18.7694V18.7588V18.7483V18.7377V18.7271V18.7164V18.7058V18.6951V18.6845V18.6738V18.6631V18.6523V18.6416V18.6308V18.6201V18.6093V18.5985V18.5876V18.5768V18.566V18.5551V18.5442V18.5333V18.5224V18.5114V18.5005V18.4895V18.4785V18.4675V18.4565V18.4455V18.4344V18.4234V18.4123V18.4012V18.3901V18.379V18.3678V18.3567V18.3455V18.3343V18.3232V18.3119V18.3007V18.2895V18.2782V18.2669V18.2557V18.2444V18.233V18.2217V18.2104V18.199V18.1876V18.1763V18.1649V18.1534V18.142V18.1306V18.1191V18.1076V18.0962V18.0847V18.0732V18.0616V18.0501V18.0385V18.027V18.0154V18.0038V17.9922V17.9806V17.9689V17.9573V17.9456V17.934V17.9223V17.9106V17.8989V17.8872V17.8754V17.8637V17.8519V17.8401V17.8284V17.8166V17.8048V17.7929V17.7811V17.7693V17.7574V17.7455V17.7336V17.7217V17.7098V17.6979V17.686V17.6741V17.6621V17.6501V17.6382V17.6262V17.6142V17.6022V17.5901V17.5781V17.5661V17.554V17.5419V17.5299V17.5178V17.5057V17.4936V17.4814V17.4693V17.4572V17.445V17.4329V17.4207V17.4085V17.3963V17.3841V17.3719V17.3597V17.3474V17.3352V17.3229V17.3107V17.2984V17.2861V17.2738V17.2615V17.2492V17.2369V17.2245V17.2122V17.1998V17.1875V17.1751V17.1627V17.1503V17.1379V17.1255V17.1131V17.1007V17.0882V17.0758V17.0633V17.0509V17.0384V17.0259V17.0134ZM17.9776 12.832H21.9782L17.9776 24.6782H13.977L17.9776 12.832Z" fill="white"/>
<path d="M49.0894 15.5281C48.3354 15.5281 47.6464 15.4046 47.0224 15.1576C46.3985 14.9106 45.859 14.5596 45.404 14.1046C44.962 13.6496 44.6175 13.1101 44.3705 12.4861C44.1235 11.8621 44 11.1666 44 10.3996C44 9.64564 44.1235 8.95665 44.3705 8.33266C44.6175 7.69567 44.962 7.14967 45.404 6.69468C45.859 6.23969 46.3985 5.88869 47.0224 5.64169C47.6464 5.3947 48.3354 5.2712 49.0894 5.2712C49.8434 5.2712 50.5324 5.3947 51.1564 5.64169C51.7804 5.88869 52.3134 6.23969 52.7553 6.69468C53.2103 7.14967 53.5613 7.69567 53.8083 8.33266C54.0553 8.95665 54.1788 9.64564 54.1788 10.3996C54.1788 11.1666 54.0553 11.8621 53.8083 12.4861C53.5613 13.1101 53.2103 13.6496 52.7553 14.1046C52.3134 14.5596 51.7804 14.9106 51.1564 15.1576C50.5324 15.4046 49.8434 15.5281 49.0894 15.5281ZM49.0894 14.0461C49.5184 14.0461 49.9214 13.9616 50.2984 13.7926C50.6884 13.6236 51.0199 13.3831 51.2929 13.0711C51.5789 12.7461 51.8064 12.3626 51.9754 11.9206C52.1444 11.4656 52.2289 10.9586 52.2289 10.3996C52.2289 9.84064 52.1444 9.34015 51.9754 8.89815C51.8064 8.44316 51.5789 8.05966 51.2929 7.74767C51.0069 7.42267 50.6754 7.17567 50.2984 7.00668C49.9214 6.83768 49.5184 6.75318 49.0894 6.75318C48.6604 6.75318 48.2509 6.83768 47.8609 7.00668C47.4839 7.17567 47.1524 7.42267 46.8664 7.74767C46.5935 8.05966 46.3725 8.44316 46.2035 8.89815C46.0345 9.34015 45.95 9.84064 45.95 10.3996C45.95 10.9586 46.0345 11.4656 46.2035 11.9206C46.3725 12.3626 46.5935 12.7461 46.8664 13.0711C47.1524 13.3831 47.4839 13.6236 47.8609 13.7926C48.2509 13.9616 48.6604 14.0461 49.0894 14.0461Z" fill="#232431"/>
<path d="M61.279 15.5281C60.317 15.5281 59.5045 15.3526 58.8415 15.0016C58.1915 14.6376 57.6585 14.1306 57.2425 13.4806C56.8396 12.8176 56.5471 12.0246 56.3651 11.1016C56.1831 10.1786 56.0921 9.15165 56.0921 8.02066C56.0921 7.12367 56.1701 6.29169 56.3261 5.5247C56.4821 4.74471 56.7356 4.04272 57.0865 3.41872C57.4505 2.79473 57.9185 2.26824 58.4905 1.83925C59.0755 1.39725 59.7905 1.06575 60.6355 0.844757C61.1035 0.72776 61.526 0.656261 61.903 0.630261C62.28 0.591261 62.6439 0.565261 62.9949 0.552261C63.3589 0.539262 63.7294 0.519762 64.1064 0.493763C64.4964 0.454763 64.9254 0.376764 65.3934 0.259766V1.87824C64.7044 2.06024 64.0414 2.15124 63.4044 2.15124C62.7674 2.15124 62.124 2.20324 61.474 2.30724C60.213 2.52824 59.2965 3.03523 58.7245 3.82822C58.1655 4.60821 57.86 5.60919 57.808 6.83118L57.7885 7.31867H57.886C58.263 6.69468 58.77 6.20069 59.407 5.83669C60.057 5.4597 60.798 5.2712 61.63 5.2712C62.332 5.2712 62.9689 5.4012 63.5409 5.66119C64.1129 5.90819 64.6004 6.25919 65.0034 6.71418C65.4064 7.15617 65.7184 7.69567 65.9394 8.33266C66.1604 8.95665 66.2709 9.64564 66.2709 10.3996C66.2709 11.1406 66.1474 11.8296 65.9004 12.4666C65.6664 13.0906 65.3284 13.6301 64.8864 14.0851C64.4444 14.5401 63.9179 14.8976 63.3069 15.1576C62.6959 15.4046 62.02 15.5281 61.279 15.5281ZM61.279 14.0461C61.747 14.0461 62.163 13.9486 62.527 13.7536C62.9039 13.5586 63.2224 13.2986 63.4824 12.9736C63.7554 12.6356 63.9634 12.2456 64.1064 11.8036C64.2494 11.3616 64.3209 10.8936 64.3209 10.3996C64.3209 9.91864 64.2494 9.45714 64.1064 9.01515C63.9764 8.57316 63.7814 8.18316 63.5214 7.84516C63.2614 7.50717 62.9429 7.24067 62.566 7.04568C62.189 6.85068 61.76 6.75318 61.279 6.75318C60.798 6.75318 60.369 6.85068 59.992 7.04568C59.615 7.24067 59.29 7.50717 59.017 7.84516C58.757 8.18316 58.5555 8.57316 58.4125 9.01515C58.2825 9.45714 58.2175 9.91864 58.2175 10.3996C58.2175 10.9066 58.289 11.3876 58.432 11.8426C58.588 12.2846 58.796 12.6681 59.056 12.9931C59.329 13.3181 59.654 13.5781 60.031 13.7731C60.408 13.9551 60.824 14.0461 61.279 14.0461Z" fill="#232431"/>
<path d="M70.0756 10.8091C70.1796 11.8361 70.5306 12.6291 71.1286 13.1881C71.7266 13.7341 72.5326 14.0071 73.5465 14.0071C74.1445 14.0071 74.7295 13.9356 75.3015 13.7926C75.8865 13.6366 76.3675 13.4481 76.7445 13.2271V15.0211C76.4325 15.1251 76.0035 15.2356 75.4575 15.3526C74.9115 15.4696 74.2355 15.5281 73.4295 15.5281C71.7396 15.5281 70.4396 15.0601 69.5296 14.1241C68.6326 13.1881 68.1841 11.8881 68.1841 10.2241C68.1841 9.47014 68.3011 8.78765 68.5351 8.17666C68.7821 7.56567 69.1136 7.04568 69.5296 6.61668C69.9586 6.18769 70.4591 5.85619 71.0311 5.62219C71.6031 5.3882 72.2206 5.2712 72.8836 5.2712C74.3005 5.2712 75.412 5.68719 76.218 6.51918C77.024 7.35117 77.427 8.61215 77.427 10.3021V10.8091H70.0756ZM72.864 6.75318C72.0971 6.75318 71.4666 7.00018 70.9726 7.49417C70.4916 7.97516 70.1926 8.62515 70.0756 9.44414H75.477C75.477 8.58615 75.23 7.92316 74.736 7.45517C74.242 6.98718 73.618 6.75318 72.864 6.75318Z" fill="#232431"/>
<path d="M82.5007 15.5281C81.9937 15.5281 81.5387 15.5021 81.1357 15.4501C80.7457 15.3981 80.4142 15.3461 80.1412 15.2941C79.8682 15.2291 79.6602 15.1706 79.5172 15.1186C79.3742 15.0666 79.3027 15.0406 79.3027 15.0406V13.4611C79.5367 13.5781 79.8097 13.6756 80.1217 13.7536C80.3817 13.8316 80.6937 13.9031 81.0577 13.9681C81.4347 14.0201 81.8507 14.0461 82.3057 14.0461C83.2417 14.0461 83.9437 13.9031 84.4116 13.6171C84.8796 13.3311 85.1136 12.9346 85.1136 12.4276C85.1136 11.9726 84.9186 11.6086 84.5286 11.3356C84.1517 11.0626 83.5667 10.9261 82.7737 10.9261H81.1747V9.48314H82.4812C83.2742 9.48314 83.8462 9.35964 84.1972 9.11265C84.5481 8.85265 84.7236 8.52116 84.7236 8.11816C84.7236 7.70217 84.5351 7.37067 84.1582 7.12367C83.7942 6.87668 83.2287 6.75318 82.4617 6.75318C82.0847 6.75318 81.7272 6.77918 81.3892 6.83118C81.0512 6.88318 80.7522 6.94168 80.4922 7.00668C80.1932 7.08467 79.9202 7.16917 79.6732 7.26017V5.66119C79.9202 5.5832 80.1932 5.5182 80.4922 5.4662C80.7522 5.4142 81.0577 5.3687 81.4087 5.3297C81.7597 5.2907 82.1497 5.2712 82.5787 5.2712C83.9957 5.2712 85.0291 5.5182 85.6791 6.01219C86.3421 6.49318 86.6736 7.12367 86.6736 7.90366C86.6736 8.43666 86.5241 8.89165 86.2251 9.26865C85.9391 9.64564 85.5036 9.93164 84.9186 10.1266V10.1461C85.6206 10.3021 86.1536 10.6076 86.5176 11.0626C86.8816 11.5046 87.0636 12.0246 87.0636 12.6226C87.0636 13.0256 86.9791 13.4026 86.8101 13.7536C86.6411 14.1046 86.3681 14.4166 85.9911 14.6896C85.6271 14.9496 85.1526 15.1576 84.5676 15.3136C83.9957 15.4566 83.3067 15.5281 82.5007 15.5281Z" fill="#232431"/>
<path d="M89.0032 15.5281C88.7692 15.5281 88.5547 15.5086 88.3597 15.4696C88.1777 15.4306 88.0867 15.4046 88.0867 15.3916V13.7341C88.1387 13.7601 88.1972 13.7796 88.2622 13.7926C88.3922 13.8186 88.5222 13.8316 88.6522 13.8316C88.9772 13.8316 89.2437 13.6951 89.4517 13.4221C89.6727 13.1491 89.8482 12.7136 89.9782 12.1156C90.1212 11.5046 90.2187 10.7181 90.2707 9.75614C90.3357 8.78115 90.3682 7.59817 90.3682 6.20719V5.4272H97.7001V15.3721H95.8671V6.90918H92.0257V7.18217C92.0257 8.69015 91.9607 9.97714 91.8307 11.0431C91.7137 12.0961 91.5317 12.9541 91.2847 13.6171C91.0377 14.2801 90.7257 14.7676 90.3487 15.0796C89.9717 15.3786 89.5232 15.5281 89.0032 15.5281Z" fill="#232431"/>
<path d="M100.934 5.4272H102.767V13.2271H102.806L107.369 5.4272H109.689V15.3721H107.856V7.57217H107.817L103.254 15.3721H100.934V5.4272Z" fill="#232431"/>
<path d="M118.878 11.5306C118.579 11.5956 118.189 11.6606 117.708 11.7256C117.227 11.7776 116.727 11.8036 116.207 11.8036C115.05 11.8036 114.127 11.5696 113.438 11.1016C112.762 10.6336 112.424 9.89914 112.424 8.89815V5.4272H114.257V8.35216C114.257 8.72915 114.289 9.04765 114.354 9.30764C114.432 9.55464 114.562 9.75614 114.744 9.91214C114.926 10.0551 115.167 10.1591 115.466 10.2241C115.778 10.2891 116.168 10.3216 116.636 10.3216C117.429 10.3216 118.176 10.2631 118.878 10.1461V5.4272H120.711V15.3721H118.878V11.5306Z" fill="#232431"/>
<path d="M123.956 5.4272H125.789V13.2271H125.828L130.391 5.4272H132.712V15.3721H130.879V7.57217H130.84L126.277 15.3721H123.956V5.4272Z" fill="#232431"/>
<path d="M143.87 8.04016C143.87 8.56015 143.74 8.98915 143.48 9.32715C143.233 9.65214 142.863 9.91864 142.369 10.1266V10.1656C143.63 10.5816 144.26 11.3486 144.26 12.4666C144.26 12.8826 144.176 13.2661 144.007 13.6171C143.851 13.9681 143.61 14.2736 143.285 14.5336C142.973 14.7936 142.57 15.0016 142.076 15.1576C141.595 15.3006 141.023 15.3721 140.36 15.3721H135.953V5.4272H139.97C140.672 5.4272 141.27 5.4987 141.764 5.64169C142.258 5.77169 142.661 5.95369 142.973 6.18769C143.285 6.42168 143.513 6.70118 143.656 7.02618C143.799 7.33817 143.87 7.67617 143.87 8.04016ZM140.36 13.8901C141.023 13.8901 141.504 13.7601 141.803 13.5001C142.115 13.2401 142.271 12.8826 142.271 12.4276C142.271 11.9726 142.115 11.6151 141.803 11.3551C141.504 11.0821 141.023 10.9456 140.36 10.9456H137.786V13.8901H140.36ZM139.97 9.46364C140.633 9.46364 141.114 9.34014 141.413 9.09315C141.725 8.83315 141.881 8.52766 141.881 8.17666C141.881 7.82566 141.725 7.52667 141.413 7.27967C141.114 7.03268 140.633 6.90918 139.97 6.90918H137.786V9.46364H139.97Z" fill="#232431"/>
<path d="M149.172 15.5281C148.132 15.5281 147.306 15.2681 146.695 14.7481C146.084 14.2151 145.779 13.4806 145.779 12.5446C145.779 11.4526 146.195 10.6206 147.027 10.0486C147.872 9.46364 149.165 9.17115 150.907 9.17115H152.74V8.83965C152.74 8.12466 152.493 7.60467 151.999 7.27967C151.505 6.95468 150.849 6.79218 150.03 6.79218C149.497 6.79218 148.957 6.85718 148.411 6.98718C147.865 7.10417 147.293 7.32517 146.695 7.65017V5.93419C147.189 5.71319 147.755 5.55069 148.392 5.4467C149.029 5.3297 149.653 5.2712 150.264 5.2712C151.629 5.2712 152.688 5.5832 153.442 6.20719C154.196 6.81818 154.573 7.81266 154.573 9.19065V15.3721H152.701V13.8511H152.662C152.246 14.4621 151.713 14.8976 151.063 15.1576C150.426 15.4046 149.796 15.5281 149.172 15.5281ZM149.62 13.9681C150.075 13.9681 150.491 13.8966 150.868 13.7536C151.258 13.6106 151.59 13.4156 151.863 13.1686C152.136 12.9086 152.35 12.6096 152.506 12.2716C152.662 11.9336 152.74 11.5761 152.74 11.1991V10.5751H150.985C150.374 10.5751 149.861 10.6206 149.445 10.7116C149.042 10.8026 148.71 10.9326 148.45 11.1016C148.19 11.2706 148.002 11.4656 147.885 11.6866C147.781 11.9076 147.729 12.1546 147.729 12.4276C147.729 12.9216 147.898 13.3051 148.236 13.5781C148.574 13.8381 149.035 13.9681 149.62 13.9681Z" fill="#232431"/>
<path d="M157.491 5.4272H159.324V9.46364H164.315V5.4272H166.148V15.3721H164.315V10.9456H159.324V15.3721H157.491V5.4272Z" fill="#232431"/>
<path d="M169.392 5.4272H171.225V13.2271H171.264L175.827 5.4272H178.148V15.3721H176.315V7.57217H176.276L171.713 15.3721H169.392V5.4272Z" fill="#232431"/>
<path d="M182.618 10.8091C182.722 11.8361 183.072 12.6291 183.67 13.1881C184.268 13.7341 185.074 14.0071 186.088 14.0071C186.686 14.0071 187.271 13.9356 187.843 13.7926C188.428 13.6366 188.909 13.4481 189.286 13.2271V15.0211C188.974 15.1251 188.545 15.2356 187.999 15.3526C187.453 15.4696 186.777 15.5281 185.971 15.5281C184.281 15.5281 182.981 15.0601 182.072 14.1241C181.175 13.1881 180.726 11.8881 180.726 10.2241C180.726 9.47014 180.843 8.78765 181.077 8.17666C181.324 7.56567 181.656 7.04568 182.072 6.61668C182.501 6.18769 183.001 5.85619 183.573 5.62219C184.145 5.3882 184.762 5.2712 185.425 5.2712C186.842 5.2712 187.954 5.68719 188.76 6.51918C189.566 7.35117 189.969 8.61215 189.969 10.3021V10.8091H182.618ZM185.406 6.75318C184.639 6.75318 184.008 7.00018 183.514 7.49417C183.034 7.97516 182.734 8.62515 182.618 9.44414H188.019C188.019 8.58615 187.772 7.92316 187.278 7.45517C186.784 6.98718 186.16 6.75318 185.406 6.75318Z" fill="#232431"/>
<path d="M44.663 18.552H46.496V23.427L46.4765 24.8504H46.535C46.9119 24.3174 47.3799 23.9209 47.9389 23.661C48.4979 23.401 49.1349 23.271 49.8499 23.271C51.0199 23.271 51.9429 23.622 52.6188 24.3239C53.2948 25.0129 53.6328 26.0789 53.6328 27.5219V33.3718H51.7999V28.1069C51.7999 27.4699 51.7414 26.9369 51.6244 26.5079C51.5204 26.0659 51.3644 25.7214 51.1564 25.4744C50.9614 25.2144 50.7144 25.0324 50.4154 24.9284C50.1294 24.8114 49.8109 24.7529 49.4599 24.7529C48.5629 24.7529 47.8414 25.0779 47.2954 25.7279C46.7625 26.3649 46.496 27.3529 46.496 28.6919V33.3718H44.663V18.552Z" fill="#232431"/>
<path d="M59.1191 33.5278C58.0791 33.5278 57.2536 33.2678 56.6426 32.7478C56.0316 32.2148 55.7261 31.4804 55.7261 30.5444C55.7261 29.4524 56.1421 28.6204 56.9741 28.0484C57.8191 27.4634 59.1126 27.1709 60.8546 27.1709H62.6875V26.8394C62.6875 26.1244 62.4405 25.6044 61.9465 25.2794C61.4525 24.9544 60.7961 24.7919 59.9771 24.7919C59.4441 24.7919 58.9046 24.8569 58.3586 24.9869C57.8126 25.1039 57.2406 25.3249 56.6426 25.6499V23.934C57.1366 23.713 57.7021 23.5505 58.3391 23.4465C58.9761 23.3295 59.6001 23.271 60.2111 23.271C61.576 23.271 62.6355 23.583 63.3895 24.2069C64.1435 24.8179 64.5205 25.8124 64.5205 27.1904V33.3718H62.6485V31.8508H62.6095C62.1935 32.4618 61.6605 32.8973 61.0105 33.1573C60.3736 33.4043 59.7431 33.5278 59.1191 33.5278ZM59.5676 31.9678C60.0226 31.9678 60.4386 31.8963 60.8156 31.7533C61.2055 31.6103 61.537 31.4153 61.81 31.1684C62.083 30.9084 62.2975 30.6094 62.4535 30.2714C62.6095 29.9334 62.6875 29.5759 62.6875 29.1989V28.5749H60.9326C60.3216 28.5749 59.8081 28.6204 59.3921 28.7114C58.9891 28.8024 58.6576 28.9324 58.3976 29.1014C58.1376 29.2704 57.9491 29.4654 57.8321 29.6864C57.7281 29.9074 57.6761 30.1544 57.6761 30.4274C57.6761 30.9214 57.8451 31.3049 58.1831 31.5779C58.5211 31.8378 58.9826 31.9678 59.5676 31.9678Z" fill="#232431"/>
<path d="M71.3964 33.5278C70.6944 33.5278 70.0574 33.3978 69.4854 33.1378C68.9134 32.8778 68.426 32.5138 68.023 32.0458C67.62 31.5778 67.308 31.0254 67.087 30.3884C66.879 29.7384 66.775 29.0364 66.775 28.2824C66.775 27.5674 66.8855 26.9044 67.1065 26.2934C67.3275 25.6824 67.6395 25.1559 68.0425 24.7139C68.4454 24.2589 68.9264 23.908 69.4854 23.661C70.0574 23.401 70.6814 23.271 71.3574 23.271C72.1114 23.271 72.7484 23.414 73.2684 23.7C73.8014 23.9859 74.2498 24.3369 74.6138 24.7529H74.6528V18.552H76.4858V33.3718H74.7308V31.9678H74.6138C74.2368 32.4488 73.7884 32.8323 73.2684 33.1183C72.7614 33.3913 72.1374 33.5278 71.3964 33.5278ZM71.7084 32.0458C72.1374 32.0458 72.5339 31.9548 72.8979 31.7728C73.2619 31.5908 73.5739 31.3439 73.8339 31.0319C74.0938 30.7069 74.2953 30.3234 74.4383 29.8814C74.5813 29.4394 74.6528 28.9519 74.6528 28.4189C74.6528 27.8859 74.5748 27.3984 74.4188 26.9564C74.2758 26.5014 74.0743 26.1114 73.8144 25.7864C73.5544 25.4614 73.2424 25.2079 72.8784 25.0259C72.5144 24.8439 72.1114 24.7529 71.6694 24.7529C71.2534 24.7529 70.8634 24.8439 70.4994 25.0259C70.1354 25.2079 69.8234 25.4614 69.5634 25.7864C69.3034 26.0984 69.0954 26.4754 68.9394 26.9174C68.7964 27.3594 68.7249 27.8404 68.7249 28.3604C68.7249 28.8934 68.7964 29.3874 68.9394 29.8424C69.0954 30.2844 69.3034 30.6744 69.5634 31.0124C69.8364 31.3374 70.1549 31.5908 70.5189 31.7728C70.8829 31.9548 71.2794 32.0458 71.7084 32.0458Z" fill="#232431"/>
<path d="M84.1469 33.5278C83.3929 33.5278 82.7039 33.4043 82.0799 33.1573C81.4559 32.9103 80.9164 32.5593 80.4614 32.1043C80.0195 31.6493 79.675 31.1099 79.428 30.4859C79.181 29.8619 79.0575 29.1664 79.0575 28.3994C79.0575 27.6454 79.181 26.9564 79.428 26.3324C79.675 25.6954 80.0195 25.1494 80.4614 24.6944C80.9164 24.2394 81.4559 23.8885 82.0799 23.6415C82.7039 23.3945 83.3929 23.271 84.1469 23.271C84.9009 23.271 85.5899 23.3945 86.2138 23.6415C86.8378 23.8885 87.3708 24.2394 87.8128 24.6944C88.2678 25.1494 88.6188 25.6954 88.8658 26.3324C89.1128 26.9564 89.2363 27.6454 89.2363 28.3994C89.2363 29.1664 89.1128 29.8619 88.8658 30.4859C88.6188 31.1099 88.2678 31.6493 87.8128 32.1043C87.3708 32.5593 86.8378 32.9103 86.2138 33.1573C85.5899 33.4043 84.9009 33.5278 84.1469 33.5278ZM84.1469 32.0458C84.5759 32.0458 84.9789 31.9613 85.3559 31.7923C85.7459 31.6234 86.0773 31.3829 86.3503 31.0709C86.6363 30.7459 86.8638 30.3624 87.0328 29.9204C87.2018 29.4654 87.2863 28.9584 87.2863 28.3994C87.2863 27.8404 87.2018 27.3399 87.0328 26.8979C86.8638 26.4429 86.6363 26.0594 86.3503 25.7474C86.0643 25.4224 85.7329 25.1754 85.3559 25.0064C84.9789 24.8374 84.5759 24.7529 84.1469 24.7529C83.7179 24.7529 83.3084 24.8374 82.9184 25.0064C82.5414 25.1754 82.2099 25.4224 81.9239 25.7474C81.6509 26.0594 81.4299 26.4429 81.2609 26.8979C81.0919 27.3399 81.0074 27.8404 81.0074 28.3994C81.0074 28.9584 81.0919 29.4654 81.2609 29.9204C81.4299 30.3624 81.6509 30.7459 81.9239 31.0709C82.2099 31.3829 82.5414 31.6234 82.9184 31.7923C83.3084 31.9613 83.7179 32.0458 84.1469 32.0458Z" fill="#232431"/>
<path d="M96.2389 33.5278C95.485 33.5278 94.796 33.4043 94.172 33.1573C93.548 32.9103 93.0085 32.5593 92.5535 32.1043C92.1115 31.6493 91.767 31.1099 91.52 30.4859C91.273 29.8619 91.1495 29.1664 91.1495 28.3994C91.1495 27.6454 91.273 26.9564 91.52 26.3324C91.767 25.6954 92.1115 25.1494 92.5535 24.6944C93.0085 24.2394 93.548 23.8885 94.172 23.6415C94.796 23.3945 95.485 23.271 96.2389 23.271C96.9929 23.271 97.6819 23.3945 98.3059 23.6415C98.9299 23.8885 99.4629 24.2394 99.9049 24.6944C100.36 25.1494 100.711 25.6954 100.958 26.3324C101.205 26.9564 101.328 27.6454 101.328 28.3994C101.328 29.1664 101.205 29.8619 100.958 30.4859C100.711 31.1099 100.36 31.6493 99.9049 32.1043C99.4629 32.5593 98.9299 32.9103 98.3059 33.1573C97.6819 33.4043 96.9929 33.5278 96.2389 33.5278ZM96.2389 32.0458C96.6679 32.0458 97.0709 31.9613 97.4479 31.7923C97.8379 31.6234 98.1694 31.3829 98.4424 31.0709C98.7284 30.7459 98.9559 30.3624 99.1249 29.9204C99.2939 29.4654 99.3784 28.9584 99.3784 28.3994C99.3784 27.8404 99.2939 27.3399 99.1249 26.8979C98.9559 26.4429 98.7284 26.0594 98.4424 25.7474C98.1564 25.4224 97.8249 25.1754 97.4479 25.0064C97.0709 24.8374 96.6679 24.7529 96.2389 24.7529C95.81 24.7529 95.4005 24.8374 95.0105 25.0064C94.6335 25.1754 94.302 25.4224 94.016 25.7474C93.743 26.0594 93.522 26.4429 93.353 26.8979C93.184 27.3399 93.0995 27.8404 93.0995 28.3994C93.0995 28.9584 93.184 29.4654 93.353 29.9204C93.522 30.3624 93.743 30.7459 94.016 31.0709C94.302 31.3829 94.6335 31.6234 95.0105 31.7923C95.4005 31.9613 95.81 32.0458 96.2389 32.0458Z" fill="#232431"/>
<path d="M105.718 32.0653V37.7398H103.885V23.427H105.64V24.8504H105.679C105.939 24.4994 106.219 24.2199 106.518 24.0119C106.83 23.804 107.135 23.648 107.434 23.544C107.733 23.427 108.019 23.3555 108.292 23.3295C108.565 23.2905 108.799 23.271 108.994 23.271C109.722 23.271 110.372 23.401 110.944 23.661C111.516 23.908 111.997 24.2589 112.387 24.7139C112.777 25.1689 113.076 25.7084 113.284 26.3324C113.492 26.9434 113.596 27.6064 113.596 28.3214C113.596 29.0234 113.492 29.6929 113.284 30.3299C113.089 30.9539 112.796 31.5064 112.406 31.9873C112.016 32.4553 111.542 32.8323 110.983 33.1183C110.424 33.3913 109.793 33.5278 109.092 33.5278C108.286 33.5278 107.603 33.3783 107.044 33.0793C106.498 32.7673 106.082 32.4293 105.796 32.0653H105.718ZM108.663 32.0458C109.572 32.0458 110.294 31.7078 110.827 31.0319C111.373 30.3429 111.646 29.4199 111.646 28.2629C111.646 27.1969 111.379 26.3454 110.846 25.7084C110.326 25.0714 109.618 24.7529 108.721 24.7529C107.798 24.7529 107.064 25.0844 106.518 25.7474C105.985 26.4104 105.718 27.3009 105.718 28.4189C105.718 29.5239 105.985 30.4079 106.518 31.0709C107.051 31.7208 107.766 32.0458 108.663 32.0458Z" fill="#232431"/>
</svg>
