<svg width="288" height="36" viewBox="0 0 288 36" fill="none" xmlns="http://www.w3.org/2000/svg">
<rect width="36" height="36" fill="#5974FF"/>
<path d="M10.0001 16.5H6.00006V26H10.0001V16.5Z" fill="white"/>
<path d="M20.0001 29.9995V25.9995H10.0001V29.9995H20.0001Z" fill="white"/>
<path d="M20.0001 16.5005V12.5005H10.0001V16.5005H20.0001Z" fill="white"/>
<path d="M30.0001 10.0015V6.00146L6.00009 6.00146V10.0015L30.0001 10.0015Z" fill="white"/>
<path d="M30.0001 30.0005V12.5005H26.0001V30.0005H30.0001Z" fill="white"/>
<path d="M24.0001 16.5H20.0001V26H24.0001V16.5Z" fill="white"/>
<path d="M47.3933 15.0905C45.3261 15.0905 44 13.9594 44 12.1067C44 9.94197 45.6577 8.73286 49.129 8.73286H50.9622V8.40132C50.9622 6.97769 49.8896 6.35363 48.2514 6.35363C47.1983 6.35363 46.1062 6.56815 44.9166 7.21171V5.49554C45.9112 5.0665 47.2763 4.83248 48.4854 4.83248C51.1962 4.83248 52.7953 6.00259 52.7953 8.75236V14.9345H50.9232V13.4133H50.8842C50.0456 14.6419 48.6414 15.0905 47.3933 15.0905ZM47.8419 13.5303C49.6555 13.5303 50.9622 12.2822 50.9622 10.7611V10.137H49.207C46.7888 10.137 45.9502 10.9171 45.9502 11.9897C45.9502 12.9843 46.6718 13.5303 47.8419 13.5303Z" fill="#232431"/>
<path d="M55.7131 14.9345V4.9885H57.5463V9.02538H62.5388V4.9885H64.372V14.9345H62.5388V10.5075H57.5463V14.9345H55.7131Z" fill="#232431"/>
<path d="M70.1709 15.0905C68.1037 15.0905 66.7775 13.9594 66.7775 12.1067C66.7775 9.94197 68.4352 8.73286 71.9065 8.73286H73.7397V8.40132C73.7397 6.97769 72.6671 6.35363 71.0289 6.35363C69.9758 6.35363 68.8837 6.56815 67.6941 7.21171V5.49554C68.6887 5.0665 70.0539 4.83248 71.263 4.83248C73.9737 4.83248 75.5729 6.00259 75.5729 8.75236V14.9345H73.7007V13.4133H73.6617C72.8231 14.6419 71.419 15.0905 70.1709 15.0905ZM70.6194 13.5303C72.4331 13.5303 73.7397 12.2822 73.7397 10.7611V10.137H71.9845C69.5663 10.137 68.7277 10.9171 68.7277 11.9897C68.7277 12.9843 69.4493 13.5303 70.6194 13.5303Z" fill="#232431"/>
<path d="M78.0616 15.0905C77.5936 15.0905 77.1451 14.9735 77.1451 14.954V13.2963C77.1451 13.2963 77.4376 13.3938 77.7106 13.3938C78.9977 13.3938 79.4268 11.3266 79.4268 5.76857V4.9885H86.7595V14.9345H84.9263V6.47064H81.0844V6.74367C81.0844 12.7892 80.1288 15.0905 78.0616 15.0905Z" fill="#232431"/>
<path d="M89.9937 14.9345V4.9885H91.8269V12.7892H91.8659L96.4293 4.9885H98.7501V14.9345H96.9169V7.1337H96.8779L92.3144 14.9345H89.9937Z" fill="#232431"/>
<path d="M104.43 15.0905C102.382 15.0905 101.231 14.6224 101.231 14.6029V13.0233C101.231 13.0233 102.401 13.6083 104.235 13.6083C106.107 13.6083 107.043 13.0038 107.043 11.9897C107.043 11.0731 106.282 10.488 104.703 10.488H103.104V9.04489H104.41C105.99 9.04489 106.653 8.47933 106.653 7.67976C106.653 6.84117 105.912 6.31462 104.391 6.31462C102.87 6.31462 101.602 6.82167 101.602 6.82167V5.22252C101.602 5.22252 102.811 4.83248 104.508 4.83248C107.335 4.83248 108.603 5.92459 108.603 7.46524C108.603 8.51834 108.018 9.29841 106.848 9.68845V9.70795C108.252 10.02 108.993 10.9951 108.993 12.1847C108.993 13.7838 107.667 15.0905 104.43 15.0905Z" fill="#232431"/>
<path d="M115.857 14.9345V4.9885H124.32V14.9345H122.487V6.47064H117.69V14.9345H115.857Z" fill="#232431"/>
<path d="M131.977 15.0905C128.974 15.0905 126.887 13.0038 126.887 9.96147C126.887 6.91918 128.974 4.83248 131.977 4.83248C134.98 4.83248 137.067 6.91918 137.067 9.96147C137.067 13.0038 134.98 15.0905 131.977 15.0905ZM131.977 13.6083C133.693 13.6083 135.117 12.1847 135.117 9.96147C135.117 7.73826 133.674 6.31462 131.977 6.31462C130.261 6.31462 128.837 7.73826 128.837 9.96147C128.837 12.1847 130.261 13.6083 131.977 13.6083Z" fill="#232431"/>
<path d="M139.214 15.0905C138.746 15.0905 138.298 14.9735 138.298 14.954V13.2963C138.298 13.2963 138.59 13.3938 138.863 13.3938C140.15 13.3938 140.58 11.3266 140.58 5.76857V4.9885H147.912V14.9345H146.079V6.47064H142.237V6.74367C142.237 12.7892 141.282 15.0905 139.214 15.0905Z" fill="#232431"/>
<path d="M151.146 14.9345V4.9885H152.98V8.42083H155.339C158.167 8.42083 159.435 9.70795 159.435 11.6776C159.435 13.6473 158.167 14.9345 155.339 14.9345H151.146ZM155.339 9.90297H152.98V13.4523H155.339C156.9 13.4523 157.563 12.7502 157.563 11.6776C157.563 10.605 156.88 9.90297 155.339 9.90297Z" fill="#232431"/>
<path d="M163.926 15.0905C161.878 15.0905 160.727 14.6224 160.727 14.6029V13.0233C160.727 13.0233 161.897 13.6083 163.731 13.6083C165.603 13.6083 166.539 13.0038 166.539 11.9897C166.539 11.0731 165.778 10.488 164.199 10.488H162.599V9.04489H163.906C165.486 9.04489 166.149 8.47933 166.149 7.67976C166.149 6.84117 165.408 6.31462 163.887 6.31462C162.365 6.31462 161.098 6.82167 161.098 6.82167V5.22252C161.098 5.22252 162.307 4.83248 164.004 4.83248C166.831 4.83248 168.099 5.92459 168.099 7.46524C168.099 8.51834 167.514 9.29841 166.344 9.68845V9.70795C167.748 10.02 168.489 10.9951 168.489 12.1847C168.489 13.7838 167.163 15.0905 163.926 15.0905Z" fill="#232431"/>
<path d="M175.285 15.0905C172.281 15.0905 170.195 13.0038 170.195 9.96147C170.195 6.91918 172.281 4.83248 175.285 4.83248C178.288 4.83248 180.375 6.91918 180.375 9.96147C180.375 13.0038 178.288 15.0905 175.285 15.0905ZM175.285 13.6083C177.001 13.6083 178.425 12.1847 178.425 9.96147C178.425 7.73826 176.981 6.31462 175.285 6.31462C173.569 6.31462 172.145 7.73826 172.145 9.96147C172.145 12.1847 173.569 13.6083 175.285 13.6083Z" fill="#232431"/>
<path d="M190.869 7.60175C190.869 8.63535 190.362 9.27891 189.367 9.68845V9.72745C190.615 10.137 191.259 10.8781 191.259 12.0287C191.259 13.6668 189.991 14.9345 187.359 14.9345H182.951V4.9885H186.969C189.796 4.9885 190.869 6.11961 190.869 7.60175ZM184.784 13.4523H187.359C188.685 13.4523 189.27 12.8868 189.27 11.9897C189.27 11.0926 188.685 10.5075 187.359 10.5075H184.784V13.4523ZM184.784 9.02538H186.969C188.295 9.02538 188.88 8.44033 188.88 7.73826C188.88 7.03619 188.295 6.47064 186.969 6.47064H184.784V9.02538Z" fill="#232431"/>
<path d="M196.171 15.0905C194.104 15.0905 192.778 13.9594 192.778 12.1067C192.778 9.94197 194.435 8.73286 197.907 8.73286H199.74V8.40132C199.74 6.97769 198.667 6.35363 197.029 6.35363C195.976 6.35363 194.884 6.56815 193.694 7.21171V5.49554C194.689 5.0665 196.054 4.83248 197.263 4.83248C199.974 4.83248 201.573 6.00259 201.573 8.75236V14.9345H199.701V13.4133H199.662C198.823 14.6419 197.419 15.0905 196.171 15.0905ZM196.62 13.5303C198.433 13.5303 199.74 12.2822 199.74 10.7611V10.137H197.985C195.567 10.137 194.728 10.9171 194.728 11.9897C194.728 12.9843 195.45 13.5303 196.62 13.5303Z" fill="#232431"/>
<path d="M206.636 14.9345V6.47064H203.165V4.9885H211.941V6.47064H208.469V14.9345H206.636Z" fill="#232431"/>
<path d="M222.156 10.371H214.804C215.018 12.4187 216.266 13.5693 218.275 13.5693C219.465 13.5693 220.732 13.2183 221.473 12.7892V14.5834C220.849 14.7784 219.757 15.0905 218.158 15.0905C214.804 15.0905 212.912 13.1013 212.912 9.78596C212.912 6.74367 214.979 4.83248 217.612 4.83248C220.44 4.83248 222.156 6.49014 222.156 9.86397V10.371ZM217.593 6.31462C216.071 6.31462 215.038 7.36772 214.804 9.00588H220.206C220.206 7.28972 219.094 6.31462 217.593 6.31462Z" fill="#232431"/>
<path d="M224.364 15.0905C223.896 15.0905 223.447 14.9735 223.447 14.954V13.2963C223.447 13.2963 223.74 13.3938 224.013 13.3938C225.3 13.3938 225.729 11.3266 225.729 5.76857V4.9885H233.061V14.9345H231.228V6.47064H227.386V6.74367C227.386 12.7892 226.431 15.0905 224.364 15.0905Z" fill="#232431"/>
<path d="M236.296 14.9345V4.9885H238.129V8.42083H240.489C243.316 8.42083 244.584 9.70795 244.584 11.6776C244.584 13.6473 243.316 14.9345 240.489 14.9345H236.296ZM240.489 9.90297H238.129V13.4523H240.489C242.049 13.4523 242.712 12.7502 242.712 11.6776C242.712 10.605 242.029 9.90297 240.489 9.90297Z" fill="#232431"/>
<path d="M250.947 15.0905C247.866 15.0905 245.974 13.0233 245.974 9.96147C245.974 6.89968 247.924 4.83248 250.966 4.83248C252.546 4.83248 253.443 5.22252 253.443 5.22252V6.80217C253.443 6.80217 252.507 6.31462 251.161 6.31462C249.094 6.31462 247.924 7.64075 247.924 9.96147C247.924 12.2822 249.094 13.6083 251.142 13.6083C252.507 13.6083 253.443 13.1013 253.443 13.1013V14.7004C253.443 14.7004 252.488 15.0905 250.947 15.0905Z" fill="#232431"/>
<path d="M256.102 14.9345V4.9885H257.935V9.00588H259.788L262.674 4.9885H264.82L261.426 9.70795L265.288 14.9345H263.006L259.769 10.488H257.935V14.9345H256.102Z" fill="#232431"/>
<path d="M271.366 15.0905C268.362 15.0905 266.276 13.0038 266.276 9.96147C266.276 6.91918 268.362 4.83248 271.366 4.83248C274.369 4.83248 276.456 6.91918 276.456 9.96147C276.456 13.0038 274.369 15.0905 271.366 15.0905ZM271.366 13.6083C273.082 13.6083 274.505 12.1847 274.505 9.96147C274.505 7.73826 273.062 6.31462 271.366 6.31462C269.649 6.31462 268.226 7.73826 268.226 9.96147C268.226 12.1847 269.649 13.6083 271.366 13.6083Z" fill="#232431"/>
<path d="M279.032 14.9345V4.9885H280.865V12.7892H280.904L285.468 4.9885H287.788V14.9345H285.955V7.1337H285.916L281.353 14.9345H279.032ZM283.479 2.9213C281.84 2.9213 280.475 2.08272 280.397 0.269043H281.782C281.918 1.12713 282.581 1.59517 283.479 1.59517C284.376 1.59517 284.98 1.12713 285.117 0.269043H286.443C286.365 2.08272 285.117 2.9213 283.479 2.9213Z" fill="#232431"/>
<path d="M47.3933 32.5459C45.3261 32.5459 44 31.4148 44 29.5621C44 27.3974 45.6577 26.1883 49.129 26.1883H50.9622V25.8567C50.9622 24.4331 49.8896 23.809 48.2514 23.809C47.1983 23.809 46.1062 24.0236 44.9166 24.6671V22.951C45.9112 22.5219 47.2763 22.2879 48.4854 22.2879C51.1962 22.2879 52.7953 23.458 52.7953 26.2078V32.3899H50.9232V30.8687H50.8842C50.0456 32.0973 48.6414 32.5459 47.3933 32.5459ZM47.8419 30.9857C49.6555 30.9857 50.9622 29.7376 50.9622 28.2165V27.5924H49.207C46.7888 27.5924 45.9502 28.3725 45.9502 29.4451C45.9502 30.4397 46.6718 30.9857 47.8419 30.9857Z" fill="#232431"/>
<path d="M55.7131 32.3899V22.4439H57.5463V26.4613H59.399L62.2853 22.4439H64.4305L61.0371 27.1634L64.8985 32.3899H62.6168L59.3795 27.9434H57.5463V32.3899H55.7131Z" fill="#232431"/>
<path d="M68.8853 32.3899V23.9261H65.4139V22.4439H74.1898V23.9261H70.7184V32.3899H68.8853Z" fill="#232431"/>
<path d="M76.1101 32.3899V22.4439H77.9433V30.2447H77.9823L82.5457 22.4439H84.8664V32.3899H83.0332V24.5891H82.9942L78.4308 32.3899H76.1101Z" fill="#232431"/>
<path d="M96.026 25.0572C96.026 26.0908 95.519 26.7343 94.5244 27.1439V27.1829C95.7725 27.5924 96.4161 28.3335 96.4161 29.4841C96.4161 31.1222 95.1485 32.3899 92.5157 32.3899H88.1083V22.4439H92.1257C94.9534 22.4439 96.026 23.575 96.026 25.0572ZM89.9415 30.9077H92.5157C93.8418 30.9077 94.4269 30.3422 94.4269 29.4451C94.4269 28.548 93.8418 27.9629 92.5157 27.9629H89.9415V30.9077ZM89.9415 26.4808H92.1257C93.4518 26.4808 94.0369 25.8957 94.0369 25.1937C94.0369 24.4916 93.4518 23.9261 92.1257 23.9261H89.9415V26.4808Z" fill="#232431"/>
<path d="M98.7734 32.3899V22.4439H100.607V26.4808H105.599V22.4439H107.432V32.3899H105.599V27.9629H100.607V32.3899H98.7734Z" fill="#232431"/>
<path d="M115.103 32.5459C112.1 32.5459 110.013 30.4592 110.013 27.4169C110.013 24.3746 112.1 22.2879 115.103 22.2879C118.107 22.2879 120.193 24.3746 120.193 27.4169C120.193 30.4592 118.107 32.5459 115.103 32.5459ZM115.103 31.0637C116.819 31.0637 118.243 29.6401 118.243 27.4169C118.243 25.1937 116.8 23.77 115.103 23.77C113.387 23.77 111.963 25.1937 111.963 27.4169C111.963 29.6401 113.387 31.0637 115.103 31.0637Z" fill="#232431"/>
<path d="M127.08 32.5459C123.998 32.5459 122.107 30.4787 122.107 27.4169C122.107 24.3551 124.057 22.2879 127.099 22.2879C128.679 22.2879 129.576 22.6779 129.576 22.6779V24.2576C129.576 24.2576 128.64 23.77 127.294 23.77C125.227 23.77 124.057 25.0962 124.057 27.4169C124.057 29.7376 125.227 31.0637 127.275 31.0637C128.64 31.0637 129.576 30.5567 129.576 30.5567V32.1558C129.576 32.1558 128.62 32.5459 127.08 32.5459Z" fill="#232431"/>
<path d="M134.38 32.3899V23.9261H130.909V22.4439H139.685V23.9261H136.213V32.3899H134.38Z" fill="#232431"/>
<path d="M141.605 32.3899V22.4439H143.438V30.2447H143.477L148.041 22.4439H150.361V32.3899H148.528V24.5891H148.489L143.926 32.3899H141.605Z" fill="#232431"/>
</svg>
