<svg width="246" height="36" viewBox="0 0 246 36" fill="none" xmlns="http://www.w3.org/2000/svg">
<rect width="36" height="36" fill="#5974FF"/>
<path d="M20 4H16V8H20V4Z" fill="white"/>
<path d="M20 11.9995H16V31.9995H20V11.9995Z" fill="white"/>
<path d="M9.99997 19.9995H5.99997V31.9995H9.99997V19.9995Z" fill="white"/>
<path d="M9.99997 4H5.99997V16H9.99997V4Z" fill="white"/>
<path d="M30 4H26V16H30V4Z" fill="white"/>
<path d="M30 19.9995H26V31.9995H30V19.9995Z" fill="white"/>
<path d="M44 12.0549H46.8275L49.538 17.7294L52.2485 12.0549H54.998V21.9999H53.165V13.8099H53.126L50.4155 19.4649H48.5825L45.872 13.8099H45.833V21.9999H44V12.0549Z" fill="#232431"/>
<path d="M62.6706 22.1559C61.9166 22.1559 61.2276 22.0324 60.6036 21.7854C59.9796 21.5384 59.4401 21.1874 58.9851 20.7324C58.5431 20.2774 58.1986 19.7379 57.9516 19.1139C57.7046 18.4899 57.5811 17.7944 57.5811 17.0274C57.5811 16.2734 57.7046 15.5844 57.9516 14.9604C58.1986 14.3234 58.5431 13.7774 58.9851 13.3224C59.4401 12.8674 59.9796 12.5164 60.6036 12.2694C61.2276 12.0224 61.9166 11.8989 62.6706 11.8989C63.4246 11.8989 64.1136 12.0224 64.7376 12.2694C65.3616 12.5164 65.8946 12.8674 66.3366 13.3224C66.7916 13.7774 67.1426 14.3234 67.3896 14.9604C67.6366 15.5844 67.7601 16.2734 67.7601 17.0274C67.7601 17.7944 67.6366 18.4899 67.3896 19.1139C67.1426 19.7379 66.7916 20.2774 66.3366 20.7324C65.8946 21.1874 65.3616 21.5384 64.7376 21.7854C64.1136 22.0324 63.4246 22.1559 62.6706 22.1559ZM62.6706 20.6739C63.0996 20.6739 63.5026 20.5894 63.8796 20.4204C64.2696 20.2514 64.6011 20.0109 64.8741 19.6989C65.1601 19.3739 65.3876 18.9904 65.5566 18.5484C65.7256 18.0934 65.8101 17.5864 65.8101 17.0274C65.8101 16.4684 65.7256 15.9679 65.5566 15.5259C65.3876 15.0709 65.1601 14.6874 64.8741 14.3754C64.5881 14.0504 64.2566 13.8034 63.8796 13.6344C63.5026 13.4654 63.0996 13.3809 62.6706 13.3809C62.2416 13.3809 61.8321 13.4654 61.4421 13.6344C61.0651 13.8034 60.7336 14.0504 60.4476 14.3754C60.1746 14.6874 59.9536 15.0709 59.7846 15.5259C59.6156 15.9679 59.5311 16.4684 59.5311 17.0274C59.5311 17.5864 59.6156 18.0934 59.7846 18.5484C59.9536 18.9904 60.1746 19.3739 60.4476 19.6989C60.7336 20.0109 61.0651 20.2514 61.4421 20.4204C61.8321 20.5894 62.2416 20.6739 62.6706 20.6739Z" fill="#232431"/>
<path d="M70.3364 12.0549H72.1694V20.5179H76.1864V12.0549H78.0194V20.5179H82.0364V12.0549H83.8694V20.5179H85.3319V24.8079H83.5769V21.9999H70.3364V12.0549Z" fill="#232431"/>
<path d="M87.3037 12.0549H89.1367V16.0914H94.1287V12.0549H95.9617V21.9999H94.1287V17.5734H89.1367V21.9999H87.3037V12.0549Z" fill="#232431"/>
<path d="M103.632 22.1559C102.878 22.1559 102.189 22.0324 101.565 21.7854C100.941 21.5384 100.402 21.1874 99.9466 20.7324C99.5046 20.2774 99.1601 19.7379 98.9131 19.1139C98.6661 18.4899 98.5426 17.7944 98.5426 17.0274C98.5426 16.2734 98.6661 15.5844 98.9131 14.9604C99.1601 14.3234 99.5046 13.7774 99.9466 13.3224C100.402 12.8674 100.941 12.5164 101.565 12.2694C102.189 12.0224 102.878 11.8989 103.632 11.8989C104.386 11.8989 105.075 12.0224 105.699 12.2694C106.323 12.5164 106.856 12.8674 107.298 13.3224C107.753 13.7774 108.104 14.3234 108.351 14.9604C108.598 15.5844 108.722 16.2734 108.722 17.0274C108.722 17.7944 108.598 18.4899 108.351 19.1139C108.104 19.7379 107.753 20.2774 107.298 20.7324C106.856 21.1874 106.323 21.5384 105.699 21.7854C105.075 22.0324 104.386 22.1559 103.632 22.1559ZM103.632 20.6739C104.061 20.6739 104.464 20.5894 104.841 20.4204C105.231 20.2514 105.563 20.0109 105.836 19.6989C106.122 19.3739 106.349 18.9904 106.518 18.5484C106.687 18.0934 106.772 17.5864 106.772 17.0274C106.772 16.4684 106.687 15.9679 106.518 15.5259C106.349 15.0709 106.122 14.6874 105.836 14.3754C105.55 14.0504 105.218 13.8034 104.841 13.6344C104.464 13.4654 104.061 13.3809 103.632 13.3809C103.203 13.3809 102.794 13.4654 102.404 13.6344C102.027 13.8034 101.695 14.0504 101.409 14.3754C101.136 14.6874 100.915 15.0709 100.746 15.5259C100.577 15.9679 100.493 16.4684 100.493 17.0274C100.493 17.5864 100.577 18.0934 100.746 18.5484C100.915 18.9904 101.136 19.3739 101.409 19.6989C101.695 20.0109 102.027 20.2514 102.404 20.4204C102.794 20.5894 103.203 20.6739 103.632 20.6739Z" fill="#232431"/>
<path d="M115.607 22.1559C114.84 22.1559 114.145 22.0324 113.521 21.7854C112.91 21.5384 112.39 21.1939 111.961 20.7519C111.532 20.2969 111.2 19.7574 110.966 19.1334C110.745 18.4964 110.635 17.7944 110.635 17.0274C110.635 16.2604 110.752 15.5649 110.986 14.9409C111.22 14.3039 111.551 13.7644 111.98 13.3224C112.422 12.8674 112.949 12.5164 113.56 12.2694C114.171 12.0224 114.86 11.8989 115.627 11.8989C116.017 11.8989 116.361 11.9184 116.66 11.9574C116.972 11.9964 117.239 12.0419 117.46 12.0939C117.707 12.1459 117.921 12.2109 118.103 12.2889V13.8684C117.908 13.7774 117.694 13.6994 117.46 13.6344C117.252 13.5694 117.011 13.5109 116.738 13.4589C116.465 13.4069 116.16 13.3809 115.822 13.3809C114.782 13.3809 113.982 13.6994 113.423 14.3364C112.864 14.9604 112.585 15.8574 112.585 17.0274C112.585 18.1974 112.864 19.1009 113.423 19.7379C113.982 20.3619 114.775 20.6739 115.802 20.6739C116.14 20.6739 116.446 20.6479 116.719 20.5959C117.005 20.5439 117.252 20.4854 117.46 20.4204C117.694 20.3554 117.908 20.2709 118.103 20.1669V21.7659C117.908 21.8439 117.687 21.9089 117.44 21.9609C117.219 22.0129 116.953 22.0584 116.641 22.0974C116.329 22.1364 115.984 22.1559 115.607 22.1559Z" fill="#232431"/>
<path d="M122.907 13.5369H119.436V12.0549H128.211V13.5369H124.74V21.9999H122.907V13.5369Z" fill="#232431"/>
<path d="M130.131 12.0549H131.964V19.8549H132.003L136.566 12.0549H138.887V21.9999H137.054V14.1999H137.015L132.452 21.9999H130.131V12.0549Z" fill="#232431"/>
</svg>
