<svg width="246" height="36" viewBox="0 0 246 36" fill="none" xmlns="http://www.w3.org/2000/svg">
<rect width="36" height="36" fill="#31A7FD"/>
<path fill-rule="evenodd" clip-rule="evenodd" d="M27.9751 17.9995V19.9995C27.9751 24.4183 24.3915 27.9995 19.9738 27.9995H17.9751V23.9995H19.9738C22.1835 23.9995 23.9751 22.2081 23.9751 19.9995V17.9995H27.9751Z" fill="white"/>
<path fill-rule="evenodd" clip-rule="evenodd" d="M17.9751 27.9995L15.9751 27.9995C11.5563 27.9995 7.9751 24.4159 7.9751 19.9982L7.9751 17.9995L11.9751 17.9995L11.9751 19.9982C11.9751 22.2079 13.7665 23.9995 15.9751 23.9995L17.9751 23.9995L17.9751 27.9995Z" fill="white"/>
<path fill-rule="evenodd" clip-rule="evenodd" d="M7.97509 17.9995L7.97509 15.9995C7.97509 11.5807 11.5587 7.99951 15.9764 7.99951L17.9751 7.99951L17.9751 11.9995L15.9764 11.9995C13.7667 11.9995 11.9751 13.7909 11.9751 15.9995L11.9751 17.9995L7.97509 17.9995Z" fill="white"/>
<path fill-rule="evenodd" clip-rule="evenodd" d="M17.9751 7.99951L19.9751 7.99951C24.3939 7.99951 27.9751 11.5831 27.9751 16.0008L27.9751 17.9995L23.9751 17.9995L23.9751 16.0008C23.9751 13.7911 22.1837 11.9995 19.9751 11.9995L17.9751 11.9995L17.9751 7.99951Z" fill="white"/>
<rect x="15.9751" y="15.999" width="4" height="4" fill="white"/>
<rect x="27.9751" y="15.999" width="4" height="4" fill="white"/>
<rect x="15.9751" y="3.99902" width="4" height="4" fill="white"/>
<rect x="3.9751" y="15.999" width="4" height="4" fill="white"/>
<rect x="15.9751" y="28.001" width="4" height="4" fill="white"/>
<path d="M47.471 13.9379H49.304V5.40209H52.775V3.90734H44V5.40209H47.471V13.9379Z" fill="#232431"/>
<path d="M62.9895 9.33562V8.82426C62.9895 5.42175 61.2735 3.75 58.446 3.75C55.8135 3.75 53.7465 5.67743 53.7465 8.74559C53.7465 12.0891 55.638 14.0952 58.992 14.0952C60.591 14.0952 61.683 13.7805 62.307 13.5838V11.7744C61.566 12.2071 60.2985 12.5611 59.109 12.5611C57.1005 12.5611 55.8525 11.4007 55.638 9.33562H62.9895ZM58.4265 5.24474C59.928 5.24474 61.0395 6.22813 61.0395 7.95889H55.638C55.872 6.3068 56.9055 5.24474 58.4265 5.24474Z" fill="#232431"/>
<path d="M69.9353 14.0952C71.4758 14.0952 72.4313 13.7019 72.4313 13.7019V12.0891C72.4313 12.0891 71.4953 12.6005 70.1303 12.6005C68.0828 12.6005 66.9128 11.2631 66.9128 8.9226C66.9128 6.58215 68.0828 5.24474 70.1498 5.24474C71.4953 5.24474 72.4313 5.73644 72.4313 5.73644V4.14335C72.4313 4.14335 71.5343 3.75 69.9548 3.75C66.9128 3.75 64.9628 5.83477 64.9628 8.9226C64.9628 12.0104 66.8543 14.0952 69.9353 14.0952Z" fill="#232431"/>
<path d="M77.2352 13.9379H79.0682V5.40209H82.5392V3.90734H73.7642V5.40209H77.2352V13.9379Z" fill="#232431"/>
<path d="M84.4593 13.9379H86.7798L91.3428 6.07079H91.3818V13.9379H93.2148V3.90734H90.8943L86.3313 11.7744H86.2923V3.90734H84.4593V13.9379Z" fill="#232431"/>
<path d="M98.2894 12.6201H98.3674C98.9329 13.3478 100.064 14.0952 101.663 14.0952C104.49 14.0952 106.167 11.6957 106.167 8.84393C106.167 5.93311 104.49 3.75 101.565 3.75C100.785 3.75 99.3034 3.92701 98.2504 5.34308H98.2114V3.90734H96.4564V18.3434H98.2894V12.6201ZM101.234 12.6005C99.4399 12.6005 98.2894 11.1647 98.2894 8.94227C98.2894 6.70015 99.4594 5.24474 101.292 5.24474C103.067 5.24474 104.217 6.64115 104.217 8.78493C104.217 11.1057 103.047 12.6005 101.234 12.6005Z" fill="#232431"/>
<path d="M113.166 14.0952C116.169 14.0952 118.255 11.9908 118.255 8.9226C118.255 5.85444 116.169 3.75 113.166 3.75C110.163 3.75 108.076 5.85444 108.076 8.9226C108.076 11.9908 110.163 14.0952 113.166 14.0952ZM113.166 12.6005C111.45 12.6005 110.026 11.1647 110.026 8.9226C110.026 6.68049 111.45 5.24474 113.166 5.24474C114.862 5.24474 116.305 6.68049 116.305 8.9226C116.305 11.1647 114.882 12.6005 113.166 12.6005Z" fill="#232431"/>
<path d="M128.748 6.54281C128.748 5.04807 127.676 3.90734 124.848 3.90734H120.831V13.9379H125.238C127.871 13.9379 129.138 12.6595 129.138 11.0074C129.138 9.84698 128.495 9.09961 127.247 8.68659V8.64726C128.241 8.23423 128.748 7.5852 128.748 6.54281ZM122.664 12.4431V9.4733H125.238C126.564 9.4733 127.149 10.0633 127.149 10.968C127.149 11.8728 126.564 12.4431 125.238 12.4431H122.664ZM122.664 7.97855V5.40209H124.848C126.174 5.40209 126.759 5.97245 126.759 6.68049C126.759 7.38852 126.174 7.97855 124.848 7.97855H122.664Z" fill="#232431"/>
<path d="M134.05 14.0952C135.298 14.0952 136.702 13.6428 137.54 12.4038H137.579V13.9379H139.451V7.70321C139.451 4.93006 137.852 3.75 135.142 3.75C133.933 3.75 132.568 3.98601 131.573 4.4187V6.14946C132.763 5.50042 133.855 5.28408 134.908 5.28408C136.546 5.28408 137.618 5.91345 137.618 7.34919V7.68354H135.785C132.314 7.68354 130.657 8.90294 130.657 11.086C130.657 12.9545 131.983 14.0952 134.05 14.0952ZM134.498 12.5218C133.328 12.5218 132.607 11.9711 132.607 10.968C132.607 9.88632 133.445 9.09961 135.863 9.09961H137.618V9.72898C137.618 11.2631 136.312 12.5218 134.498 12.5218Z" fill="#232431"/>
<path d="M142.369 13.9379H144.202V9.4733H149.194V13.9379H151.027V3.90734H149.194V7.97855H144.202V3.90734H142.369V13.9379Z" fill="#232431"/>
<path d="M154.271 13.9379H156.591L161.154 6.07079H161.193V13.9379H163.026V3.90734H160.706L156.143 11.7744H156.104V3.90734H154.271V13.9379Z" fill="#232431"/>
<path d="M174.848 9.33562V8.82426C174.848 5.42175 173.132 3.75 170.304 3.75C167.672 3.75 165.605 5.67743 165.605 8.74559C165.605 12.0891 167.496 14.0952 170.85 14.0952C172.449 14.0952 173.541 13.7805 174.165 13.5838V11.7744C173.424 12.2071 172.157 12.5611 170.967 12.5611C168.959 12.5611 167.711 11.4007 167.496 9.33562H174.848ZM170.285 5.24474C171.786 5.24474 172.898 6.22813 172.898 7.95889H167.496C167.73 6.3068 168.764 5.24474 170.285 5.24474Z" fill="#232431"/>
<path d="M51.9234 24.6976C51.9234 23.2029 50.8509 22.0621 48.0234 22.0621H44.0064V32.0927H48.4134C51.0459 32.0927 52.3134 30.8143 52.3134 29.1622C52.3134 28.0018 51.6699 27.2544 50.4219 26.8414V26.802C51.4164 26.389 51.9234 25.74 51.9234 24.6976ZM45.8394 30.5979V27.6281H48.4134C49.7394 27.6281 50.3244 28.2181 50.3244 29.1228C50.3244 30.0275 49.7394 30.5979 48.4134 30.5979H45.8394ZM45.8394 26.1333V23.5569H48.0234C49.3494 23.5569 49.9344 24.1272 49.9344 24.8353C49.9344 25.5433 49.3494 26.1333 48.0234 26.1333H45.8394Z" fill="#232431"/>
<path d="M63.2504 27.4904V26.9791C63.2504 23.5765 61.5344 21.9048 58.7069 21.9048C56.0744 21.9048 54.0074 23.8322 54.0074 26.9004C54.0074 30.2439 55.8989 32.25 59.2529 32.25C60.8519 32.25 61.9439 31.9353 62.5679 31.7386V29.9292C61.8269 30.3619 60.5594 30.7159 59.3699 30.7159C57.3614 30.7159 56.1134 29.5555 55.8989 27.4904H63.2504ZM58.6874 23.3995C60.1889 23.3995 61.3004 24.3829 61.3004 26.1137H55.8989C56.1329 24.4616 57.1664 23.3995 58.6874 23.3995Z" fill="#232431"/>
<path d="M70.4107 32.25C73.3747 32.25 75.4027 30.0866 75.4027 27.0774C75.4027 24.0289 73.5892 21.9048 70.7617 21.9048C69.1042 21.9048 67.7587 22.7308 67.0177 23.9699H66.9202L66.9397 23.4782C67.0372 21.0394 68.0902 19.348 70.6057 18.9153C71.9122 18.699 73.1407 18.8563 74.5252 18.4826V16.8502C72.6532 17.3419 71.6197 16.9682 69.7672 17.4402C66.3937 18.3056 65.2237 21.0787 65.2237 24.6779C65.2237 29.2212 66.5887 32.25 70.4107 32.25ZM70.4107 30.7553C68.5972 30.7553 67.3492 29.1425 67.3492 27.0774C67.3492 25.1106 68.4997 23.3995 70.4107 23.3995C72.3217 23.3995 73.4527 25.1106 73.4527 27.0774C73.4527 29.0835 72.2632 30.7553 70.4107 30.7553Z" fill="#232431"/>
</svg>
