<svg width="246" height="36" viewBox="0 0 246 36" fill="none" xmlns="http://www.w3.org/2000/svg">
<rect width="36" height="36" fill="#2AB7C1"/>
<rect x="18" y="10" width="8" height="4" transform="rotate(180 18 10)" fill="white"/>
<rect x="10" y="10" width="8" height="4" transform="rotate(90 10 10)" fill="white"/>
<rect x="26" y="26.0103" width="8.01031" height="4" transform="rotate(-90 26 26.0103)" fill="white"/>
<rect x="26" y="30.0103" width="8.01031" height="4" transform="rotate(180 26 30.0103)" fill="white"/>
<path d="M18 18H14L10 30H14L18 18Z" fill="white"/>
<path d="M26 6H22L18 18H22L26 6Z" fill="white"/>
<path d="M47.393 22.1559C48.641 22.1559 50.045 21.7074 50.8835 20.4789H50.9225V21.9999H52.7945V15.8184C52.7945 13.0689 51.1955 11.8989 48.485 11.8989C47.276 11.8989 45.911 12.1329 44.9165 12.5619V14.2779C46.106 13.6344 47.198 13.4199 48.251 13.4199C49.889 13.4199 50.9615 14.0439 50.9615 15.4674V15.7989H49.1285C45.6575 15.7989 44 17.0079 44 19.1724C44 21.0249 45.326 22.1559 47.393 22.1559ZM47.8415 20.5959C46.6715 20.5959 45.95 20.0499 45.95 19.0554C45.95 17.9829 46.7885 17.2029 49.2065 17.2029H50.9615V17.8269C50.9615 19.3479 49.655 20.5959 47.8415 20.5959Z" fill="#232431"/>
<path d="M63.629 14.6679C63.629 13.1859 62.5565 12.0549 59.729 12.0549H55.712V21.9999H60.119C62.7515 21.9999 64.019 20.7324 64.019 19.0944C64.019 17.9439 63.3755 17.2029 62.1275 16.7934V16.7544C63.122 16.3449 63.629 15.7014 63.629 14.6679ZM57.545 20.5179V17.5734H60.119C61.445 17.5734 62.03 18.1584 62.03 19.0554C62.03 19.9524 61.445 20.5179 60.119 20.5179H57.545ZM57.545 16.0914V13.5369H59.729C61.055 13.5369 61.64 14.1024 61.64 14.8044C61.64 15.5064 61.055 16.0914 59.729 16.0914H57.545Z" fill="#232431"/>
<path d="M68.9306 22.1559C70.1786 22.1559 71.5826 21.7074 72.4211 20.4789H72.4601V21.9999H74.3321V15.8184C74.3321 13.0689 72.7331 11.8989 70.0226 11.8989C68.8136 11.8989 67.4486 12.1329 66.4541 12.5619V14.2779C67.6436 13.6344 68.7356 13.4199 69.7886 13.4199C71.4266 13.4199 72.4991 14.0439 72.4991 15.4674V15.7989H70.6661C67.1951 15.7989 65.5376 17.0079 65.5376 19.1724C65.5376 21.0249 66.8636 22.1559 68.9306 22.1559ZM69.3791 20.5959C68.2091 20.5959 67.4876 20.0499 67.4876 19.0554C67.4876 17.9829 68.3261 17.2029 70.7441 17.2029H72.4991V17.8269C72.4991 19.3479 71.1926 20.5959 69.3791 20.5959Z" fill="#232431"/>
<path d="M79.0826 20.6934H79.1606C79.7261 21.4149 80.8571 22.1559 82.4561 22.1559C85.2836 22.1559 86.9606 19.7769 86.9606 16.9494C86.9606 14.0634 85.2836 11.8989 82.3586 11.8989C81.5786 11.8989 80.0966 12.0744 79.0436 13.4784H79.0046V12.0549H77.2496V26.3679H79.0826V20.6934ZM82.0271 20.6739C80.2331 20.6739 79.0826 19.2504 79.0826 17.0469C79.0826 14.8239 80.2526 13.3809 82.0856 13.3809C83.8601 13.3809 85.0106 14.7654 85.0106 16.8909C85.0106 19.1919 83.8406 20.6739 82.0271 20.6739Z" fill="#232431"/>
<path d="M89.5324 21.9999H91.8529L96.4159 14.1999H96.4549V21.9999H98.2879V12.0549H95.9674L91.4044 19.8549H91.3654V12.0549H89.5324V21.9999Z" fill="#232431"/>
<path d="M101.529 21.9999H103.85L108.413 14.1999H108.452V21.9999H110.285V12.0549H107.964L103.401 19.8549H103.362V12.0549H101.529V21.9999Z" fill="#232431"/>
</svg>
